<svg id="Layer_1" data-name="Layer 1" xmlns="http://www.w3.org/2000/svg" viewBox="0 0 3119.64 1734.51"><path d="M696.07,2.22c578.32-24.86,839.59,166.07,916.38,224.91,95,72.81,437.36-317.33,768.89-122,247.8,146,356.55-140.6,566.86,110.63,355.67,424.89,59.38,1514.33-14.36,1514.18l-2803.36,1.43-33.42,1.05s-204.81-287.81-19.4-455.86,58-244.88,35.57-309.86C-69.81,436.86,149.73,25.7,696.07,2.22Z" fill="#9bc1f9" opacity="0.3"/><path d="M2163.68,523.57h32.69a17.58,17.58,0,0,1,17.58,17.58v919.12a0,0,0,0,1,0,0H2080.77a0,0,0,0,1,0,0V606.47A82.91,82.91,0,0,1,2163.68,523.57Z" fill="#13375b"/><path d="M2032.05,934V910.4H1995l0,22.87a45.49,45.49,0,0,0,45.48,45.55h76A18.53,18.53,0,0,0,2135,960.29h0a18.53,18.53,0,0,0-18.53-18.53h-76.62A7.8,7.8,0,0,1,2032.05,934Z" fill="#2a426e"/><path d="M1879.67,858.33h267.69a0,0,0,0,1,0,0v21.4a40.59,40.59,0,0,1-40.59,40.59H1922.09a42.42,42.42,0,0,1-42.42-42.42V858.33A0,0,0,0,1,1879.67,858.33Z" fill="#0d2740"/><path d="M2179.9,868.87H1863.21a10.54,10.54,0,0,1-10.54-10.54h0a10.54,10.54,0,0,1,10.54-10.54H2179.9a10.54,10.54,0,0,1,10.54,10.54h0A10.54,10.54,0,0,1,2179.9,868.87Z" fill="#355389"/><path d="M2638.38,505.86l35.39-98.49-39.83,9.18-35.35,98.39a5.74,5.74,0,0,0,.82-.1Z" fill="#d0e1fa"/><polygon points="2657.41 501.48 2667.04 499.26 2702.42 400.77 2692.79 402.99 2657.41 501.48" fill="#d0e1fa"/><polygon points="2080.77 1274.19 2080.77 1408.15 2150.52 1460.27 2163.98 1460.27 2213.95 1434.74 2213.95 1383.4 2133.67 1228.17 2080.77 1274.19" fill="#0d2740"/><polygon points="1781.02 1451.33 2095.3 1698.66 2405.18 1674.49 2340.09 1494.1 2016.51 1278.38 1781.02 1451.33" fill="#13375b"/><path d="M1866.42,1451.33H1781V1167.16L2187.6,1085h0C2213.22,1279.05,2062.18,1451.33,1866.42,1451.33Z" fill="#355389"/><path d="M1376.77,732.45l12.58-10.2-21.1-26-7.36,5.71a37.87,37.87,0,0,0-7.76,51.7l42,59.67,22.62-15.9L1376,738.07A4.15,4.15,0,0,1,1376.77,732.45Z" fill="#13375b"/><path d="M1406.59,881.27l-8.68,37.19C1534.3,1089.56,1722,1216,1722,1216l59-3.72c-43.82-117.83-53.72-124-53.72-124C1562.81,1001.53,1406.59,881.27,1406.59,881.27Z" fill="#13375b"/><path d="M1415.85,793c61.51-6.08,133.89,35.34,221.3,107.86s172.94,174.81,143.19,215.72-74.39,59.51-100.42,35.34-111.58-106-182.25-161.79S1367.5,852.52,1373.08,830.21,1386.15,796,1415.85,793Z" fill="#86b1f2"/><path d="M1345.18,674c39,66.81,55.79,111.57,107.86,91.12s37.19-53.93-29.75-107.86S1302,600,1345.18,674Z" fill="#86b1f2"/><path d="M1834,966.85c-24.18,52.27-38.9,90.23-38.9,90.23l21.31,98.19s31.59,2.89,50.19-16.53c-21.15-37.6-44.22-84.31-44.22-84.31l46.29-102.13Z" fill="#13375b"/><path d="M1818.37,951.76c115.47-38.23,240.27-30.94,272.26.27,2.34,21.06-64.75-5.46-144.32,1.56S1819.15,984,1801.2,977.77,1797.92,958.53,1818.37,951.76Z" fill="#a3c4f5"/><path d="M1786.37,1199c18.14,25.53,10,25.38,18.14,25.53l314-69.12c506.94,83.53,629.35,100.81,629.35,100.81l18.14-11.28c-144.87-56.41-695-139.94-695-139.94Z" fill="#13375b"/><path d="M1781,1130.47c49.38-67.56,213.18-123,378.69-119.56,193.4,25.72,535.58,121.63,567.19,151.78,39,45,39,82.22,39,82.22-230.59-24.18-585.79-117.64-654.59-107.17s-300.58,68.36-317.94,65.88S1770.82,1142.6,1781,1130.47Z" fill="#86b1f2"/><path d="M2458,1728.42H1902.15l34.46-91.51A312.41,312.41,0,0,1,2229,1434.59h0a312.41,312.41,0,0,1,292.37,202.32h0C2538,1681.16,2505.31,1728.42,2458,1728.42Z" fill="#355389"/><circle cx="1924.64" cy="1355.09" r="52.28" fill="#13375b"/><path d="M1702.23,1633.57h335.08a0,0,0,0,1,0,0v94.84a0,0,0,0,1,0,0H1607.39a0,0,0,0,1,0,0v0A94.84,94.84,0,0,1,1702.23,1633.57Z" fill="#355389"/><path d="M2817.56,274.17h-589.8a49.18,49.18,0,0,0-49.18,49.18V666.56h25.36V318a20,20,0,0,1,20-20h593.6a11.9,11.9,0,0,0,11.9-11.9h0A11.9,11.9,0,0,0,2817.56,274.17Z" fill="#13375b"/><rect x="2729.9" y="254.33" width="23.14" height="211.6" transform="translate(1090.02 -1857.55) rotate(45.84)" fill="#13375b"/><path d="M2783.6,488.94l-156.26,36a14.21,14.21,0,0,1-17.05-10.66l-20.71-89.88a14.21,14.21,0,0,1,10.66-17l156.26-36A14.23,14.23,0,0,1,2773.55,382l20.71,89.87A14.22,14.22,0,0,1,2783.6,488.94Z" fill="#355389"/><path d="M2749.19,496.87l-156.26,36a14.21,14.21,0,0,1-17-10.66l-20.71-89.88a14.21,14.21,0,0,1,10.67-17.05l156.25-36a14.23,14.23,0,0,1,17.06,10.67l20.71,89.87A14.24,14.24,0,0,1,2749.19,496.87Z" fill="#86b1f2"/><rect x="2582.31" y="413.46" width="140.1" height="88.03" rx="5.58" transform="translate(-34.99 607.25) rotate(-12.98)" fill="#d0e1fa"/><path d="M2638.38,505.86l35.39-98.49-39.83,9.18-35.35,98.39a5.74,5.74,0,0,0,.82-.1Z" fill="#e8f0fd"/><polygon points="2657.41 501.48 2667.04 499.26 2702.42 400.77 2692.79 402.99 2657.41 501.48" fill="#e8f0fd"/><path d="M1765.32,1026.33c-25.63,55.37-38,97.53-38,97.53s14,38.83,53.72,158.7c27.28,4.13,50.42-30.59,23.15-76s-50.42-92.16-50.42-92.16l39.36-94.34Z" fill="#304b7d"/><path d="M1748.79,1019.44c122.35-40.5,254.57-32.78,288.46.29,2.48,22.31-68.6-5.79-152.91,1.65s-134.73,32.24-153.74,25.62S1727.12,1026.62,1748.79,1019.44Z" fill="#a9c8f6"/><path d="M2253.06,1721.39c8.32-6.13,15-10.18,41.59-23.06,1.74-.84,8-4.86,10.32-6.25,5.77-3.53,11.56-9.09,16.55-14.66,4.76-5.31,7-22.34,8.1-35.91-2.74-30.32-45.41-474.45-45.41-552.42,0-55.16,6.21-154.16,6.21-154.16l22.19-12.59L2377,1145.48l.72,167.79s13.59,50.91,15.5,80.17-26.13,266.84-26.13,266.84h0c0,8.49.34,16.17,1.28,21,1.75,8.88,7.39,24.56,2.92,32.92s-9.08,6.87-9.08,6.87l-105,4.87C2250.9,1726,2248,1725.13,2253.06,1721.39Z" fill="#f79c8d"/><path d="M2451.16,917.7s40.17,60.6,49.73,110.76-21.65,207.79,4,271.06c8.72,21.56,50.74,90.91,56.48,136.89s30.11,177.21,30.11,177.21h0c3,13.93,7.76,31.16,13.9,39.17,3.76,4.9,10.63,11.1,15.14,20,3.67,14.27,4.81,28.92-1.11,39.86-1.45,2.69-2.94,6.84-9,8.71-17.92,5.55-32.61.46-40.24-16.74-1.29-2.93-4.52-5-5.65-8.57a115.89,115.89,0,0,1-5.27-29.53,180.34,180.34,0,0,0-6.33-40.77h0l-128.4-315-93-271.83-23.82-140Z" fill="#f79c8d"/><path d="M2564.47,1696c27.8,5.08,46.29-11.22,55.91-23.42,7.06,13.82,10.51,34.44,5.31,45.79-4.57,10-18,9.71-28.48,10.11-11.13.41-19.74-5.79-25.27-15.5A93.2,93.2,0,0,1,2564.47,1696Z" fill="#86b1f2"/><path d="M2305,1692.07c30.6,7.86,52.66,2.52,65.32-2.6,1.47,1.5,8.61,22.8,6.31,29.51-2.8,8.2-8.25,10.17-11.78,10.26-27.95.74-100.66,0-122,.28-3,0-5.35-3.72-3.44-6C2244.71,1717.18,2302.7,1693.46,2305,1692.07Z" fill="#86b1f2"/><path d="M2327.14,655l-46.76-49.33s-50.06,27.52-108.41,53.83c-16-27.92-42.22-119.77-43.63-124.15s-37.71-7.93-33.7,18.09,15,165.08,43.35,176.25C2162.74,739.43,2327.14,655,2327.14,655Z" fill="#f7a491"/><path d="M2074.27,490.42c4.57-7.18,12.82-8.31,16.32-11.1,8.31-6.6,12.37-3.46,13.71-5.22,2.39-3.15-16.74-36.84-8.2-44.15,4.57-3.9,30.11,54.86,34.52,72.54,2,8-3.69,28.46-2.28,32.85.23.72,1.13,3.81,2.55,8.59-11.4,1-26.59,3.06-36.69,6.92-3.61-18.66-9.52-22.27-16.66-35.19C2069.49,501.08,2072.68,492.92,2074.27,490.42Z" fill="#f7a491"/><path d="M2289.84,469.68c5.81-27.43,11.8-54.95,39-74.7,22.05-16,45.75-20.55,70.87-11.44,71.18,25.81,32.89,82.3,121.22,142.51,27.45,18.71,37.87,25.23,57.57,50.16,27.57,34.89,42.64,81.72,28.78,120.26-28.66,79.71-117.47,102.74-163.93,85.84-86.47-31.46-158.51-141.12-163.3-171C2275,579.23,2286.1,487.33,2289.84,469.68Z" fill="#b75742"/><path d="M2276,686c-20.93,9.67-58.83,24.19-58.83,24.19L2195.64,642c121.88-69.33,112.31-58.14,203.79-56.78,73.08,1,103.71-12.91,166.64,157,0,0-47.91,21.53-65.06,28.43-7.38-21-20.71-62.88-28.48-39a694.14,694.14,0,0,0-26.12,110c-1.94,11.79-4.71,28.8-3.95,48.76,13,20,57.45,90.5,65.92,133.19,9.95,50.15,1.25,211.6,20.38,277.32,0,0-131.57,16.94-254.6,7.65-4.73-223,5.34-353.48,11.58-410.45,1.16-59.42,2.19-137.08-.25-141.12-4.41-7.28-23-30.8-7.19-66C2281.1,684.72,2280.35,684,2276,686Z" fill="#fff"/><path d="M2367.52,959.52c-.86.12-4.74-.39-7.92-.31a61.22,61.22,0,0,0-8.23.74,23.26,23.26,0,0,0-5-3c-1.37-.63-3.61-.87-5.14-1.57s-2.9-2.08-4.39-2.75c-3.88-1.68-7.45-2.08-8.62,0-1,1.69,20.62,14.9,20.62,14.9,20,.12,40.93,10.31,87.28-19.92,26.46-11.56,155-75,157.57-88.88,1.45-7.76-18.27-67.87-34.38-113.51-12.43,5.57-38.86,17.33-53.64,23.53,13.57,28.74,29.57,66.85,27.88,71.51-.43,1.22-2,3.41-88.92,60.3-2.2,1.42-4.44,2.91-6.71,4.4-6.12,4-12.66,8.27-19.6,12.78l-24.78-2.59s-39.25,2.71-40.43,7.17c-.51,2,2.75,3.06,6.75,3.65h.12l1.76.24h.08c4.31.51,8.86.59,10,1a25.81,25.81,0,0,1,5.92,2.9c-24.47,10-22.59,6.43-30.7,5.92-2-.16-4.2.43-6.12.27-3.29-.27-5.92-2.23-8.47-2.39a11.07,11.07,0,0,0-7.41,2.24c-.86.86.75,2.11,3.88,3.52,18.9,8.2,34.55,5.06,39.57,6.28,3.37.82-2.79,2.08-12.39,1.06-2.4-.24-5.53.62-8.71-.12-2.12-.47-4-1.84-6.12-2.35-1.92-.47-3.88-.44-5.48-.75-2.12-.39-5.06-2-6.75-2.19-6.27-.71-9.33.39-10,1-1.45,1.29,27.06,12.23,27.06,12.23s19.64,2.82,24,2.82C2370,957.56,2372.66,958.74,2367.52,959.52Z" fill="#f7a491"/><path d="M2397.05,712.43l34.12,2.62a16.11,16.11,0,0,0,17.31-14.83h0a16.13,16.13,0,0,0-14.84-17.32l-34.12-2.63a16.12,16.12,0,0,0-17.31,14.84h0A16.13,16.13,0,0,0,2397.05,712.43Z" fill="#24b390"/><path d="M2390.43,518s5.58,45,8.86,60.63c3.44,16.34,8.61,67.82-25.29,76.18s-23.42-56-24-72.63-10.17-74.58-10.17-74.58Z" fill="#f7a491"/><path d="M2392.28,532.31c-.35.21-.67.43-1,.63-18.74,10.74-35.05,9-47.28.69-2.19-14.39-4.13-26.08-4.13-26.08l50.58,10.4S2391.17,524,2392.28,532.31Z" fill="#f47458"/><path d="M2380.24,400.77a58,58,0,0,1,31.32,25.31c11.45,19.73,17.17,76.38-25,100.55s-72.09-14.56-70.81-50.79S2327.12,391.68,2380.24,400.77Z" fill="#f7a491"/><path d="M2306.43,460.29c-.46,9.42,3.56,17.28,9,17.55s10.23-7.13,10.7-16.55-3.56-17.28-9-17.55S2306.9,450.87,2306.43,460.29Z" fill="#f7a491"/><path d="M2374.27,399.28s22.73,59.25,45,65.57,20.47,35.46,20.47,35.46,2.85-67.37-17.47-83.89S2374.27,399.28,2374.27,399.28Z" fill="#b75742"/><path d="M2405.07,472.15l-4.65,1.05c-25.09,5.64-76.94-10.06-76.94-10.06s2.41,28.83-3.6,38.26c0,0,7.41,25.57,31.08,32.6s56.94-22.56,56.94-22.56S2398.38,489.65,2405.07,472.15Z" fill="#fff"/><path d="M2406.15,512.39c11.9-4.32,25.4-51.15,13.93-49.58-3.83.52-8.71,3.53-14.51,8.92-2.33,2.18-4.22,4.2-5.38,5.5-2.46,2.74-2.46,3-2.46,3.46h2.58a1.07,1.07,0,0,1-.16.59c1-1.6,12.8-14.9,20.28-15.92.22,0,.76-.11,1.15,1.48,2.16,8.72-7.47,39.92-16.31,43.13Z" fill="#fff"/><path d="M2319.84,443.5l6,21.44-2.06,1.8-6.61-23A5.69,5.69,0,0,1,2319.84,443.5Z" fill="#fff"/><path d="M2409.71,476.44c-3.44,9.26-1.19,18.67,5,21s14-3.28,17.45-12.54,1.18-18.67-5-21S2413.14,467.18,2409.71,476.44Z" fill="#f7a491"/><path d="M535.77,997s-63.14-8.44-86.17,3.57S414,1155.47,414,1155.47l20.45,6.26s-2.91,98.94,12.72,105.81,125.45-14.45,150.49-39.67-22.1-236.12-22.1-236.12Z" fill="#b75742"/><path d="M1179.36,1606.56s4.7,51.7,1.61,68.56a63.39,63.39,0,0,1-2.39,8.27c-3.18,9.46,5.54,38.32,5.54,38.32l117,.44c6.37,0,2.11-4.05-3.07-7.78-8.49-6.11-15.32-10.13-42.34-22.86-1.76-.83-8.19-4.83-10.51-6.21-5.87-3.5-11.8-9.07-16.91-14.65-8.51-9.29-9.81-54.86-9.81-54.86Z" fill="#f7a491"/><path d="M1245.17,1685.29c-30.83,8.36-53.77,3.23-66.62-1.8-3.18,9.44-11,41.89-4.49,44.63,10.24,4.3,53,2.32,137.1,1,3,0,2.65-10.45.68-12.75C1306.42,1710,1247.49,1686.68,1245.17,1685.29Z" fill="#fae0b2"/><path d="M1032.65,992.75s1.66,73.81,22.66,121.07c20.45,46,118.34,159.58,144.36,225.85-8,37.37-30.15,89.91-28.55,131.34,1.81,47-.9,171.17-.9,171.17l52.53,1.68,68.91-320.57L1187.82,977.4l-47.13-84Z" fill="#b75742"/><path d="M920.77,1541s-23.65,49.8-35.58,63.5c-6.39,7.34-25.26,19.12-25.59,29.34s109.89,79.47,109.89,79.47c5.81,3.52,4.11-2.53,1.4-8.78-4.45-10.24-8.52-17.66-26.32-44.09-1.16-1.73-4.87-8.9-6.24-11.43-3.47-6.43-5.88-14.76-7.53-22.65-2.75-13.16,20.7-55.49,20.7-55.49Z" fill="#f7a491"/><path d="M938.32,1649c-32.67-9.27-50.84-26.54-59.86-38.17-8,6.87-30.09,22.47-27.39,25.17,21.15,21.24,44,48.29,121.5,93.16,2.77,1.6,10.41-12.07,9.86-15.25C980.91,1705.16,939.69,1651.56,938.32,1649Z" fill="#fae0b2"/><path d="M393.61,1120.6c-14.72,8.12-50.39,41-62.48,52.22-.23,1.41-1.94,9.54-11.72,19.27-6.9,6.87-13,23.31-16.79,18.21s7.57-17.64,2.87-18.11-30.18,24.14-33.6,19.51,22.19-26.25,18-26.67-25.36,21.88-30.19,15.34S287,1176.47,284.4,1173s-22.57,8-26.46,2.71,28-14.37,25.55-14.61-20.4-1.2-20.26-4.67c.16-3.94,46-6.41,52.14-12.75h0c13.37-18.08,37.23-51.15,59.82-64.68,27.64-16.57,91.24-51.3,91.24-51.3l26.95,41.49S411.06,1111,393.61,1120.6Z" fill="#f7a491"/><path d="M1032,939.93s-28.8,67.89-29.09,119.67c-.29,50.43,42.21,194.59,38.68,265.76-22.68,30.68-64.38,69.3-79.94,107.68-17.63,43.5-71.12,155.46-71.12,155.46l47.14,23.42,194.4-263.14,41.15-310.26,8-102.77Z" fill="#a34b3d"/><path d="M378,1621s-21.37,19.77-21.42,19.8c-3,2.24-11,7.12-13.35,9.54-8.76,9.07,47.36,31.68,42.29,18.83-.45-1.16-1.32-11.39,1.4-14.74,4.18-5.16,11.7-12.51,11.7-12.51Z" fill="#f7a491"/><path d="M385.53,1669s-12.06-6.47-17.53-10.51-6.16-16.13-11.08-17.9c-5.41-1.95-28.17,21.49-28.17,21.49s44.47,48.68,67.74,64.9c5,3.49,11.09,2.38,13.24,2.42C418,1729.54,398.45,1694.37,385.53,1669Z" fill="#86b1f2"/><path d="M680.69,1658.19s6.64,32.36,6.65,32.43c.41,4.23.47,14.92,1.44,18.6,3.65,13.82,57.75-28.15,42.49-30.6-1.38-.22-8.24-3-10.6-7.26-4.11-7.42-8-21.32-8-21.32Z" fill="#f7a491"/><path d="M731.09,1678.53s-13.17,8.09-20.21,11.12-19.91-5.39-24.45-1.59c-5,4.19,3.14,41.25,3.14,41.25s92.54-24.71,112.23-37.54C809.6,1686.69,762.89,1680.5,731.09,1678.53Z" fill="#86b1f2"/><path d="M630.17,1208.61l57.35,230.9,36.25,223.59-45.14,6.13S593,1445.49,591.18,1425.81s-115.06-132.07-115.06-132.07Z" fill="#327765"/><path d="M477.39,1207.57s-15.43,188-19,208.52-88.21,201.77-88.21,201.77l32.35,35.41S540,1492.73,546.09,1478.57c9.49-22.2,72.69-321.68,72.69-321.68Z" fill="#3c8f7c"/><path d="M739.42,1074.2c17.06,6,68.91,11.11,86.52,12.79,1.29-.83,9-5.31,23.76-4.42,10.43.62,27.91-6.29,26.57.43s-19.48,6.59-16.46,10.73,40.92,7,39.71,13-36.86,1-34.16,4.71,35.67,4.7,33.95,13.31-38.68-4.82-39.6-.2,22.59,12.47,21.21,19.39-31.62-12.26-30-10.09,13.75,17.32,10.88,19.71c-3.24,2.71-38.25-32.53-47.69-32.88h0c-24,2.24-67.48,6.8-94.51-1.67-33.07-10.37-106.5-36.65-106.5-36.65l13.58-51.63S719.19,1067.05,739.42,1074.2Z" fill="#f7a491"/><path d="M852.64,1099.25a20.43,20.43,0,0,1-5.06,6.41c-.41.19-6.65,6.51-16.48,4.6C837.17,1109.27,843.91,1108.16,852.64,1099.25Z" fill="#f48c7f"/><path d="M687.32,1050.38s-2.45,11.62-46.71,50.39L548.15,1052l43-56.11Z" fill="#86b1f2"/><path d="M551.24,1004.58s30.8-3.5,41.9-7.56S693,1296.19,667.56,1301.7c-53.19,11.5-210,13.47-210,13.47s.32-46.36,7.77-70.24c12.9-41.36,20.2-136,20.2-152.69,0-9.81-50.4,24.17-50.4,24.17L414,1039.53s64.35-26,86.9-30.71C507.15,1007.51,551.24,1004.58,551.24,1004.58Z" fill="#86b1f2"/><path d="M647.2,1159.94c-8.09-39.5-77-158-77.61-159.15l14.14-7.63c2.48,4.66,58.25,104.87,66.82,146.65Z" fill="#b75742"/><path d="M464.72,1211.85l-7.22-11.58c.62-.39,61.58-39.59,68.46-89.6,6.95-50.55-28.42-103.65-28.78-104.18l11.21-7.7c1.59,2.34,38.69,57.92,31,113.75C531.66,1168.9,467.45,1210.12,464.72,1211.85Z" fill="#b75742"/><path d="M552.1,842.77s24.37-8.9,40.12,16,7.24,22.51,14.9,35,27.67,9.86,27.67,29.16-8.94,22.3-8.94,22.3,8.09,15-.85,30.44-31.23,28.73-49.89,26.59c0,0-28,15.47-56.11,8.16s-18.31-7.3-29.8-7.3-42.57-15.87-37.47-39c0,0-18.93-22.65-.56-41.16s21.85-37.31,32.49-62.18S539.32,836.77,552.1,842.77Z" fill="#0e2e35"/><path d="M568.38,975.16s-1,34.15,2.16,37.36,7.63,8.53,3,16.67-25,3-34.48-1.71c-9.1-4.48-15-12.81-15-12.81l4.74-54.08Z" fill="#f7a491"/><path d="M554.86,989.31c-6.52-2.3-17.93-6.74-26.74-21.15l.67-7.57,39.59,14.57s-.25,8.34-.12,17.15A45.17,45.17,0,0,1,554.86,989.31Z" fill="#f47458"/><path d="M521.81,922s-1-20.08-13.2-16.18S505.7,940,515.85,939,521.81,922,521.81,922Z" fill="#f7a491"/><path d="M560.29,856.38s19.16-.42,29,14.59,20.43,57.88,4.26,87.47-36.83,22.3-45.34,19.3-25.33-9.65-33.85-37.31S512,850.59,560.29,856.38Z" fill="#f7a491"/><path d="M587.71,954.2l-24.38.44s.44-9.48,11.15-10C587.54,944,587.71,954.2,587.71,954.2Z" fill="#fff"/><path d="M1157.37,849.06c-1.59-8.27-25.8-162.13-25.8-162.13l69.57,27.46,15.25,119c1.92,6.13,31.37,151.79,42.14,198.94a28.88,28.88,0,0,0,18,20.53l.14.06c6,2.33,17.5,8.52,19.79,10.68,2.66,2.51,8,7.85,11.12,11.1s7,7,8.45,8.88c.89,1.17,3.72,2.84,5.8,4a3.9,3.9,0,0,1-.88,7.2c-3.21.8-7.45-1.34-10.08-2.69-7.43-3.8-16.33-13.7-16.86-12.54s8.18,22,9,24.49,10.82,26.78,11.2,32.14-2.86,6.49-5.18,4.46c-2-1.74-18.26-34.32-18.26-34.32s-2.08-4.15-3-1.84,13.77,31.91,15.15,36.74,0,8.7-4.31,6.88c-5.28-2.21-19-34.78-19-34.78s-1.8-4-3.15-2.7,11.57,26.33,11.63,29.16-2.56,5.54-6.19,3c-4.26-2.92-16.3-32.1-16.3-32.1s-1.53-2-2.08-.63,9,23.41,8.11,26.56a2.55,2.55,0,0,1-3.1,2c-5.34-.19-11.63-23-17.66-32.42S1159.12,858.22,1157.37,849.06Z" fill="#f8a492"/><path d="M1186.53,536.12c1.4-34.22-3.58-68-18.71-99.86-13-27.41-45.24-43-74.62-43-93.29-.12-105.15,124.57-164.54,172.66-18.15,14.7-38.43,26.67-55.6,42.52C809.66,667,838.22,775.29,896.44,826.6c40.39,35.6,103.89,55.83,153.68,28,26-14.53,45.73-38.68,59.78-65.14,19.95-37.55,32.81-80.89,47-120.91C1172,626,1184.66,581.6,1186.53,536.12Z" fill="#0e2e35"/><path d="M891.37,1052.74c-.18-.78,30.82-133.37,43.35-162.69S996,724.56,996,724.56l-63-13.87s-40.64,106.56-59.18,154.74-10.61,137-11.44,162.07c0,.36-2.72,21.2-2.73,21.55h0a40.61,40.61,0,0,1-1.49,5.54c-.75,1.22-2.91,9.63-3,10.36s-1.95,3.57-2.7,4.79-2.46,18.26-2.83,21,.84,9,.84,9l-.67,11.42c-.48,8.39,8.14,6.17,8.14,6.17-.2,4,1.17,6,3.38,6.77s4.82.11,5.23.28.58,1.4.58,1.4c-.23,2.51,2.59,4.45,4.41,4.81a8.21,8.21,0,0,0,6-2c.92-1.09,1.56-.93,1.56-.93,1.83,1.58,8.87,1.51,10.5-.78s3.11-14.33,3.84-15.41,2.3-2.93,2.53-4.66,6-14.08,6.34-16.55-3.24-10.77-4-15.75-5.61-12.72-6.77-14.94c-.46-.87-.33-3.71,0-6.85Z" fill="#f48c7f"/><path d="M1201.77,701.81c-29.14-89-61.73-85.25-61.73-85.25l25.2,187.19c18-5,41.42-16,59.4-21.1C1218.68,754.51,1208.94,723.73,1201.77,701.81Z" fill="#fae0b2"/><path d="M1065.47,600.58s-53.69-3.45-74.93,19.92,47.11,208.26,51,238-19.68,108.84-19.68,108.84S1148,993,1184,968.88c0,0,3.87-213.9,0-235.15s-36-107.65-43.77-116.15S1065.47,600.58,1065.47,600.58Z" fill="#fae0b2"/><path d="M1083.34,528.16s-.28,1.59-.78,4.31c-2.39,13-11.61,56.26-17.84,68.14-7.52,14.36,25.77,60.17,57.81,54.58,9.54-1.67-8.06-42.09-7.22-46.37,1.62-8.2,3.82-19.38,6.06-30.84,1.27-6.47,2.55-13,3.76-19.19,3.43-17.52,6.22-31.84,6.22-31.84Z" fill="#f7a491"/><path d="M1082.56,532.47c.5-2.72.78-4.31.78-4.31l48-1.21s-2.79,14.32-6.22,31.84c-1.2,6.13-2.47,12.65-3.74,19.08-7.41-1.1-15.15-4.74-22.92-11.6a61.27,61.27,0,0,1-17.37-26.07C1081.7,537.13,1082.19,534.49,1082.56,532.47Z" fill="#f47458"/><path d="M1115.65,418s-22.63-2.64-36.81,15.88-29.48,75.8,5.76,106.95,70.06-4.11,75.22-41.49S1167,416.63,1115.65,418Z" fill="#f7a491"/><path d="M1170.24,498.77C1166,507,1159,511.6,1154.48,509s-4.75-11.43-.54-19.68,11.27-12.83,15.77-10.22S1174.45,490.52,1170.24,498.77Z" fill="#f7a491"/><path d="M1118.18,411.86s-30.23,54.47-51.86,57-24.47,31.46-24.47,31.46,7.74-66.69,29.15-79.55S1118.18,411.86,1118.18,411.86Z" fill="#0e2e35"/><path d="M1072,482.53c1.76,9.67-1.77,18.54-7.9,19.81s-12.51-5.54-14.27-15.21,1.78-18.55,7.9-19.82S1070.24,472.85,1072,482.53Z" fill="#f7a491"/><path d="M966.36,804.17s69.6-83.88,82.17-114.92-6.24-77.54-35.59-81.18-102.81,134-102.81,134Z" fill="#fae0b2"/><path d="M567.47,851s-26.77,57-56.05,54-5.59-42.8-5.59-42.8S539,849.42,540.6,849.42,567.47,851,567.47,851Z" fill="#0e2e35"/><rect x="10.45" y="1728.12" width="2993.01" height="6.39" rx="3.04" fill="#f47458"/></svg>