<svg xmlns="http://www.w3.org/2000/svg" viewBox="0 0 650 500"><g id="BACKGROUND"><rect width="650" height="500" fill="#d4f2ff"/></g><g id="OBJECTS"><path d="M566.79,207.7c-.62,27-9.69,53.55-24.92,75.76a146,146,0,0,1-62.07,50.89A161.89,161.89,0,0,1,398.94,347c-30.06-3-58.72-13.28-88.15-19.5-14.65-3.1-29.62-5.21-44.63-4.61-15.85.63-30.6,5.05-45.33,10.64-14,5.32-28.12,11-43.21,12.31-13.33,1.15-27.07-1.33-37.68-9.91-9.66-7.82-15.68-19.29-19.32-31-4.2-13.46-5.67-27.86-5.26-41.92.87-29.33,10.42-58,25.78-82.93,2.74-4.45,5.67-8.77,8.75-13a208.65,208.65,0,0,1,34.25-42.5c19.55-18.72,42.37-33.86,66.74-45.56A312.1,312.1,0,0,1,331,53.31c29.21-5.22,59.36-6.22,88.7-1.38C447.18,56.47,473.94,66.25,497,82.1a169.75,169.75,0,0,1,50.65,54.07C560.23,157.82,567.37,182.58,566.79,207.7Z" fill="#c3e8f4"/><ellipse cx="195.85" cy="432.29" rx="107.42" ry="27.46" fill="#bae8f7"/><ellipse cx="384.15" cy="458.54" rx="212.8" ry="26.25" fill="#bae8f7"/><path d="M138.22,276.2l-4,23.42-.6-.1c-.6-4.35-4.94-7.22-9.17-8.45s-8.76-1.49-12.68-3.5-7-6.75-5.17-10.75c.73-1.61,2.19-2.95,2.32-4.71.13-1.92-1.43-3.61-3.22-4.31a18.24,18.24,0,0,0-5.66-.81,12.56,12.56,0,0,1-6.93-2.09c-1.94-1.5-3-4.31-1.91-6.49.91-1.76,3.06-2.82,3.45-4.76.55-2.67-2.51-4.62-5.16-5.26-2.3-.55-4.7-.75-7-1.39a10.23,10.23,0,0,1-5.89-3.73c-1.34-2-1.47-4.87.17-6.59,1.05-1.07,2.57-1.52,3.69-2.53,2.41-2.17,2-6.25.09-8.88s-4.86-4.25-7.55-6.07S67.69,215,67,211.87c-1-4.5,2.66-9.12,7.12-10.28s9.26.49,13,3.17,6.66,6.35,9.71,9.8a8,8,0,0,0,3.87,2.84c1.51.34,3.07-.21,4.61-.07,3,.27,5.16,3.08,6,6s.75,5.93,1.28,8.87,2,6,4.7,7.23c1.72.75,3.71.66,5.38,1.49,3.6,1.79,4,6.69,3.79,10.7s-.32,8.79,2.93,11.15c2.1,1.52,5,1.54,7,3.2C139.19,268.27,138.82,272.6,138.22,276.2Z" fill="#a2dcea"/><path d="M498.28,295.6c-1.29,3.36-3.79,6.1-6.41,8.56-7,6.59-15.29,11.7-23.54,16.69l-13.56-49a12.91,12.91,0,0,1-.68-5.95c.4-2,2.06-3.86,4.08-3.78a18.92,18.92,0,0,1,2.63.62c3.93.78,7.37-3.32,7.75-7.3s-1.25-7.85-2.25-11.73a19.5,19.5,0,0,1-.34-10.19c.94-3.31,3.44-6.33,6.79-7.14,2.14-.52,4.47-.14,6.51-1,3.34-1.33,4.68-5.25,5.64-8.72q2.66-9.62,5.3-19.23a11.56,11.56,0,0,1,1.95-4.46,3.92,3.92,0,0,1,4.36-1.36c1.22.54,1.92,1.85,3,2.57,1.83,1.16,4.35.44,6-1a20.14,20.14,0,0,0,3.61-5.35,40.39,40.39,0,0,1,20.21-17.61,19.86,19.86,0,0,1,8.84-1.65,10,10,0,0,1,7.64,4.26c1.78,2.84,1.54,6.61.12,9.65a24.33,24.33,0,0,1-6.39,7.69,19.92,19.92,0,0,0-4.75,5.08c-1.12,2-1.3,4.82.25,6.56,1.05,1.18,2.67,1.67,4,2.6,4.38,3.2,3.21,10.43-.56,14.33s-9.16,5.64-13.88,8.32-9.22,7.22-8.77,12.63c.2,2.45,1.43,4.73,1.74,7.17.72,5.59-3.44,10.71-8.17,13.77s-10.24,4.82-14.78,8.15c-3.06,2.25-5.81,6.07-4.44,9.61,1.2,3.1,4.91,4.35,7,6.91C499.44,288.15,499.57,292.25,498.28,295.6Z" fill="#a2dcea"/><path d="M606.48,257c-.37,3.06-3.43,4.94-6.17,6.36q-7.6,4-15.23,7.93c-2.29,1.2-4.94,3-4.67,5.58.22,2.14,2.38,3.46,3.53,5.27,2.36,3.71-.06,8.89-3.77,11.27s-8.26,2.84-12.56,3.78a21.31,21.31,0,0,0-8.67,3.63c-2.48,1.94-4.29,5-4.06,8.14.1,1.51.66,3,.73,4.49a9.15,9.15,0,0,1-4,7.39,20.85,20.85,0,0,1-8,3.23c-3.63.8-7.41,1.29-10.68,3.06s-6,5.24-5.5,8.92c.27,2,1.46,3.95,1.23,6-.43,3.79-5.08,5.24-8.84,5.82l-26.05,4a76.7,76.7,0,0,0,1.77-35c-.54-2.94-1.25-6-.52-8.88s3.46-5.56,6.4-5c2.5.47,4.32,3.05,6.87,3.15,3.33.14,5.13-3.77,6-7q3-10.69,6-21.39c.79-2.79,1.63-5.69,3.57-7.85s5.31-3.34,7.81-1.87c1.92,1.11,3,3.5,5.12,4.13,2.67.79,5.13-1.61,6.89-3.78q6.36-7.81,12.71-15.65c1.45-1.79,3-3.64,5.11-4.55s5-.52,6.14,1.46.34,4.79,1.89,6.46a4.12,4.12,0,0,0,4.53.65,17.68,17.68,0,0,0,4-2.72,25.59,25.59,0,0,1,20.63-4.65C602.66,250.26,607,253.06,606.48,257Z" fill="#a2dcea"/><path d="M121.32,320.58a147,147,0,0,0,4.57,27.81c-4.18-2-9.22-2.05-13.92-2.59-5.42-.61-11.48-2.65-13.47-7.72-1.31-3.34-.54-7.35-2.43-10.39-2-3.28-6.38-4.17-10.23-4.42s-8.06-.31-11.07-2.74-4-6.93-4.43-11-.69-8.34-3.14-11.55c-2.19-2.86-5.74-4.32-9.24-5.19s-7.12-1.3-10.44-2.68-6.43-4-7.17-7.5c-.84-4,1.58-8,4.67-10.73a22.61,22.61,0,0,1,27.1-1.27c2.92,2.09,5.62,5,9.2,5.28,4,.29,7.73-2.9,11.66-2.19,3,.54,5.11,3.21,6.14,6s1.19,5.88,1.8,8.82,1.77,6,4.21,7.73c2.26,1.62,5.21,1.89,7.7,3.13,3.57,1.78,5.87,5.46,7,9.28S121.06,316.61,121.32,320.58Z" fill="#a2dcea"/><path d="M528.76,188.71c-13.36,9.32-23.88,22-31.89,36.14-8.2,14.47-13.93,30.24-18.31,46.25-5,18.29-8.31,37-12.49,55.47-4.25,18.78-9.39,37.56-17.91,54.91-7.39,15-17.71,29.39-32.22,38.23q-2.65,1.6-5.45,3c-.58.27-.07,1.14.5.86,15.07-7.24,26.31-20.36,34.42-34.7,9.23-16.29,14.92-34.4,19.39-52.5,4.64-18.81,8-37.92,12.6-56.74,4-16.32,9.19-32.47,16.75-47.51,7.38-14.68,17.16-28.33,30-38.69q2.49-2,5.09-3.81C529.79,189.2,529.29,188.34,528.76,188.71Z" fill="#d4f2ff"/><path d="M577.25,262.67c-13.68,4.78-25.83,13.07-36.3,23-10.9,10.33-20,22.34-28.27,34.84-9.38,14.19-17.77,29-27.19,43.17-8.54,12.84-18,25.14-29.45,35.53-10.57,9.59-22.81,17.54-36.5,21.84-1.73.55-3.49,1-5.26,1.45-.62.15-.48,1.14.14,1C428.32,420.16,441,413.08,452,404c11.54-9.49,21.24-21,29.81-33.16,9.82-14,18.3-28.8,27.45-43.2,8.29-13.05,17.21-25.76,28-36.91,10.13-10.47,21.93-19.57,35.43-25.26q2.48-1,5-1.92C578.25,263.38,577.86,262.46,577.25,262.67Z" fill="#d4f2ff"/><path d="M151.67,369.09q-4.41-21.72-9.78-43.22c-3.54-14.19-7.28-28.36-11.61-42.32-4-13.05-8.89-26-15.94-37.74-6.24-10.41-14.21-19.92-24.12-27-1.25-.89-2.52-1.74-3.83-2.55-.54-.34-1,.52-.5.86,10.48,6.53,19,15.77,25.65,26.09,7.36,11.41,12.45,24.09,16.62,37,4.42,13.67,8.1,27.61,11.65,41.53q5.41,21.29,9.89,42.8t8,43q.45,2.73.88,5.47c.1.63,1.06.36,1-.27Q156.07,390.82,151.67,369.09Z" fill="#d4f2ff"/><path d="M147.79,405.69a236.3,236.3,0,0,0-7.6-25.81,241.19,241.19,0,0,0-10.42-24.72,240.1,240.1,0,0,0-13.08-23.4,241.06,241.06,0,0,0-15.6-21.83,235.31,235.31,0,0,0-18-20l-2.36-2.31c-.47-.44-1.17.26-.71.71A238.51,238.51,0,0,1,98.24,308,240.19,240.19,0,0,1,114,329.48a244.53,244.53,0,0,1,13.4,23.23,240.57,240.57,0,0,1,10.73,24.53,237.14,237.14,0,0,1,7.88,25.51q.4,1.61.78,3.21C147,406.59,147.94,406.32,147.79,405.69Z" fill="#d4f2ff"/><circle cx="114.18" cy="67.28" r="32.6" fill="#fff"/><path d="M114.18,100.66a33.38,33.38,0,1,1,33.38-33.38A33.41,33.41,0,0,1,114.18,100.66Zm0-65.21A31.83,31.83,0,1,0,146,67.28,31.86,31.86,0,0,0,114.18,35.45Z" fill="#0f9fb7"/><rect x="112.3" y="40.72" width="1.58" height="29.41" rx="0.7" fill="#4d5566"/><rect x="104.88" y="43.92" width="0.83" height="28.35" rx="0.36" transform="translate(-14.73 65.58) rotate(-32.45)" fill="#0f9fb7"/><rect x="112.3" y="67.41" width="21.26" height="3.77" rx="1.65" fill="#4d5566"/><rect x="265.15" y="36.07" width="63.7" height="90.15" fill="#0f9fb7"/><path d="M317.88,81.82a34.15,34.15,0,0,0,5.87-14.07c1.16-7.71-1.37-16.23-8.31-20.5-3.46-2.13-7.92-2.76-11.38-.44A13,13,0,0,0,290,46.54a10.78,10.78,0,0,0-8.63-.81A16,16,0,0,0,272.88,53c-3.43,5.86-3.58,12.88-1.65,19.23,0,.1,0,.22.08.34a2,2,0,0,0,.07.23s0,.08,0,.12l.06.22s0,.08,0,.11a1.42,1.42,0,0,0,.05.16c.06.21.12.41.19.61l.09.25c1.85,5.22,5.75,9.79,7.19,15,0,0,0,0,0,0s.06.34.15.78c.2,1,.51,2.53.52,2.55,0,5.7-1.77,11.53-.14,17,.63,2.09,2.36,4.39,4.72,3.3a3.64,3.64,0,0,0,1.86-2.19c1-3.22,1.53-6.61,2.67-9.78,0,0,0,0,0,0a1.14,1.14,0,0,1,2.16.26l3.09,15.83a3.1,3.1,0,0,0,6,0s1.87-11.78,2.51-15.79a1.13,1.13,0,0,1,2.14-.29s0,0,0,0c1,2.65,1.47,5.46,2.21,8.18.52,2,1.61,4.28,3.84,4a3.34,3.34,0,0,0,2.63-2c2.6-6,.29-12.5.43-18.86,0,0,.56-3,.56-3A35.29,35.29,0,0,1,317.88,81.82Z" fill="#73d7ff"/><rect x="335.76" y="36.33" width="63.7" height="90.15" fill="#73d7ff"/><path d="M367.68,120.86a3.49,3.49,0,0,1-3.43-2.58l-3.1-15.87a.69.69,0,0,0-.64-.55.58.58,0,0,0-.59.3l-.05.11a51.33,51.33,0,0,0-1.52,5.46c-.35,1.41-.7,2.87-1.13,4.28a4.06,4.06,0,0,1-2.1,2.47,3.05,3.05,0,0,1-2.62.06,5.69,5.69,0,0,1-2.76-3.64c-1.09-3.63-.68-7.45-.29-11.13a53.9,53.9,0,0,0,.41-6l-.26-1.26-.37-1.84a.74.74,0,0,1,0-.12l0-.06a36.14,36.14,0,0,0-3.75-8.06,45.06,45.06,0,0,1-3.43-7l-.1-.27c-.06-.2-.13-.4-.19-.61l-.1-.29c0-.13-.05-.18-.06-.24h0a.6.6,0,0,1,0-.11,1.84,1.84,0,0,1-.07-.24c0-.06,0-.15-.06-.24-2.17-7.15-1.57-14.11,1.68-19.66a16.36,16.36,0,0,1,8.72-7.47,11.19,11.19,0,0,1,8.77.71,13.42,13.42,0,0,1,14.1.25c3.28-2,7.7-1.81,11.63.61,6.49,4,9.84,12.22,8.53,21a34.69,34.69,0,0,1-5.93,14.25,33.75,33.75,0,0,0-3.45,7.39h0c-.09.52-.46,2.41-.55,2.89a51.15,51.15,0,0,0,.4,6.31c.45,4.23.92,8.6-.86,12.71a3.79,3.79,0,0,1-3,2.32c-1.42.15-3.31-.5-4.36-4.4-.24-.91-.47-1.84-.69-2.76a51,51,0,0,0-1.47-5.28l-.06-.07v-.1a.56.56,0,0,0-.6-.3.66.66,0,0,0-.61.55l-2.51,15.79A3.52,3.52,0,0,1,367.68,120.86Zm-7.24-20h.15a1.62,1.62,0,0,1,1.48,1.31l3.09,15.83a2.64,2.64,0,0,0,5,0s1.86-11.73,2.5-15.74a1.62,1.62,0,0,1,1.45-1.34,1.5,1.5,0,0,1,1.57.9l0,0v0l0,.09c.62,1.77,1.07,3.62,1.51,5.42.22.91.44,1.83.68,2.74.49,1.8,1.46,3.9,3.35,3.7a2.85,2.85,0,0,0,2.24-1.75c1.68-3.88,1.25-7.94.8-12.24a49.43,49.43,0,0,1-.41-6.45l0-.13c0-.11.53-2.79.55-2.92a34.85,34.85,0,0,1,3.56-7.68v0a33.72,33.72,0,0,0,5.8-13.87c1.25-8.38-1.93-16.24-8.09-20-2.91-1.79-7.3-2.86-10.88-.46l-.26.17-.26-.17A12.71,12.71,0,0,0,367,46.16,12.89,12.89,0,0,0,360.82,48l-.23.14-.24-.13a10.24,10.24,0,0,0-8.25-.78,15.39,15.39,0,0,0-8.2,7c-3.12,5.33-3.69,12-1.61,18.86l0,.12a1,1,0,0,0,.06.22,2.18,2.18,0,0,0,.06.22l.13.48a1.24,1.24,0,0,1,.05.15c.06.19.12.39.19.58a1.23,1.23,0,0,0,.08.23A44.19,44.19,0,0,0,346.26,82a36.68,36.68,0,0,1,3.83,8.27l.05.1v.07l0,.09.37,1.83c.12.58.23,1.09.26,1.25l0,.15a53.38,53.38,0,0,1-.41,6.09c-.4,3.77-.78,7.32.25,10.77a5,5,0,0,0,2.24,3.05,2.13,2.13,0,0,0,1.84-.05,3.11,3.11,0,0,0,1.6-1.9c.42-1.38.77-2.82,1.11-4.22A54.22,54.22,0,0,1,359,102l0-.13A1.52,1.52,0,0,1,360.44,100.91Z" fill="#fff"/><rect x="380.12" y="169.81" width="38.91" height="30.95" fill="#949aaf"/><path d="M326.13,209.35H308.24V179a40,40,0,0,1,40-40h77.28v17.9H348.21A22.1,22.1,0,0,0,326.13,179Z" fill="#b0bad1"/><path d="M227.38,203.68h122.5a19.93,19.93,0,0,1,19.93,19.93V383.87a0,0,0,0,1,0,0H227.38a0,0,0,0,1,0,0V203.68A0,0,0,0,1,227.38,203.68Z" fill="#d0dcf4"/><path d="M227.38,203.68H353.33a16.48,16.48,0,0,1,16.48,16.48v2.29a0,0,0,0,1,0,0H227.38a0,0,0,0,1,0,0V203.68a0,0,0,0,1,0,0Z" fill="#b0bad1"/><ellipse cx="283.93" cy="212.76" rx="22.25" ry="5.76" fill="#949aaf"/><rect x="234.45" y="232.39" width="125.67" height="38.75" fill="#b0bad1"/><rect x="234.45" y="281.09" width="125.67" height="38.75" fill="#b0bad1"/><rect x="224.42" y="221.05" width="146.96" height="4.36" rx="1.92" fill="#949aaf"/><ellipse cx="282.77" cy="214.73" rx="11.14" ry="3.02" fill="#80879b"/><path d="M287.11,203.68h-2.82V188.83a2.29,2.29,0,0,0-4.57,0v9.07h-2.83v-9.07a5.11,5.11,0,0,1,10.22,0Z" fill="#fff"/><path d="M491.64,135.7a46.08,46.08,0,0,0-45.91,46.07H356a46.14,46.14,0,0,1,34.1-44.5c.92-.24,1.85-.46,2.79-.65a45.62,45.62,0,0,1,9.19-.92Z" fill="#d0dcf4"/><path d="M491.64,135.7v46.07H445.73a46.08,46.08,0,0,1,45.91-46.07Z" fill="#949aaf"/><polygon points="404.85 213.01 302.83 213.01 337.91 187.26 439.93 187.26 404.85 213.01" fill="#d0dcf4"/><polygon points="302.83 213.01 302.83 218.52 404.85 218.52 439.93 192.77 439.93 187.26 404.85 213.01 302.83 213.01" fill="#949aaf"/><polygon points="393.92 210.45 312.13 210.45 340.26 189.81 422.05 189.81 393.92 210.45" fill="#4ecdf4"/><path d="M448.61,140.11l-2.47-1.38,23.49-42.14a7.57,7.57,0,0,1,14.17,3.69V135.7H481V100.28A4.73,4.73,0,0,0,472.1,98Z" fill="#fff"/><path d="M428,140.11l-2.46-1.38L449,96.59a7.57,7.57,0,0,1,14.17,3.69V135.7h-2.83V100.28A4.73,4.73,0,0,0,451.45,98Z" fill="#fff"/><path d="M407.47,140.11,405,138.73l23.49-42.14a7.57,7.57,0,0,1,14.17,3.69V135.7h-2.82V100.28A4.74,4.74,0,0,0,431,98Z" fill="#fff"/><rect x="385.95" y="173.63" width="2.52" height="6.1" transform="translate(113.52 -149.27) rotate(25.45)" fill="#8f9cb7"/><path d="M389.26,176.25l-2.93-1.39c5-22.58,17.27-36.24,17.27-36.24l4.61,2.2S403.59,158.1,389.26,176.25Z" fill="#4d5566"/><rect x="382.51" y="176.82" width="5.89" height="8.82" rx="2.59" transform="translate(115.31 -148.07) rotate(25.45)" fill="#8f9cb7"/><rect x="405.42" y="133.96" width="3.78" height="6.1" transform="translate(98.42 -161.76) rotate(25.45)" fill="#8f9cb7"/><rect x="406.73" y="173.32" width="2.52" height="6.1" transform="translate(115.4 -158.23) rotate(25.45)" fill="#8f9cb7"/><path d="M410,175.94l-2.93-1.39c5-22.58,17.27-36.23,17.27-36.23l4.61,2.19S424.36,157.79,410,175.94Z" fill="#4d5566"/><rect x="403.28" y="176.51" width="5.89" height="8.82" rx="2.59" transform="translate(117.19 -157.03) rotate(25.45)" fill="#8f9cb7"/><rect x="406.89" y="182.75" width="3.14" height="1.32" rx="0.58" transform="translate(118.48 -157.75) rotate(25.45)" fill="#4d5566"/><ellipse cx="406.77" cy="182.55" rx="1.97" ry="1.19" transform="matrix(0.43, -0.9, 0.9, 0.43, 67.12, 471.37)" fill="#4d5566"/><rect x="426.19" y="133.65" width="3.78" height="6.1" transform="translate(100.31 -170.71) rotate(25.45)" fill="#8f9cb7"/><rect x="427.72" y="173.47" width="2.52" height="6.1" transform="translate(117.51 -167.24) rotate(25.45)" fill="#8f9cb7"/><path d="M431,176.1l-2.94-1.4c5.05-22.58,17.28-36.23,17.28-36.23l4.61,2.19S445.36,157.94,431,176.1Z" fill="#4d5566"/><path d="M430,178.69a2,2,0,0,1-.2.89l-.88,1.87a2.08,2.08,0,0,1-3.75-1.79l.89-1.86a2.07,2.07,0,0,1,3.94.89Z" fill="#8f9cb7"/><rect x="422.55" y="182.51" width="6.29" height="1.32" rx="0.58" transform="translate(774.04 -122.48) rotate(115.45)" fill="#4d5566"/><rect x="447.18" y="133.81" width="3.78" height="6.1" transform="translate(102.41 -179.72) rotate(25.45)" fill="#8f9cb7"/><path d="M410,192.29l-14.48,11c-.58.43,0,1.42.57,1l14.49-11C411.13,192.84,410.57,191.85,410,192.29Z" fill="#31343f"/><path d="M398.59,198.69a.57.57,0,0,0-.78-.2l-3.8,2.7a.59.59,0,0,0-.2.78.58.58,0,0,0,.78.2l3.79-2.7A.59.59,0,0,0,398.59,198.69Z" fill="#31343f"/><path d="M363.23,160.39a48.31,48.31,0,0,0-5.64,19.46c0,.73,1.09.73,1.14,0A47.09,47.09,0,0,1,364.21,161C364.56,160.32,363.57,159.74,363.23,160.39Z" fill="#31343f"/><path d="M469.31,138a53.11,53.11,0,0,0-25.09,30.9,51.22,51.22,0,0,0-2.1,11.25c-.05.73,1.09.73,1.14,0a51.93,51.93,0,0,1,17.48-34.79,49,49,0,0,1,9.15-6.37C470.53,138.68,470,137.69,469.31,138Z" fill="#31343f"/><rect x="184.56" y="296.09" width="5.72" height="97.98" fill="#b0bad1"/><rect x="129.77" y="262.19" width="117.02" height="40.35" rx="12" fill="#20232b"/><path d="M244.3,408.34h-108l36.15-14.14a39.58,39.58,0,0,1,26.87-.73Z" fill="#b0bad1"/><path d="M152.47,420.74c-.14,3.19-.48,6.66-2.71,8.95-1.72,1.76-4.24,2.46-6.66,2.88a46.29,46.29,0,0,1-17.94-.37c-2.69-.59-5.51-1.57-7-3.84-1.76-2.6-1.28-6.08-.6-9.15a129.42,129.42,0,0,1,6.26-20.45,42.09,42.09,0,0,0,28.41.37A197.18,197.18,0,0,1,152.47,420.74Z" fill="#31343f"/><path d="M260,138.93l-2.87,1.91-17.82,11.89c-.56-3.21-2.39-12.25-5.35-13-3.61-.92-28.33-1.05-29.81.61s1.92,5.23,1.92,5.23c-9.3,2-2.53,5.24-2.53,5.24-1.93,3.45,4.1,5.41,4.1,5.41,0,3.54,10.38,6.72,10.38,6.72,1.44,8.56,8.55,8.37,8.55,8.37a79,79,0,0,0,7.12,6.79l-5.46,24,4,40.6s-51,26.87-97.65-2L140,186.78c4.34-10.86,7.93-25.19,9.94-34.12a17.62,17.62,0,0,0,7.08-8.42,9,9,0,0,0,1.91-.44,2.93,2.93,0,0,0,1.85-1.45,2.27,2.27,0,0,0,0-1.68,3.56,3.56,0,0,0-.46-.86,4.81,4.81,0,0,0,3.36-1.05,4.17,4.17,0,0,0,1-4.08,12.19,12.19,0,0,0-2-3.88l.1-.08a31.18,31.18,0,0,0,3.53,4,11.62,11.62,0,0,0,5.13,2.89c1.42.33,3.13.17,4-1a3.18,3.18,0,0,0,.36-2.69,7.79,7.79,0,0,0-1.33-2.45,30.73,30.73,0,0,0-5.46-5.76,4.76,4.76,0,0,0,1.64.08,2.31,2.31,0,0,0,1.81-1.23A3.19,3.19,0,0,0,172,122a18.46,18.46,0,0,0-17.74-10.32c-3.21.84-6.51,1.87-8.74,4.29-1.75,1.87-2.64,4.37-3.45,6.8q-2.58,7.77-4.71,15.69l.06,0c-1.21,1.9-4.21,6.54-7.65,11.4H116.66s6.93-28.8,15.71-38.22c6.91-7.43,32.4-13.9,42.91-16.3,0,0-.07,22.86,14.42,33.89,0,0,13.08-2.72,20.58-11.73a14.62,14.62,0,0,0,2.92-1.14,17.81,17.81,0,0,0,6.6-6.33,33.66,33.66,0,0,0,2.35-4.39s12.84-.46,20.43,7.74S260,138.93,260,138.93Z" fill="#4ecdf4"/><rect x="196.03" y="144.13" width="2.52" height="6.1" transform="translate(275.84 -86.1) rotate(71.89)" fill="#b0bad1"/><path d="M199,148.37l-1-3.09c19.83-11.91,38.16-12.45,38.16-12.45l1.58,4.85S222,146.24,199,148.37Z" fill="#4d5566"/><rect x="189.83" y="144.63" width="5.89" height="8.82" rx="2.59" transform="matrix(0.31, 0.95, -0.95, 0.31, 274.5, -80.52)" fill="#b0bad1"/><rect x="189.86" y="153.21" width="6.29" height="1.32" rx="0.58" transform="translate(279.24 -77.41) rotate(71.89)" fill="#4d5566"/><ellipse cx="191.97" cy="150.56" rx="1.97" ry="1.19" transform="translate(-37.29 67.15) rotate(-18.11)" fill="#4d5566"/><polygon points="243.37 135.25 237.57 137.14 237.21 136.06 236.39 133.55 239.11 132.67 242.19 131.66 242.26 131.87 243.14 134.57 243.37 135.25" fill="#b0bad1"/><path d="M186.63,141.21l-7.12-6.05.13-.16a3,3,0,0,0-.36-4.26l-16-13.49a3,3,0,0,0-4.27.36l-.76.91a3,3,0,0,0,.36,4.26l16,13.49a3,3,0,0,0,4.27-.35l0,0,7.06,6C186.42,142.27,187.09,141.61,186.63,141.21Z" fill="#4d5566"/><ellipse cx="186.52" cy="141.73" rx="5.8" ry="3.97" transform="translate(-19.45 253.32) rotate(-65.68)" fill="#4d5566"/><ellipse cx="186.3" cy="141.41" rx="4.95" ry="3.1" transform="translate(-19.29 252.93) rotate(-65.68)" fill="#b4bdd3"/><path d="M230.39,81.28h0c-2,6.9-4,13.77-6.61,20.46-.52,1.33-1.05,2.66-1.63,4a33.66,33.66,0,0,1-2.35,4.39,17.81,17.81,0,0,1-6.6,6.33,14.62,14.62,0,0,1-2.92,1.14,26.21,26.21,0,0,1-9.76.46c-5.66-.63-11.53-2.3-15.43-6.45a20.79,20.79,0,0,1-5-11.92,39.87,39.87,0,0,1-.22-5.24c0-2.35.27-4.69.49-7a13,13,0,0,1-4.95-11.79,6.88,6.88,0,0,1,1.1-3.12,4,4,0,0,1,1.59-1.31L178,71a50.78,50.78,0,0,1,38.38-2.19,28,28,0,0,1,8.83,4.69A15.37,15.37,0,0,1,230.39,81.28Z" fill="#ffa897"/><path d="M233.92,61.58a134.81,134.81,0,0,1-3.11,18.21l-.42,1.49a15.37,15.37,0,0,0-5.22-7.82,28,28,0,0,0-8.83-4.69A50.78,50.78,0,0,0,178,71l.1.22a4,4,0,0,0-1.59,1.31s3.81-22.35,7.73-27.1c3.63-4.39,29.18-11.58,46.21,6A12.63,12.63,0,0,1,233.92,61.58Z" fill="#73d7ff"/><path d="M210.28,117.57c-7.5,9-20.58,11.73-20.58,11.73-14.49-11-14.42-33.89-14.42-33.89,2.82-.64,4.55-1,4.55-1a39.87,39.87,0,0,0,.22,5.24,20.79,20.79,0,0,0,5,11.92c3.9,4.15,9.77,5.82,15.43,6.45A26.21,26.21,0,0,0,210.28,117.57Z" fill="#ff988a"/><path d="M129.77,149.93c-3.42,4.85-7.28,9.91-10.23,12.7a58,58,0,0,0-12.61,18.1l10.94-30.8Z" fill="#ff988a"/><path d="M268.9,188c-12,6.8-26.65-2.72-35.17-9.94a79,79,0,0,1-7.12-6.79s-7.11.19-8.55-8.37c0,0-10.42-3.18-10.38-6.72,0,0-6-2-4.1-5.41,0,0-6.77-3.27,2.53-5.24,0,0-3.41-3.57-1.92-5.23s26.2-1.53,29.81-.61c3,.76,4.79,9.8,5.35,13l17.82-11.89S287.09,177.74,268.9,188Z" fill="#ffa897"/><path d="M237.61,399.84c-1,.41-2,.77-2.92,1.09a42.12,42.12,0,0,1-28.4-.37c-1.08-.42-1.67-.72-1.67-.72l5-96.46-20.76-26.63h-9.68l-23.56,29.48-1.57,92.7-.42.2c-2.5,1.19-16,6.95-29.26.68-.58-.26-1.16-.56-1.74-.88,0,0-15.84-102.91-15.75-120.45s27.71-37.77,27.71-37.77c46.6,28.88,97.65,2,97.65,2s15.21,27.15,17.18,41.8S237.61,399.84,237.61,399.84Z" fill="#29afce"/><path d="M235,422.53c-.14,3.2-.48,6.67-2.7,9-1.72,1.76-4.25,2.46-6.67,2.88a46.29,46.29,0,0,1-17.94-.37c-2.68-.59-5.51-1.57-7-3.84-1.76-2.61-1.28-6.08-.6-9.15a127.37,127.37,0,0,1,6.26-20.45,42.12,42.12,0,0,0,28.4.37A192.14,192.14,0,0,1,235,422.53Z" fill="#31343f"/><path d="M175.35,136.59c-.87,1.18-2.58,1.34-4,1a11.62,11.62,0,0,1-5.13-2.89,31.18,31.18,0,0,1-3.53-4l-.1.08a12.19,12.19,0,0,1,2,3.88,4.17,4.17,0,0,1-1,4.08,4.81,4.81,0,0,1-3.36,1.05,3.56,3.56,0,0,1,.46.86,2.27,2.27,0,0,1,0,1.68A2.93,2.93,0,0,1,159,143.8a9,9,0,0,1-1.91.44,17.62,17.62,0,0,1-7.08,8.42c-2,8.93-5.6,23.26-9.94,34.12A50.5,50.5,0,0,1,134.2,198c-9.62,12.7-27.23,6.22-29.32-4.19-.81-4,.16-8.57,2.05-13.05a58,58,0,0,1,12.61-18.1c2.95-2.79,6.81-7.85,10.23-12.7s6.44-9.5,7.65-11.4l-.06,0q2.12-7.91,4.71-15.69c.81-2.43,1.7-4.93,3.45-6.8,2.23-2.42,5.53-3.45,8.74-4.29A18.46,18.46,0,0,1,172,122a3.19,3.19,0,0,1,.37,2.5,2.31,2.31,0,0,1-1.81,1.23,4.76,4.76,0,0,1-1.64-.08,30.73,30.73,0,0,1,5.46,5.76,7.79,7.79,0,0,1,1.33,2.45A3.18,3.18,0,0,1,175.35,136.59Z" fill="#ffa897"/><path d="M178.06,71.18s3.18,1.91,4.05,4.48l3.31-7.76S179.65,69.87,178.06,71.18Z" fill="#31343f"/><path d="M190.56,43.37c-3.22,7.46-6.5,15.19-6.44,23.46a.47.47,0,0,0,.94,0c-.06-8.09,3.16-15.69,6.31-23C191.61,43.29,190.79,42.81,190.56,43.37Z" fill="#29afce"/><path d="M215.3,116.78c-5.28,9.1-15,14.08-24.42,17.92-.53.22-1.36.75-1.93.47a6.85,6.85,0,0,1-1.36-1.17q-1.31-1.2-2.52-2.52a47.64,47.64,0,0,1-4.36-5.46,56,56,0,0,1-6.44-12.59,67.19,67.19,0,0,1-3.6-15.52c-.06-.6-1-.6-.94,0a63.1,63.1,0,0,0,9.59,27.73,51.19,51.19,0,0,0,4.45,5.82c.79.88,1.62,1.74,2.47,2.56.45.44.91.87,1.38,1.28a3.2,3.2,0,0,0,1.36.88,2.92,2.92,0,0,0,1.65-.37c.71-.28,1.41-.57,2.11-.87,1.28-.54,2.55-1.09,3.81-1.67a63.82,63.82,0,0,0,7.55-4.07,35.75,35.75,0,0,0,12-11.94A.48.48,0,0,0,215.3,116.78Z" fill="#29afce"/><path d="M154.42,301.86A169.41,169.41,0,0,1,143.53,285a.47.47,0,0,0-.82.47,170.28,170.28,0,0,0,10.9,16.83C154,302.82,154.78,302.35,154.42,301.86Z" fill="#31343f"/><path d="M152.44,303.55a94.61,94.61,0,0,0-11.47-7.4c-.53-.29-1,.52-.47.81a95.27,95.27,0,0,1,11.46,7.4C152.45,304.73,152.92,303.91,152.44,303.55Z" fill="#31343f"/><path d="M137,138.12q-7.44,11.17-15.63,21.81Q119,163,116.55,166c-.37.47.29,1.14.67.67q8.5-10.61,16.27-21.77c1.46-2.1,2.89-4.22,4.31-6.34C138.14,138.09,137.32,137.62,137,138.12Z" fill="#31343f"/><path d="M160.44,139.66a17.19,17.19,0,0,0-9.38-5c-.6-.1-.85.8-.25.91a16.29,16.29,0,0,1,9,4.74C160.2,140.76,160.86,140.1,160.44,139.66Z" fill="#31343f"/><path d="M162.82,130.46a22.92,22.92,0,0,0-8.19-3c-.59-.09-.85.82-.25.91a22,22,0,0,1,8,2.86A.47.47,0,0,0,162.82,130.46Z" fill="#31343f"/><path d="M169.57,125.06c-5-4.15-11.51-5.7-17.88-6.2-.6,0-.6.89,0,.94,6.09.48,12.41,2,17.21,5.93C169.37,126.11,170,125.45,169.57,125.06Z" fill="#31343f"/><path d="M156.45,144.52a25.82,25.82,0,0,1-4.73-.31.5.5,0,0,0-.58.33.47.47,0,0,0,.33.58,27.68,27.68,0,0,0,5,.34A.47.47,0,0,0,156.45,144.52Z" fill="#31343f"/><path d="M228.36,144.86a36.44,36.44,0,0,1-5.59-.59,34.59,34.59,0,0,0-5.48-.29,85.94,85.94,0,0,0-11.21,1.21c-.6.09-.35,1,.25.9a84.08,84.08,0,0,1,11.19-1.18,34.33,34.33,0,0,1,5.55.34,31.44,31.44,0,0,0,5.29.55A.47.47,0,0,0,228.36,144.86Z" fill="#31343f"/><path d="M224.91,150.89a92.34,92.34,0,0,0-21.08-.63c-.6.05-.6,1,0,.94a91.31,91.31,0,0,1,20.83.6C225.25,151.88,225.5,151,224.91,150.89Z" fill="#31343f"/><path d="M224.35,156.6a105.83,105.83,0,0,0-16.5-.82c-.6,0-.61,1,0,.94a105.83,105.83,0,0,1,16.5.82C225,157.62,224.94,156.68,224.35,156.6Z" fill="#31343f"/><path d="M267.14,170.5a26.11,26.11,0,0,0-9-8.11c-3.93-2.25-8-4.3-12.07-6.27q-3.5-1.68-7-3.24c-.55-.24-1,.57-.48.82q6.11,2.69,12,5.72,2.94,1.5,5.82,3.08a34.21,34.21,0,0,1,5.45,3.51,23.27,23.27,0,0,1,4.49,5C266.67,171.47,267.48,171,267.14,170.5Z" fill="#31343f"/><path d="M184.12,86.57s23.23,6,41.94,8.84c0,0-3.85,16.76-11.84,21.42,0,0-19.71,4.3-32.48-8.88Z" fill="#cff4ff"/><path d="M184.68,87.23A135.22,135.22,0,0,1,182,73.13c-.08-.59-1-.6-.94,0a136.85,136.85,0,0,0,2.7,14.35A.47.47,0,0,0,184.68,87.23Z" fill="#31343f"/><path d="M182.43,107.47a35.14,35.14,0,0,1-1.43-6.41.48.48,0,0,0-.47-.47.48.48,0,0,0-.47.47,36.16,36.16,0,0,0,1.46,6.66C181.7,108.29,182.61,108.05,182.43,107.47Z" fill="#31343f"/><path d="M224.43,96.86A192.43,192.43,0,0,1,193.2,91.3c-2.91-.77-5.81-1.61-8.68-2.52-.58-.18-.83.73-.25.91a193.66,193.66,0,0,0,31.28,7.08q4.42.62,8.88,1C225,97.86,225,96.92,224.43,96.86Z" fill="#73d7ff"/><path d="M207.2,86.62l0,5.32a.47.47,0,0,0,.94,0l0-5.32A.47.47,0,0,0,207.2,86.62Z" fill="#31343f"/><path d="M203.43,75a1.46,1.46,0,0,0-1.09-1.68L197.55,72a1.41,1.41,0,1,0-.59,2.76l4.79,1.38A1.43,1.43,0,0,0,203.43,75Z" fill="#31343f"/><path d="M224.49,79.65a1.54,1.54,0,0,0-.85-.63l-4.56-1.57a1.36,1.36,0,0,0-1.08.16,1.46,1.46,0,0,0-.64.86,1.41,1.41,0,0,0,.17,1.08,1.59,1.59,0,0,0,.86.64l4.55,1.57a1.42,1.42,0,0,0,1.72-1A1.42,1.42,0,0,0,224.49,79.65Z" fill="#31343f"/><ellipse cx="197.41" cy="81.36" rx="4.09" ry="3.06" transform="translate(71.65 253.91) rotate(-76.31)" fill="#31343f"/><ellipse cx="218.49" cy="86.16" rx="4.09" ry="3.06" transform="translate(83.07 278.06) rotate(-76.31)" fill="#31343f"/><path d="M203.2,175.7a148.08,148.08,0,0,0-32.94,13.2q-4.37,2.4-8.57,5.09c-.51.33,0,1.14.47.82a146.82,146.82,0,0,1,31.75-15.31c3.14-1.07,6.33-2,9.54-2.89A.47.47,0,0,0,203.2,175.7Z" fill="#31343f"/><path d="M202.15,187.24a91.93,91.93,0,0,0-25.05,7.19c-.55.25-.07,1.06.48.81a91.25,91.25,0,0,1,24.82-7.09C203,188.07,202.74,187.16,202.15,187.24Z" fill="#31343f"/><path d="M222.36,292.93l-11.68,8.61c-.58.43,0,1.42.58,1l11.67-8.6C223.51,293.49,223,292.5,222.36,292.93Z" fill="#31343f"/><path d="M221.14,300.32a50.09,50.09,0,0,0-9.57,3.65c-.66.33-.08,1.31.57,1a49.05,49.05,0,0,1,9.3-3.53A.57.57,0,0,0,221.14,300.32Z" fill="#31343f"/><path d="M392.91,136.62c-.94.19-1.87.41-2.79.65q-3-6.53-6-13.06c-2.31-5-4.59-10.4-8.63-14.3-8.51-8.21-21.53-3.28-31.4-.8l-37.41,9.44-63.53,16-.88-2.7,32-8.05c25.49-6.43,51-12.94,76.5-19.28,5.37-1.34,11-2.54,16.52-1.7a19.58,19.58,0,0,1,12.67,7.85c3.24,4.22,5.3,9.2,7.51,14Z" fill="#fff"/><rect x="265.24" y="349.17" width="134.57" height="59.17" fill="#949aaf"/><path d="M466.57,349.32l-157.7,44.33A48.65,48.65,0,0,1,253,370.08l-11.3-20.76Z" fill="#b0bad1"/><path d="M257.93,339.52c-15.56-2.45-29.32-12.67-35.2-27.46-2.22-5.57-11.33-3.14-9.09,2.5,7.05,17.72,22.78,31.05,41.79,34C261.35,349.53,263.91,340.46,257.93,339.52Z" fill="#949aaf"/><path d="M577.27,302.83v30.88a2.28,2.28,0,0,0-.45,0l-64.27,9H241.68v-39.9Z" fill="#73d7ff"/><path d="M142.36,210.7c-12.1-15.53-25.81-37-14.86-56.82,2.94-5.31-5.19-10.06-8.13-4.75-13.31,24.05,1.44,49.12,16.33,68.23C139.42,222.14,146,215.43,142.36,210.7Z" fill="#949aaf"/><path d="M91.35,155.78l46.34,43.86s21.44-12.93-5.95-40.32S91.35,155.78,91.35,155.78Z" fill="#29afce"/><path d="M137.69,202.46a2.84,2.84,0,0,1-1.94-.77L89.41,157.84a2.83,2.83,0,0,1,3.88-4.11l46.34,43.85a2.83,2.83,0,0,1-1.94,4.88Z" fill="#949aaf"/><path d="M137,212.24s32-18.21,60.7,17.53,62.13,60.46,25.84,96.74Z" fill="#cff4ff"/><path d="M146.68,179q-3.52-6.51-7.24-13a11.93,11.93,0,0,1-7.87-3.07,8.65,8.65,0,0,1-2.62-8,5,5,0,0,1,1.59-2.78,4.72,4.72,0,0,1,5.3-.08,47.49,47.49,0,0,0,5.87-14.46,30.14,30.14,0,0,0-.45-14.8,15.45,15.45,0,0,1,4-1.09,17,17,0,0,1,6.9,1.26,17.44,17.44,0,0,1,5.39,2.49,11.78,11.78,0,0,1,2.4,2.58c1.93,2.7,3.27,6,6,7.84,2.3,1.53,5.19,1.79,8,1.84a11.31,11.31,0,0,1,.29,6.13,4.17,4.17,0,0,1-.32,1l1.73,1.33a10.25,10.25,0,0,0-2.31,4.44,5.27,5.27,0,0,0,1.46,5,5.48,5.48,0,0,0,3.23,1.2,13.62,13.62,0,0,0,3-.18,18,18,0,0,1,1.49,4.12,6.58,6.58,0,0,1-.57,4.58,8.29,8.29,0,0,1-1.47,1.77,24.93,24.93,0,0,1-5.8,4.11,39.29,39.29,0,0,1-14.07,3.93,19.71,19.71,0,0,1-5.79,0,8.9,8.9,0,0,1-5-2.61c.16.54,3.48,11,21.15,6L159.53,190.4a14.2,14.2,0,0,0-6.24,1.22L153,191Q149.92,185,146.68,179Z" fill="#ffbba9"/><path d="M175.82,173.4l-4.95,5.16c-17.67,5-21-5.46-21.15-6a8.9,8.9,0,0,0,5,2.61,19.71,19.71,0,0,0,5.79,0,39.29,39.29,0,0,0,14.07-3.93C175,172,175.42,172.69,175.82,173.4Z" fill="#31343f"/><path d="M154.79,114a11.77,11.77,0,0,0-6.62-1.51c-2.73.21-5.29,1.43-8,1.51-2.58.07-4.8-1.26-7.14-2.16a10.21,10.21,0,0,0-3.58-.77,11,11,0,0,0-3.84.77,19.78,19.78,0,0,0-10,9.07c-3,5.28-3.86,11.41-4.28,17.37a14.86,14.86,0,0,0-5.38,8.37,23.2,23.2,0,0,0,.39,11.46A21.42,21.42,0,0,0,112.64,169c2.54,2.16,5.68,3.44,8.77,4.68a63.28,63.28,0,0,0,12.4,4c.76.12,1.53.23,2.29.31s1.58.17,2.37.25l8.21.82q-3.52-6.51-7.24-13a11.93,11.93,0,0,1-7.87-3.07,8.65,8.65,0,0,1-2.62-8,5,5,0,0,1,1.59-2.78,4.72,4.72,0,0,1,5.3-.08,47.49,47.49,0,0,0,5.87-14.46,30.14,30.14,0,0,0-.45-14.8,15.45,15.45,0,0,1,4-1.09,17,17,0,0,1,6.9,1.26,17.44,17.44,0,0,1,5.39,2.49,11.78,11.78,0,0,1,2.4,2.58,15.44,15.44,0,0,0,.27-2.88A11,11,0,0,0,154.79,114Zm-6.47.5a29.13,29.13,0,0,1-6.89.84c-4.61-.12-9.12-2-13.7-1.53a16,16,0,0,0-10.58,6.22,19.06,19.06,0,0,1,7.06-6.61,10,10,0,0,1,7.1-1.18c2.23.58,4.21,1.87,6.46,2.41,2.44.58,4.82,0,7.19-.65a13.17,13.17,0,0,1,7.07-.2l.24.08A19.1,19.1,0,0,0,148.32,114.52Z" fill="#31343f"/><path d="M153,191l.29.63a18.07,18.07,0,0,0-6.4,5c-5,5.88-3.9,13.16,1,20.92A14.38,14.38,0,0,1,125,214.78a9,9,0,0,1-1.36-4.56,5.14,5.14,0,0,1,2-4.16,8.23,8.23,0,0,1-3.35-12.21c1.48-2.12,3.86-3.41,6.17-4.57S133.25,187,135,185s2.44-4.89,1.14-7.06c.79.1,1.58.17,2.37.25l8.21.82Q149.92,185,153,191Z" fill="#31343f"/><ellipse cx="157.63" cy="139.24" rx="2.69" ry="3.5" transform="translate(-47.95 183.66) rotate(-53.65)" fill="#31343f"/><path d="M154.67,135.15a1.42,1.42,0,0,0,.34-.88,1.39,1.39,0,0,0-.4-1,1.37,1.37,0,0,0-1-.4,1.35,1.35,0,0,0-1,.4,14.68,14.68,0,0,0-2.58,4.76,1.35,1.35,0,0,0,2.61.72c.11-.33.23-.64.35-.95a13.08,13.08,0,0,1,1.61-2.72Z" fill="#31343f"/><circle cx="154.82" cy="155.98" r="7.21" fill="#ffa897"/><path d="M174.69,139.35a2.49,2.49,0,0,0-.59-1.79c-.5-.41-1.22-.24-1.81-.24a11.37,11.37,0,0,1-7.88-3.23.45.45,0,0,0-.64.64,12.31,12.31,0,0,0,6.94,3.38,11,11,0,0,0,1.9.11c.28,0,.76-.14,1,.09s.18.77.21,1a17.14,17.14,0,0,1-.24,4.85c-.1.57.76.81.87.24A18.08,18.08,0,0,0,174.69,139.35Z" fill="#31343f"/><path d="M171.26,145.17a.51.51,0,0,0-.21-.27.47.47,0,0,0-.35,0l-1,.31a.43.43,0,0,0-.27.21.45.45,0,0,0-.05.34.48.48,0,0,0,.21.27.43.43,0,0,0,.35,0l1-.31a.51.51,0,0,0,.27-.21A.48.48,0,0,0,171.26,145.17Z" fill="#31343f"/><path d="M286.84,256.11s-25.92,40.4-40,57.42c0,0-22.64-32.33-50.53-46.34-27.45-13.79-45.85-45.25-46.43-46.24l.33-.34a24.94,24.94,0,0,1-2.26-2.52c-7.6-9.8,32.3-41.81,31.87-42.1l46.42,23.77,26.75,26.74C259.57,233,280.21,249.66,286.84,256.11Z" fill="#29afce"/><path d="M523.52,287.73v5.84c-24.32-5.76-94.61-22.28-107.78-23.5-16-1.48-124.22,1.4-124.22,1.4l4.14-7.42,0-.14a17.27,17.27,0,0,0,4.31,0,17.51,17.51,0,0,0,8.95-3.92,34.86,34.86,0,0,0,11.68,2.71c.74.05,1.61,0,2-.64s-.16-1.66-.85-2.16-1.53-.86-1.92-1.62a11.79,11.79,0,0,0,6.35.7l.13,0s76.38-8.41,86.19-7.68,111,35.54,111,35.54Z" fill="#20232b"/><path d="M532.13,297.19a49.48,49.48,0,0,1-1.57,24.57c-.2.56-.33.85-.33.85s-56.11-3.58-85.34-4.72S407,308.82,407,308.82c-123.44,53.15-160.22,4.71-160.22,4.71,14.13-17,29.4-44.84,29.4-44.84,3.87-1.66,6.38-2.8,6.38-2.8l-.07-.21,7.61-3.49a17.34,17.34,0,0,0,5.57,1.72l0,.14-4.14,7.42s108.25-2.88,124.22-1.4c13.17,1.22,83.46,17.74,107.78,23.5h0l8.29,2C531.92,296.11,532,296.65,532.13,297.19Z" fill="#31343f"/><path d="M592.13,290.71c2.65.69,5,3.14,4.81,5.89a9.37,9.37,0,0,1-1.56,4q-2.14,3.71-4.32,7.39a51.26,51.26,0,0,1-3.17,5,28.21,28.21,0,0,1-26.13,10.93,11.19,11.19,0,0,0,1.12-5.28,24.06,24.06,0,0,0,21.37-26.88C586.74,290.7,589.52,290,592.13,290.71Z" fill="#4ecdf4"/><path d="M541.54,325l-.22.13-1.14-.22q8.7-20.24,17.39-40.48c3.49-1.54,5.89-4.82,7.92-8.07s4-6.81,7.2-9.09,7.94-2.89,10.76-.21c3.23-.57,6.57,1.61,7.86,4.62a10.9,10.9,0,0,1-.86,9.46,20,20,0,0,1-7,6.82,22.78,22.78,0,0,1,.76,3.76,24.06,24.06,0,0,1-21.37,26.88,11.19,11.19,0,0,1-1.12,5.28,11.77,11.77,0,0,1-7.44,6.34A11.9,11.9,0,0,1,541.54,325Z" fill="#73d7ff"/><path d="M552,287.07c.41-.86.85-1.72,1.27-2.57l4.69-1c-.13.32-.27.64-.4,1q-8.7,20.23-17.39,40.48l-3.91-.75c.18-.52.37-1.05.57-1.56A345.68,345.68,0,0,1,552,287.07Z" fill="#4ecdf4"/><path d="M548.65,288.78l3.36-1.71a345.68,345.68,0,0,0-15.17,35.57c-2.05-.29-4.08-.56-6.12-.83l-.16-.05a49.48,49.48,0,0,0,1.57-24.57Q540.38,293,548.65,288.78Z" fill="#ffbba9"/><path d="M544.5,290.89l-12.37,6.3c-.11-.54-.21-1.08-.32-1.64l-8.29-2h0v-5.84c7.34.23,14.67.47,22,.68Z" fill="#ffa897"/><path d="M545.53,288.41c.23-.46.44-.92.66-1.38l3,.33c-.18.47-.35.95-.54,1.42l-4.15,2.11Z" fill="#4ecdf4"/><path d="M308.94,260a17.51,17.51,0,0,1-8.95,3.92,17.13,17.13,0,0,1-9.88-1.73l-7.61,3.49-5.16-17.26.63-.19,2.06-.41,15-3c1-.19,2-.38,2.95-.55a27,27,0,0,1,10.66-.2,22,22,0,0,1,10,5.78,65.31,65.31,0,0,1,7.46,9V259a11.79,11.79,0,0,1-6.35-.7c.39.76,1.25,1.13,1.92,1.62s1.28,1.43.85,2.16-1.25.69-2,.64A34.86,34.86,0,0,1,308.94,260Z" fill="#ffbba9"/><path d="M298,244.31c-1,.17-2,.36-2.95.55l-15,3h0l3.2-6.2A36.39,36.39,0,0,1,298,244.31Z" fill="#ffa897"/><path d="M283.23,241.61l-3.2,6.2h0l-2.06.41-.63.19-.88-2.91-3.64.34L252.94,226.5l1.43-1.47a232.23,232.23,0,0,1,29.35,15.61C283.56,241,283.4,241.29,283.23,241.61Z" fill="#0f9fb7"/><path d="M282.5,265.68l.07.21s-2.51,1.14-6.38,2.8c-10.22,4.35-30,12.2-38.48,11.5-8.74-.71-68.12-32.09-87.88-59.24v0c-.68-1-1.33-1.9-1.92-2.84-5.09-8.11-6.27-15.71-1-21.85a19,19,0,0,1,6.68-5.2,14.82,14.82,0,0,1,6.51-1.27c21.59.48,49.77,42.51,73,57.18a44.16,44.16,0,0,0,4.15,2.35l35.63-3.45,3.64-.34.88,2.91Z" fill="#0f9fb7"/><path d="M254.37,225l-1.43,1.47q-9.87,10.13-19.78,20.26L233,247c-23.2-14.67-51.38-56.7-73-57.18q5.94-6.17,11.85-12.36l5.17-5.39c.51-.55,1-1.08,1.55-1.63l.08.06s45.75,22.91,52.76,26.32S255,224.36,255,224.36C254.81,224.59,254.6,224.8,254.37,225Z" fill="#fff"/><path d="M141.2,220.51a5.77,5.77,0,0,1-2.93,1.58,17.19,17.19,0,0,1-3.49.58,14.42,14.42,0,0,1-6.93-1.17c-3.76-1.72-6.79-5.72-6.31-10a5.89,5.89,0,0,1,3.76-5.13.47.47,0,0,0-.25-.91,6.65,6.65,0,0,1-6.94-3.34,8.5,8.5,0,0,1,0-8,12.86,12.86,0,0,1,6.34-5.52c2.59-1.19,5.38-2,7.8-3.52s4.5-3.71,4.89-6.6c.08-.59-.82-.85-.9-.25-.4,2.91-2.64,5-5.08,6.41-2.64,1.52-5.64,2.29-8.33,3.71a12.54,12.54,0,0,0-6,6.24,9.27,9.27,0,0,0,.48,8.18,7.69,7.69,0,0,0,5.81,3.71,7.15,7.15,0,0,0-2.34,3.62,9.53,9.53,0,0,0,.76,6.69c2.26,4.62,7.27,6.94,12.26,6.89a19.32,19.32,0,0,0,4.47-.6,6.88,6.88,0,0,0,3.51-1.87C142.27,220.72,141.6,220.06,141.2,220.51Z" fill="#31343f"/><path d="M530.15,311.94q-26.47-3.58-52.74-8.54t-52.18-11.31c-8.36-2-16.68-3.84-25.33-3.18s-17.38,2.34-26,3.52C356,294.86,338,296.88,320,298.1q-13.43.91-26.87,1.17c-8,.15-16.28.4-24-2a31.25,31.25,0,0,1-5.71-2.44.47.47,0,0,0-.47.82c6.69,3.68,14.38,4.52,21.9,4.64,8.82.13,17.67-.24,26.47-.7,18-.95,36-2.76,53.83-5,8.76-1.12,17.49-2.36,26.22-3.65a86.88,86.88,0,0,1,13.46-1.2,67.47,67.47,0,0,1,13.49,1.75c8.63,1.87,17.18,4.11,25.81,6.05s17.57,3.81,26.39,5.54q26.22,5.14,52.68,8.89l6.74.93C530.49,312.92,530.74,312,530.15,311.94Z" fill="#20232b"/><path d="M575.74,280.71l-13,4.65c-.56.21-.32,1.12.25.91l13-4.65C576.56,281.42,576.32,280.51,575.74,280.71Z" fill="#20232b"/><path d="M571.46,287.59l-7.86,1.12c-.6.09-.35,1,.25.91l7.86-1.12C572.31,288.41,572.05,287.5,571.46,287.59Z" fill="#20232b"/><path d="M558.86,316.67l-6.17-6.39c-.42-.44-1.09.23-.67.67l6.18,6.39C558.62,317.77,559.28,317.11,558.86,316.67Z" fill="#20232b"/><path d="M554.23,321.44l-3-5.17a.47.47,0,0,0-.81.48l3,5.17A.47.47,0,0,0,554.23,321.44Z" fill="#20232b"/><path d="M235.06,251.54a44.19,44.19,0,0,0-8.82,13.06c-.24.55.57,1,.81.48a43.43,43.43,0,0,1,8.68-12.88C236.15,251.77,235.49,251.1,235.06,251.54Z" fill="#20232b"/><path d="M231.37,251.33a95.91,95.91,0,0,0-7.47,6.32c-.44.42.23,1.08.67.67a91.09,91.09,0,0,1,7.27-6.17C232.32,251.79,231.85,251,231.37,251.33Z" fill="#20232b"/><path d="M180.68,171.5q-8,9.12-16,18.25c-.39.45.27,1.12.67.67l16-18.25C181.74,171.71,181.08,171.05,180.68,171.5Z" fill="#20232b"/><path d="M252.29,223.22q-8.52,7.93-16.88,16.06-2.4,2.33-4.78,4.68c-.44.42.23,1.09.66.66q8.31-8.16,16.79-16.16l4.88-4.58C253.4,223.47,252.73,222.8,252.29,223.22Z" fill="#20232b"/><path d="M125.79,219l93.9,114.72,35.08-28.62s-12.48-14.84-37.53-25.66S181.9,247.24,165.58,219C158.3,206.4,130.93,201.41,125.79,219Z" fill="#949aaf"/><path d="M219.69,337a3.26,3.26,0,0,1-2.55-1.21L123.23,221.09a3.3,3.3,0,0,1,5.11-4.18l93.9,114.73a3.29,3.29,0,0,1-.47,4.63A3.23,3.23,0,0,1,219.69,337Z" fill="#b0bad1"/><path d="M241.68,346s6.58-31.25,43.08-31.25,41.09,24.57,79.71,20.25,47.78-20.34,72.52-20.25,140.29,17.11,140.29,17.11V337l-64.5,9Z" fill="#29afce"/><path d="M577.73,340.28l-.46.07-64,8.94-.45,0H241.68a3.3,3.3,0,0,1,0-6.59H512.55l64.27-9,.45,0a3.29,3.29,0,0,1,.46,6.55Z" fill="#b0bad1"/><path d="M376.52,281.17,347.05,290a52.45,52.45,0,0,0-35.2,35.2l-5.24,17.54H250.45l32-48.06a52.41,52.41,0,0,1,43.63-23.36h49C380.88,271.31,382.08,279.51,376.52,281.17Z" fill="#949aaf"/><path d="M323.35,271.38h51.73S345.42,256.77,323.35,271.38Z" fill="#cff4ff"/><path d="M307.65,349.32h-66s11.95,30.48,66,30.48,70.69-30.48,70.69-30.48Z" fill="#949aaf"/><path d="M554.3,456.25h-317s-6.11-47.91,27.92-47.91H399.81S540.45,418.55,554.3,456.25Z" fill="#b0bad1"/><circle cx="280.56" cy="346.16" r="9.56" fill="#b0bad1"/><circle cx="280.56" cy="346.03" r="6.46" fill="#949aaf"/><path d="M222.79,325.5l-36-42.54q-18-21.25-36-42.53l-20.22-23.87c-.48-.56-1.28.25-.81.8l36,42.54,36,42.53Q211.88,314.37,222,326.3C222.46,326.86,223.26,326.06,222.79,325.5Z" fill="#20232b"/><path d="M377.91,278.38c-15.34,2.73-30.93,5.54-45,12.51a68.54,68.54,0,0,0-17.59,12.24,80.34,80.34,0,0,0-12.72,16.57,167.94,167.94,0,0,0-10.34,21.4c-.28.68.82,1,1.1.3,5.29-12.79,11.46-25.65,21.11-35.78C324.54,295,338.05,288.84,352,285c8.62-2.38,17.44-3.95,26.23-5.52C378.93,279.35,378.63,278.25,377.91,278.38Z" fill="#20232b"/><path d="M507.2,348.31l-60.82.35-60.52.34-34.13.2a.57.57,0,0,0,0,1.14l60.82-.35,60.51-.35,34.14-.2A.57.57,0,0,0,507.2,348.31Z" fill="#20232b"/></g></svg>