<svg xmlns="http://www.w3.org/2000/svg" viewBox="0 0 458.96 410.32"><g id="BACKGROUND"><path d="M33.23,295c-53.88-66.56-40.37-181.92,27-245.82,81.08-76.9,200.83-42,218.13-36.91,88.44,25.8,172,103.3,179.93,198.14,4.49,53.56-13.82,128.29-59.61,146.66-33.58,13.47-52.46-15.18-126.63-14.64-55.45.41-61.84,16.55-106.08,14.1C157.21,356.06,78.23,350.61,33.23,295Z" fill="#abd1ff"/></g><g id="OBJECTS"><path d="M301.9,327.85l-.72-.83c34.08-36.32,48.29-91.89,48.43-92.45l1.1.15C350.57,235.28,336.26,291.23,301.9,327.85Z" fill="#223242"/><path d="M349.05,235.89s2-35.36,11.38-59.37a125.6,125.6,0,0,1,10.51-20.83S372.55,199.84,349.05,235.89Z" fill="#80ba91"/><path d="M370.94,155.69a91.8,91.8,0,0,0-9.2,37.68c-.35,21,2.62,36.59-23.79,65.89C338,259.26,351.73,181.62,370.94,155.69Z" fill="#223242"/><path d="M318.86,311.91c-3.24-1.26,1.4-21.65,10.87-40,10.84-21,19-21.83,30.26-43.38,10.27-19.61,5.91-23.44,14.69-37.21,16.61-26,46.95-35.34,47.74-32.22.48,1.86-10,6.63-17.2,20.19-8.3,15.55-2,23.27-7.45,38.69-6.19,17.68-18.45,19-42.59,46.17C331.3,291,318.86,311.91,318.86,311.91Z" fill="#80ba91"/><path d="M318.86,311.91s36.31-32.29,71.89-81.7C390.75,230.21,346.94,258.86,318.86,311.91Z" fill="#223242"/><path d="M311.33,329.63c2.26-11.78,8.92-24.07,9-24.2,9.48-24.08,21.35-43.74,35.25-58.34,1.3-1.36,2.64-2.71,4-4.07,6.4-6.43,13-13.08,18-24.19a61.37,61.37,0,0,0,4.36-14.58,51.81,51.81,0,0,1,4.2-13.75c5-10.58,13.95-20,26.58-27.9l.43,1.07c-12.38,7.79-21.13,17-26,27.26A50.7,50.7,0,0,0,383,204.31a62.36,62.36,0,0,1-4.46,14.92c-5.06,11.37-11.78,18.12-18.28,24.66-1.34,1.35-2.67,2.69-4,4-13.75,14.46-25.52,33.95-35,57.93-.11.21-6.65,12.29-8.87,23.83Z" fill="#223242"/><path d="M314,321s50.9-38.76,88.86-59.21l-32.77,2.62-36.54,29Z" fill="#223242"/><path d="M314,321c8.65-17.89,17.75-28.56,24.41-35,9.62-9.28,15.08-10.56,27.9-23.27,11.42-11.33,13-16.22,18.86-21.54,9.08-8.3,24.76-14.3,53.53-2.49a13.24,13.24,0,0,0-9.59.91c-5.12,2.5-20.68,23.57-37.1,26.45s-32.74,5-51,23.65S314,321,314,321Z" fill="#80ba91"/><path d="M309.36,330.35l-.94-.53,5.14-9.13c15.77-28,36.36-41.3,56.27-54.18a256.75,256.75,0,0,0,21.92-15.27c23.89-19.31,36.75-14.77,37.28-14.57l-.52,1.2c-.13-.05-12.9-4.48-36.19,14.34a257.55,257.55,0,0,1-22,15.36c-19.76,12.78-40.2,26-55.77,53.65Z" fill="#223242"/><path d="M162.41,339.78l.87-.67c-26.07-42.44-28.81-99.73-28.84-100.3l-1.1-.08C133.36,239.31,136.12,297,162.41,339.78Z" fill="#223242"/><path d="M134.73,240.21s5.17-35,.81-60.45a125.12,125.12,0,0,0-6.11-22.51S119,200.16,134.73,240.21Z" fill="#80ba91"/><path d="M129.43,157.25A91.65,91.65,0,0,1,130.86,196c-3.9,20.68-9.94,35.31,10,69.32C140.9,265.33,143,186.51,129.43,157.25Z" fill="#223242"/><path d="M149,320.75c3.43-.58,3-21.49-2.6-41.37-6.39-22.74-14.19-25.2-20.91-48.58-6.11-21.27-1.06-24.15-6.89-39.4-11-28.87-38.87-44.08-40.28-41.18-.84,1.73,8.43,8.5,12.79,23.24,5,16.91-2.69,23.21-.5,39.4,2.51,18.56,14.25,22.33,32.43,53.8C141,297.78,149,320.75,149,320.75Z" fill="#80ba91"/><path d="M149,320.75s-29.06-38.94-54-94.5C95,226.25,132.17,263.14,149,320.75Z" fill="#223242"/><path d="M152.81,339.62c.16-12-3.89-25.37-3.93-25.5-4.43-25.5-12.11-47.15-22.78-64.25-1-1.6-2-3.18-3.09-4.79-5-7.59-10.12-15.44-12.72-27.31A60.8,60.8,0,0,1,109,202.61a52.14,52.14,0,0,0-1.35-14.31c-2.78-11.37-9.65-22.36-20.42-32.68l-.64,1c10.56,10.12,17.29,20.87,20,31.94a51,51,0,0,1,1.3,13.93A62.15,62.15,0,0,0,109.22,218c2.66,12.15,7.89,20.12,12.94,27.83,1,1.6,2.08,3.17,3.07,4.76,10.57,16.93,18.17,38.39,22.59,63.78.06.23,4,13.38,3.89,25.13Z" fill="#223242"/><path d="M151.91,330.58s-42.06-48.21-75.13-75.89l31.57,9.16,30,35.8Z" fill="#223242"/><path d="M151.91,330.58C147,311.31,140.27,299,135,291.41c-7.56-11-12.66-13.38-22.65-28.41-8.91-13.4-9.5-18.51-14.14-24.89-7.23-10-21.38-19-51.93-13.22a13.21,13.21,0,0,1,9.21,2.82C60,231.19,71,255,86.54,261.09s31.07,11.47,45.19,33.43S151.91,330.58,151.91,330.58Z" fill="#80ba91"/><path d="M154.59,340.73l1-.33-3.2-10c-9.81-30.59-27.29-47.78-44.21-64.4a254.62,254.62,0,0,1-18.39-19.37c-19.51-23.72-33-21.87-33.59-21.78l.27,1.29c.13,0,13.54-1.8,32.56,21.33A255.94,255.94,0,0,0,107.56,267c16.78,16.5,34.14,33.56,43.83,63.78Z" fill="#223242"/><ellipse cx="237.64" cy="386.04" rx="93.49" ry="5.67" fill="#bbc5d4" opacity="0.52"/><path d="M346.3,105.66c-9-17.86-24.56-25.72-39.69-29.75-13.73-3.66-27.48-.08-39.64,9a45.73,45.73,0,0,1-26.92,9.47c-.81,0-4,0-4.82,0a45.71,45.71,0,0,1-26.92-9.47c-12.16-9.07-25.91-12.65-39.64-9C153.54,79.94,138,87.8,129,105.66c-15.79,31.45-12.57,78,3.12,108.19,3.3,6.36,3.72,14.62,3.33,22.36-.58,11.17-.74,21.66-.4,32.85a348.57,348.57,0,0,0,3.43,41.19c3.5,23.25,10.38,46.52,23.8,62.67a63.88,63.88,0,0,0,11,10.48c11,8.24,23.09.54,28.14-14.18,3.2-9.31,3.74-19.81,4.42-30,1.5-22.53,7.34-43.57,26.3-46.26a18.67,18.67,0,0,1,3.16-.18,19.48,19.48,0,0,1,2.41.14,19.48,19.48,0,0,1,2.41-.14,18.67,18.67,0,0,1,3.16.18c19,2.69,24.8,23.73,26.3,46.26.68,10.22,1.22,20.72,4.42,30,5.05,14.72,17.15,22.42,28.14,14.18A63.88,63.88,0,0,0,313,372.92c13.41-16.15,20.3-39.42,23.8-62.67a348.57,348.57,0,0,0,3.43-41.19c.33-11.19.17-21.68-.4-32.85-.39-7.74,0-16,3.33-22.36C358.87,183.64,362.09,137.11,346.3,105.66Z" fill="#fff"/><path d="M326.85,336.51c-15.22,8.23-32,.54-39-14.18-4.43-9.32-5.18-19.82-6.12-30-2.07-22.53-10.16-43.57-36.41-46.26a37.83,37.83,0,0,0-4.38-.18c-1.11,0-2.22.06-3.33.14-1.11-.08-2.23-.16-3.33-.14a37.74,37.74,0,0,0-4.38.18c-26.25,2.69-34.34,23.73-36.42,46.26-.93,10.22-1.69,20.72-6.11,30-7,14.72-23.75,22.41-39,14.18-1.75-.95-3.44-2-5.11-3,4.07,14.88,10.05,28.73,18.94,39.44a64.27,64.27,0,0,0,11,10.48c11,8.24,23.09.54,28.14-14.18,3.2-9.31,3.74-19.81,4.42-30,1.5-22.53,7.34-43.57,26.3-46.26a18.67,18.67,0,0,1,3.16-.18,19.48,19.48,0,0,1,2.41.14,19.48,19.48,0,0,1,2.41-.14,18.67,18.67,0,0,1,3.16.18c19,2.69,24.8,23.73,26.3,46.26.68,10.22,1.22,20.72,4.42,30,5.05,14.72,17.15,22.42,28.14,14.18A64.27,64.27,0,0,0,313,372.92c8.89-10.71,14.87-24.56,18.94-39.44C330.29,334.54,328.59,335.56,326.85,336.51Z" fill="#d9e7fc"/><path d="M237.64,122.32c26.55,0,49.08-20,57.22-47.75-9.71.24-19.21,3.85-27.89,10.33a45.73,45.73,0,0,1-26.92,9.47c-.81,0-4,0-4.82,0a45.71,45.71,0,0,1-26.92-9.47c-8.68-6.48-18.18-10.09-27.89-10.33C188.56,102.34,211.09,122.32,237.64,122.32Z" fill="#d9e7fc"/><path d="M98.92,401.51c0,2.22-14.14,4-31.58,4s-31.58-1.8-31.58-4,14.14-4,31.58-4S98.92,399.29,98.92,401.51Z" fill="#bbc5d4" opacity="0.52"/><path d="M50,381.36l-10.75.15q1.35,6.06,2.9,12.43l7.4-.11Z" fill="#fcc6ba"/><path d="M75.82,379.54l-11.37.16,4.12,11.91,8.47-3S76.59,385.19,75.82,379.54Z" fill="#fcc6ba"/><path d="M52.3,392.52l-10.68,0s-2.37,2.06-3.41,11.17l22.31.06a7.3,7.3,0,0,0-5.24-7.47Z" fill="#223242"/><path d="M67.57,389.72s-.67,7.09.27,10l24.59.25s1.35-6.29-14.41-10.19Z" fill="#223242"/><path d="M44.38,392.84,43,389.62a15.06,15.06,0,0,1,9.65-.48V393Z" fill="#223242"/><path d="M73.54,389.86l-.93-3.18A5.24,5.24,0,0,1,78,386l.15,3.89Z" fill="#223242"/><polygon points="51.93 174.63 62.29 172.72 56.25 145.06 46.75 147.13 51.93 174.63" fill="#fcc6ba"/><path d="M55.78,131.28s15.27-3.63,14.21,4.95-3.9,11.28-3.9,11.28Z" fill="#223242"/><path d="M68.27,142.23a13.9,13.9,0,1,1-16.61-10.9A14,14,0,0,1,68.27,142.23Z" fill="#fcc6ba"/><path d="M67.67,140.23s5,15.77-1.71,24.22a1.88,1.88,0,0,1-1.41.7c-3.34.06-18.12-1.56-22.34-14.63Z" fill="#fcc6ba"/><path d="M56.76,152.61s11.58-5,12.83-2c0,0,1,14.79-4.86,14.8C54.65,165.4,56.76,152.61,56.76,152.61Z" fill="#fff"/><path d="M53,147.89s2.81,4.53,6.48,6.29" fill="none" stroke="#fff" stroke-linecap="round" stroke-miterlimit="10" stroke-width="0.75"/><path d="M51.08,154.69a17.21,17.21,0,0,0,9.42,8.36" fill="none" stroke="#fff" stroke-linecap="round" stroke-miterlimit="10" stroke-width="0.75"/><path d="M65.26,136.07s-4.79,11.67-12.41,12.61c0,0-3.66-2.94-4.77-.25s.7,6.1,3,6.26c0,0-2,5-1.39,8,0,0-5.38-2-7.48-4.33-2.75-3-4.41-10.46-3.2-17.42C40.4,132.94,58.8,123.1,65.26,136.07Z" fill="#223242"/><path d="M45,136.84a7.67,7.67,0,0,0-7.61-6.48,7.61,7.61,0,0,0-6.34,4.34c-1.88,3.84-.26,9,2.8,10.39C38.14,147.05,45.52,142,45,136.84Z" fill="#223242"/><path d="M65.1,135.68s1.78,4.45-3.34,9.09" fill="none" stroke="#223242" stroke-linecap="round" stroke-miterlimit="10" stroke-width="0.75"/><path d="M44,136.17s1.27-6.52-6.08-7.11" fill="none" stroke="#223242" stroke-linecap="round" stroke-miterlimit="10" stroke-width="0.75"/><path d="M60.59,164.79s-5.24-1.23-7.09-2.39c0,0,5.32,3.58,7.43,4Z" fill="#223242"/><path d="M49,155.49a1.56,1.56,0,1,0,.84-2A1.56,1.56,0,0,0,49,155.49Z" fill="#fff"/><path d="M86.51,236.29c-16.75,0-44.07,1.27-44.07,1.27-.69,3.25.4,2.37-1.32,5.95A27.55,27.55,0,0,0,38.88,261c.43,2.12.89,4.37,1.33,6.5,0,0,.23,12.48,0,20.38s-2.84,22.09-4.57,29.5a77.06,77.06,0,0,0-2.31,22.79c.4,8.79,5.79,43.15,5.79,43.15s3.81,4.76,11.73,0c0,0,.68-49.24,2.26-54.71s1.7-2.15,6-10.88c2-3.95,5.75-18.63,9.32-33.55.09,3.67.07,7-.11,9.47-.88,12.15-5.57,28.45-6,33.78s1.32,52.77,1.32,52.77,4.42,5.5,13.16,1c0,0,2.82-44.57,2.63-49.56S89,311.3,91.38,298.27,91.67,248.36,86.51,236.29Z" fill="#223242"/><path d="M48.65,237.29a39.07,39.07,0,0,0-1.9,20c1.9,11.13-1.67,47.55-6,58.65s-4.24,28,1.73,68.4" fill="none" stroke="#6588fc" stroke-linecap="round" stroke-linejoin="round" stroke-width="0.75"/><line x1="68.48" y1="284.15" x2="74.76" y2="270.12" fill="none" stroke="#223242" stroke-linecap="round" stroke-linejoin="round" stroke-width="0.75"/><path d="M67.11,382.41s-1.79-48.86,0-54.65,7.65-28.7,3.74-48.91" fill="none" stroke="#6588fc" stroke-linecap="round" stroke-linejoin="round" stroke-width="0.75"/><path d="M100.32,225.5c5.53-9.38,6.09-10.7,13.39-27.54l-5.84-2.78L98,207.54c-1.19-2-8.82-13.51-10.79-21.65-2.94-12.1-14.81-14.4-14.81-14.4A30.7,30.7,0,0,0,78.08,184h0l-1.59,4.77C79.4,191.62,89.73,239.24,100.32,225.5Z" fill="#fff"/><path d="M107.87,195.18,98,207.54c-.76-1.26-3.52-5.91-6.84-11.77-5.45,1.78-6.62,5.6-8.5,9.8,4.66,13.37,11.13,28.45,17.7,19.93,5.53-9.38,5.77-9.77,14-29.48Z" fill="#fcc6ba"/><path d="M84.22,189.88S76.6,173.54,77,173.31c0,0-2.1-2-15.67-3.88l-.85,3.44-8.28-1.79s-11.63,2-17.77,8c0,0-.75,13.58.65,20.3l.78,3.72c1,4.93,11.23,19.31,11.23,19.31l-4.64,15.19s29.27,5.2,44.07-1.27l-6.88-19Z" fill="#fff"/><path d="M47.08,222.37s-10.61,25-10.73,37.8-2.13,50.68-2.13,50.68,31.18,10.4,58.14-3.45c0,0,5.73-61-13.57-90.92Z" fill="#fff"/><path d="M68.05,170.81A12.37,12.37,0,0,1,65.74,176l-3.43-2.57,2.25,6.09s7.49,19.46,8.69,24.92,17,73.46,1.51,109.1" fill="none" stroke="#223242" stroke-linecap="round" stroke-linejoin="round" stroke-width="0.75"/><path d="M50.59,167.82,61,173.74l-6.35,5.31-7.56-5.44A6.91,6.91,0,0,1,50.59,167.82Z" fill="#fff"/><path d="M68,170.53s-3.1-3.07-6.93-3.31l-.62,5.65" fill="#fff"/><polyline points="47.09 173.61 54.64 179.05 59.55 174.07 67.39 187.08" fill="none" stroke="#223242" stroke-linecap="round" stroke-linejoin="round" stroke-width="0.75"/><rect x="36.68" y="378.77" width="17.42" height="8.37" rx="2.14" transform="translate(-34.61 5.71) rotate(-5.21)" fill="#223242"/><rect x="62.02" y="375.98" width="17.42" height="8.37" rx="2.14" fill="#223242"/><polygon points="148.62 142.31 145.99 140.23 121.67 169.57 125.59 172.68 148.62 142.31" fill="#bbc5d4"/><path d="M120.9,167.09h7.86a2.06,2.06,0,0,1,2.06,2.06v3.13a0,0,0,0,1,0,0h-12a0,0,0,0,1,0,0v-3.13A2.06,2.06,0,0,1,120.9,167.09Z" transform="translate(132.43 -40.84) rotate(38.41)" fill="#bbc5d4"/><path d="M128.25,174.79l-2.65-2.11-3.93-3.11-2.12-1.68a1.76,1.76,0,0,0-2.46.28L47.73,255.66a7.3,7.3,0,1,0,11.44,9.07l69.36-87.49A1.74,1.74,0,0,0,128.25,174.79Z" fill="#bbc5d4"/><line x1="122.93" y1="171.49" x2="48.92" y2="265.92" fill="none" stroke="#223242" stroke-linecap="round" stroke-linejoin="round" stroke-width="0.75"/><path d="M43.52,262.24h13a0,0,0,0,1,0,0V263a3.66,3.66,0,0,1-3.66,3.66h-5.7A3.66,3.66,0,0,1,43.52,263v-.81a0,0,0,0,1,0,0Z" transform="translate(175.13 26.14) rotate(38.41)" fill="#bbc5d4"/><ellipse cx="162.76" cy="122.32" rx="29.54" ry="24.62" transform="translate(-34.21 173.87) rotate(-51.59)" fill="#909ab5"/><g opacity="0.5"><path d="M178.72,135c-8.38,10.58-22.33,13.49-31.15,6.5s-9.16-21.23-.78-31.81,22.34-13.5,31.16-6.51S187.11,124.4,178.72,135Z" fill="#fff"/></g><g opacity="0.5"><path d="M178.72,135c8.39-10.58,8.05-24.83-.77-31.82s-22.77-4.08-31.16,6.51a28.44,28.44,0,0,0-1.66,2.34c4.93-1.38,9.6-1.52,13.32.92,9.32,6.12,5.6,23.71,7.51,31.17A27.54,27.54,0,0,0,178.72,135Z" fill="#fff"/></g><path d="M40.63,230c.17,0-2.37-2.91-4.79-5.71,1.25-6.45,10.06-44.41-1.42-45.28,0,0-10.13,11.41-11.28,40.4,0,.25,0,8,0,8,.24,2.71,16.49,19.56,25.73,25,1.77-1.72,3.48-3.5,5.2-5.26Z" fill="#fff"/><path d="M54.09,247.12,40.63,230c.17,0-2.37-2.91-4.79-5.71.21-1.11.65-3.12,1.17-5.69-6.74-4.64-10.44-5.17-13.46-5q-.27,2.79-.41,5.83c0,.25,0,8,0,8,.24,2.71,16.49,19.56,25.73,25C50.66,250.66,52.37,248.88,54.09,247.12Z" fill="#fcc6ba"/><path d="M52.22,245.58s5.29-5.18,6.24-8.16,3,.63,1.79,3.43-2.2,4.92-2.2,4.92L63.26,247s3.15,6.56-7.6,9.2l-8.09-3.64S48.71,247.11,52.22,245.58Z" fill="#6588fc"/><path d="M62.25,246.76s7,.69,7.82.7c3.54.09,3.92,2.1,2.17,2-2.7-.1-11.27.16-11.27.16Z" fill="#6588fc"/><path d="M61.67,252.47s13.22,1.61,13.09.81-2.4-2.3-4.56-2.51c-3.33-.32-10.1-1.47-10.1-1.47Z" fill="#6588fc"/><path d="M58.83,255.11s12,2.27,12,1.47-2-2.38-3.94-2.7c-3-.49-9.19-2-9.19-2Z" fill="#6588fc"/><path d="M54.2,255.34s9.35,5.45,9.56,4.78-.93-2.57-2.48-3.41c-2.39-1.31-7.06-4.35-7.06-4.35Z" fill="#6588fc"/><path d="M49.59,253.48s-4.77-1.7-6.7-2.66C40.74,249.76,46.77,241.1,50,240s1,2.29,4.88,3.65Z" fill="#6588fc"/><path d="M59.13,243.38s-1.37,3.25,3.48,3.6l-7.06.24Z" fill="#6588fc"/><line x1="38.99" y1="209.39" x2="42.44" y2="196.93" fill="none" stroke="#223242" stroke-linecap="round" stroke-linejoin="round" stroke-width="0.75"/><path d="M117.11,191.05s-1.15,1.22-4.56,1.47-7,1.44-6.37,2.64,6.54.79,6.54.79S119,194.43,117.11,191.05Z" fill="#6588fc"/><path d="M114.81,194.67s-1.14,1.21-4.55,1.47-4.94,1.54-4.34,2.74,4.5.69,4.5.69S116.74,198.05,114.81,194.67Z" fill="#6588fc"/><path d="M112.16,198.19s-.81.86-3.22,1-3.49,1.09-3.07,2,3.18.48,3.18.48S113.52,200.58,112.16,198.19Z" fill="#6588fc"/><path d="M118.51,189.77s-1.5.72-4.78-.27-5.15-.34-5,1,4,2.26,4,2.26S119.09,193.62,118.51,189.77Z" fill="#6588fc"/><path d="M79.76,211.58s4.28-4.44,4.28-9.2c0-4.42-4.73-9.58-4.73-9.58l-.52-7.45" fill="#fff" stroke="#223242" stroke-linecap="round" stroke-linejoin="round" stroke-width="0.75"/><path d="M50.81,211.58a21.49,21.49,0,0,0,17.21,2" fill="#fff" stroke="#223242" stroke-linecap="round" stroke-linejoin="round" stroke-width="0.75"/><rect x="50.42" y="196.82" width="9.51" height="3.39" transform="translate(-47.86 20.09) rotate(-14.47)" fill="#6588fc"/><path d="M47.79,394.67a6.81,6.81,0,0,1,6.09,0" fill="none" stroke="#fff" stroke-linecap="round" stroke-miterlimit="10" stroke-width="0.75"/><path d="M49.37,396.44a6.82,6.82,0,0,1,6.09,0" fill="none" stroke="#fff" stroke-linecap="round" stroke-miterlimit="10" stroke-width="0.75"/><path d="M79.22,392a7.16,7.16,0,0,1,4-.67" fill="none" stroke="#fff" stroke-linecap="round" stroke-miterlimit="10" stroke-width="0.75"/><path d="M75.88,390.91a7.14,7.14,0,0,1,4-.67" fill="none" stroke="#fff" stroke-linecap="round" stroke-miterlimit="10" stroke-width="0.75"/><ellipse cx="349.05" cy="407.13" rx="48.84" ry="3.19" fill="#bbc5d4" opacity="0.52"/><rect x="304.68" y="285.62" width="88.74" height="121.51" rx="5.13" fill="#6588fc"/><rect x="313.81" y="285.62" width="70.48" height="112.25" fill="#fff"/><path d="M364.73,280h-4.31a1.59,1.59,0,0,1-1.59-1.34,9.88,9.88,0,0,0-19.57,0,1.58,1.58,0,0,1-1.59,1.34h-4.3a1.57,1.57,0,0,0-1.57,1.57v9.09a1.57,1.57,0,0,0,1.57,1.57h31.36a1.56,1.56,0,0,0,1.56-1.57v-9.09A1.56,1.56,0,0,0,364.73,280Zm-15.68,4.08a4.08,4.08,0,1,1,4.07-4.08A4.08,4.08,0,0,1,349.05,284.08Z" fill="#909ab5"/><path d="M372,305.57a4.17,4.17,0,0,0-2.86-2,3.5,3.5,0,0,0-2.86.61,3.45,3.45,0,0,1-1.94.63H364a3.45,3.45,0,0,1-1.94-.63,3.5,3.5,0,0,0-2.86-.61,4.18,4.18,0,0,0-2.87,2,8.21,8.21,0,0,0,.23,7.28,2.77,2.77,0,0,1,.24,1.5c0,.75-.06,1.46,0,2.21a21.28,21.28,0,0,0,.25,2.77,8.36,8.36,0,0,0,1.71,4.21,4.79,4.79,0,0,0,.79.71c.8.55,1.67,0,2-1a7.06,7.06,0,0,0,.32-2c.11-1.51.53-2.93,1.9-3.11h.8c1.37.18,1.79,1.6,1.9,3.11a7.42,7.42,0,0,0,.32,2c.37,1,1.24,1.51,2,1a4.42,4.42,0,0,0,.79-.71,8.28,8.28,0,0,0,1.72-4.21,21.28,21.28,0,0,0,.25-2.77c0-.75,0-1.46,0-2.21a2.77,2.77,0,0,1,.24-1.5A8.21,8.21,0,0,0,372,305.57Z" fill="#6588fc"/><path d="M359.73,321.45A9,9,0,0,1,359,319a20.05,20.05,0,0,1-.22-2.54c0-.68,0-1.33,0-2.05a4.51,4.51,0,0,0-.47-2.5,6.44,6.44,0,0,1-.21-5.51,2.06,2.06,0,0,1,1.54-1,.66.66,0,0,1,.24,0,1.57,1.57,0,0,1,.84.31,5.61,5.61,0,0,0,3.17,1h.35a5.61,5.61,0,0,0,3.2-1,1.61,1.61,0,0,1,.85-.31.63.63,0,0,1,.23,0,2.06,2.06,0,0,1,1.54,1,6.4,6.4,0,0,1-.21,5.51,4.67,4.67,0,0,0-.47,2.5c0,.72.05,1.37,0,2.05a19.92,19.92,0,0,1-.23,2.54,8.64,8.64,0,0,1-.7,2.41c0-.07,0-.3,0-.3-.27-3.69-2.15-4.7-3.68-4.91l-.49,0H364a4.11,4.11,0,0,0-.53,0c-1.54.21-3.42,1.22-3.68,4.9Z" fill="#fff"/><polyline points="362.19 311.23 363.96 313.07 366.34 310.09" fill="none" stroke="#6588fc" stroke-linecap="round" stroke-linejoin="round"/><path d="M347.26,332.05h-22.4a1,1,0,0,1-1-1h0a1,1,0,0,1,1-1h22.4a1,1,0,0,1,1,1h0A1,1,0,0,1,347.26,332.05Z" fill="#6588fc"/><path d="M373.23,338.59H324.86a1,1,0,0,1-1-1h0a1,1,0,0,1,1-1h48.37a1,1,0,0,1,1,1h0A1,1,0,0,1,373.23,338.59Z" fill="#6588fc"/><path d="M373.23,345.55H324.86a1,1,0,0,1-1-1h0a1,1,0,0,1,1-1h48.37a1,1,0,0,1,1,1h0A1,1,0,0,1,373.23,345.55Z" fill="#6588fc"/><path d="M373.23,352.51H324.86a1,1,0,0,1-1-1h0a1,1,0,0,1,1-1h48.37a1,1,0,0,1,1,1h0A1,1,0,0,1,373.23,352.51Z" fill="#6588fc"/><path d="M373.23,359.47H324.86a1,1,0,0,1-1-1h0a1,1,0,0,1,1-1h48.37a1,1,0,0,1,1,1h0A1,1,0,0,1,373.23,359.47Z" fill="#6588fc"/><path d="M373.23,366.42H324.86a1,1,0,0,1-1-1h0a1,1,0,0,1,1-1h48.37a1,1,0,0,1,1,1h0A1,1,0,0,1,373.23,366.42Z" fill="#6588fc"/><path d="M373.23,374.18H324.86a1,1,0,0,1-1-1h0a1,1,0,0,1,1-1h48.37a1,1,0,0,1,1,1h0A1,1,0,0,1,373.23,374.18Z" fill="#6588fc"/><path d="M373.23,381.14H324.86a1,1,0,0,1-1-1h0a1,1,0,0,1,1-1h48.37a1,1,0,0,1,1,1h0A1,1,0,0,1,373.23,381.14Z" fill="#6588fc"/><polygon points="384.29 397.88 313.81 397.88 313.81 400.49 349.05 399.18 384.29 400.49 384.29 397.88" fill="#223242"/><path d="M233.4,49.25,236,56.76a.51.51,0,0,0,.24.28L244,59.58a.48.48,0,0,1,0,.91L236.24,63a.49.49,0,0,0-.23.28l-2.51,7.55a.49.49,0,0,1-.94,0L230,63.31a.47.47,0,0,0-.23-.27l-7.55-2.47a.54.54,0,0,1,0-1c2.64-.85,7.52-2.45,7.52-2.45a.49.49,0,0,0,.23-.28l2.5-7.54A.5.5,0,0,1,233.4,49.25Z" fill="#fff"/><path d="M251.52,35.35l1.39,4.08a.37.37,0,0,0,.13.15L257.27,41a.26.26,0,0,1,0,.49l-4.21,1.35a.28.28,0,0,0-.12.16l-1.36,4.09a.27.27,0,0,1-.51,0L249.68,43a.24.24,0,0,0-.13-.15l-4.09-1.34a.29.29,0,0,1,0-.56l4.08-1.33a.26.26,0,0,0,.12-.15L251,35.36A.27.27,0,0,1,251.52,35.35Z" fill="#fff"/><path d="M379.08,110.44l1.39,4.08a.37.37,0,0,0,.13.15l4.23,1.37a.26.26,0,0,1,0,.5l-4.21,1.35a.29.29,0,0,0-.12.15l-1.36,4.1a.27.27,0,0,1-.51,0l-1.39-4.07a.24.24,0,0,0-.13-.15L373,116.58a.3.3,0,0,1,0-.57c1.43-.45,4.08-1.32,4.08-1.32a.26.26,0,0,0,.12-.15l1.36-4.09A.27.27,0,0,1,379.08,110.44Z" fill="#fff"/><path d="M60.37,163.31" fill="none" stroke="#fff" stroke-linecap="round" stroke-miterlimit="10" stroke-width="0.75"/></g></svg>