<svg id="Layer_1" data-name="Layer 1" xmlns="http://www.w3.org/2000/svg" viewBox="0 0 2543.77 1412.51"><path d="M218.18,1409.16S-5.25,991.33,280.54,680.05,812.13,541.23,936.83,532.58s164.71-281.28,533.64-363.51,712.72,68.9,675.58,340.12c-55.45,404.86,636.41,196.53,281,899.75Z" fill="#9ed9f0" opacity="0.4"/><polygon points="1035.64 1397.13 1816.4 600 1786.55 570.15 1005.78 1367.27 1035.64 1397.13" fill="#afcdfb"/><path d="M1091.36,1405.37H746.8c-39.18,0-74-15.63-93-41.8-18.23-25-18.1-54.81.36-79.74l105.51-138.89,73.79-1.49-123.53,166c-6.76,9.14-6.82,19.63-.14,28.78,7.42,10.19,21.28,16.27,37,16.27h284.33c33.26,0,60.23,22.77,60.23,50.86Z" fill="#6488d3"/><path d="M778.56,1294.1H993.25a12.26,12.26,0,0,1,12.26,12.26v35.88a12.27,12.27,0,0,1-12.27,12.27H778.56a12.27,12.27,0,0,1-12.27-12.27v-35.88A12.27,12.27,0,0,1,778.56,1294.1Z" fill="#7ea6ed"/><path d="M822.32,1043.09,540.23,690.91a324.72,324.72,0,0,0-23.48-29.42,102,102,0,0,0-90.37-32.13h0c-41.85,8-67.38,41.18-59.35,83L640.73,1078a77.61,77.61,0,0,0,48.69,57.78,81.38,81.38,0,0,0,8,2.57,76.77,76.77,0,0,0,34,1.13l29.37-5.65A77.73,77.73,0,0,0,822.32,1043.09Z" fill="#afcdfb"/><path d="M1220,982.64l-21.85,28.83s-142.77-1.49-187.43-21.69c-14.51-6.57-146.92,4.44-184.3-10-8-3.09-14.64-7.2-19.56-12.84-28.34-32.56-12.69-69.21-12.69-69.21S851.08,891.83,906,896c39.1,3,98.07,13.36,122.25,27.81C1066.24,946.55,1220,982.64,1220,982.64Z" fill="#ffb07b"/><path d="M1252.48,932.84a7.74,7.74,0,0,0-5.73,3.64c-3.36,5.18-8.41,15.93-20,23.4-6.54,4.22-26.29,22.12-26.29,22.12l-.06.11c-.16.49-.3,3,3.81,15.55,2.12,6.49-10.18,12.19-10.18,12.19a12.17,12.17,0,0,0,2.5,4.07,11.11,11.11,0,0,0,6.87,3.59c4.53.63,11.59,5.87,16.25,9.73,2.82,2.34,4.77,4.16,4.77,4.16s2.47,1.5,7.31-8.92l4.24-12.59c.83-4.41.8-7.89,1.76-12.38,1.45-6.82,4.84-9,5.59-9.46l.15-.08,18-53.47C1260.17,932.58,1255.8,932.55,1252.48,932.84Z" fill="#415da5"/><path d="M638.88,643a373.19,373.19,0,0,1,20.1,35.4,162,162,0,0,1,9.8,24L611.09,736.5s.64-33.09-10.65-52.62c-.66-1.16-1.38-2.27-2.13-3.33a27.26,27.26,0,0,0-8.21-7.73l5.28-8.07L617,653.92Z" fill="#ffb07b"/><path d="M638.88,643a373.19,373.19,0,0,1,20.1,35.4c-21.9,11.24-48.79,7.43-58.54,5.49-.66-1.16-1.38-2.27-2.13-3.33l8.57-13.17L617,653.92Z" fill="#ea8e50"/><path d="M663,656.93s-50.27,50.65-81.34,18.86S523.16,629.12,554,595.43s49-27.73,61.92-19.64S675.25,642.93,663,656.93Z" fill="#ffb07b"/><path d="M907.14,900.14c.2,3.27-.12,30.68-17.74,42.71-11.43,7.87-39.2,27-65.94,36.86-7.83-3.49-14.26-7.94-18.89-13.82-26.65-33.95-9.15-69.76-9.15-69.76S852.54,893.16,907.14,900.14Z" fill="#aa3e39"/><path d="M720.14,882.79s63.34,16.86,109.31-1.92a579.67,579.67,0,0,0,86.17,15.91s-16.5,75.38-27.13,88.15c-3.45,4.14-60.89,4.23-98.77,4.84a76.16,76.16,0,0,1-59.14-26.54,255.18,255.18,0,0,1-18.93-25.07C688.1,902.59,720.14,882.79,720.14,882.79Z" fill="#b84c42"/><path d="M804.33,833.2l-18.19-25.89-17.14-22a320.42,320.42,0,0,0-95.38-82.16l-6.37-3.59s-42.77,6.53-59,11.09c0,0-7.56,44.57.28,67.38,4.73,13.26,35,81.94,95.57,152.46,0,0,52,18.55,96.34-22.44,6.82-6.14,28.93-16.54,33.59-30.59C835.63,872.74,807.77,836.81,804.33,833.2Z" fill="#739cf3"/><path d="M530.66,712.72,474.19,645a23.44,23.44,0,0,1,4-33.79l1.56-1.16a23.43,23.43,0,0,1,32.35,4.16L567,683.09a23.43,23.43,0,0,1-3.36,32.65h0A23.43,23.43,0,0,1,530.66,712.72Z" fill="#b84c42"/><path d="M511.93,616.09a12.25,12.25,0,0,1,6.63-.73v-.06c-5.48-7.76-3.65-21-3.65-21C514.63,601.47,522,609,522,609c-2.75-26.17,59.92-50,65.7-52.42s3.84-12.23,3.84-12.23c12.62,1,27.57,15.21,29,30.59s-4.2,57.94-11.06,53.31c-14.84-10-16.69,13.29-2.36,19.71,9.84,4.4,3,24.83-6.09,34.74-7.29,8-12.25,2.63-17.32.61a14.45,14.45,0,0,0-3.92-1c-19.34-2-41.17-18.23-53.75-40.82a64.18,64.18,0,0,1-7.22-23.1A33.5,33.5,0,0,0,511.93,616.09Z" fill="#2c3a64"/><path d="M645.46,749.14s-26.39,41.4-1.67,97.92c0,0,32.54,51.53,60.35,83.44,0,0,50.36,24.83,108.11-28.64l-60.32-25.67Z" fill="#6488d3"/><path d="M902,893.18c-2-2.28-9.22-10.63-32.78-10.88h0c-25.77-2.24-101-9.54-107.6-19.1-4.47-6.47-66.21-130.49-71.63-131.32-17.76-2.61-48.58,29.44-44,45.13,0,0,63.59,129.47,77.65,132,22.71,4,103.88,1.07,134.09-5.42,3.65,2,17.83,9.59,21.23,11.09,3.9,1.72,19.09,1.69,25.19-2.69S906.22,898.18,902,893.18Z" fill="#ffb07b"/><path d="M724.77,788.7c-10.58,19.71-31.1,35.86-58.35,41.22-5.36-6.39-20.51-52.91-20.51-52.91-4.55-15.69-6.14-69.44,42.49-50C718.82,739.19,720.86,778.21,724.77,788.7Z" fill="#739cf3"/><path d="M1311.8,1257.51l-268.87-116.84,59.76-137.52L1371.56,1120a65.92,65.92,0,0,1,34.19,86.74l-7.21,16.6A65.93,65.93,0,0,1,1311.8,1257.51Z" fill="#9fc1f4"/><path d="M1143.35,1119v-98.16l-40.66-17.67-59.76,137.52,54.88,23.85h0A45.54,45.54,0,0,0,1143.35,1119Z" fill="#7ea6ed"/><path d="M1068.91,987.5H750.38L494,681.55c-20.18-26.44-32.52-38.28-48.29-47.72a31.74,31.74,0,0,0-22.3-3.87h0c-.87.17-1.74.35-2.6.55-51.12,11.65-72,73.37-39.74,114.71L640.73,1078a76.77,76.77,0,0,0,17.85,36.38c.27.52.56,1,.84,1.54,0,.06.07.11.1.16q1.29,2.26,2.79,4.38l.18.25c1,1.36,2,2.68,3.1,3.94l.28.33c.35.4.71.8,1.07,1.19h0c.78.85,1.39,1.47,2.23,2.26l.46.43,1.07,1,.53.46c.62.53,1.24,1,1.88,1.55l.64.5,1,.76.81.58,1,.68c.53.36,1.07.7,1.62,1,.3.19.61.37.92.55l1.07.62.91.5c.57.31,1.14.6,1.73.89l.8.38c.46.22.93.43,1.4.63l.83.36c.55.23,1.1.44,1.65.65l.56.22c.68.24,1.35.47,2,.69l.74.23c.51.16,1,.31,1.55.44l.74.2c.74.19,1.49.37,2.24.52l.63.13,1.89.34.58.09c.78.12,1.57.22,2.36.3l.44,0c.67.07,1.35.12,2,.16l.68,0c.81,0,1.63.07,2.46.07h362.47a53.56,53.56,0,0,0,18.53-3.3,54.3,54.3,0,0,0,35.53-50.77h0v-47.82A54.22,54.22,0,0,0,1068.91,987.5Z" fill="#9fc1f4"/><path d="M1121.42,1072.39H642.17c-3.28,0-18.8.32-18.8-6h0a6,6,0,0,1,6-6h492.08a6,6,0,0,1,6,6h0A6,6,0,0,1,1121.42,1072.39Z" fill="#6488d3"/><polygon points="1140.63 580.65 1135.66 584.52 1129.42 576.51 1128.24 577.43 1102.48 544.36 1101.93 544.79 1127.69 577.86 1126.51 578.78 1132.75 586.78 1127.78 590.66 1129.34 592.66 1131.99 590.6 1159.35 625.72 1170.41 624.33 1139.54 584.71 1142.19 582.65 1140.63 580.65" fill="#afcdfb"/><rect x="1098.67" y="302.22" width="827.24" height="42.23" transform="translate(671.57 -974.65) rotate(45)" fill="#afcdfb"/><rect x="1040.43" y="111.97" width="217.4" height="42.23" transform="translate(242.47 851.54) rotate(-45)" fill="#afcdfb"/><ellipse cx="1033.36" cy="248.85" rx="75.56" ry="120.98" transform="translate(126.7 803.58) rotate(-45)" fill="#6488d3"/><ellipse cx="972.04" cy="310.18" rx="134" ry="214.56" transform="translate(65.37 778.18) rotate(-45)" fill="#9fc1f4"/><path d="M1135.26,316c15.6,50.35,10.55,97.3-18.51,126.36-52.33,52.33-162.67,26.83-246.47-57-31.29-31.3-54.45-66.3-68.47-100.6,12.49,40.33,38.21,82.84,75.47,120.1,83.8,83.79,194.14,109.29,246.47,57C1156.54,429.11,1158.77,373.56,1135.26,316Z" fill="#739cf3"/><ellipse cx="956.83" cy="325.38" rx="104.5" ry="167.32" transform="translate(50.17 771.89) rotate(-45)" fill="#c5ddf9"/><path d="M966.34,310.22c17.57,17.58,22.92,40.72,11.94,51.69s-34.12,5.63-51.69-11.94-22.92-40.72-12-51.7S948.76,292.65,966.34,310.22Z" fill="#fff"/><path d="M1015.48,256.84c17.57,17.57,22.92,40.71,12,51.69s-34.12,5.62-51.7-11.95-22.92-40.72-11.94-51.69S997.91,239.26,1015.48,256.84Z" fill="#fff"/><path d="M889.26,233.15c17.58,17.57,22.92,40.71,12,51.69s-34.12,5.63-51.69-11.95-22.93-40.71-11.95-51.69S871.69,215.57,889.26,233.15Z" fill="#fff"/><path d="M1040.58,384.47c17.58,17.57,22.93,40.72,12,51.69s-34.12,5.63-51.69-12-22.93-40.71-12-51.69S1023,366.89,1040.58,384.47Z" fill="#fff"/><path d="M917.55,359c13.5,13.5,17.61,31.29,9.18,39.72s-26.22,4.32-39.72-9.18-17.61-31.28-9.18-39.72S904,345.51,917.55,359Z" fill="#fff"/><path d="M1020.71,242c-91-88.27-170.86-50-182.19-34.91L39.84,1060.46s-108.82,107,33.23,348.7l1111.53,3.35L1095.83,397.26S1111.69,330.24,1020.71,242Z" fill="#fff" opacity="0.2"/><circle cx="1230.71" cy="51.5" r="51.5" fill="#6488d3"/><path d="M1252.05,51.5a21.34,21.34,0,1,1-21.34-21.33A21.33,21.33,0,0,1,1252.05,51.5Z" fill="#afcdfb"/><circle cx="1784.35" cy="595.39" r="51.5" fill="#6488d3"/><path d="M1805.68,595.39a21.33,21.33,0,1,1-21.33-21.33A21.34,21.34,0,0,1,1805.68,595.39Z" fill="#afcdfb"/><path d="M1374.39,310.18s48.52,2.91,57.87,52.59S1360,558.92,1351.46,568s-97.47,76-155.64,68.19c0,0-22.56,1.29-18-12.34,0,0,117.57-82.54,127.59-93.82s39.34-156.7,45.19-175.22S1374.39,310.18,1374.39,310.18Z" fill="#c5ddf9"/><path d="M1394,318.72l-33.56,78.54-65.25-3.83s34.27-60.38,34.88-66.58c.49-4.8-.08-16.82-.79-28-.62-9.67-1.35-18.69-1.62-21.76,0-.16,0-.33,0-.48-.17-1.9-.34-3.41-.47-4.44s-.24-1.59-.24-1.59l.71-.22,58-17.65,1.44-.44c.85,18.87,2,32.84,3.11,43.22C1391.4,307.3,1392.8,314.42,1394,318.72Z" fill="#ffb07b"/><path d="M1291.35,199s-20.9-92.83,107.49-93.83c29.13-.22,49.91,81.7-5.73,132Z" fill="#2b478b"/><path d="M1465.1,741.43c-8.3,57.75-64,207.87-62.34,259.75,1.28,40.89.61,135.35-4.79,198.09-1.48,17.07-3.24,31.71-5.46,42.37-4.8,23.15-10.93,49.8-14.24,66.6-7.35,37.71-3.51,59.71-9.51,80-6.62,22.13-82.52,18.08-59.65,4.65,8.17-4.79,20-15,25.91-28.13,21.32-47.77-8.57-253.75-17.47-333.16-1.15-9.92-2-17.82-2.3-23.21-3-49.05-36.64-375.82-36.64-375.82C1360.38,587,1473.33,683.68,1465.1,741.43Z" fill="#ffb07b"/><path d="M1465.1,741.43c-8.3,57.75-64,207.87-62.34,259.75,1.28,40.89.61,135.35-4.79,198.09l-80.42-167.72c-1.15-9.92-2-17.82-2.3-23.21-3-49.05-37.48-376-37.48-376C1359.54,586.92,1473.33,683.68,1465.1,741.43Z" fill="#ea8e50"/><path d="M1287.7,643.13s70.23,322.83,78.21,371.29,71.93,276.69,58,333.88c-8.22,33.73-22.56,43.71-22.56,43.71-3.37,6.19,52.18,18.47,56.67-5.2,5.69-30.06,6.89-72.24,15.23-143.76,14.37-123.13-14.13-193.21-21-244.67s23.2-215,6.49-270.94C1429.46,629.61,1364.34,589.5,1287.7,643.13Z" fill="#ffb07b"/><path d="M1485.63,1079.47s-18.29,2.84-45.21,4.72l-14.64-58.69-5.13,59.77c-43.24,1.76-99.71-.4-141.34-17.6L1270.18,643s97.36,7.62,169.89-20.25C1440.07,622.78,1515.43,833.77,1485.63,1079.47Z" fill="#fff"/><path d="M1485.2,1342.74c-3.47,19.75-4.07,55.91-4.14,62.65h-5.94l-.54-45.89c-.44.53-.84,1-1.21,1.43-5.54,6.17-12.87,37.16-18.08,44.46h-64.87c-1.24-2.22-.78-4.43.5-6.44,3-4.74,10.49-8.38,10.49-8.38s21.09,3.26,42-2c8.79-2.22,23.24-81,23.24-81s21.18,13.29,23.47,19.07C1491.28,1329.39,1488.75,1336,1485.2,1342.74Z" fill="#415da5"/><path d="M1394.37,1346.39c-2.37,16.31-3.19,40.43-3.45,52.56-.06,3-.1,5.2-.11,6.44h-5.92l-.54-44.21c-5.51,6.65-12.75,37-17.89,44.21h-64.87c-4.2-7.45,11-14.82,11-14.82s21.09,3.26,42.05-2c8.79-2.22,23.66-80.34,23.66-80.34s20.75,12.61,23,18.39C1402.64,1329.9,1398.91,1338.44,1394.37,1346.39Z" fill="#415da5"/><path d="M1380.49,264.12c-6.48,10.85-21.59,29.1-51.23,34.76-.62-9.67-1.35-18.69-1.62-21.76,0-.16,0-.33,0-.48-.17-1.9-.34-3.41-.47-4.44s-.24-1.59-.24-1.59l.71-.22Z" fill="#ea8e50"/><path d="M1325,289.39s73.06-6.84,68.1-52.27,1.14-76.91-45.72-74.46-54,20.76-56,36.33S1305.88,290,1325,289.39Z" fill="#ffb07b"/><path d="M1310,173.73s-27.35,12-19.14,45.27c0,0-28-48.23,17.28-60.68S1310,173.73,1310,173.73Z" fill="#2b478b"/><path d="M1312.5,162.72s-12.16,30.25,30.08,41.9S1394,244,1388.34,259.35c0,0,51.5-72.51,6.38-103.82S1312.5,162.72,1312.5,162.72Z" fill="#2b478b"/><path d="M1453.08,666.94s-60.54,25-103.44,24.08-50.92-17.67-50.92-17.67c-7.36,7.43-27.89,0-27.89,0s-.85-34.05-1.17-68.2c-.06-6.33-2-11.92-2-18.11-.08-16,0-30.91.38-41a107.07,107.07,0,0,1,.78-11.21c2.68-16.74-12.36-83.88-1.19-118.76,4.27-13.32,56.63-79.73,60.87-84.82-13,26.5-23.54,54.84-23.54,54.84,20.22-4.64,87.39-74.89,87.39-74.89L1436.4,365l8.33,10.18s-8.5,144.75-10.35,171.7S1453.08,666.94,1453.08,666.94Z" fill="#fff"/><path d="M1418.39,547c11.6-24.4,26.34-171.81,26.34-171.81L1436.4,365c-28.5,67.6-85,198.1-100.9,208.19-13.91,8.84-42.93,19.37-65.84,31.92.32,34.15,0,44.1,0,44.1S1387.71,611.59,1418.39,547Z" fill="#c5ddf9"/><path d="M1405.85,365.07c-.49,2.19-31.92,142.84-34.2,145.91s-98.77,68.71-98.77,68.71Z" fill="#c5ddf9"/><path d="M1198.79,622.78s-46.3.84-49.73,6.58,16.25,25.12,34.35,25.57,37.11-16.15,37.11-16.15Z" fill="#ffb07b"/><path d="M1392.33,311.21s43,14.34,52.39,64-72.26,196.16-80.8,205.21-97.47,76-155.63,68.19c0,0-21.62-14.84-17.09-28.47,0,0,116.62-66.41,126.63-77.69s39.35-156.7,45.2-175.22S1392.33,311.21,1392.33,311.21Z" fill="#fff"/><path d="M1272.88,722.62s10.18,225.44,49.18,261.09,80.19,16.48,98.59,101.56c0,0-102.92,15.42-141.34-17.6C1279.31,1067.67,1263.69,860.87,1272.88,722.62Z" fill="#c5ddf9"/><path d="M1297.76,241.44l10.8-8.33,61.75-3.75s-.11,26.42,13.57,35.84c0,0-24.07,26.16-62.57,25.66C1321.31,290.86,1302.46,280.52,1297.76,241.44Z" fill="#fff"/><path d="M1383.88,265.2s-42.15,20.33-52.82,9.66-20.18-37.74-20.18-37.74,8.18,43.58,18.85,50.24S1368.69,280.74,1383.88,265.2Z" fill="#c5ddf9"/><rect x="1980.19" y="715.36" width="8.13" height="45.96" fill="#b64c41"/><path d="M2008.54,1142.67c-1.28,0-2.58-.05-3.92-.14l.21-3c12.4.86,22-2.34,29.24-9.81,24.31-25,17.64-94.2,11.19-161.15-5.92-61.45-12-125,5.84-155.3,26.45-44.84,23.52-90.1-8.7-134.52-.62-.86-1.15-1.59-1.57-2.2a6.55,6.55,0,0,0-5-3c-7.53-.73-17.65,9.14-17.75,9.24l-2.1-2.15c.46-.44,11.23-10.91,20.13-10.08a9.51,9.51,0,0,1,7.15,4.3c.41.59.93,1.3,1.54,2.14,5.34,7.36,17.84,24.59,23.8,48.51,7.44,29.83,2.41,59.88-14.94,89.3s-11.32,92.52-5.44,153.49c6.52,67.63,13.26,137.56-12,163.53C2029.2,1139,2019.9,1142.67,2008.54,1142.67Z" fill="#9fc1f4"/><rect x="1658.83" y="900.35" width="365.08" height="463.34" rx="14.44" fill="#6488d3"/><path d="M1607,1382.2a26,26,0,1,1,26,26A26,26,0,0,1,1607,1382.2Z" fill="#9fc1f4"/><path d="M1614.92,1382.2a18,18,0,1,1,18,18A18,18,0,0,1,1614.92,1382.2Z" fill="#88ade5"/><path d="M1936.7,1382.2a26,26,0,1,1,26,26A26,26,0,0,1,1936.7,1382.2Z" fill="#9fc1f4"/><path d="M1944.64,1382.2a18,18,0,1,1,18,18A18,18,0,0,1,1944.64,1382.2Z" fill="#88ade5"/><path d="M1744.32,864.73h-29.6a2.17,2.17,0,0,0,0-4.33h-21.38a2.17,2.17,0,0,0,0,4.33h.15a13.91,13.91,0,0,0-13.87,13.86v73.94a13.91,13.91,0,0,0,13.87,13.87h50.83a13.91,13.91,0,0,0,13.87-13.87V878.59A13.91,13.91,0,0,0,1744.32,864.73Z" fill="#9fc1f4"/><path d="M1811.74,848.08h-18.45a2,2,0,0,0,2-2v-1.17a2,2,0,0,0-2-2h-14.18a2,2,0,0,0-2,2v1.17a2,2,0,0,0,2,2h2.54A12.72,12.72,0,0,0,1769,860.76V956a12.72,12.72,0,0,0,12.68,12.69h30.09A12.72,12.72,0,0,0,1824.42,956V860.76A12.72,12.72,0,0,0,1811.74,848.08Z" fill="#9fc1f4"/><polygon points="1863.08 901.71 1841.13 901.71 1837.18 867.92 1865.49 867.92 1863.08 901.71" fill="#9fc1f4"/><rect x="1836.77" y="866.46" width="29.38" height="1.46" rx="0.47" fill="#afcdfb"/><polygon points="1863.08 906.34 1841.13 906.34 1837.18 872.54 1865.49 872.54 1863.08 906.34" fill="#9fc1f4"/><rect x="1836.77" y="871.09" width="29.38" height="1.46" rx="0.47" fill="#afcdfb"/><polygon points="1863.08 911.34 1841.13 911.34 1837.18 877.55 1865.49 877.55 1863.08 911.34" fill="#9fc1f4"/><rect x="1836.77" y="876.09" width="29.38" height="1.46" rx="0.47" fill="#afcdfb"/><polygon points="1863.08 917.89 1841.13 917.89 1837.18 884.1 1865.49 884.1 1863.08 917.89" fill="#9fc1f4"/><rect x="1836.77" y="882.64" width="29.38" height="1.46" rx="0.47" fill="#afcdfb"/><polygon points="1863.08 922.71 1841.13 922.71 1837.18 888.91 1865.49 888.91 1863.08 922.71" fill="#9fc1f4"/><rect x="1836.77" y="887.45" width="29.38" height="1.46" rx="0.47" fill="#afcdfb"/><path d="M1608.81,739.65h-1.57v0a3.05,3.05,0,0,0-3-3h-2.74a3,3,0,0,0-3,3v0h-1.57a6.59,6.59,0,0,0-6.57,6.56v58.32a6.59,6.59,0,0,0,6.57,6.57h11.94a6.59,6.59,0,0,0,6.57-6.57V746.21A6.58,6.58,0,0,0,1608.81,739.65Z" fill="#b64c41"/><path d="M1639.43,739.65h-1.57v0a3,3,0,0,0-3-3h-2.74a3.05,3.05,0,0,0-3,3v0h-1.57a6.58,6.58,0,0,0-6.57,6.56v58.32a6.59,6.59,0,0,0,6.57,6.57h11.94a6.59,6.59,0,0,0,6.57-6.57V746.21A6.59,6.59,0,0,0,1639.43,739.65Z" fill="#b64c41"/><path d="M1672.89,739.65h-1.57v0a3,3,0,0,0-3-3h-2.75a3,3,0,0,0-3,3v0h-1.57a6.58,6.58,0,0,0-6.56,6.56v58.32a6.59,6.59,0,0,0,6.56,6.57h12a6.59,6.59,0,0,0,6.57-6.57V746.21A6.59,6.59,0,0,0,1672.89,739.65Z" fill="#b64c41"/><path d="M1741.12,700.23h-18.45a2,2,0,0,0,2-2v-1.17a2,2,0,0,0-2-2h-14.18a2,2,0,0,0-2,2v1.17a2,2,0,0,0,2,2H1711a12.73,12.73,0,0,0-12.69,12.69v95.23A12.72,12.72,0,0,0,1711,820.83h30.08a12.72,12.72,0,0,0,12.68-12.68V712.92A12.72,12.72,0,0,0,1741.12,700.23Z" fill="#ee9849"/><polygon points="1863.08 753.87 1841.13 753.87 1837.18 720.07 1865.49 720.07 1863.08 753.87" fill="#9fc1f4"/><rect x="1836.77" y="718.62" width="29.38" height="1.46" rx="0.47" fill="#afcdfb"/><polygon points="1863.08 758.49 1841.13 758.49 1837.18 724.7 1865.49 724.7 1863.08 758.49" fill="#9fc1f4"/><rect x="1836.77" y="723.24" width="29.38" height="1.46" rx="0.47" fill="#afcdfb"/><polygon points="1863.08 763.5 1841.13 763.5 1837.18 729.71 1865.49 729.71 1863.08 763.5" fill="#9fc1f4"/><rect x="1836.77" y="728.25" width="29.38" height="1.45" rx="0.47" fill="#afcdfb"/><polygon points="1863.08 770.04 1841.13 770.04 1837.18 736.25 1865.49 736.25 1863.08 770.04" fill="#9fc1f4"/><rect x="1836.77" y="734.8" width="29.38" height="1.46" rx="0.47" fill="#afcdfb"/><polygon points="1863.08 774.86 1841.13 774.86 1837.18 741.07 1865.49 741.07 1863.08 774.86" fill="#9fc1f4"/><rect x="1836.77" y="739.61" width="29.38" height="1.46" rx="0.47" fill="#afcdfb"/><polygon points="1823.01 753.87 1801.05 753.87 1797.11 720.07 1825.41 720.07 1823.01 753.87" fill="#9fc1f4"/><rect x="1796.7" y="718.62" width="29.38" height="1.46" rx="0.47" fill="#afcdfb"/><polygon points="1823.01 758.49 1801.05 758.49 1797.11 724.7 1825.41 724.7 1823.01 758.49" fill="#9fc1f4"/><rect x="1796.7" y="723.24" width="29.38" height="1.46" rx="0.47" fill="#afcdfb"/><polygon points="1823.01 763.5 1801.05 763.5 1797.11 729.71 1825.41 729.71 1823.01 763.5" fill="#9fc1f4"/><rect x="1796.7" y="728.25" width="29.38" height="1.45" rx="0.47" fill="#afcdfb"/><polygon points="1823.01 770.04 1801.05 770.04 1797.11 736.25 1825.41 736.25 1823.01 770.04" fill="#9fc1f4"/><rect x="1796.7" y="734.8" width="29.38" height="1.46" rx="0.47" fill="#afcdfb"/><polygon points="1797.11 741.07 1801.05 774.86 1823.01 774.86 1825.41 741.07 1797.11 741.07" fill="#9fc1f4"/><rect x="1796.7" y="739.61" width="29.38" height="1.46" rx="0.47" fill="#afcdfb"/><polygon points="1904.4 753.87 1882.45 753.87 1878.5 720.07 1906.81 720.07 1904.4 753.87" fill="#9fc1f4"/><rect x="1878.09" y="718.62" width="29.38" height="1.46" rx="0.47" fill="#afcdfb"/><polygon points="1904.4 758.49 1882.45 758.49 1878.5 724.7 1906.81 724.7 1904.4 758.49" fill="#9fc1f4"/><rect x="1878.09" y="723.24" width="29.38" height="1.46" rx="0.47" fill="#afcdfb"/><polygon points="1904.4 763.5 1882.45 763.5 1878.5 729.71 1906.81 729.71 1904.4 763.5" fill="#9fc1f4"/><rect x="1878.09" y="728.25" width="29.38" height="1.45" rx="0.47" fill="#afcdfb"/><polygon points="1904.4 770.04 1882.45 770.04 1878.5 736.25 1906.81 736.25 1904.4 770.04" fill="#9fc1f4"/><rect x="1878.09" y="734.8" width="29.38" height="1.46" rx="0.47" fill="#afcdfb"/><polygon points="1904.4 774.86 1882.45 774.86 1878.5 741.07 1906.81 741.07 1904.4 774.86" fill="#9fc1f4"/><rect x="1878.09" y="739.61" width="29.38" height="1.46" rx="0.47" fill="#afcdfb"/><polygon points="1898.88 901.71 1876.93 901.71 1872.98 867.92 1901.29 867.92 1898.88 901.71" fill="#9fc1f4"/><rect x="1872.57" y="866.46" width="29.38" height="1.46" rx="0.47" fill="#afcdfb"/><polygon points="1898.88 906.34 1876.93 906.34 1872.98 872.54 1901.29 872.54 1898.88 906.34" fill="#9fc1f4"/><rect x="1872.57" y="871.09" width="29.38" height="1.46" rx="0.47" fill="#afcdfb"/><polygon points="1898.88 911.34 1876.93 911.34 1872.98 877.55 1901.29 877.55 1898.88 911.34" fill="#9fc1f4"/><rect x="1872.57" y="876.09" width="29.38" height="1.46" rx="0.47" fill="#afcdfb"/><polygon points="1898.88 917.89 1876.93 917.89 1872.98 884.1 1901.29 884.1 1898.88 917.89" fill="#9fc1f4"/><rect x="1872.57" y="882.64" width="29.38" height="1.46" rx="0.47" fill="#afcdfb"/><polygon points="1898.88 922.71 1876.93 922.71 1872.98 888.91 1901.29 888.91 1898.88 922.71" fill="#9fc1f4"/><rect x="1872.57" y="887.45" width="29.38" height="1.46" rx="0.47" fill="#afcdfb"/><path d="M1993.87,816.21h0a8.49,8.49,0,0,0-8.47,8.47v72.65a8.5,8.5,0,0,0,8.47,8.48h0a8.51,8.51,0,0,0,8.48-8.48V824.68A8.5,8.5,0,0,0,1993.87,816.21Z" fill="#6488d3"/><path d="M1939,816.21a8.5,8.5,0,0,0-8.47,8.47v72.65a8.48,8.48,0,1,0,17,0V824.68A8.5,8.5,0,0,0,1939,816.21Z" fill="#6488d3"/><path d="M1658.44,816.21a8.49,8.49,0,0,0-8.47,8.47v72.65a8.47,8.47,0,1,0,16.94,0V824.68A8.49,8.49,0,0,0,1658.44,816.21Z" fill="#6488d3"/><path d="M1603.56,816.21h0a8.5,8.5,0,0,0-8.47,8.47v72.65a8.51,8.51,0,0,0,8.47,8.48h0a8.51,8.51,0,0,0,8.48-8.48V824.68A8.5,8.5,0,0,0,1603.56,816.21Z" fill="#6488d3"/><rect x="1658.83" y="761.32" width="365.08" height="69.87" rx="5.61" fill="#6488d3"/><rect x="1559.3" y="761.32" width="365.08" height="69.87" rx="5.61" fill="#9fc1f4"/><rect x="1559.3" y="900.35" width="365.08" height="463.34" rx="14.44" fill="#9fc1f4"/><rect x="25.81" y="1405.37" width="2517.96" height="7.14" rx="2.95" fill="#2e3552"/><path d="M1941.65,733.71l1.68,2.23-5.39,4.06,1.81,2.4,5.39-4.06,1.53,2,73.59-55.48a4.18,4.18,0,0,0,.82-5.84h0a4.18,4.18,0,0,0-5.84-.82Z" fill="#ee9849"/><path d="M1986.31,715.53h-4.06l-5.52-9.69a1.77,1.77,0,0,1,1.53-2.64h0a1.76,1.76,0,0,1,1.54.89Z" fill="#b64c41"/><path d="M1362.06,695.09v57.38a25.45,25.45,0,0,0,25.44,25.45H1428l-37.57,6.26a31.64,31.64,0,0,1-36.48-36Z" fill="#c5ddf9"/><path d="M1370.56,691s49.89.82,57.45-4.43C1428,686.61,1417.56,699.72,1370.56,691Z" fill="#c5ddf9"/><polygon points="1297.76 426.36 1353.69 378.36 1347.88 365.04 1359.05 365.04 1393.98 318.72 1359.05 369.86 1352.06 367.86 1357.19 380.11 1297.76 426.36" fill="#c5ddf9"/><polygon points="1287.31 425.11 1291.18 385.86 1298.81 382.86 1293.06 386.95 1287.31 425.11" fill="#c5ddf9"/></svg>