<svg xmlns="http://www.w3.org/2000/svg" viewBox="0 0 417.82 411.75"><g id="OBJECTS"><path d="M259.93,143.82q-1.46-7.83-3.33-15.56c-4.69-.42-24-3-39.5-17.45,0,0,28.5-1.37,38.55,13.67-1.56-5.73-3.18-11.45-5.11-17.07-5.1.71-27.86,2.9-43.55-11.75,0,0,30.88-3.58,42.57,8.93-1-3-2.22-6-3.34-9.07-.67-1.62-1.33-3.25-2-4.87-6.07.76-27.82,2.32-43-11.83,0,0,28.53-3.3,41.13,7.55l-.18-.4c-1.35-3.18-2.86-6.28-4.35-9.4l-1-2c-6.4-.77-27.94-4.29-42.9-18.26,0,0,25.89-.59,39.92,12.51-.26-.48-.52-1-.77-1.44-2.2-4.06-4.53-8.05-7-12-5.4-1.5-27.83-8.39-43.36-22.88,0,0,25.67,3.11,39.67,17q-5.08-7.76-10.75-15.1C205.4,30,188.53,17.14,179.21,0c0,0,29.52,14,34.8,35.57,3.42,4.24,6.69,8.62,9.77,13.12.58.85,1.15,1.71,1.72,2.57-3.37-8.61-9.22-26.39-8.13-43.83,0,0,17.17,26.93,10.78,47.92a226.31,226.31,0,0,1,11.51,20.36c-2.33-9.1-5.85-27.13-2.73-44,0,0,13.8,28.72,5,48.79q1.08,2.34,2.12,4.69c1.44,3.17,2.7,6.42,4,9.64l.43,1.19c-1.13-8.45-1.16-22.43,5.26-40.9,0,0,9.37,30.49-2.33,49,.05.17.12.35.17.52,2,6,3.74,12,5.26,18.13C257,116,258.54,104,265.47,84.2c0,0,7.76,28.85-7.13,44.85.43,1.95.85,3.89,1.18,5.86l.93,5.13.76,5.17c.06.4.11.81.17,1.22.59-5.1,3.42-14.49,13.91-29.58A39.68,39.68,0,0,1,261.93,151c.16,1.53.31,3.06.48,4.59.36,3.45.51,6.93.74,10.39q-1.12-10.63-3-21.11c-4.11-.34-24-2.69-39.78-17.48C220.34,127.36,245,127.7,259.93,143.82Z" fill="#a8ddf4"/><path d="M204.49,177c23.46-22.79,15.31,24.49,40.7,25.75s2.65-84,36.55-91.53c20.47-4.55,17.67,40.31,26.68,34.32s-1.94-45.68,8.35-52.19,9.83,36.29,14.56,30.52,25-86,47.87-81.39-8,98.67-5,103c3.18,4.54,29.61-7.95,31.34,7.05S350,199.34,353.34,209.08s61-18,61.28,7.59c.36,34.73-87.82,31.93-80.84,56.38s51.18,5.78,34.31,33.79c-18.42,30.61-78.3,21.75-121-12.14S178.87,201.87,204.49,177Z" fill="#a8ddf4"/><path d="M379.2,42.46a32.15,32.15,0,0,1-.4,4.69c-.23,1.55-.44,3.11-.71,4.66-.53,3.09-1.13,6.18-1.76,9.26-1.26,6.15-2.71,12.27-4.24,18.37q-4.74,18.25-10.79,36.13c-4,11.94-8.53,23.67-13.38,35.28s-10.09,23.05-15.79,34.28-11.8,22.23-18.4,33-13.41,21.31-21,31.39c-3.65,5.12-7.62,10-11.47,15-2,2.44-4,4.83-6,7.25l-3,3.62c-1,1.19-2.09,2.35-3.14,3.52l-6.33,7-6.57,6.77L252.93,296l-3.41,3.25-6.84,6.47,6.56-6.75,3.3-3.36,3.17-3.47,6.34-6.95,6.09-7.17,3.05-3.57,2.94-3.67c2-2.45,3.95-4.87,5.87-7.34,3.74-5,7.6-10,11.14-15.13s7.09-10.32,10.58-15.52c1.75-2.6,3.37-5.28,5-7.92l2.51-4,2.41-4c6.5-10.7,12.44-21.74,18.11-32.91a573.37,573.37,0,0,0,29.61-69q6.33-17.7,11.44-35.82c1.73-6,3.36-12.08,4.8-18.18.73-3.05,1.42-6.11,2.05-9.18.33-1.54.61-3.08.9-4.62A31.94,31.94,0,0,0,379.2,42.46Z" fill="#78a8c1"/><path d="M373.2,300.41A71.07,71.07,0,0,1,359,304a101.89,101.89,0,0,1-14.6,1.26,114.87,114.87,0,0,1-29.12-3.46c-2.4-.55-4.74-1.28-7.1-2s-4.66-1.53-6.94-2.45-4.55-1.84-6.81-2.8c-1.13-.49-2.22-1.05-3.33-1.57s-2.23-1-3.3-1.63a155.43,155.43,0,0,1-24.67-16,150.73,150.73,0,0,1-21-20.59c-3.1-3.8-6.1-7.69-8.81-11.77-1.41-2-2.67-4.11-4-6.19s-2.5-4.22-3.62-6.39c-9.22-17.25-15.56-36.17-17.32-55.6A143.72,143.72,0,0,0,215.52,203a159.08,159.08,0,0,0,12,26.41,156.08,156.08,0,0,0,16.55,23.74,151.71,151.71,0,0,0,20.72,20.14c15.1,12,32.37,21.43,51,26.51A114.77,114.77,0,0,0,344.43,304a102,102,0,0,0,14.51-.67c2.41-.28,4.81-.65,7.19-1.13A58,58,0,0,0,373.2,300.41Z" fill="#78a8c1"/><path d="M413.15,218.53a269,269,0,0,1-56.79,18.32,143,143,0,0,1-14.87,2.1,89.54,89.54,0,0,1-15.1.13,48.65,48.65,0,0,1-14.86-3.37c-.59-.26-1.2-.47-1.78-.77l-1.7-.93a22.38,22.38,0,0,1-3.26-2.15,31.18,31.18,0,0,1-5.49-5.46,58.68,58.68,0,0,1-7.52-13.23,107,107,0,0,1-4.87-14.26q-2-7.26-3.31-14.64c-.49-2.45-.86-4.92-1.27-7.38s-.72-4.94-1-7.41c-1.23-9.9-2-19.85-2.47-29.79q-.3-7.47-.36-14.93c-.05-5,0-10,.19-14.92.22,9.94.65,19.87,1.45,29.77s1.72,19.79,3.19,29.59a231.62,231.62,0,0,0,6,29.05,110.06,110.06,0,0,0,4.83,13.92,56.23,56.23,0,0,0,7.22,12.6,28.51,28.51,0,0,0,5,5,20.69,20.69,0,0,0,2.95,2l1.56.87c.53.28,1.1.47,1.65.72a47.54,47.54,0,0,0,14.08,3.26c9.74.92,19.65-.2,29.39-1.74A249.32,249.32,0,0,0,384.92,228C394.45,225.3,403.87,222.09,413.15,218.53Z" fill="#78a8c1"/><path d="M405.56,152.46c-5.61,3.58-11.44,6.8-17.3,9.95s-11.92,6-18.09,8.52c-3.08,1.29-6.2,2.5-9.4,3.53a79.71,79.71,0,0,1-9.77,2.59,31.5,31.5,0,0,1-10.33.49,12.26,12.26,0,0,1-5.16-1.94,15.41,15.41,0,0,1-3.67-4,44.68,44.68,0,0,1-4.38-9.26c-1.15-3.18-2.1-6.4-2.92-9.65s-1.53-6.51-2.17-9.78-1.21-6.56-1.72-9.86q-1.48-9.87-2.5-19.81c-.58-6.62-1.15-13.25-1.38-19.9.82,6.6,1.65,13.19,2.66,19.75s2,13.12,3.21,19.63,2.55,13,4.3,19.34c.86,3.18,1.79,6.34,2.92,9.4a43,43,0,0,0,4.16,8.69,13.05,13.05,0,0,0,3,3.34,9.61,9.61,0,0,0,4.08,1.53,30.09,30.09,0,0,0,9.48-.39,109.71,109.71,0,0,0,18.87-5.55c6.19-2.32,12.26-5,18.26-7.8S399.65,155.52,405.56,152.46Z" fill="#78a8c1"/><path d="M79.67,185.53c-4.6-22.33,20.13.19,30.39-14.26S61.69,138.21,70,115.46c5-13.73,30.31,4.73,30.17-2.81s-27.57-16-27.54-24.47S97.63,96,96,91.06,54.86,44.13,66.13,32.41s55,41.68,58.63,41.53c3.86-.16,6.43-20.38,15.9-15.77s6.71,50.24,13.69,51.92,12.29-42.62,27.45-33.17c20.54,12.81-14.17,63.59,2.81,68.65s22.59-27.91,32.73-7.49c11.07,22.31-16.58,54.18-52.51,66.56S84.69,209.93,79.67,185.53Z" fill="#a8ddf4"/><path d="M66.13,32.41a29.26,29.26,0,0,1,3.17,2.5c1,.89,2,1.79,3,2.71,2,1.84,3.91,3.73,5.82,5.63C82,47.06,85.63,51,89.28,55q10.78,12.09,20.54,25.06a365.32,365.32,0,0,1,34.22,55l1.8,3.64c.61,1.21,1.19,2.42,1.74,3.66l3.37,7.38c2.08,5,4.25,10,6.09,15,2,5,3.63,10.19,5.37,15.31l2.3,7.78c.36,1.3.77,2.59,1.1,3.9l1,3.94,1,3.94c.32,1.31.66,2.63.9,4l1.6,8c.29,1.32.49,2.66.69,4l.62,4c.41,2.67.87,5.33,1.1,8l.83,8.06c.19,2.69.3,5.39.46,8.09l.22,4,0,4V260l-.28-8.09-.12-4-.32-4c-.23-2.69-.41-5.38-.67-8.06l-1-8c-.28-2.68-.77-5.33-1.22-8l-.68-4c-.22-1.33-.45-2.65-.76-4l-1.71-7.89c-.26-1.32-.61-2.62-.95-3.92l-1-3.91-1-3.9c-.34-1.3-.77-2.58-1.15-3.87l-2.34-7.72c-1.75-5.09-3.41-10.21-5.41-15.2s-4.05-10-6.14-14.92L146,143.14c-1.09-2.46-2.38-4.82-3.55-7.24-4.81-9.62-10-19.07-15.67-28.22S115,89.62,108.69,80.9s-13-17.14-20.08-25.3c-3.53-4.07-7.1-8.11-10.82-12-1.86-2-3.75-3.88-5.67-5.77-1-1-1.93-1.88-2.91-2.8A28.33,28.33,0,0,0,66.13,32.41Z" fill="#78a8c1"/><path d="M215.47,132.67a51,51,0,0,1-3.22,9.66l-1.05,2.33c-.37.77-.78,1.51-1.17,2.27s-.76,1.53-1.21,2.25l-1.32,2.2a82.12,82.12,0,0,1-12.95,15.8l-3.8,3.46-4.07,3.13a45.15,45.15,0,0,1-4.22,2.91l-2.15,1.39a24.67,24.67,0,0,1-2.19,1.34l-4.52,2.44c-.76.39-1.49.83-2.27,1.19l-2.35,1-4.69,2.06c-1.58.68-3.2,1.21-4.8,1.82a104.47,104.47,0,0,1-79.61-5.55,100,100,0,0,0,19.24,6.42,111,111,0,0,0,20,2.85,109.53,109.53,0,0,0,20.16-.79,104.67,104.67,0,0,0,19.6-4.65c1.57-.59,3.18-1.1,4.73-1.75l4.64-2,2.32-1c.76-.35,1.49-.77,2.24-1.16l4.46-2.35a95.16,95.16,0,0,0,16.3-11.82,81.6,81.6,0,0,0,13.16-15.26A65.71,65.71,0,0,0,215.47,132.67Z" fill="#78a8c1"/><path d="M182.33,78.48a187.48,187.48,0,0,1-10.53,40.25,78.24,78.24,0,0,1-10,18.43,34.47,34.47,0,0,1-7.54,7.47c-.37.25-.72.53-1.11.76L152,146a15.81,15.81,0,0,1-2.48,1.12,22.34,22.34,0,0,1-5.27,1.19,40.75,40.75,0,0,1-10.59-.57,77,77,0,0,1-10.2-2.49q-5-1.56-9.85-3.53c-1.62-.63-3.21-1.33-4.82-2s-3.17-1.43-4.73-2.19a269.74,269.74,0,0,1-36-20.81c5.92,3.6,11.92,7.07,18,10.31s12.27,6.41,18.59,9.23A166.49,166.49,0,0,0,124,143.7a73.69,73.69,0,0,0,10,2.36,39.12,39.12,0,0,0,10.12.47,20.19,20.19,0,0,0,4.84-1.05,13.49,13.49,0,0,0,2.27-1l1.09-.59c.37-.2.7-.46,1-.69a33,33,0,0,0,7.22-7c4.19-5.4,7.22-11.65,10-18a175.41,175.41,0,0,0,6.83-19.56C179.3,92,180.94,85.27,182.33,78.48Z" fill="#78a8c1"/><path d="M140.66,58.17a172.09,172.09,0,0,1-2.42,27.72q-.59,3.45-1.45,6.85a54.44,54.44,0,0,1-2.14,6.71,22,22,0,0,1-3.59,6.25A8.93,8.93,0,0,1,128,108a10.67,10.67,0,0,1-3.72.66,31.94,31.94,0,0,1-7.09-.9,69.69,69.69,0,0,1-6.76-1.91c-4.43-1.47-8.76-3.19-13-5.07s-8.44-3.88-12.58-6-8.22-4.29-12.22-6.64c4.19,2,8.37,4,12.6,5.84S93.66,97.78,98,99.49s8.59,3.38,13,4.73c2.19.69,4.39,1.33,6.62,1.81a29.3,29.3,0,0,0,6.66.81,8.55,8.55,0,0,0,3.08-.5,7.12,7.12,0,0,0,2.43-1.82,21,21,0,0,0,3.32-5.72,77.47,77.47,0,0,0,3.82-13.17c.95-4.51,1.67-9.08,2.26-13.66S140.24,62.79,140.66,58.17Z" fill="#78a8c1"/><path d="M158.37,226.78C139.13,220,156.08,244.64,142,252s-23.41-46.89-44.58-42.32c-12.78,2.76.51,27.44-6.16,26.4s-10.81-26.38-18.34-27.39,3.89,23.13-.29,21.09-36.59-42.18-48.34-33.62S54.55,250,54,253.16c-.61,3.4-18.84,3.22-15.9,12.17s43.7,12.06,44.34,18.45-39.27,5.7-32.73,20.29c8.85,19.76,58.08-4.82,60.5,10.85S82.69,331.54,99.55,343c18.42,12.53,50-8.1,65.38-38.43S179.37,234.19,158.37,226.78Z" fill="#a8ddf4"/><path d="M24.31,196.14a42.12,42.12,0,0,0,3.3,4.91c1.17,1.59,2.36,3.16,3.59,4.71,2.43,3.11,5,6.14,7.53,9.13q7.7,9,16,17.45A357,357,0,0,0,89.89,264,305.47,305.47,0,0,0,129,290.42c3.39,2,6.91,3.8,10.38,5.67,1.75.9,3.54,1.75,5.3,2.62l2.66,1.31,2.69,1.22,5.39,2.46,5.47,2.27,2.73,1.13,2.78,1,5.55,2.1a237.43,237.43,0,0,1-43.57-18.71c-7-3.74-13.7-8-20.3-12.35s-13-9.07-19.24-13.94-12.25-10.05-18.09-15.4-11.54-10.85-17-16.62-10.68-11.69-15.7-17.81c-2.48-3.08-4.92-6.19-7.27-9.38-1.17-1.59-2.33-3.2-3.44-4.83A40.93,40.93,0,0,1,24.31,196.14Z" fill="#78a8c1"/><path d="M95,340.7a58.76,58.76,0,0,0,17.22-5.51,73.15,73.15,0,0,0,15.13-9.8,84.22,84.22,0,0,0,12.43-13l2.63-3.66c.43-.62.9-1.21,1.3-1.85l1.17-1.93,2.34-3.86c.76-1.29,1.37-2.68,2.06-4s1.4-2.67,2-4.05l1.68-4.19.85-2.09.68-2.15,1.35-4.3A100.12,100.12,0,0,0,159,262.5a101.1,101.1,0,0,0-.06-18.08,90.87,90.87,0,0,0-3.34-17.83,67.44,67.44,0,0,1,2.54,8.75c.36,1.48.6,3,.9,4.47s.46,3,.7,4.52a103.21,103.21,0,0,1,.52,18.27l-.36,4.56-.67,4.54c-.13.75-.2,1.52-.37,2.26l-.5,2.24c-.34,1.49-.63,3-1,4.47L156,285.06l-.69,2.19-.85,2.14-1.7,4.26c-.59,1.41-1.34,2.75-2,4.13s-1.33,2.76-2.12,4.07l-2.39,3.92-1.2,2c-.41.64-.88,1.24-1.33,1.87l-2.7,3.71c-.91,1.23-2,2.33-3,3.51a43.1,43.1,0,0,1-3.1,3.38l-3.28,3.22-3.52,2.94a73.12,73.12,0,0,1-15.59,9.55A56.12,56.12,0,0,1,95,340.7Z" fill="#78a8c1"/><path d="M51,304.74c6.19-.41,12.36-1.05,18.48-2a157,157,0,0,0,18.16-3.67,73.73,73.73,0,0,0,17.11-6.68,29.92,29.92,0,0,0,7.13-5.52,17,17,0,0,0,4.09-7.78,35.22,35.22,0,0,0,.8-9,69,69,0,0,0-.89-9.15,145.53,145.53,0,0,0-4.19-18c-1.73-5.94-3.74-11.8-5.91-17.59s-4.48-11.56-7-17.25a243,243,0,0,1,14.06,34.47c1,3,1.82,6,2.57,9s1.42,6.07,1.94,9.16a66.28,66.28,0,0,1,1,9.35,36.37,36.37,0,0,1-.8,9.45,20.12,20.12,0,0,1-1.69,4.53,13.69,13.69,0,0,1-1.29,2.06l-.72,1c-.25.31-.54.59-.81.89a30.39,30.39,0,0,1-7.54,5.79A70.54,70.54,0,0,1,88,300.3,168.25,168.25,0,0,1,51,304.74Z" fill="#78a8c1"/><path d="M38.07,265.33c4.14.19,8.27.34,12.41.33s8.27-.05,12.38-.35A67.85,67.85,0,0,0,75,263.53a18.88,18.88,0,0,0,5.48-2.25,6.38,6.38,0,0,0,1.91-1.93,7.8,7.8,0,0,0,.82-2.67,26.68,26.68,0,0,0,.09-6c-.16-2-.45-4.06-.8-6.09-.66-4.06-1.63-8.07-2.61-12.08s-2.11-8-3.3-12-2.39-7.92-3.64-11.88c1.6,3.83,3,7.73,4.41,11.64s2.59,7.88,3.75,11.87,2.15,8,2.92,12.14c.38,2.05.68,4.13.86,6.23a27.92,27.92,0,0,1-.07,6.39,9.27,9.27,0,0,1-1,3.21,7.9,7.9,0,0,1-2.42,2.46,19.82,19.82,0,0,1-6,2.41,62,62,0,0,1-12.45,1.54A153.93,153.93,0,0,1,38.07,265.33Z" fill="#78a8c1"/><path d="M82.78,191c-2.69-2.42-5.27-5-7.73-7.61a12.46,12.46,0,0,1-6,3.7c-4.13.93-9.5,1.16-9.16-5.24.7-8.22,9.93-2.5,13.84.06-1.72-1.91-3.39-3.88-5-5.89-.61-.78-1.2-1.56-1.79-2.35a12.37,12.37,0,0,1-6.36,3.05c-4.2.5-9.56.18-8.57-6.15,1.53-8.07,10-1.53,13.71,1.44q-3.11-4.31-5.84-8.87a12.31,12.31,0,0,1-6.65,2.38c-4.23.08-9.54-.81-7.91-7,2.35-7.91,10.22-.42,13.53,2.9-1.77-3.08-3.42-6.25-4.92-9.49A12.38,12.38,0,0,1,47,153.62c-4.21-.37-9.4-1.81-7.16-7.85,3.17-7.73,10.34.8,13.26,4.42l-.87-2c-1.12-2.67-2.14-5.38-3.08-8.13a12.29,12.29,0,0,1-7.09,1c-4.16-.82-9.18-2.82-6.33-8.63,4-7.58,10.49,2.34,12.91,6.1-.62-1.91-1.2-3.85-1.73-5.8-.3-1.15-.59-2.3-.86-3.46C43.36,129,28,126,34.35,118.24c5.37-5.73,9.47,4.17,11.21,8.81-.75-3.49-1.36-7-1.79-10.59q1,6.36,2.57,12.5c.23-3.38,3.6-19.57,9.17-11.54,5.79,7.56-7.68,11.63-9,12.1.27,1,.55,2.06.85,3.08.51,1.79,1.07,3.56,1.66,5.31a14.88,14.88,0,0,1,1.2-5.28c1.84-4.22,6.68-6,9.19-2,2.68,4,.11,6.09-2.7,7.78-2.54,1.56-6.23.86-7.34.58q1.59,4.58,3.52,9c.23.52.46,1,.7,1.56a14.47,14.47,0,0,1,.68-5c1.39-4.36,6-6.63,8.92-3,3.07,3.71.72,6-1.89,8-2.29,1.75-5.84,1.53-7.12,1.36q2.36,5,5.11,9.82a14.53,14.53,0,0,1,.19-4.9c.95-4.46,5.32-7.19,8.57-3.9,3.42,3.34,1.32,5.87-1.08,8.1-2.07,1.93-5.54,2.11-6.87,2.09q2.79,4.68,6,9.1a14.73,14.73,0,0,1-.29-4.78c.5-4.52,4.57-7.69,8.13-4.76,3.74,3,1.91,5.69-.26,8.15-1.83,2.12-5.2,2.66-6.56,2.78.76,1,1.53,2,2.32,3q2.16,2.76,4.5,5.4a14.6,14.6,0,0,1-.77-4.7c0-4.54,3.76-8.12,7.59-5.57,4,2.57,2.49,5.47.59,8.14-1.6,2.29-4.9,3.18-6.24,3.44q3.66,4,7.66,7.71a14.72,14.72,0,0,1-1.26-4.63c-.44-4.53,2.9-8.46,7-6.32,4.28,2.15,3,5.2,1.43,8.05-1.36,2.45-4.56,3.67-5.87,4.06q4,3.61,8.37,6.89l.15.11a14.74,14.74,0,0,1-1.8-4.58c-.92-4.47,2-8.73,6.29-7,4.49,1.71,3.59,4.87,2.28,7.88C98.19,197,95,198.54,93.82,199q4.56,3.35,9.45,6.27a14.68,14.68,0,0,1-2.43-4.56c-1.39-4.36,1.06-8.9,5.54-7.61,4.67,1.25,4.11,4.49,3.13,7.62-.85,2.79-4,4.67-5.06,5.25l1.55.89a126.84,126.84,0,0,0,14.87,7.22,118.07,118.07,0,0,1-15.08-6.85l-.74-.41a12.34,12.34,0,0,1-4.73,5.58c-3.67,2.13-8.76,3.95-10.43-2.27-2-8.68,10.37-4.92,14.2-3.84q-5.11-2.9-9.91-6.25A12.32,12.32,0,0,1,89,205c-3.86,1.75-9.09,3.06-10.08-3.29-1.06-8.5,10-4.18,14.05-2.56l-1-.68c-2.7-2-5.31-4.08-7.82-6.27a12.44,12.44,0,0,1-5.66,4.33c-4,1.35-9.33,2.12-9.65-4.28C68.69,183.93,78.72,188.91,82.78,191Z" fill="#a8ddf4"/><path d="M333.29,358c0,11-42.23,29.65-122.45,29.65S80.07,369,80.07,358s49.39-29.65,129.62-29.65S333.29,347,333.29,358Z" fill="#669cb9"/><path d="M261.06,126a59.9,59.9,0,0,0-55.54-33.41c-22.36.48-41,12.56-50.7,30.34a60.61,60.61,0,0,0-16.68-2c-34,.74-57.58,29.46-52.63,64.16.12.9.28,1.79.44,2.68h0s1.8,19.82,19,66.06c16.43,46.65,7.65,95.37,26.5,97.18,21.19,2.06,16.66-31.9,38.51-27.79,17.62,3.34,23.54,52,41.67,51.51l.86-.05a18.46,18.46,0,0,0,2.14.09c23.85-.38,20.94-46.27,45.12-49.55,22.81-3.08,17.64,31.8,32,25.3,19-8.5,4.56-61,35.78-107.66C387,154.17,322.56,89.35,261.06,126Z" fill="#fff"/><path d="M256.3,218.13s-5.86,18.54-29.5.45c-15.36-11.75-15.37-31.89,2.08-27.44.08,0-18.21-25.7-50.81-19.63-20.73,3.86-33.69,27.25-33.69,27.25s-1.43-21.34-11.2-38.66c-2.61,2.07-8.64,1.23-14.46-2.22-6-3.56-9.65-8.64-8.8-11.91a40.58,40.58,0,0,0-12.22,2.38c-24.49,8.39-10.44,59.32,6.8,105.56,16.44,46.65,7.66,95.37,26.51,97.18,21.18,2.06,16.65-31.9,38.5-27.79,17.62,3.34,21.1,52.6,43.43,51.56,18.84-.88,18-14.24,29.15-34.28C254.15,318.84,284.59,255.19,256.3,218.13ZM130.09,172.26c-1.08,1.65-4.19,1.52-6.93-.28s-4.08-4.61-3-6.26,4.19-1.52,6.93.29S131.18,170.61,130.09,172.26Zm102.82,68.56c-3.82-1.52-6.17-4.61-5.25-6.91s4.75-2.92,8.57-1.4,6.16,4.62,5.25,6.91S236.72,242.35,232.91,240.82Zm28.44,14.33c-1.26,3.53-7.16,4.65-13.19,2.51s-9.89-6.76-8.63-10.29,7.17-4.66,13.19-2.51S262.61,251.61,261.35,255.15Z" fill="#81add1" opacity="0.16"/><path d="M211.92,140.63a1.91,1.91,0,1,1-1.91-1.91A1.91,1.91,0,0,1,211.92,140.63Z" fill="#81add1" opacity="0.28"/><path d="M199.17,129.16a1.91,1.91,0,1,1-1.91-1.91A1.91,1.91,0,0,1,199.17,129.16Z" fill="#81add1" opacity="0.28"/><path d="M211.29,132a1.92,1.92,0,1,1-1.91-1.92A1.92,1.92,0,0,1,211.29,132Z" fill="#81add1" opacity="0.28"/><path d="M220.8,133.94a1.91,1.91,0,1,1-1.91-1.91A1.92,1.92,0,0,1,220.8,133.94Z" fill="#81add1" opacity="0.28"/><path d="M236.48,127.25a1.91,1.91,0,1,1-1.91-1.92A1.92,1.92,0,0,1,236.48,127.25Z" fill="#81add1" opacity="0.28"/><path d="M228.87,155.14a1.91,1.91,0,1,1-1.91-1.91A1.9,1.9,0,0,1,228.87,155.14Z" fill="#81add1" opacity="0.28"/><path d="M196.24,155.14a1.92,1.92,0,1,1-1.91-1.91A1.91,1.91,0,0,1,196.24,155.14Z" fill="#81add1" opacity="0.28"/><path d="M191.53,149.47a1.91,1.91,0,1,1-1.91-1.91A1.92,1.92,0,0,1,191.53,149.47Z" fill="#81add1" opacity="0.28"/><circle cx="184.82" cy="157.05" r="1.91" fill="#81add1" opacity="0.28"/><path d="M237.63,157.05a1.92,1.92,0,1,1-1.91-1.91A1.91,1.91,0,0,1,237.63,157.05Z" fill="#81add1" opacity="0.28"/><path d="M234.57,149.28a1.92,1.92,0,1,1-1.91-1.91A1.91,1.91,0,0,1,234.57,149.28Z" fill="#81add1" opacity="0.28"/><path d="M223.73,124a1.91,1.91,0,1,1-1.91-1.91A1.92,1.92,0,0,1,223.73,124Z" fill="#81add1" opacity="0.28"/><path d="M184.82,123.42a1.91,1.91,0,1,1-1.91-1.91A1.91,1.91,0,0,1,184.82,123.42Z" fill="#81add1" opacity="0.28"/><path d="M261.67,127.25" fill="#81add1"/><ellipse cx="325.68" cy="149.47" rx="11.15" ry="21.64" transform="translate(-23.36 230.57) rotate(-37.73)" fill="#81add1" opacity="0.16"/><path d="M336.46,179.36a7,7,0,1,1-8.94,4.2A7,7,0,0,1,336.46,179.36Z" fill="#81add1" opacity="0.16"/><circle cx="323.92" cy="176.08" r="3.41" fill="#81add1" opacity="0.16"/><path d="M97.7,204.5a1.91,1.91,0,1,1-1.91-1.91A1.9,1.9,0,0,1,97.7,204.5Z" fill="#81add1" opacity="0.28"/><path d="M105.23,226.27a1.91,1.91,0,1,1-1.91-1.91A1.91,1.91,0,0,1,105.23,226.27Z" fill="#81add1" opacity="0.28"/><path d="M101.41,216.22a1.91,1.91,0,1,1-1.91-1.91A1.91,1.91,0,0,1,101.41,216.22Z" fill="#81add1" opacity="0.28"/><path d="M107.14,207.36a1.91,1.91,0,1,1-1.91-1.92A1.91,1.91,0,0,1,107.14,207.36Z" fill="#81add1" opacity="0.28"/><path d="M111.63,218.13a1.91,1.91,0,1,1-1.91-1.91A1.91,1.91,0,0,1,111.63,218.13Z" fill="#81add1" opacity="0.28"/><path d="M122.14,222a1.92,1.92,0,1,1-1.91-1.92A1.92,1.92,0,0,1,122.14,222Z" fill="#81add1" opacity="0.28"/><path d="M120.23,238.08a1.92,1.92,0,1,1-1.92-1.91A1.91,1.91,0,0,1,120.23,238.08Z" fill="#81add1" opacity="0.28"/><path d="M141.52,259.27a1.91,1.91,0,1,1-1.91-1.91A1.92,1.92,0,0,1,141.52,259.27Z" fill="#81add1" opacity="0.28"/><path d="M149.12,240a1.92,1.92,0,1,1-1.92-1.91A1.92,1.92,0,0,1,149.12,240Z" fill="#81add1" opacity="0.28"/><path d="M114.49,248.25a1.91,1.91,0,1,1-1.91-1.92A1.91,1.91,0,0,1,114.49,248.25Z" fill="#81add1" opacity="0.28"/><path d="M114.49,229a1.91,1.91,0,1,1-1.91-1.91A1.91,1.91,0,0,1,114.49,229Z" fill="#81add1" opacity="0.28"/><path d="M109.72,238.08a1.92,1.92,0,1,1-1.91-1.91A1.91,1.91,0,0,1,109.72,238.08Z" fill="#81add1" opacity="0.28"/><path d="M118.11,259.55a1.91,1.91,0,1,1-1.6-2.17A1.9,1.9,0,0,1,118.11,259.55Z" fill="#81add1" opacity="0.28"/><path d="M122.3,282.2a1.91,1.91,0,1,1-1.6-2.17A1.9,1.9,0,0,1,122.3,282.2Z" fill="#81add1" opacity="0.28"/><path d="M120,271.7a1.91,1.91,0,1,1-1.61-2.18A1.92,1.92,0,0,1,120,271.7Z" fill="#81add1" opacity="0.28"/><path d="M127,263.79a1.91,1.91,0,1,1-1.6-2.18A1.91,1.91,0,0,1,127,263.79Z" fill="#81add1" opacity="0.28"/><path d="M129.84,275.12a1.91,1.91,0,1,1-1.6-2.18A1.9,1.9,0,0,1,129.84,275.12Z" fill="#81add1" opacity="0.28"/><path d="M130.09,248.53a1.91,1.91,0,1,1-3.78-.57,1.91,1.91,0,0,1,3.78.57Z" fill="#81add1" opacity="0.28"/><path d="M135.36,296.13a1.91,1.91,0,1,1-1.6-2.18A1.9,1.9,0,0,1,135.36,296.13Z" fill="#81add1" opacity="0.28"/><path d="M128.17,305.32a1.91,1.91,0,1,1-1.6-2.18A1.9,1.9,0,0,1,128.17,305.32Z" fill="#81add1" opacity="0.28"/><path d="M131.06,286.25a1.91,1.91,0,1,1-1.61-2.18A1.91,1.91,0,0,1,131.06,286.25Z" fill="#81add1" opacity="0.28"/><path d="M125,294.56a1.91,1.91,0,1,1-1.6-2.18A1.9,1.9,0,0,1,125,294.56Z" fill="#81add1" opacity="0.28"/><path d="M332.46,207.67a1.91,1.91,0,1,0,2.12-1.67A1.9,1.9,0,0,0,332.46,207.67Z" fill="#81add1" opacity="0.28"/><path d="M322.41,228.4a1.91,1.91,0,1,0,2.12-1.68A1.91,1.91,0,0,0,322.41,228.4Z" fill="#81add1" opacity="0.28"/><path d="M327.39,218.87a1.91,1.91,0,1,0,2.13-1.67A1.92,1.92,0,0,0,327.39,218.87Z" fill="#81add1" opacity="0.28"/><path d="M317,219.56a1.91,1.91,0,1,0,2.12-1.67A1.9,1.9,0,0,0,317,219.56Z" fill="#81add1" opacity="0.28"/><path d="M306.13,222.11a1.91,1.91,0,1,0,2.12-1.67A1.91,1.91,0,0,0,306.13,222.11Z" fill="#81add1" opacity="0.28"/><path d="M306.12,238.35a1.91,1.91,0,1,0,2.12-1.67A1.91,1.91,0,0,0,306.12,238.35Z" fill="#81add1" opacity="0.28"/><path d="M282.47,256.87a1.91,1.91,0,1,0,2.12-1.68A1.9,1.9,0,0,0,282.47,256.87Z" fill="#81add1" opacity="0.28"/><path d="M292.19,324.87a1.91,1.91,0,1,0,2.12-1.67A1.9,1.9,0,0,0,292.19,324.87Z" fill="#81add1" opacity="0.28"/><path d="M310.61,249.12a1.91,1.91,0,1,0,2.12-1.67A1.9,1.9,0,0,0,310.61,249.12Z" fill="#81add1" opacity="0.28"/><path d="M312.89,230A1.91,1.91,0,1,0,315,228.3,1.91,1.91,0,0,0,312.89,230Z" fill="#81add1" opacity="0.28"/><path d="M316.55,239.6a1.91,1.91,0,1,0,2.13-1.68A1.92,1.92,0,0,0,316.55,239.6Z" fill="#81add1" opacity="0.28"/><path d="M305.67,259.92a1.91,1.91,0,1,0,1.85-2A1.91,1.91,0,0,0,305.67,259.92Z" fill="#81add1" opacity="0.28"/><path d="M298.83,281.92a1.91,1.91,0,0,0,3.82-.12,1.91,1.91,0,0,0-3.82.12Z" fill="#81add1" opacity="0.28"/><path d="M302.34,271.75a1.91,1.91,0,1,0,3.82-.12,1.91,1.91,0,0,0-3.82.12Z" fill="#81add1" opacity="0.28"/><path d="M296.33,263.07a1.91,1.91,0,1,0,3.82-.12,1.91,1.91,0,0,0-3.82.12Z" fill="#81add1" opacity="0.28"/><path d="M292.18,274a1.91,1.91,0,1,0,1.85-2A1.92,1.92,0,0,0,292.18,274Z" fill="#81add1" opacity="0.28"/><path d="M295.09,247.56a1.91,1.91,0,1,0,3.82-.12,1.91,1.91,0,0,0-3.82.12Z" fill="#81add1" opacity="0.28"/><path d="M284.22,294.19a1.91,1.91,0,1,0,1.85-2A1.91,1.91,0,0,0,284.22,294.19Z" fill="#81add1" opacity="0.28"/><path d="M290.27,304.17a1.91,1.91,0,0,0,3.82-.12,1.92,1.92,0,0,0-2-1.85A1.9,1.9,0,0,0,290.27,304.17Z" fill="#81add1" opacity="0.28"/><path d="M289.66,284.89a1.91,1.91,0,1,0,1.85-2A1.92,1.92,0,0,0,289.66,284.89Z" fill="#81add1" opacity="0.28"/><path d="M294.72,293.87a1.91,1.91,0,1,0,1.85-2A1.91,1.91,0,0,0,294.72,293.87Z" fill="#81add1" opacity="0.28"/><path d="M170.16,293.52a1.91,1.91,0,1,0,.36-2.68A1.91,1.91,0,0,0,170.16,293.52Z" fill="#81add1" opacity="0.28"/><path d="M198.09,329.08a1.91,1.91,0,1,0,.36-2.68A1.92,1.92,0,0,0,198.09,329.08Z" fill="#81add1" opacity="0.28"/><path d="M184.53,276.2a1.91,1.91,0,1,0,0-2.7A1.9,1.9,0,0,0,184.53,276.2Z" fill="#81add1" opacity="0.28"/><path d="M161,182.78a1.91,1.91,0,1,0,0-2.71A1.91,1.91,0,0,0,161,182.78Z" fill="#81add1" opacity="0.28"/><path d="M173.43,183.56a1.91,1.91,0,1,0-.05-2.7A1.9,1.9,0,0,0,173.43,183.56Z" fill="#81add1" opacity="0.28"/><path d="M230.56,174.79a1.91,1.91,0,1,0,0-2.7A1.91,1.91,0,0,0,230.56,174.79Z" fill="#81add1" opacity="0.28"/><path d="M197.84,170.37a1.91,1.91,0,1,0,0-2.71A1.92,1.92,0,0,0,197.84,170.37Z" fill="#81add1" opacity="0.28"/><path d="M179.67,174.79a1.91,1.91,0,1,0,0-2.7A1.9,1.9,0,0,0,179.67,174.79Z" fill="#81add1" opacity="0.28"/><path d="M190.2,178.62a1.91,1.91,0,0,0,2.66-2.75,1.91,1.91,0,1,0-2.66,2.75Z" fill="#81add1" opacity="0.28"/><path d="M220.49,181.65a1.91,1.91,0,1,0-.05-2.7A1.9,1.9,0,0,0,220.49,181.65Z" fill="#81add1" opacity="0.28"/><path d="M207,177.45a1.91,1.91,0,1,0,0-2.7A1.9,1.9,0,0,0,207,177.45Z" fill="#81add1" opacity="0.28"/><circle cx="219.91" cy="200.68" r="1.91" fill="#81add1" opacity="0.28"/><path d="M159.11,159.24a1.91,1.91,0,1,0,0-2.71A1.91,1.91,0,0,0,159.11,159.24Z" fill="#81add1" opacity="0.28"/><path d="M142.1,142a1.91,1.91,0,1,0,0-2.7A1.9,1.9,0,0,0,142.1,142Z" fill="#81add1" opacity="0.28"/><path d="M144,155.41a1.91,1.91,0,1,0,0-2.7A1.91,1.91,0,0,0,144,155.41Z" fill="#81add1" opacity="0.28"/><path d="M214.4,170.37a1.91,1.91,0,1,0,0-2.71A1.91,1.91,0,0,0,214.4,170.37Z" fill="#81add1" opacity="0.28"/><path d="M194.83,297.22a1.91,1.91,0,1,0-.05-2.71A1.91,1.91,0,0,0,194.83,297.22Z" fill="#81add1" opacity="0.28"/><circle cx="191.59" cy="284.83" r="1.91" transform="translate(-151.18 303.33) rotate(-59.16)" fill="#81add1" opacity="0.28"/><path d="M177,285.22a1.91,1.91,0,0,0,2.66-2.75,1.91,1.91,0,1,0-2.66,2.75Z" fill="#81add1" opacity="0.28"/><circle cx="183.95" cy="294.43" r="1.91" transform="matrix(0.56, -0.83, 0.83, 0.56, -163.06, 283.82)" fill="#81add1" opacity="0.28"/><path d="M191,315.85a1.91,1.91,0,1,0,0-2.7A1.9,1.9,0,0,0,191,315.85Z" fill="#81add1" opacity="0.28"/><path d="M202.26,318.8a1.91,1.91,0,1,0,2.66-2.75,1.91,1.91,0,0,0-2.66,2.75Z" fill="#81add1" opacity="0.28"/><path d="M204.86,347.44a1.91,1.91,0,1,0,0-2.7A1.9,1.9,0,0,0,204.86,347.44Z" fill="#81add1" opacity="0.28"/><path d="M188.41,305.39a1.91,1.91,0,1,0,0-2.71A1.91,1.91,0,0,0,188.41,305.39Z" fill="#81add1" opacity="0.28"/><path d="M200.35,308.3a1.91,1.91,0,1,0,0-2.7A1.91,1.91,0,0,0,200.35,308.3Z" fill="#81add1" opacity="0.28"/><path d="M260.4,125.59l-6.66,2.23a46.09,46.09,0,0,0-16.21-18.33c-1.93,2.47-9.22,2.48-17.21-.14-6.62-2.17-11.79-5.51-13.42-8.37-30.56.23-44.88,20.14-47.83,24.46C138.76,120.56,130,122.9,130,122.9c9.11-.29,16,1.9,21.21,5.46a1.48,1.48,0,0,1,.25-.44c1.53-1.8,6.79.14,11.76,4.34s7.74,9.07,6.22,10.88c-1.06,1.24-3.88.7-7.16-1.13,6,13.18,4.78,28.31,4.78,28.31,28.49-12.15,62.27-9.46,82.73.75a25.17,25.17,0,0,1-3.66-9.71,1.43,1.43,0,0,1-1,.12c-2.29-.58-4.65-6.2-3-12.5s6.57-10.9,8.86-10.32a1.36,1.36,0,0,1,.82.65A53,53,0,0,1,255.8,135c-.05-.05-.12-.08-.16-.14-.69-.87.24-2.74,2.08-4.18s3.76-1.87,4.49-1.09c9.29-7,21.69-13.44,33.13-14.45A68.37,68.37,0,0,0,260.4,125.59Zm-80.68,22.65c-.91,1-3,.44-4.7-1.17s-2.32-3.68-1.41-4.64,3-.43,4.71,1.17S180.63,147.29,179.72,148.24Zm21.79-35.74c-3.28,0-5.94-1.51-5.94-3.36s2.66-3.37,5.94-3.37,5.93,1.51,5.93,3.37S204.78,112.5,201.51,112.5Z" fill="#81add1" opacity="0.16"/><path d="M217.83,158.25C232.66,135.53,261.06,126,261.06,126s-25,4.22-51.68,31C179.77,125.33,154.82,123,154.82,123s25.79,7.14,46.1,34.5c-36.44,5.7-53.72,30.19-53.72,30.19s21.67-24.94,60.9-24.94,59.62,28.42,59.62,28.42S259.59,165,217.83,158.25Z" fill="#81add1"/><path d="M252.41,132c.45,7.2-27.06,18.29-67.53,20.81s-78.68-3.19-79.13-10.39S140.7,121.49,181.17,119,252,124.81,252.41,132Z" fill="#81add1" opacity="0.16"/><path d="M160.13,101s-13.18-5.28-19.38,3.1,10.12,20.7,10.12,20.7a41.52,41.52,0,0,0-27.95-2.65l-.56,4.92s8.69.76,17.54,2.55c8.37,1.7,16.81,4.53,20.82.85C166.61,125,160.13,101,160.13,101Z" fill="#192735"/><path d="M157.14,95.76s-8.72-5.11-15.8,4.45c-5.83,7.89,6.79,25.72,11.44,30.55a.36.36,0,0,1-.42.56,44.66,44.66,0,0,0-29.74-2.86l-.74,5.19s10.36,1.73,21.07,3.19c7.1,1,14.64,3.2,18.38-.25C168.06,130.4,157.14,95.76,157.14,95.76Z" fill="#192735"/><path d="M124,129.46l-5-1.26-3.92.51,1.35,10.48s6.57,2.23,7.25-.24c.49-1.74-3.44-2.41-3.44-2.41l-.51-2.71,4.15-1.44Z" fill="#192735"/><polygon points="123.95 122.5 118.91 121.24 115.48 125.72 116.34 132.23 126.56 132.91 120.16 129.58 119.64 126.87 123.8 125.42 123.95 122.5" fill="#192735"/><path d="M210.47,139.06c.71-.22,2.1-1.88,2.7-1.84s-.77,1.86-.77,1.86,4.76-.59,5.15-.18c.25.25-.87,2.06-1.73,2.62s-5.44.26-5.44.26c-.81-.26-5.7-.75-5.7-.75l1.92-1.79A26.3,26.3,0,0,0,210.47,139.06Z" fill="#e9a981"/><path d="M200.09,129.07c-.54-2.5,6.17-6.52,10.38-5.54s3.6-.65,7.72-1.08,18.25,0,18.58,2.82c.36,3.2-11.39.24-14.75,3.68s-7.93,5.06-10.16,3S200.62,131.58,200.09,129.07Z" fill="#192735"/><path d="M220.78,124.45c0-.43-3-.77-3.62-.67l-3.33.53a30.14,30.14,0,0,0-2.11-2.59l-1.86,2a23.69,23.69,0,0,0,2.84,2.51,2.09,2.09,0,0,0,1.43.72.7.7,0,0,0,.63-.11h0C216.44,126.36,220.77,124.85,220.78,124.45Z" fill="#e9a981"/><path d="M213.92,126.93a8.25,8.25,0,0,0,3.09.2c.91-.34-3-1.17-3-1.17" fill="#e9a981"/><polygon points="196.61 118.25 210.78 125.03 212.93 121.98 197.19 106.44 196.61 118.25" fill="#c5dbef"/><path d="M194,103.69l-.07,6.08,9.94-2.1s.64,11.1,11.89,1.34c3.87-3.36,1.72-9.64-5.56-8.43C203.08,101.76,194,103.69,194,103.69Z" fill="#e9a981"/><path d="M203.57,103.76s-.86-7.64,9.09-8.19c8.27-.45,10.85,12.3,5.07,13.92a3.76,3.76,0,0,1-4.15-2c-.74-1.44-.2-4.59-3.61-3.68C210,103.85,205.71,106.74,203.57,103.76Z" fill="#192735"/><path d="M216.41,96.22c-.17,1.19-1.84,2-3.73,1.93s-3.29-1.19-3.12-2.38,1.84-2.06,3.73-1.93S216.58,95,216.41,96.22Z" fill="#fff"/><path d="M218.81,93.12c-.43,3.07-3,4.13-6,3.94S207.6,95.5,208,92.41s3-4.14,6-3.94S219.24,90.05,218.81,93.12Z" fill="#192735"/><path d="M206.12,111h-.45c0-.37.17-9,3.39-9h0a1.82,1.82,0,0,1,1.44.69c1.39,1.73.5,6.2.46,6.39l-.45-.09s.89-4.45-.37-6a1.36,1.36,0,0,0-1.08-.52h0C206.76,102.37,206.16,108.57,206.12,111Z" fill="#fff"/><path d="M211.15,108.14l2.17,2.9s-5.72,5.14-9.46-.11l6.72-3A.42.42,0,0,1,211.15,108.14Z" fill="#fff"/><path d="M210.66,105.12s.92-3-1.44-3a2.13,2.13,0,0,0-1.91,3.44" fill="#e9a981"/><path d="M150.48,93.67s45.53-2.07,48.75,10.6-10.53,34,11.57,33.47a8,8,0,0,1-1.9,4.53s-16.82.39-19.14-6.16-2.62-19.26-2.62-19.26-3.89,6.12-7.49,4.11c-9.75-5.45-14.07,5.53-17.42,5.32a33.27,33.27,0,0,1-9.18-9.87C149.16,109.62,147.62,100.23,150.48,93.67Z" fill="#fff"/><ellipse cx="42.71" cy="401.93" rx="42.71" ry="9.82" fill="#669cb9"/><path d="M36.78,394.06v4s8.91.21,9-.47c.25-1.26-6.16-1.55-6.16-1.55l-.52-2.36Z" fill="#192735"/><path d="M44.75,306.87a29.77,29.77,0,0,0-3.16-1.53l2.11,4.27S45.69,307.48,44.75,306.87Z" fill="#e9a981"/><path d="M85,274c-18.74,23.86-60.66,77.83-73.59,94.49A6,6,0,0,0,12.74,377h0A6,6,0,0,0,21,375.55L90.8,277.06Q87.82,275.65,85,274Z" fill="#506a82"/><path d="M116,191.66A48.36,48.36,0,1,0,164.31,240,48.36,48.36,0,0,0,116,191.66Zm0,90.87A42.51,42.51,0,1,1,158.46,240,42.51,42.51,0,0,1,116,282.53Z" fill="#506a82"/><path d="M114.09,280.93a42.51,42.51,0,1,1,42.51-42.51A42.52,42.52,0,0,1,114.09,280.93Z" fill="#fff" opacity="0.14"/><path d="M150.6,260.2c-.17-.34-.32-.68-.49-1-5.23-10.32-14.32-17.44-22.85-24.93C119,227,110.18,219.39,104.87,209.6a27.92,27.92,0,0,1-3.56-11.71,42,42,0,0,0-7.93,3.41A24.84,24.84,0,0,0,97,213.63c5.52,8.78,15,14.5,19.42,24,5.21,11.1,2.5,24.5-.62,35.78-.69,2.5-1.42,5-2.16,7.47l.45,0A42.5,42.5,0,0,0,150.6,260.2Z" fill="#fff" opacity="0.14"/><path d="M49.38,349.77H30.65s5.23,17.05,2.53,24.64,3,20.75,3,20.75l3.71-.05,2.35-37.77,6.43,11.5a65.12,65.12,0,0,1-3.21,11.31,28.8,28.8,0,0,0-.84,15l3.71-.05s8.27-23.06,8.44-28S49.38,349.77,49.38,349.77Z" fill="#192735"/><polygon points="50.15 321.83 55.75 308.31 53.88 307.09 39.44 321.83 50.15 321.83" fill="#fff"/><path d="M83.79,272.78C65.14,296.53,23,350.77,10,367.48a6,6,0,0,0,1.34,8.58h0a6,6,0,0,0,8.26-1.47l70-98.75A63.32,63.32,0,0,0,83.79,272.78Z" fill="#2c3d50"/><path d="M114.09,190.06a48.36,48.36,0,1,0,48.36,48.36A48.36,48.36,0,0,0,114.09,190.06Zm0,90.87a42.51,42.51,0,1,1,42.51-42.51A42.52,42.52,0,0,1,114.09,280.93Z" fill="#2c3d50"/><path d="M38.44,326l5.45-.85-2.73-8.53s10.41-2.31-.34-12.27c-3.26-3-9-1.35-7.33,4.94S38.44,326,38.44,326Z" fill="#e9a981"/><path d="M43.13,314.26c-1.58,0-5.78-.14-7.21-1.58a1.69,1.69,0,0,1-.53-1.3,1.89,1.89,0,0,1,.72-1.43c1.66-1.37,5.78-.76,6-.73l-.12.78c-1.09-.17-4.18-.4-5.33.55a1.1,1.1,0,0,0-.43.86.92.92,0,0,0,.3.72c1.25,1.25,5.65,1.39,7.24,1.34l0,.78Z" fill="#fff"/><path d="M41.27,309.29l3.53-2.23s3.7,5.05-1.15,8.62l-2.6-5.87A.38.38,0,0,1,41.27,309.29Z" fill="#fff"/><path d="M37.17,313.11c-.32-2.37-.34-3.36-.34-3.36l.63-.53a.83.83,0,0,0,.17-1.06c-.4-.65-.89-1.63-.46-2,6.56-4.89,2.66-6.75-.88-5.46-1.67.61-7.06,3.32-5.28,5.61a8,8,0,0,0-1,2.58c0,.77.6,1.34.75,2.07s0,1.3.06,2C31.32,316.93,37.48,315.48,37.17,313.11Z" fill="#192735"/><path d="M38.52,309.86s-2.66-.7-2.74,1.42c-.08,2.29,2.74,2.18,3.49,1.35" fill="#e9a981"/><path d="M29.36,356.45S24.12,327.6,31.49,322c9.62-7.3,36.67,6,36.67-13.69a6.84,6.84,0,0,1,4.07,1.51s0,15-6,17.36a125.19,125.19,0,0,1-15.67,4.39s4.95,18.24,4.52,23.17C55.08,354.74,40.51,360.74,29.36,356.45Z" fill="#fff"/><path d="M54,307.23s2.61-4.2,5.5-3.45l-3.63,4.67Z" fill="#e9a981"/><path d="M46.65,393l-1.95,4.56,4.47,4.35s4.9.11,5.39-.62c.94-1.38-4.53-1.87-4.53-1.87l-1.79-3L48.3,393Z" fill="#192735"/><path d="M68.16,308.31s-1.86-3.91-1.45-4.19,1.91,2.05,1.91,2.05-.13-4.78.28-4.64.68,4.5.68,4.5.27-4.91.82-4.77.27,4.77.27,4.77.68-3.55,1.23-4-.41,4.37-.41,4.37,1.09-3,1.5-2.86-1.23,5.73-1.23,5.73Z" fill="#e9a981"/><ellipse cx="370.38" cy="396.71" rx="47.44" ry="10.91" fill="#669cb9"/><path d="M383.26,388v4.48s-11.34.65-11.54-.13c-.52-2.08,8.32-2.11,8.32-2.11l.58-2.62Z" fill="#192735"/><path d="M373.36,291.79c1.05-.67,4.56-2.36,4.56-2.36l-2.34,4.73S372.32,292.46,373.36,291.79Z" fill="#e9a981"/><path d="M319.48,241.73s-8.51,10.18-13.4,9.75c-13.22-1.15-33.07-37.6-31-39.24s7.51,4.23,17.14-6.81Z" fill="#c5dbef"/><path d="M312.11,230l2.63,5.32s-13.88,15.83-19.26,9.86l-5.29-5.87S297.62,242.82,312.11,230Z" fill="#fff" opacity="0.44"/><path d="M302.47,218.37l2.63,5.32s-13.31,14.6-18,11.62l-4.41-6.56S287.12,233.85,302.47,218.37Z" fill="#fff" opacity="0.44"/><path d="M296.3,207.11l2.64,5.32s-14.61,14.15-19.28,11.17l-3.11-6.11S281,222.59,296.3,207.11Z" fill="#fff" opacity="0.44"/><path d="M319.48,241.73c.64.21,73.34,93.8,92,117.78A6.63,6.63,0,0,1,410,369h0a6.64,6.64,0,0,1-9.18-1.63L314.14,245.13,311,244.07a6.52,6.52,0,0,1-3.15-2.26l-20.9-27.72a6.56,6.56,0,0,1-1.22-5.05h0a6.53,6.53,0,0,1,2.87-4.36l.62-.4a6.55,6.55,0,0,1,5.55-.75l.36.12a6.51,6.51,0,0,1,3.29,2.36l20,27.37a6.52,6.52,0,0,1,1.25,4.16Z" fill="#506a82"/><path d="M369.26,338.77h20.81s-5.81,18.93-2.82,27.37-3.37,23.05-3.37,23.05l-4.12-.06-2.61-41.95L370,360s.56,4.13,3.56,12.56a32.05,32.05,0,0,1,.94,16.68l-4.13-.06s-9.18-25.61-9.37-31.05S369.26,338.77,369.26,338.77Z" fill="#192735"/><polygon points="368.4 307.74 362.19 292.73 364.26 291.37 380.31 307.74 368.4 307.74" fill="#fff"/><path d="M321,240.66c.64.21,73.34,93.8,92,117.78a6.63,6.63,0,0,1-1.48,9.53h0a6.65,6.65,0,0,1-9.19-1.63L315.66,244.06,312.48,243a6.49,6.49,0,0,1-3.15-2.26L288.44,213a6.52,6.52,0,0,1-1.22-5.05h0a6.51,6.51,0,0,1,2.87-4.35l.61-.4a6.52,6.52,0,0,1,5.55-.76l.36.12a6.53,6.53,0,0,1,3.29,2.36l20,27.38a6.5,6.5,0,0,1,1.26,4.15Z" fill="#2c3d50"/><path d="M381.42,312.39l-6.06-.94,3-9.47s-11.56-2.57.38-13.64c3.62-3.36,10-1.49,8.14,5.49S381.42,312.39,381.42,312.39Z" fill="#e9a981"/><path d="M376.2,299.29h-.68l0-.79c1.77.06,6.68-.1,8.07-1.5a1.07,1.07,0,0,0,.35-.82,1.28,1.28,0,0,0-.49-1c-1.3-1.07-4.74-.82-6-.63l-.12-.78c.19,0,4.75-.7,6.58.8a2.1,2.1,0,0,1,.78,1.56,1.85,1.85,0,0,1-.58,1.41C382.6,299.13,378,299.29,376.2,299.29Z" fill="#fff"/><path d="M378.27,293.81l-5.24-1.9s-2.79,5,2.59,9l2.89-6.51A.42.42,0,0,0,378.27,293.81Z" fill="#fff"/><path d="M388.73,298s.56,3.32-1.89,4-4.36-1.28-4-3.91.37-3.73.37-3.73l-1-1.6s.93-1.48.63-2.33-10-10.32-3.64-12.47c4.69-1.59,5.45,2.36,6.41,5.54a10.23,10.23,0,0,0,2.1,3.53s6.17,2.72,5.12,6.35A7,7,0,0,1,388.73,298Z" fill="#192735"/><line x1="383.26" y1="294.9" x2="378.7" y2="291.31" fill="none" stroke="#fff" stroke-linecap="round" stroke-linejoin="round" stroke-width="0.68"/><path d="M381.32,294.44s3-.77,3,1.57c.1,2.55-3,2.43-3.87,1.51" fill="#e9a981"/><path d="M376.15,289.07c-.82,1.1-.87,2.45-.12,3s2,.12,2.85-1,.87-2.45.12-3S377,288,376.15,289.07Z" fill="none" stroke="#fff" stroke-linecap="round" stroke-linejoin="round" stroke-width="0.68"/><path d="M391.5,346.2s1.87-40.3-6.6-40.58c-13.4-.43-36.49,9-36.49-12.9a7.63,7.63,0,0,0-4.53,1.67s0,16.67,6.67,19.29,17.4,4.88,17.4,4.88-5.5,20.26-5,25.73C362.93,344.29,379.12,351,391.5,346.2Z" fill="#fff"/><path d="M364.06,291.47s-2.91-4.66-6.12-3.83l4,5.19Z" fill="#e9a981"/><path d="M373.27,386.43l1.19,6.47L370.55,396s-8.88,2.11-9.1.1c-.22-1.84,7.09-2.18,7.09-2.18l2-3.34-.07-3.79Z" fill="#192735"/><path d="M348,292.65s1.85-3.92,1.44-4.19-1.91,2.05-1.91,2.05.14-4.78-.27-4.65-.68,4.51-.68,4.51-.28-4.91-.82-4.78-.28,4.78-.28,4.78-.68-3.55-1.22-4,.41,4.37.41,4.37-1.1-3-1.51-2.87,1.09,6,1.09,6Z" fill="#e9a981"/></g></svg>