<svg xmlns="http://www.w3.org/2000/svg" viewBox="0 0 1053.31 883.76"><g style="isolation:isolate"><g id="Layer_1" data-name="Layer 1"><path d="M1018.8,856.6l-.21-1.54h3.81C1020.42,856,1021.63,859.74,1018.8,856.6Z" fill="#e8e3cf"/><path d="M15.3,594.19c20.57-67.32,21.73-127.47,20.84-197-1-77.88-72.41-197.59-11.7-256.46,70.34-68.22,180.42-123.86,347.24-34,56,30.18,113.63,93.48,174.64,110,65.14,17.67,172.91,6.42,238.58,22.35,104.37,25.3,202.54,28.86,249.75,129.87,43.26,92.56,0,189.34-16.93,282.1-7.26,39.73-13.87,82.89-11.58,123.2,1.59,28,8.86,55.17,12.45,82.7L84.94,858.8c3.34-17.56-25.28-46.86-34.57-60.89C8.29,734.36-7,667.17,15.3,594.19Z" fill="#bcd8d8"/><path d="M8.83,862.9c0,11.52,231.84,20.86,517.83,20.86s517.82-9.34,517.82-20.86S812.64,842,526.66,842,8.83,851.38,8.83,862.9Z" fill="#466b6b"/><path d="M524,200.22c-4.79-1.47-8.28,7.29-10.37,11.71,1.15-3.73,6.27-13.3,6.68-17-4.33-7.77-11,12.29-13,15.51.61-2.38,9-20.92,6-22.45-5.77-2.87-12,18.73-13.47,21.41.37-2,9.09-17.45,5.86-18.93-6.31-2.36-11.29,18.92-13.81,22.87-3.06,4.78-9.32,8.83-13.8,12.2L467.23,243c6.2-2.06,4.82.58,12.33,1.16,8.38.64,19.37-5.93,25.61-10.81,5.57-4.35,8.33-10.09,12.06-15.52C519.92,213.88,524.89,204.88,524,200.22Z" fill="#e8a273"/><path d="M432.83,213.92c-7.9-1.1-13.34-8.92-12.15-17.46L435,94c1.19-8.55,8.57-14.57,16.48-13.47l153.85,21.52c7.9,1.11,13.34,8.93,12.15,17.47L603.16,222c-1.19,8.54-8.57,14.57-16.47,13.46Z" fill="#7c7c7c"/><g opacity="0.5" style="mix-blend-mode:color-dodge"><path d="M549.29,161.67a81.2,81.2,0,0,0-1.35,12.6c-.45,7.51-.92,15.28-3.59,21.51-4.52,10.55-15.16,17.19-15.61,17.46a5.28,5.28,0,0,1-7.77-6.18c0-.05.58-1.74,1.27-4.37,1.47-5.63,3.5-15.61,1.92-23s-4.83-11.65-6.31-12.85c-1.75.75-6,3.94-9.59,10.63-4.71,8.9-4.55,23.86-4.47,26.73,0,0,0,.05,0,.07a5.05,5.05,0,0,1,0,1.4,5.27,5.27,0,0,1-6,4.5l-.28,0a5.29,5.29,0,0,1-2.9-1.62c-.36-.38-8.76-9.69-10.22-21.07-.86-6.72.82-14.32,2.45-21.66a82.8,82.8,0,0,0,2.16-12.5c.09-2-.58-5.78-1.31-9.8-2.32-13-5.84-32.64,8.88-39.29a25.62,25.62,0,0,1,14.33-2.42,30.05,30.05,0,0,1,11.57,4.66,16.19,16.19,0,0,0,3.55,1.81,16.58,16.58,0,0,0,3.91-.77c3.14-.85,7.43-2,12.4-1.3a25.52,25.52,0,0,1,13.12,6.26c12.33,10.43,3.56,28.35-2.25,40.21C551.44,156.27,549.74,159.74,549.29,161.67Z" fill="#3e5960"/></g><path d="M530.87,168c-5.2,7.14-3.81,10.37-4.19,18.31-.26,5.47-2.54,11.09-4.44,16.43,1.47-5.63,3.5-15.61,1.92-23s-4.83-11.65-6.31-12.85c-1.75.75-6,3.94-9.59,10.63-4.71,8.9-4.55,23.86-4.47,26.73-3.45-5.34-2.73-13.24-2-19.2,1-7.86,5-11.19,7.42-17.86,5-13.86-6.76-27,.1-41.55-1.87,13.44.46,25.86,7.42,37.16,0,0,1.55-.86,1.57-.86-.67-1.47-.28-3.06-.88-4.66,6.34-3.2,4.29-10.92,6.92-16.31-.42,6.24-4.85,19.11-2,23,4-7.81,12-8.83,10.41-19.54-1.51-9.85-5.47-15,.14-23.77-1.53,11,1.24,13.88,3.81,23.52,2.4,9-3.87,13.71-8.52,20.88C529,165.59,529.76,167.31,530.87,168Z" fill="#3e5960" opacity="0.4" style="mix-blend-mode:color-dodge"/><path d="M491.2,208.4c2.06-2.27,13.1-11.56,7.85-14.63-2.87-1.68-12.56,6.12-14.59,8.06-4.86,4.61-4.4,10.27-7.06,16.42-2.42,5.58-8.36,11.31-12.94,15.37l7.85,10c6.36-5.17,13.25-7.55,18.88-14.68C496.4,222.34,497.05,214.23,491.2,208.4Z" fill="#e8a273"/><path d="M370.66,319.15a18.39,18.39,0,0,1-10.43.4c-3.84-1-7.51-3.77-11-7.56-11.93-13-21.59-38.75-28.54-53.13l1.15-24.28,3.32-70.53c27.81,2.32,29.89,53.07,52.46,102.45a194.51,194.51,0,0,0,10.85,20.59C395.46,298.51,383.87,315,370.66,319.15Z" fill="#fff"/><path d="M484.65,244.76c-26.3,25.36-59,54.85-84.75,68.95a84,84,0,0,1-20.62,8.19c-12.84,3-24.73,1.33-30-9.91-.28-.59-.54-1.21-.78-1.85l4.65-12,6.11-15.72a84.29,84.29,0,0,1,18-15.69l.39-.26c22.12-14.12,47.51-15.71,83.46-35.12q4.67-2.5,9.58-5.45C473.6,230.34,482.3,240.08,484.65,244.76Z" fill="#fff"/><path d="M379.28,321.9c-12.83,3-24.73,1.33-30-9.91-11.93-13-21.59-38.75-28.54-53.13l1.15-24.28,15.57-34.1a305.55,305.55,0,0,0,3.81,56.27c2.34,14.16,7,28,11.89,41.42.43,1.21.88,2.41,1.33,3.61a30.07,30.07,0,0,0,16.19,17.37A39.06,39.06,0,0,0,379.28,321.9Z" fill="#eaf6f9"/><path d="M461.11,231.38c-11.2,11.78-27.81,20.56-41.64,26.84-9.67,4.4-20.42,5.91-30,10.27-4.23,1.93-9.21,4.46-12.47,7.77-3.81,3.87-4.76,9.63-8,13.5a54.12,54.12,0,0,1,8.2-23l.39-.26C399.77,252.38,425.16,250.79,461.11,231.38Z" fill="#eaf6f9"/><path d="M323.94,790.78c-.2,6.33-3.45,17.3-5,25-1.07,5.31-.32,23.86-3.83,27.35-13,12.91-15.31-39.59-15.31-45.32Z" fill="#e8a273"/><path d="M301.67,830l12.07-1.76c5.49-6.92,8.43.81,11,4,3.06,3.76,8.84,6.41,13.14,8.49,7.59,3.68,26.11,6,24.05,17.33-14.81,1.91-45.7,3.33-61.19,2-6.67-.58-1.61-5.86-.41-14.84C301.17,839,300.55,836,301.67,830Z" fill="#fff"/><path d="M215.71,792c-.2,6.32-3.45,17.3-5,25-1.07,5.31-.32,23.87-3.83,27.35-13,12.92-15.31-39.59-15.31-45.31Z" fill="#e8a273"/><path d="M201.45,825.2c8.56-.83,10.15,6.08,11.66,9.37,1.81,3.9,4.74,5.1,7.54,7.4,4.93,4.06,17.49,7.33,15.17,18.52-10.35,1.14-36.28,2-46.85-.15-4.54-.92-1.61-3.91,2.42-13.67C193.76,840.91,193.4,826,201.45,825.2Z" fill="#fff"/><path d="M239.26,578.57c-7.07,46,.8,68.45-3.83,115.6-1.16,11.9-4.92,28.85-8.58,45.53-3.33,15.17-6.58,30.13-7.71,40.87-.91,8.61-2.09,26-3.47,35.29H190.89c-4.43-24.18-7.33-49.21-10.9-73-2.41-16-4.89-32.4-6.09-48.83-1.69-23.18-.84-46.49,6.37-69.21,6-18.91,2.93-67.33,3.76-87.61.82-20,9.44-18,1.25-36.51l60.18,32.85C242.8,548.41,241.59,563.45,239.26,578.57Z" fill="#125b87"/><path d="M332.86,688c0,8.91-1.5,28.4-3.37,49.4-2.91,32.75-6.7,69.17-7,74.88l-22.08,1c-6.78-23.66-12.11-48.31-18-71.68-3.32-13.21-6.73-26.65-9.39-40.22-5-25.44-7.39-51.38-1.88-77.31,4.12-19.38-5.73-73.82-6.89-94.1-1.14-20,9.7-12.26-.26-29.93l63.13,27.17c-1.2,15-.94,30.13-1.77,45.39C322.82,618.93,332.86,640.59,332.86,688Z" fill="#125b87"/><path d="M329.49,737.36c-2.91,32.75-6.7,69.17-7,74.88l-22.08,1c-6.78-23.66-12.11-48.31-18-71.68-3.32-13.21-6.73-26.65-9.39-40.22a117.44,117.44,0,0,0,6,12.16c9.47,16.59,26.27,29.15,46.82,24.81C327.08,738,328.28,737.72,329.49,737.36Z" fill="#0f4d6d"/><path d="M226.85,739.7c-3.33,15.17-6.58,30.13-7.71,40.87-.91,8.61-2.09,26-3.47,35.29H190.89c-4.43-24.18-7.33-49.21-10.9-73-2.41-16-4.89-32.4-6.09-48.83C185.94,719.6,205.32,743,226.85,739.7Z" fill="#0f4d6d"/><path d="M313.06,158.67c-9-3.13-14.8-5.32-21.56-8.72l-48.78-8.88c-6.4,3.19-16.62,6.37-23.61,8.31-7.14,2-14.8,4.41-22.11,6.76,6,31.59,17.63,61.27,38.33,87.63,10.77,13.71,30.49,113.66,46.48,121.54,9,4.42,12.16-73.3,17.67-81.14,5.84-8.3-1.52-30.28,1.38-39.84,6.4-21.12,10.39-41.89,13.88-63.4C316.24,171.71,321.72,161.69,313.06,158.67Z" fill="#125b87"/><path d="M276.3,209.41S233.41,155.92,233.56,145c.6-1.44,7.94-3.43,8.44-4.95,4.44-13.33,4.69-27.18,2.42-42.42L294.7,120.4c-1.37,7.45-3.06,16-2,24,.11.83.33,5.76.54,6.69C295.35,160.62,276.3,209.41,276.3,209.41Z" fill="#e8a273"/><path d="M347,555.75c-14.83,8.75-40.5,13.58-68,15.78-1.23-9.08-2.56-18.28-5.43-26.66-2.53,7.91-3.29,17.53-3.46,27.27-45.55,2.72-93.5-1.23-104.45-6.09-1.52-7.45,3.68-365.87-1-381.49-5.07-14,4.63-19.31,13.73-21.68,17.51-6.83,40.57-14.78,40.57-14.78a.19.19,0,0,1,0,.09,10.47,10.47,0,0,1,.6,1.09c3.24,6.5,8.79,25.69,15.16,50h0c.22.81.44,1.63.65,2.46h0c.36,1.41.74,2.82,1.11,4.26h0q.71,2.74,1.44,5.56h0c.36,1.41.72,2.84,1.08,4.28s.77,3,1.16,4.55h0c.2.82.41,1.64.62,2.47h0c12.26,48.68,25.77,106.76,31.61,129h0c.41,1.58.8,3,1.14,4.19s.63,2.22.88,3h0A16.06,16.06,0,0,0,275,361a4.51,4.51,0,0,0,.22-.44h0a13.79,13.79,0,0,0,.67-1.79C281.4,342,292,262.1,301.22,208.31h0c.26-1.56.53-3.08.79-4.6h0v0c.12-.69.25-1.37.36-2h0c1.69-9.56,3.33-18.07,4.86-25h0q.63-2.79,1.23-5.21h0c.4-1.67.81-3.2,1.21-4.57,1.2-4.23,2.31-7.06,3.31-8.18h0s0,0,.05,0c.32.15.65.3,1,.46,4.91,2.34,9.67,3.87,13.87,5.68,7.37,3.19,13,7.25,14.44,18.13,2,14.57,3.5,148.17,4.25,251.33.1,13.77.19,27,.26,39.32C347.12,521.31,347.17,555.62,347,555.75Z" fill="#fff"/><path d="M277.18,402.84c-1.65-8.62-18.69-79.85-27.82-109.24A823.68,823.68,0,0,0,211.31,195l11.36-16.49-19.48-6.43,9.18-21.57,21.34-7.64s27,123.53,40.85,212.83C277,371.35,278,398.36,277.18,402.84Z" fill="#dae6ea"/><path d="M315.92,187l12.56,17s-29.82,64-50.73,196.29c-2.28,10.39-4.26-35.61-3.19-44.53,10.86-90.34,29.79-200.4,29.79-200.4l21.83,6.19,8,15.19Z" fill="#dae6ea"/><path d="M251.79,212.65a12.6,12.6,0,0,1-14.48,10.2,12.34,12.34,0,0,1-10.51-14,12.81,12.81,0,0,1,.28-1.26,12.65,12.65,0,0,1,14.2-8.94,12.36,12.36,0,0,1,10.65,12.77A11.38,11.38,0,0,1,251.79,212.65Z" fill="#1d6693"/><path d="M251.93,211.37a12.66,12.66,0,0,1-14.2,8.94,12.38,12.38,0,0,1-10.65-12.77,12.65,12.65,0,0,1,14.2-8.94A12.36,12.36,0,0,1,251.93,211.37Z" fill="#fff"/><path d="M249.1,209.23a8.36,8.36,0,0,1-9.62,6.77,8.18,8.18,0,0,1-7-9.33,8.37,8.37,0,0,1,9.62-6.78A8.18,8.18,0,0,1,249.1,209.23Z" fill="#565050"/><path d="M245.55,208.68a4.79,4.79,0,0,1-5.5,3.87,4.69,4.69,0,0,1-4-5.34,4.79,4.79,0,0,1,5.5-3.87A4.68,4.68,0,0,1,245.55,208.68Z" fill="#3a3636"/><path d="M234.27,150c1.48-3.62,5.4-7,8.47-9.44.14-1.38.29-3.47.58-4.83l-2.93,2c-3.95,3.05-6.53,5-8.81,9.61a29.84,29.84,0,0,0-2.68,13.87c.15,10.64,3.83,21.07,6.66,31.24a94.48,94.48,0,0,1,3.61,17.63c.19,2.23,3.74,1.84,3.55-.39-.85-10.53-4.6-20.69-7.28-30.87C233,169.69,230.55,159.08,234.27,150Z" fill="#3a3636"/><path d="M316,238.89c-3.33,2.45-5.82,2.32-7.41,1.69-3.62-1.44-6-6.58-6.79-14.87-.5-5-.18-12.77.06-18.42.11-2.76.23-5.62.13-6.09a.7.7,0,0,0,.48.46l.42-1.62c.7.2.69,1,.66,2.64,0,1.15-.09,2.76-.17,4.62-.23,5.6-.55,13.27-.06,18.16.75,7.54,2.83,12.35,5.85,13.55,2.12.85,4.79-.16,7.7-2.92l1,1.24A20,20,0,0,1,316,238.89Z" fill="#fff"/><path d="M321.1,234.14c.8,1.32,0,3.42-1.68,4.69s-3.76,1.22-4.55-.11,0-3.42,1.68-4.68S320.31,232.82,321.1,234.14Z" fill="#1c1818"/><path d="M330.43,233.69c3.92.36,6.08-1.1,7.23-2.53,2.65-3.25,2.71-9.08.18-16.88-1.53-4.72-4.86-11.41-7.29-16.3-1.18-2.39-2.41-4.86-2.51-5.33a.8.8,0,0,1-.24.67l-1-1.2c-.55.55-.22,1.26.45,2.7.47,1,1.16,2.39,2,4,2.41,4.84,5.71,11.47,7.2,16.07,2.3,7.09,2.34,12.49.14,15.2-1.55,1.9-4.31,2.45-8,1.59l-.38,1.63A17.63,17.63,0,0,0,330.43,233.69Z" fill="#fff"/><path d="M324.06,232.24c-.19,1.6,1.3,3,3.33,3.24s3.81-1,4-2.56-1.31-3.06-3.34-3.25S324.24,230.63,324.06,232.24Z" fill="#1c1818"/><path d="M332,198.66c-.09.05-.21.06-.27.15-1.35,1.72-2.05,1.58-3,2.6a36.47,36.47,0,0,0-2.27-4.3c-7.62-12.07-18.51-9-21.57,4.73a36.1,36.1,0,0,0-.8,6.52c-2-.1-1.57,0-3.54-.06-.25-9.17,3.9-32.39,9.74-35.06C317.51,170,327.51,190.74,332,198.66Z" fill="#3a3636"/><g opacity="0.5" style="mix-blend-mode:color-dodge"><path d="M326.47,197.11c-7.62-12.07-18.51-9-21.57,4.73.52-8.08,3.11-23.63,6.51-25.19C316.24,174.44,325.83,194.75,326.47,197.11Z" fill="#1d6693"/><path d="M327.18,199.75a.55.55,0,0,1,.12.23C327.72,201.65,327.55,201.11,327.18,199.75Z" fill="#ff981d"/></g><path d="M309.12,165.81a60.76,60.76,0,0,0-5.85-8.41,41,41,0,0,0-6-6.17,28,28,0,0,0-4.7-2.55c.14,1,.94,2.55,1,3.55a12.1,12.1,0,0,1,2.05,1.49,44.34,44.34,0,0,1,5.64,5.91,56,56,0,0,1,5.23,7.6,24.43,24.43,0,0,1,3,7.32c.38,1.89,3.37,1.18,3-.71A27.52,27.52,0,0,0,309.12,165.81Z" fill="#3a3636"/><path d="M295.94,81.06c.91,8.12,6.14,14.23,11.69,13.64S316.94,87.06,316,79s-6.14-14.23-11.69-13.64S295,73,295.94,81.06Z" fill="#e8a273"/><path d="M305.13,86.55l.13,0a6.11,6.11,0,0,0,.65.38Z" fill="#c87e53"/><path d="M302.64,71.8c3.93-5.32,8.79.37,9.69,6.15-1.42-2.57-6-9.6-7.06-2.56-.32,2.23,6.18,15.5-.45,12.47C301,85.93,299.18,76.48,302.64,71.8Z" fill="#c87e53"/><path d="M291.15,23.33,276.6,36.45c1.65,2.47,4.8,4.18,7,6.57a94.13,94.13,0,0,1,9.59,12.85c3.33,5.08,9.26,13.11,8.66,19.44.87-8-.22-18.27-1.95-26.29C298.17,40.81,296.12,29.92,291.15,23.33Z" fill="#350b07"/><path d="M302.58,66.94c5.29,20.15,8.29,25.33,5.6,49.41-.93,8.38-.21,18.57-14.91,23.49-11.21,3.76-29.35-3.75-36.82-7.14-23.21-10.54-24.64-25.37-30.29-46.89-7.7-29.36,2.38-61.14,22.49-67.06C273.7,11.37,294.88,37.57,302.58,66.94Z" fill="#e8a273"/><path d="M264.17,81.52c-.42.62-1.69-1.36-2.58-.81A20,20,0,0,1,250.21,84c-2.1.05-3,2.47-3,2.42-.29-1.72-.87-6.8.58-8.9a7.18,7.18,0,0,1,3.62-2.58c4.1-1.43,7.26-1.3,9.57.5C262.06,76.25,263.47,79.92,264.17,81.52Z" fill="#c87e53"/><path d="M264.17,81.52a12.61,12.61,0,0,1-1.94,2A15.83,15.83,0,0,1,250.87,87a18.65,18.65,0,0,1-3.64-.65,7.26,7.26,0,0,1,1.23-5.86,7.56,7.56,0,0,1,3.68-2.41c4.14-1.4,7.22-1.63,9.46,0A7.9,7.9,0,0,1,264.17,81.52Z" fill="#fff"/><path d="M261.73,78.55a16,16,0,0,1,.5,5A15.83,15.83,0,0,1,250.87,87a18.62,18.62,0,0,1-2.09-5c-.13-.51-.24-1-.32-1.51a7.56,7.56,0,0,1,3.68-2.41c4.14-1.4,7.22-1.63,9.46,0C261.65,78.24,261.69,78.4,261.73,78.55Z" fill="#1e1816"/><path d="M254,82.39c.21.81-.09,1.57-.68,1.66s-1.23-.5-1.44-1.31.11-1.52.68-1.62S253.76,81.57,254,82.39Z" fill="#fff"/><path d="M301.22,72.56c-.4.6-1.64-1.4-2.49-.87a19,19,0,0,1-10.87,3.11c-2,0-2.81,2.48-2.81,2.44-.3-1.73-.91-6.81.45-8.88a6.65,6.65,0,0,1,3.44-2.53c3.92-1.38,6.94-1.23,9.17.58C299.14,67.27,300.53,71,301.22,72.56Z" fill="#c87e53"/><path d="M301.22,72.56a11.5,11.5,0,0,1-1.85,1.93,15.11,15.11,0,0,1-10.84,3.36,18.14,18.14,0,0,1-3.48-.61,7.42,7.42,0,0,1,1.11-5.86A6.91,6.91,0,0,1,289.65,69c4-1.35,6.9-1.55,9.07.09A8.16,8.16,0,0,1,301.22,72.56Z" fill="#fff"/><path d="M298.85,69.56a16.65,16.65,0,0,1,.52,4.93,15.11,15.11,0,0,1-10.84,3.36,19.36,19.36,0,0,1-2.06-5c-.13-.51-.23-1-.31-1.5A6.91,6.91,0,0,1,289.65,69c4-1.35,6.9-1.55,9.07.09C298.76,69.25,298.81,69.4,298.85,69.56Z" fill="#1e1816"/><path d="M291.45,73.25c.21.81-.07,1.56-.63,1.65s-1.18-.51-1.39-1.3.08-1.51.64-1.61S291.24,72.45,291.45,73.25Z" fill="#fff"/><path d="M231.71,83.18c.23,5.17,4.23,12.58,6.54,17.39,2.47,5.14,4.77,11,8.68,15.19,4.3,4.64,7.39,1,11-2.72,4.71-4.86,10.1-5.61,16.51-7.63,11.4-3.58,24-5.39,35.29-2.19.61,5.3-1.19,11.57-1.42,17.07-.25,5.93.31,12.83-3.63,17.82-8.21,10.41-27,8.43-37.55,5.2-9.54-2.92-19-9.39-25.89-16.67-6-6.31-8.71-17.81-12-25.6Z" fill="#350b07"/><path d="M277,79.6c.47.61.9,1.25,1.34,1.88s.86,1.26,1.28,1.9.83,1.26,1.24,1.89c.21.31.43.63.63.94l.62.94.63.92c.21.31.41.63.62.93l.64.91.63.91c.23.29.44.58.66.88l.65.9.67.86.67.87.6.82-.35.71a4.88,4.88,0,0,1-.5.79,6.77,6.77,0,0,1-.53.63,10.51,10.51,0,0,1-1.16,1,12.47,12.47,0,0,1-1.24.8,11.92,11.92,0,0,1-1.3.62,10.43,10.43,0,0,1-1.36.48l-.7.16a6.09,6.09,0,0,1-.73.1,6.23,6.23,0,0,1-.74,0,4.88,4.88,0,0,1-.76-.07,3.06,3.06,0,0,1-.77-.22,2.12,2.12,0,0,1-.69-.47,1.83,1.83,0,0,0,.71.14,3.7,3.7,0,0,0,.66-.07,4.19,4.19,0,0,0,.63-.19c.21-.07.42-.16.62-.25l.6-.29c.2-.1.39-.22.58-.33.39-.22.76-.47,1.13-.72a19.86,19.86,0,0,0,2.09-1.67,11.41,11.41,0,0,0,.9-1,5.51,5.51,0,0,0,.38-.5,4.76,4.76,0,0,0,.27-.48l.24,1.53-.72-.9-.72-.91c-.23-.31-.45-.64-.67-1l-.67-1c-.22-.32-.42-.65-.64-1l-.61-1c-.21-.33-.39-.67-.59-1l-.56-1c-.19-.35-.36-.7-.54-1s-.34-.69-.52-1.05-.33-.7-.49-1.06-.31-.71-.47-1.06c-.31-.72-.6-1.44-.88-2.17S277.22,80.35,277,79.6Z" fill="#c87e53"/><path d="M297.78,106.42a32.21,32.21,0,0,0-3.07,6.25c-2.26,6-2.34,10.08-9.76,10.51-14.06.8-18.6-12.25-18.6-12.25l2.62.15C282,111.67,292.07,110,297.78,106.42Z" fill="#c87e53"/><path d="M297.78,106.42a32.21,32.21,0,0,0-3.07,6.25l-.77.3c-7.05,2.64-15.64,2.78-23.17,2-.31-.78-1.12-2.37-1.8-3.87C282,111.67,292.07,110,297.78,106.42Z" fill="#fff"/><path d="M260.44,62.4c-8.5,2.28-17.56,5.35-23,9.1l2,7.52c2.56-.6,5.05-1.78,7.68-1.93-.25-2,.1-3.81-.32-5.78.4,1.45,1.65,3.77,2.07,5.3,4.81-.22,8.63-1.63,13.74-2.93A53.52,53.52,0,0,0,260.44,62.4Z" fill="#350b07"/><path d="M280.44,58.44c6.3-2,13.35-3.68,18.58-3.29l2.69,6.43c-1.85.67-4,.88-5.62,1.91-.87-1.55-2-2.77-2.82-4.4.52,1.24,1,3.49,1.51,4.8-3,1.93-6,2.56-9.78,3.81A58.37,58.37,0,0,1,280.44,58.44Z" fill="#350b07"/><path d="M199.65,54c2.14,8.3,9.49,13,14.36,19.69A69.87,69.87,0,0,1,225,97l4.83,5c.1.12.19.26.28.38l.69.93c2.5,3.23,4.19,4.29,5.29,3.84,2.23-3.24-4.42-25.69-4.85-33.38-.43-7.51,3.47-21.59,9.46-27.44l.29-.27c5.71-5.27,13.6.76,20.76,1.52,9.42,1,13.61-3.16,20.13-9.64,3.81-3.78,3.19-3.55,8.28-1.76,4.19,1.48,7.4,14.07,9,8,1.23-4.74,10.51-16.13,8.84-20.42-1.1-2.83-2.17-5.51-3.33-8-3.82-8.22-8.53-14.1-18.3-15.38C267-2.08,220.85,5.78,217.25,25.66c-6.8,2.15-12,3-15.66,9.52a23.24,23.24,0,0,0-2.68,7.69A27,27,0,0,0,199.65,54Z" fill="#5d150a"/><path d="M199.65,54c2.14,8.3,9.49,13,14.36,19.69A69.87,69.87,0,0,1,225,97l4.83,5c.1.12.19.26.28.38l.69.93c3,4,4.59,4.87,5.29,3.84,2.23-3.24-4.42-25.69-4.85-33.38-.43-7.51,3.47-21.59,9.46-27.44l.29-.27c5.71-5.27,13.6.76,20.76,1.52,9.42,1,13.61-3.16,20.13-9.64,3.81-3.78,3.19-3.55,8.28-1.76,4.19,1.48,7.4,14.07,9,8,1.23-4.74,10.51-16.13,8.84-20.42-1.1-2.83-2.17-5.51-3.33-8C296.06,26.07,278,37.78,268.06,38.16c-6.23.24-11.2-3.41-17.08-4.62-7.94-1.64-12.56,1.68-17.79,7.14.79-4.16,2.69-9.45,6.52-11.78-12.05-1.66-25.39,19.41-22.87,29.39-9,2.41-15.06-9.46-17.93-15.42A27,27,0,0,0,199.65,54Z" fill="#350b07"/><path d="M233.26,96.66c4,7.19,3.24,15.09-1.67,17.66s-12.13-1.17-16.12-8.36-3.24-15.09,1.67-17.66S229.27,89.47,233.26,96.66Z" fill="#e8a273"/><path d="M228.89,106.23l-.09.09a6.9,6.9,0,0,1-.32.67Z" fill="#c87e53"/><path d="M222.34,92.71c-6.35-2.23-7,5.14-4.4,10.39-.33-2.89-.63-11.23,4.32-6,1.57,1.66,4,16.17,7.65,10C232,103.43,227.91,94.66,222.34,92.71Z" fill="#c87e53"/><path d="M253.82,96.17c-7.13,0-12.42-2.84-13.14-7-.46-2.67.92-5.43,3.9-7.77a24.57,24.57,0,0,1,10.87-4.5,29.1,29.1,0,0,1,4.88-.43c7.13,0,12.42,2.84,13.14,7,.46,2.67-.92,5.43-3.9,7.77a24.57,24.57,0,0,1-10.87,4.5A29.1,29.1,0,0,1,253.82,96.17Zm6.51-17.25a26.19,26.19,0,0,0-4.46.39,22.13,22.13,0,0,0-9.75,4c-2.22,1.75-3.28,3.66-3,5.39.5,2.92,4.89,5,10.68,5a26.19,26.19,0,0,0,4.46-.39,22.13,22.13,0,0,0,9.75-4c2.22-1.75,3.28-3.66,3-5.38C270.51,81,266.12,78.92,260.33,78.92Z" fill="#fff"/><path d="M293.63,87.09c-6.72,0-11.74-2.9-12.48-7.23-.46-2.64.76-5.36,3.41-7.65a20.6,20.6,0,0,1,9.84-4.36,24.12,24.12,0,0,1,4-.35c6.72,0,11.74,2.91,12.48,7.24.46,2.64-.76,5.36-3.41,7.65a20.5,20.5,0,0,1-9.84,4.35A23.11,23.11,0,0,1,293.63,87.09ZM298.43,70a22.16,22.16,0,0,0-3.6.31,18.05,18.05,0,0,0-8.64,3.79c-2,1.69-2.88,3.59-2.58,5.34.52,3,4.64,5.16,10,5.16a21.12,21.12,0,0,0,3.6-.32,18,18,0,0,0,8.64-3.78c2-1.7,2.88-3.59,2.58-5.34C307.93,72.12,303.81,70,298.43,70Z" fill="#fff"/><path d="M271.1,83.21c-.44-2.53,1.43-5,4.54-6.13,2.7-.94,6.15-.56,7.77,2.41l-2.19,1.19c-1-1.8-3.18-1.8-4.76-1.25s-3.15,1.91-2.9,3.35Z" fill="#fff"/><path d="M162.13,204.91c5.87,41.25,17.63,82.68,46.66,114.57,9.22,10.13,28.25,27,43.43,21.84,18.7-6.4,16.37-29.45,20.07-44.76Z" fill="#dae6ea"/><path d="M427.86,189.52c-.6-9.22-17.55,3.92-21.54,6.15-8.22,4.6-17.71,5.67-23.31,13.81s-7.4,22.32-12.89,28.51l4.61,15.39c3.84-5.4,18.36-2.51,24.82-9,5.34-5.38,5.08-20.69,12.73-21.59l.6.6c-1.55,2.73-3.37,11.18,1.85,11.57,3.86.28,6.2-8.32,7.13-11.54,3.42-11.77-5.89-12.29-13.17-18.31C413.11,202.53,428.3,196.4,427.86,189.52Z" fill="#e8a273"/><path d="M279.35,427.9c0,33.58-1.66,89.61-4.06,122.27-.74,0-1.9-3.91-2.65-3.87,2.41-32.68,4.5-84.76,4.5-118.4,0-10-.08-20.84-.65-32-.18-3.7-.61-7.53-1.06-11.59-.84-7.64-1.72-15.54-.94-22.7l2.2.22c-.75,6.94.11,14.72.94,22.25.45,4.09.88,7.95,1.07,11.71C279.27,407,279.35,417.85,279.35,427.9Z" fill="#dae6ea"/><path d="M385.65,253.58c-28.33,26.65-63.56,57.58-91.11,72.24a89.53,89.53,0,0,1-22.05,8.45c-13.7,3-26.33,1.07-31.82-11-.28-.63-.55-1.29-.8-2L245,308.66,251.7,292a90.63,90.63,0,0,1,16.7-14.7c1-.7,2.06-1.38,3.1-2,25.13-15.59,54-16.21,96.26-40.05l3.28-1.88C374.08,238.09,383.2,248.58,385.65,253.58Z" fill="#fff"/><path d="M267.54,329.93a16.38,16.38,0,0,1-9.78,4.54c-4,.25-8.31-1.56-12.79-4.72-15.38-10.84-32.53-31.6-43.61-46,0,0-44.1-57.9-46.71-81.53C151.12,170.32,176,163.4,176,163.4c27.15-8.07,44.94,51.4,81.78,101.26a223.17,223.17,0,0,0,16.72,20.23C284.68,295.75,278.81,319.86,267.54,329.93Z" fill="#fff"/><path d="M367.76,235.24C355.3,248.74,343.68,254,322.53,264,302.9,273.22,282.32,282,268,299c-.42-6.68,1.32-14.87.4-21.7,1-.7,2.06-1.38,3.1-2C296.63,259.7,325.48,259.08,367.76,235.24Z" fill="#dae6ea"/><path d="M218.4,437.71c-14.58,2.43-31.49.7-45.7-1l.88.88c-.35,14.85,5.85,41.42,25.56,41.43S219.09,451.37,218.4,437.71Z" fill="#dae6ea"/><path d="M346.83,473.51c-14.57-5.15-19.32-27.28-19-40.34l-.88-.88c6.18.75,12.86,1.5,19.64,1.9C346.67,448,346.76,461.18,346.83,473.51Z" fill="#dae6ea"/><path d="M639.44,620.58c5,21.75,22.21,23.12,21.72,46-1.28,59.93,3.43,160.8-1.28,165.85-3.76,4-11.49,2.85-16.67,1.77,3.29-8.73-11.88-68.89-25.86-127.55-.26-1-.5-2.11-.75-3.17-2-8.29-3.92-16.54-5.78-24.59-5.5-23.86-10.24-46-12.76-62.4-2.38-15.51-2.78-26,0-28.08C647.89,550.77,675.21,576,675.21,576,686,594.75,634.37,598.42,639.44,620.58Z" fill="#e8a273"/><path d="M665.39,815.57c-7.21-12.78-12.92,9.22-14.52,15.11l-4.26,1.77c-.59-4.4-1.22-9.69-3.21-13.26-1.81,7.24-30.11,31.65-34.26,37.24,3.74,5.82,34.3,2.67,40.88,2.67,13.27,0,17.05.84,17.05-14.21C667.07,838.05,668.62,821.29,665.39,815.57Z" fill="#4c3c3b"/><path d="M617.72,628.45c1.94,9.7-1.34,38.54-.87,48.48.34,7.18-.82,15.37-.53,22.9a213.94,213.94,0,0,0-5.5-21c-5.5-23.86-10.24-46-12.76-62.4.82-15.14,6.88-28.49,23-37.45l-.85,8.52C605.86,589.83,615.41,616.91,617.72,628.45Z" fill="#c87e53"/><path d="M647.14,591.71c.56-1,1.1-2,1.59-3.09l-32-33.89c1.42,11.42,2.37,25.47-4.14,36.12l-.36.58c-3.2.88-5.29,2.3-5.91,4.41a10.76,10.76,0,0,0-.87,4c4.06,37.86-12.25,55.58-18.79,65.32-2.53,3.75-5.09,7.55-7.69,11.36-23.63,34.67-48.81,69.3-53.14,70.31-4.8,1.12-12.88-3.22-16.69-6.31,26.3-17.93,71.87-197.43,87.84-196.16,121.64,9.67,121.53,47.23,121.53,47.23C719.16,602.46,679.5,595.15,647.14,591.71Z" fill="#e8a273"/><path d="M517.77,739.53c-.41-.59-1-1.54-1.46-2.12,2.3-3.21,4.91-13.63,4.91-13.63-19.54,14.41-47.07,10.91-46.72,18,.27,5.44,33.43,25.56,43.1,27.26,7.55,1.33,9.39-2.79,12.7-11.45,2.1-5.51,4.92-13,6.19-18.79C540.13,722.07,525.14,735,517.77,739.53Z" fill="#4c3c3b"/><path d="M880.5,656.72c0,25.59-60.68,51.29-135.19,46.33-114.13-7.61-140-38.49-140-64.08s72-35.29,146.63-35.29S880.5,631.14,880.5,656.72Z" fill="#0d7a93"/><path d="M882.41,637.77c0,25.58-53.28,52.39-127.79,47.42-114.13-7.6-140-38.49-140-64.07s72-35.3,146.62-35.3S882.41,612.18,882.41,637.77Z" fill="#0a525e"/><path d="M696.79,304.78c.8-2.23,5.62-5.79,7.21-7.95,2.09-2.83,3.69-5.84,5.53-8.73l-.81,28.9C706.15,317.66,695.46,308.46,696.79,304.78Z" fill="#c87e53"/><path d="M702.63,311.29c.8,9.21,1.61,24.39,5.51,33.11.17.38.35.75.53,1.1,5.23,10.17,21.4,4.74,29.76.43,0,0,.83-4.32,1.67-11.17,2.8-22.89,5.72-74-21.8-86.24-4.58-2-5.48,24.78-7.2,31.45-.3,1.18-.65,2.31-1,3.42-1.09,3.2-2.43,6.15-3.68,9.1C704,298.13,702,303.78,702.63,311.29Z" fill="#e8a273"/><path d="M708.14,344.4c.17.38.35.75.53,1.1,5.23,10.17,21.4,4.74,29.76.43,0,0,.83-4.32,1.67-11.17l-.12.2c-2.74,4.52-6.81,7.34-11.52,9.23C721.38,347,714.45,347.07,708.14,344.4Z" fill="#c87e53"/><path d="M708.89,279.44c1-3.87,7-.75,8.51.77,2.66,2.58,3.59,9.8,3.59,9.8-.72-2.77-4.48-5.37-6.93-6.75C712.23,282.23,708.17,282.23,708.89,279.44Z" fill="#3f1c18"/><path d="M736.3,346.79c.78-6.58,1.44-13.17,2.16-19.76.54-5,2.44-11.72,1.29-16.48l45-5.09c-2.84,1.92-3.14,8.55-3.8,12a150.84,150.84,0,0,0-2.14,29.9c.17,12.65,1.19,26,2.16,38.12-18.21,4.83-26.62,8.13-56-7.66C732.57,377.66,735.59,352.85,736.3,346.79Z" fill="#e8a273"/><path d="M706.4,292.49a5.13,5.13,0,0,0,.87.18c2.72.33,7.42-.92,9.15-.49a59.23,59.23,0,0,0-4.67-7.05,11.75,11.75,0,0,0-1.67-1.74C709,286.59,707.65,289.54,706.4,292.49Z" fill="#fff"/><path d="M706.4,292.49a5.13,5.13,0,0,0,.87.18,7.21,7.21,0,0,0,4.44-6.17,9,9,0,0,0,0-1.37,11.75,11.75,0,0,0-1.67-1.74C709,286.59,707.65,289.54,706.4,292.49Z" fill="#2b1b1a"/><path d="M712,258.71c9,4.59,16.22,11.72,18.49,20.72a25.42,25.42,0,0,1,.75,5.9c.66,99.64,78.37,55.78,80,26.79q.33-6,1.09-12.23.35-2.81.57-5.49a110.43,110.43,0,0,0,.36-12c-.34-12.48-3-22.36-7.34-30.07l-.37-.65a42.82,42.82,0,0,0-15.85-15.84C758.58,217.92,708.15,238.68,712,258.71Z" fill="#685553"/><path d="M780.54,255.3a43.13,43.13,0,0,0,5.25,23.62,28.88,28.88,0,0,0,11.88,11.44,36.7,36.7,0,0,0,15.24,4c10.34.35,19.94-4.28,24.35-14.65.3-.73.59-1.49.84-2.27,10-30.52-20.68-57.52-48.39-41.65a3.37,3.37,0,0,0-.32.19l-8.13,12.61C781,250.84,780.65,253.08,780.54,255.3Z" fill="#685553"/><path d="M730.52,279.43a25.42,25.42,0,0,1,.75,5.9c.66,99.64,78.37,55.78,80,26.79q.33-6,1.09-12.23.35-2.81.57-5.49c10.34.35,19.94-4.28,24.35-14.65-6.87,4.49-16.4,5.67-24,2.64l-.42-.16c-11.93-5.05-13.17-19.94-6.92-29.91a21.44,21.44,0,0,1,4.84-5.43,37.5,37.5,0,0,0-5.21,4.78c-4.93,5.43-8.53,12.15-11.81,18.47-3.13-3.4-3.78-8.94-6.61-12.52,1.48,5,1.48,14.55-1.35,21.3-1.59,3.8-4.07,6.73-7.7,7.49-3.51-7.21-2.24-15.3-7.48-22.45-4.38-6-12.43-13.35-19.87-14.94,6.54,7.68,15.15,25.88,2.94,32.78C747,285.59,738,283.55,730.52,279.43Z" fill="#4c3c3b"/><path d="M741.32,297.52c5.37,2.46,2.6,11.61,1.48,13.89-1.5,3-4,7.39-9.91,8.33-5.27.84-5.81-4.34-6-6.43C726.89,312.67,727.6,291.28,741.32,297.52Z" fill="#e8a273"/><path d="M730,305.86c.74-2.13,1.95-6.35,5.3-7.33,5.65-1.67,5.54,3.72,6,5.15,0,0-2.16-3.85-5.13-3-2.82.83-2.71,3.88-1.63,5.48,1.43,2.11,5.22,6.95-1.53,6.32C727,311.94,729.22,308,730,305.86Z" fill="#c87e53"/><path d="M613.24,525.23c-5.57,3.09-13.39,12.27-15.38,17.94,5.27,1.11,10.79,5.54,16.39,5.77,7.26.29,12.19-8.35,19.3-7.38l1.14-16.47A22.4,22.4,0,0,0,613.24,525.23Z" fill="#e8a273"/><path d="M828.09,536.6l-126.15-4.76C693,553.53,584,514.73,587.85,562c.68,8.42,16.18,44.28,27.25,61.32,37.62,57.87,103.14,49.88,128.49,51.34,33.85,2,109.51,5.88,117.8-40.47C867.41,600.49,843.71,564.67,828.09,536.6Z" fill="#4c3c3b"/><path d="M714.75,631c31.86,7.55,10.53-60.44,12.77-60,.41.09,4.51.87,3.63.74,3.86.66,7.75,1.24,11.65,1.67A222.54,222.54,0,0,0,767,574.79a307.16,307.16,0,0,0,45.7-3.59c-1-18.29-3.08-36.27-3.87-54.84-1-24.36-2-48.68-3.29-73.12-.85-16.14,19.08-35.9,17.52-51.71-2-20.2-32.85-24.09-42.7-35L735,355.26c1.62,21.42-25,23.66-36.43,29.38-17.19,8.57-16.45,35.53-16.46,54.06,0,37,8,59.6,6.24,96.05-.14,3.07-27.43,2.14-27.25,5.11C666.2,571.79,700.53,627.62,714.75,631Z" fill="#f1532e"/><path d="M711.34,522.82l-35.2-4.54a54.5,54.5,0,0,1-2,5.79c-25.24,3.3-42.21,0-44.54,1-9.08,4-6.66,7.85-9.65,12.5,17.45-.66,55.34,31,55.64,31.22,19.57,15.79,35.87-16.55,35.2-30.09C710.56,534.43,712.65,526.76,711.34,522.82Z" fill="#e8a273"/><path d="M722.08,488.87c-2.77,25-.92,48.8-19.83,70.86-6.81,7.95-30.67,4.62-28.38-11.93,0,0,0-20.44.12-21.43a370.31,370.31,0,0,0,3.34-47.72c0-35.12-12.44-98.59,38.33-99.65l10.22,20.44A634,634,0,0,1,722.08,488.87Z" fill="#f1532e"/><path d="M716,522.36c-2.63,12.18-6,41.82-21.72,44.81-26.61,5.05-21.64-30.55-21.33-32.71.23-1.7.47-3.4.7-5.1.14-1,.27-2,.39-3,23.58,13.73,36.5-21.72,39-34.21,4.93-24.15,1.7-54.39,1.28-79.49C726.68,443.35,722.67,491.08,716,522.36Z" fill="#d1391c"/><rect x="745.69" y="652.66" width="17.21" height="183.97" fill="#1d3235"/><polygon points="754.29 821.53 609.58 850.03 609.58 862.12 899 862.12 899 852.01 754.29 821.53" fill="#1d3235"/><polygon points="752.59 823.65 698.26 860.22 698.26 876.68 752.59 862.13 752.59 823.65" fill="#304749"/><path d="M841.5,358.7c-42.87-9.64-75,2.66-94.25,48.19-16.49,39-66.63,233.75-47.34,260.37s53.44,38.28,90.23,38.28c40.35,0,70.85-12.22,89.26-31.66C901.88,650.15,893.07,370.3,841.5,358.7Z" fill="#0d7a93"/><path d="M851.91,365.11c-39.77-7.11-69.73,6.14-88.06,49.44-16.49,39-66.62,233.75-47.34,260.38a82.18,82.18,0,0,0,25.66,22.87c-17.14-6.17-31.86-16.18-42.26-30.54-19.29-26.63,30.85-221.4,47.34-260.37,19.26-45.53,51.38-57.83,94.26-48.19C845.19,359.53,848.66,361.73,851.91,365.11Z" fill="#0f9fb7"/></g></g></svg>