<svg xmlns="http://www.w3.org/2000/svg" xmlns:xlink="http://www.w3.org/1999/xlink" id="Layer_1" data-name="Layer 1" viewBox="0 0 199.71 199.73"><defs><linearGradient id="linear-gradient" x2="199.71" y1="99.87" y2="99.87" gradientUnits="userSpaceOnUse"><stop offset="0" stop-color="#71cbe3"/><stop offset="1" stop-color="#82f0e3"/></linearGradient><linearGradient id="linear-gradient-2" x1="124.26" x2="158.14" y1="128.59" y2="94.71" gradientUnits="userSpaceOnUse"><stop offset="0" stop-color="#d1dcd4"/><stop offset="1" stop-color="#708193"/></linearGradient><linearGradient id="linear-gradient-3" x1="68.08" x2="95.35" y1="143.21" y2="115.94" xlink:href="#linear-gradient-2"/><linearGradient id="linear-gradient-4" x1="58.32" x2="86.09" y1="126.34" y2="126.34" xlink:href="#linear-gradient-2"/><linearGradient id="linear-gradient-5" x1="110.28" x2="138.66" y1="149.25" y2="177.63" xlink:href="#linear-gradient-2"/><linearGradient id="linear-gradient-6" x1="86.59" x2="97.18" y1="136.55" y2="144.9" gradientUnits="userSpaceOnUse"><stop offset="0" stop-color="#708193"/><stop offset="1" stop-color="#d1dcd4"/></linearGradient><linearGradient id="linear-gradient-7" x1="52.88" x2="64.32" y1="121.53" y2="121.53" gradientTransform="translate(27.84 -9.84) rotate(12.56)" xlink:href="#linear-gradient-2"/><linearGradient id="linear-gradient-8" x1="91.92" x2="103.36" y1="114.62" y2="114.62" gradientTransform="translate(27.27 -18.5) rotate(12.56)" xlink:href="#linear-gradient-2"/><linearGradient id="linear-gradient-9" x1="56.84" x2="98.49" y1="113.63" y2="113.63" xlink:href="#linear-gradient-2"/></defs><rect width="199.71" height="199.73" fill="url(#linear-gradient)"/><path fill="#c9f1f4" d="M168,168.54a50.18,50.18,0,0,0-4.2-11c-2.38-4.13-5-8.88-3.5-13.42s6.05-6.79,10.28-8.67,8.88-4.18,10.43-8.54c2.17-6.13-3-12.59-2.42-19.06.4-4.41,3.41-8.13,6.65-11.14s6.9-5.7,9.31-9.41,3.26-8.91.58-12.44c-2.41-3.17-6.84-4-10.82-3.8a30.08,30.08,0,0,0-22,11.58c-2.87,3.76-4.87,8.22-8.36,11.41s-8,4.76-12.14,7-8.09,5.76-8.66,10.42c-.48,3.92,1.57,7.82,1.06,11.73-.76,5.86-6.64,9.35-10.92,13.43a30.68,30.68,0,0,0-7.46,31.88Z"/><path fill="#fff" d="M137.06,164.39H137a.24.24,0,0,1-.18-.3c1.27-4.94,2.34-9.59,3.38-14.09,6.27-27.12,10.8-46.72,45.4-72.56a.25.25,0,1,1,.29.4c-34.45,25.73-39,45.25-45.2,72.27-1,4.51-2.11,9.16-3.39,14.1A.26.26,0,0,1,137.06,164.39Z"/><path fill="#c9f1f4" d="M10.91,139.63c2.12,11.05,8.16,21.46,17.5,27.59C25.1,163,25,156.88,26.92,151.8s5.58-9.31,9.37-13.22A118.66,118.66,0,0,0,47,126.36c18-24.62-6.43-52.54-23-33.76C16.21,101.51,6.36,115.92,10.91,139.63Z"/><path fill="#fff" d="M26,164.68a.28.28,0,0,1-.2-.1,38.54,38.54,0,0,1-8.07-25.88c.87-15.5,10.54-31.58,28.76-47.77a.23.23,0,0,1,.35,0,.25.25,0,0,1,0,.35c-18.11,16.11-27.73,32.06-28.59,47.43a37.91,37.91,0,0,0,8,25.54.25.25,0,0,1-.05.35A.22.22,0,0,1,26,164.68Z"/><path fill="#fff" d="M42.88,130.4a.25.25,0,0,1-.22-.15c-10.2-23.72-1.06-34.76-1-34.87a.25.25,0,0,1,.35,0,.26.26,0,0,1,0,.36c-.09.1-9,10.94,1,34.34a.25.25,0,0,1-.13.33Z"/><path fill="#fff" d="M12,119.47a.25.25,0,0,1-.07-.49C22.42,115.84,32,105.87,32.34,105.3a.22.22,0,0,1,.29-.17.26.26,0,0,1,.18.32c-.12.61-10.38,10.91-20.77,14Z"/><path fill="#fff" d="M29.6,145.19a.27.27,0,0,1-.15-.05c-10.92-8.54-6-26.14-5.92-26.32a.25.25,0,0,1,.31-.17A.25.25,0,0,1,24,119c-.05.17-4.91,17.46,5.74,25.79a.25.25,0,0,1,.05.35A.27.27,0,0,1,29.6,145.19Z"/><path fill="#fff" d="M13.85,146.59a.25.25,0,0,1-.16-.06.24.24,0,0,1,0-.35c2.71-3.12,4.12-8.4,4.13-8.46a.26.26,0,0,1,.31-.18.27.27,0,0,1,.18.31c-.06.22-1.45,5.45-4.25,8.66A.27.27,0,0,1,13.85,146.59Z"/><path fill="#fff" d="M168.53,120A94.76,94.76,0,0,1,139.21,168c-.2.18-.41.34-.62.52-.68.58-1.37,1.15-2.07,1.7H49.45c-.63-.55-1.24-1.12-1.85-1.7-.18-.16-.36-.34-.54-.52C27,148.38,18.14,115.81,26.68,83c12-45.85,53.39-74.74,92.56-64.53S180.48,74.11,168.53,120Z"/><path fill="#c9f1f4" d="M187.88,20.21c0,4.58-6.72,8.3-15,8.3s-15-3.72-15-8.3,6.72-8.31,15-8.31S187.88,15.62,187.88,20.21Z"/><path fill="#fff" d="M169.87,16.55a1.4,1.4,0,1,1-1.39-1.4A1.39,1.39,0,0,1,169.87,16.55Z"/><path fill="#fff" d="M174.83,16.55a1.39,1.39,0,1,1-1.39-1.4A1.39,1.39,0,0,1,174.83,16.55Z"/><path fill="#fff" d="M179.8,16.55a1.4,1.4,0,1,1-1.39-1.4A1.39,1.39,0,0,1,179.8,16.55Z"/><path fill="#fff" d="M184.76,16.55a1.39,1.39,0,1,1-1.39-1.4A1.39,1.39,0,0,1,184.76,16.55Z"/><path fill="#fff" d="M169.87,20.67a1.4,1.4,0,1,1-1.39-1.39A1.39,1.39,0,0,1,169.87,20.67Z"/><path fill="#fff" d="M174.83,20.67a1.39,1.39,0,1,1-1.39-1.39A1.39,1.39,0,0,1,174.83,20.67Z"/><path fill="#fff" d="M179.8,20.67a1.4,1.4,0,1,1-1.39-1.39A1.39,1.39,0,0,1,179.8,20.67Z"/><path fill="#fff" d="M184.76,20.67a1.39,1.39,0,1,1-1.39-1.39A1.39,1.39,0,0,1,184.76,20.67Z"/><path fill="#fff" d="M8.21,22.18a1.62,1.62,0,1,1-2.13-.86A1.63,1.63,0,0,1,8.21,22.18Z"/><path fill="#fff" d="M15.83,19a1.63,1.63,0,1,1-2.13-.87A1.63,1.63,0,0,1,15.83,19Z"/><path fill="#fff" d="M23.44,15.75a1.62,1.62,0,1,1-2.13-.87A1.63,1.63,0,0,1,23.44,15.75Z"/><path fill="#fff" d="M31.05,12.53a1.62,1.62,0,1,1-2.12-.87A1.62,1.62,0,0,1,31.05,12.53Z"/><path fill="#fff" d="M38.67,9.31a1.62,1.62,0,1,1-2.13-.86A1.62,1.62,0,0,1,38.67,9.31Z"/><path fill="#fff" d="M10.72,28.13a1.62,1.62,0,1,1-2.12-.87A1.62,1.62,0,0,1,10.72,28.13Z"/><path fill="#fff" d="M18.34,24.91a1.62,1.62,0,1,1-2.13-.86A1.63,1.63,0,0,1,18.34,24.91Z"/><path fill="#fff" d="M26,21.69a1.62,1.62,0,1,1-2.13-.86A1.62,1.62,0,0,1,26,21.69Z"/><path fill="#fff" d="M33.57,18.47a1.63,1.63,0,1,1-2.13-.86A1.62,1.62,0,0,1,33.57,18.47Z"/><path fill="#fff" d="M41.18,15.25a1.62,1.62,0,1,1-2.13-.86A1.62,1.62,0,0,1,41.18,15.25Z"/><path fill="#fff" d="M13.24,34.07a1.63,1.63,0,1,1-2.13-.86A1.62,1.62,0,0,1,13.24,34.07Z"/><path fill="#fff" d="M20.85,30.85A1.62,1.62,0,1,1,18.72,30,1.63,1.63,0,0,1,20.85,30.85Z"/><path fill="#fff" d="M28.46,27.64a1.62,1.62,0,1,1-2.12-.87A1.61,1.61,0,0,1,28.46,27.64Z"/><path fill="#fff" d="M36.08,24.42A1.62,1.62,0,1,1,34,23.55,1.63,1.63,0,0,1,36.08,24.42Z"/><path fill="#fff" d="M43.69,21.2a1.62,1.62,0,1,1-2.13-.87A1.63,1.63,0,0,1,43.69,21.2Z"/><path fill="#fff" d="M70.51,176.4A2.56,2.56,0,1,1,68,179,2.56,2.56,0,0,1,70.51,176.4Z"/><path fill="#fff" d="M80.29,176.4A2.56,2.56,0,1,1,77.73,179,2.56,2.56,0,0,1,80.29,176.4Z"/><path fill="#fff" d="M90.07,176.4A2.56,2.56,0,1,1,87.51,179,2.55,2.55,0,0,1,90.07,176.4Z"/><path fill="#fff" d="M99.86,176.4A2.56,2.56,0,1,1,97.3,179,2.56,2.56,0,0,1,99.86,176.4Z"/><path fill="#fff" d="M109.64,176.4a2.56,2.56,0,1,1-2.56,2.56A2.56,2.56,0,0,1,109.64,176.4Z"/><path fill="#fff" d="M119.42,176.4a2.56,2.56,0,1,1-2.56,2.56A2.56,2.56,0,0,1,119.42,176.4Z"/><path fill="#fff" d="M129.21,176.4a2.56,2.56,0,1,1-2.56,2.56A2.55,2.55,0,0,1,129.21,176.4Z"/><path fill="#fff" d="M75.63,189.49a2.56,2.56,0,1,1-2.56,2.56A2.56,2.56,0,0,1,75.63,189.49Z"/><path fill="#fff" d="M85.41,189.49a2.56,2.56,0,1,1-2.56,2.56A2.56,2.56,0,0,1,85.41,189.49Z"/><path fill="#fff" d="M95.19,189.49a2.56,2.56,0,1,1-2.56,2.56A2.56,2.56,0,0,1,95.19,189.49Z"/><path fill="#fff" d="M105,189.49a2.56,2.56,0,1,1-2.55,2.56A2.56,2.56,0,0,1,105,189.49Z"/><path fill="#fff" d="M114.76,189.49a2.56,2.56,0,1,1-2.56,2.56A2.56,2.56,0,0,1,114.76,189.49Z"/><path fill="#fff" d="M124.54,189.49a2.56,2.56,0,1,1-2.56,2.56A2.56,2.56,0,0,1,124.54,189.49Z"/><rect width="46.55" height="23.23" x="117.92" y="100.03" fill="url(#linear-gradient-2)" rx="1.72"/><path fill="#63212d" d="M37.07,58c0,3.9-2.81,7.06-6.28,7.06S24.5,61.85,24.5,58s2.81-7.07,6.29-7.07S37.07,54.05,37.07,58Z"/><path fill="#63212d" d="M27.11,58.43s5.59,9,5.27,12.85-2.28,8.2,2.7,9.64,10.82-3.44,10.84-3.65A17.51,17.51,0,0,0,45.53,72c-.58-1.64-2.94-6.74-3-7.36s-3.29-4.51-3.29-4.51Z"/><path fill="#0e575a" d="M113.45,115c-1.44-.18-2.75-.47-2.75-.47a8.17,8.17,0,0,1,1.84-1,8.44,8.44,0,0,1,.85-.29C113.41,113.82,113.42,114.4,113.45,115Z"/><path fill="#0e575a" d="M144.63,113.36l-1,.2-.09-.45Z"/><path fill="#21a7b3" d="M38.45,81.77l-2.1,13.74-.92-1.86,2.11-13.74,0,.09Z" opacity=".5"/><path fill="#688597" d="M98.93,122l-14.5,2.65a11.92,11.92,0,0,0,.88-1.41l.32-.6.46-.84,12.66-2.46.07.7C98.88,120.7,98.92,121.35,98.93,122Z"/><path fill="#f7927e" d="M90.64,102.54A.71.71,0,0,0,90,102a30.36,30.36,0,0,1-6-.59,16.13,16.13,0,0,0-2.19-.36c-14.88-1.23-18.81-6-18.81-6l-1.3,4.06s2.36,1.56,3,1.94,9.71,2,9.71,2l8.4-.36a.9.9,0,0,0,.31-.19.75.75,0,0,0,.27-.52c2.12.22,4.66.38,7.3.51Z"/><path fill="#6b2945" d="M107.41,104.05s-12.62-.55-25.19-.6c-2.44,0-4.87,0-7.22,0l-3,.07a14.49,14.49,0,0,0-4.72-1.64l-1.49-.29a3.86,3.86,0,0,0,.35-1s26.6,1.75,37.12,2.84A23.77,23.77,0,0,1,107.41,104.05Z"/><path fill="#6b2945" d="M153.64,108.62l-.76,3.48c-33.07,1.47-38.69,6.93-46.8,2l-1.28-9.72,44.61,3.43c.07.15.24.48.24.48Z"/><path fill="#203d5a" d="M164.69,98.05l-3,16.68-1.67-.91h-3l-4.11-2,.71-3.24A23.8,23.8,0,0,0,163.09,98l1.13.07Z"/><polygon fill="#fff" points="164.69 98.05 161.66 114.73 159.99 113.82 164.22 98.02 164.69 98.05"/><path fill="#557493" d="M159,104.21s-3.3,3.21-6.28,3.17c-.27,1,.75,2.09.75,2.09A14.66,14.66,0,0,0,159,104.21Z"/><path fill="#fff" d="M159.23,110.58a1.43,1.43,0,1,1-1.51-1.35A1.44,1.44,0,0,1,159.23,110.58Z"/><path fill="#f99466" d="M46,68.51h3.1a3.76,3.76,0,0,1,2.44.91L54,71.57c.12.09-1.53.42-1.53.42l-2.25-.81Z"/><path fill="#ffc281" d="M68.06,100.59l-.39.62-.06.11c0,.05-.07.1-.1.16l-.21.35s-.06.09-.09.15l-.41.7-.54,1,0,.06c-.23.44-.48.92-.72,1.4s-.58,1.2-.84,1.81a23,23,0,0,1-2,3.56c-4.21,5.86-9.56,6.19-11.47,6.1a5.49,5.49,0,0,1-.72-.07c-.19-3.88-.58-8.09-.92-11.33s-.63-5.5-.63-5.5c-.17-.66-.34-1.31-.52-1.93C47.69,95.52,47,93.63,46.28,93c-2.12-2-7.51-7.54-9.63-13.37a11.32,11.32,0,0,1-.36-1.94,8.14,8.14,0,0,1,1.06-5.08c-.56-.31-1.66.2-1.66.2l2.94-2,.63-.33c.58.27,2.75,1.31,4.08,2.11a3,3,0,0,1,1,.83l1.7,1a9.11,9.11,0,0,1,4.53,7.32l.14,2.15,1.33,1.81c.32.43.63.85.94,1.25l.2.28,1.32-.41L60.25,85l.34-.11c0,.06,0,.13,0,.2.06.39.13.77.19,1.14,0,.14,0,.28.07.42a75.41,75.41,0,0,0,2.36,9C65.24,99.55,68.06,100.59,68.06,100.59Z"/><path fill="#ffc281" d="M60.59,84.86l-5.47,3.41-1.3.81-2.65,1.65-.21-1-.08-.41-.12-.56L50.39,87l-.9-4.31a14.52,14.52,0,0,0-5.57-8.74l-4.65-3.47L46,68.51s12.06,3.11,13,5.36c.68,1.62.89,5.27,1.18,8.14a26,26,0,0,0,.36,2.7Z"/><path fill="#f79566" d="M62.61,110.5c-4.21,5.86-9.56,6.19-11.47,6.1a5.49,5.49,0,0,1-.72-.07c-.19-3.88-.58-8.09-.92-11.33s-.63-5.5-.63-5.5c-.17-.66-.34-1.31-.52-1.93C47.69,95.52,47,93.63,46.28,93c-2.12-2-7.51-7.54-9.63-13.37a11.32,11.32,0,0,1-.36-1.94,8.14,8.14,0,0,1,1.06-5.08c-.56-.31-1.56.15-1.56.15l2.84-2,.63-.33c.58.27,2.75,1.31,4.08,2.11a3,3,0,0,1,1,.83l1.7,1a9.11,9.11,0,0,1,4.53,7.32l.14,2.15c-.11,2.34,1,3.08,1.1,3.12L53,86.88c.48,0,1-.07,1.52-.13A12.53,12.53,0,0,0,60.25,85l.31-.26,0,.15c0,.06,0,.13,0,.2a11.28,11.28,0,0,1-5.51,3.21,14.1,14.1,0,0,1-3.6.5l-.35,2s1,15.31,2.87,17C55.55,109.06,60,108.29,62.61,110.5Z" opacity=".75"/><polygon fill="#f7927e" points="156.22 110 155.51 112.56 155.18 113.78 150.13 113.92 151.02 109.37 151.46 109.42 156.22 110"/><path fill="#2b5178" d="M167.57,101.14l-4,16.48-1.61-1-3-.16-4-2.25.89-3.19A23.8,23.8,0,0,0,166,101l1.12.13Z"/><polygon fill="#fff" points="167.57 101.14 163.59 117.62 161.98 116.62 167.09 101.08 167.57 101.14"/><path fill="#557493" d="M161.49,107s-3.47,3-6.45,2.81c-.33,1,.63,2.13.63,2.13A14.7,14.7,0,0,0,161.49,107Z"/><path fill="#fff" d="M161.4,113.35a1.44,1.44,0,1,1-1.43-1.44A1.43,1.43,0,0,1,161.4,113.35Z"/><polygon fill="#d35850" points="155.51 112.56 155.18 113.78 150.13 113.92 151.02 109.37 151.46 109.42 151.16 112.95 155.51 112.56"/><polygon fill="#96405b" points="150.44 107.44 149.97 109.02 149.4 108.91 149.27 109.16 147.97 109 148.94 107.17 150.44 107.44"/><path fill="#fff" d="M51.61,71.16c0,.91-1.33,1.39-2.82,1.68a13.24,13.24,0,0,1-5.45-.29,22.14,22.14,0,0,1-4.72-1.79l.64-.33c.92.41,6.77,2.91,11,1.14,2-.86-2.65-1.69-4-2.77a1.53,1.53,0,0,1-.25-.28l.12.08C47.24,69.22,51.56,70.69,51.61,71.16Z"/><path fill="#96405b" d="M73.34,103l-2.83-.12-3.2-.13-.5,0c.13-.24.26-.46.38-.67l.11-.18.21-.35c0-.06.07-.11.1-.16l.06-.11c.23-.37.37-.59.38-.62S71.44,102,73.34,103Z"/><path fill="#96405b" d="M149.9,109.23h-.1l-.53-.06L148,109l-39-4.76-1.35-.79-4.39,0c-4.21,0-11,0-18,0L73.34,103l-2.83-.12-3.2-.13-.5,0c-.18.31-.36.64-.55,1l0,.06-.36.68-.18.36-.18.36c-.3.6-.58,1.2-.84,1.81-4.32,9.3-11.28,9.77-13.52,9.66A6.25,6.25,0,0,0,53,119.17a7.09,7.09,0,0,0,.68.51,7.56,7.56,0,0,0,1.5.78c10.34,4.19,29.92-2.49,49.36-6.09-.17.38,0,.59.19.67a2,2,0,0,0,1.11-.23.73.73,0,0,0,.87.59c.82-.05.67-.72.67-.72,11.87,3.85,14.71.22,39.1-.17H150l1-5.11Z"/><polygon fill="#ab667c" points="151.04 109.23 151.02 109.37 150.02 114.48 149.84 115.4 145.75 115.8 146.44 114.51 148.98 109.71 149.27 109.16 149.4 108.91 149.97 109.02 151.04 109.23"/><path fill="#6b2945" d="M68.05,100.59c0,.06-.36,1-.74,2.11a24.84,24.84,0,0,0-1,3.82,16.24,16.24,0,0,1-7,10.48,20.17,20.17,0,0,1-5.7,2.68l-.18-.12a1.09,1.09,0,0,1-.17-.13,1.84,1.84,0,0,1-.22-.17l-.11-.09a6.25,6.25,0,0,1-1.82-2.57c2.24.11,9.2-.36,13.52-9.66.26-.61.54-1.21.84-1.81l.18-.36.18-.36.36-.68,0-.06.54-1,.39-.67.11-.18.21-.35c0-.06.07-.11.1-.16l.06-.11C67.9,100.84,68,100.62,68.05,100.59Z"/><path fill="#6b2945" d="M149,109.71l-2.54,4.8c-24.39.39-27.23,4-39.1.17,0,0,.15.67-.67.72a.73.73,0,0,1-.87-.59,2,2,0,0,1-1.11.23c-.2-.08-.36-.29-.19-.67-19.44,3.6-39,10.28-49.36,6.09a7.56,7.56,0,0,1-1.5-.78,20.17,20.17,0,0,0,5.7-2.68c2.56.54,7.83,1.2,12.77-.89,6.86-2.9,13.19-6.59,20-5s14.6.79,19.62,0c3.86-.61,21.68,1.05,29.69,1.85a8.26,8.26,0,0,0,6.69-2.42Z" opacity=".25"/><path fill="#feb396" d="M44,62.87a10.1,10.1,0,0,1-1.88.85h0l-.55.19-.14,0c-.42.13-.89.26-1.38.38l-.72.16a14.86,14.86,0,0,1-3.86.31c-.33,0-.65-.07-1-.12l-.26,0-.46-.09-.34-.1a7.35,7.35,0,0,1-2.73-1.38,11.14,11.14,0,0,1-.84-.74c-.32-.32-.63-.66-.94-1C25.27,57,26,52,29.07,49.51a6.69,6.69,0,0,1,1.72-1c3.8-1.56,7,2,8.63,3.72l.2.21a3.69,3.69,0,0,0,.29.28,1.53,1.53,0,0,0,.23.22l.12.1.13.12a11.12,11.12,0,0,1,1.43,1.5c.2.24.37.49.54.73l.07.11,0,.07c.06.1.11.17.12.2l.09.14C44.66,59.17,44.37,62.53,44,62.87Z"/><path fill="#773634" d="M33.6,60.64a.47.47,0,0,1-.09.12c-.14.17-.29.34-.46.51l-.3.29c-.85.65-1.58,1.16-2.14,1.53a10.7,10.7,0,0,1-1.46-1.41c-.11-.11-.21-.24-.32-.36C25.89,57.72,25.89,53.7,27.7,51a7.18,7.18,0,0,1,3.09-2.55,29.8,29.8,0,0,1,2,2.29L33,51l.2.27.44.63.23.35a6.52,6.52,0,0,1,.56,1,9.31,9.31,0,0,1,.43,1.16A6.56,6.56,0,0,1,33.6,60.64Z"/><path fill="#feb396" d="M34.89,63.7a1.74,1.74,0,0,1-.38.47,2,2,0,0,1-.83.4,2.52,2.52,0,0,1-.41.06,3.15,3.15,0,0,1-1-.09,3.92,3.92,0,0,1-.93-.35C30,63.44,29.32,62,29.87,61a2.34,2.34,0,0,1,2.81-.77,3.83,3.83,0,0,1,.7.29l.22.14.17.11.3.23.08.07.1.1A2.21,2.21,0,0,1,34.89,63.7Z"/><path fill="#f28a81" d="M33.53,61a1.67,1.67,0,0,1,1,2.07,1.65,1.65,0,0,1-2.27.31A1.42,1.42,0,1,1,33.53,61Z"/><path fill="#773634" d="M39.42,52.18a4,4,0,0,0-1.5.14,8.31,8.31,0,0,0-.92.31c-.26.1-.54.21-.81.34L36,53a2.77,2.77,0,0,1-.72.24l-.18,0h-.25a2.25,2.25,0,0,1-.46,0,6.52,6.52,0,0,0-.56-1l-.23-.35c-.28-.41-.57-.81-.86-1.19a29.8,29.8,0,0,0-2-2.29l.38-.16a8.32,8.32,0,0,1,2.71-.58,6.94,6.94,0,0,1,3.78,1A5.12,5.12,0,0,1,39.42,52.18Z"/><path fill="#63212d" d="M33.77,60.76a1.5,1.5,0,0,0-.17-.11l.17-.22a3.06,3.06,0,0,0,.21-.29L34.1,60l.1-.16c.1-.17.2-.34.28-.51a.36.36,0,0,0,0-.09.85.85,0,0,0,.07-.15c0-.11.1-.21.14-.32s.05-.14.07-.21l0-.08,0-.09.06-.21c0-.15.08-.3.11-.44s0-.2,0-.3v-.08c0-.1,0-.16,0-.22s0-.23,0-.34,0-.21,0-.32a7.25,7.25,0,0,0-.29-2,9.31,9.31,0,0,0-.43-1.16,2.25,2.25,0,0,0,.46,0h.25l.18,0s.07.23.16.61c0,.07,0,.14.06.23C35.9,55.72,36.32,59.22,33.77,60.76Z"/><path fill="#f7927e" d="M50.22,71.58a11.21,11.21,0,0,1-6.46.29,22.51,22.51,0,0,1-4.38-1.4c-.1,0-3.69-5.64-3.69-5.64a14.63,14.63,0,0,0,3.54-.32l.72-.16c.49-.12,1-.25,1.38-.38l.14,0,.55-.19.17.2L46,68.51a1.16,1.16,0,0,0,.26.29C47.58,69.89,52.27,70.71,50.22,71.58Z"/><path fill="#d35850" d="M43.84,60.2a1.85,1.85,0,0,1-2.32,1.5,1.21,1.21,0,0,1-.81-1,1.7,1.7,0,0,1,.71-1.58,1.77,1.77,0,0,1,1.46-.34,1.18,1.18,0,0,1,.72.45A1.24,1.24,0,0,1,43.84,60.2Z"/><path fill="#fff" d="M43.84,60.2a1.85,1.85,0,0,1-2.32,1.5A4.56,4.56,0,0,0,43.84,60.2Z"/><path fill="#fff" d="M42.88,58.8a5.15,5.15,0,0,0-2.17,1.92,1.7,1.7,0,0,1,.71-1.58A1.77,1.77,0,0,1,42.88,58.8Z"/><path fill="#ee7f6b" d="M40.35,57.88l.24-.09.22-.12a2.12,2.12,0,0,0,.39-.34,1.4,1.4,0,0,0,.24-.47,1.09,1.09,0,0,0,0-.54l0-.08-.08,0a.68.68,0,0,1-.4,0,1.47,1.47,0,0,1-.39-.21,4.72,4.72,0,0,1-.67-.6,2,2,0,0,0,.27.37,2.06,2.06,0,0,0,.33.33,1.5,1.5,0,0,0,.4.25.85.85,0,0,0,.5,0l-.1-.06a.86.86,0,0,1,0,.23.37.37,0,0,1,0,.11v.12a1.06,1.06,0,0,1-.2.43l-.07.09-.08.09a1.45,1.45,0,0,1-.18.17l-.2.15Z"/><path fill="#f28a81" d="M41.82,54.61a11.12,11.12,0,0,0-1.43-1.5L40.26,53l-.12-.1a1.53,1.53,0,0,1-.23-.22l-.23-.22-.26-.27a4,4,0,0,0-1.5.14,8.31,8.31,0,0,0-.92.31c-.26.1-.54.21-.81.34L36,53a2.77,2.77,0,0,1-.72.24s.07.23.16.61c0,.07,0,.14.06.23.36,1.61.78,5.11-1.77,6.65l.3.23.08.07.1.1a12.2,12.2,0,0,0,3.26-2.85c.29-.36.56-.71.82-1.1a9.73,9.73,0,0,0,1.22-3.36A3.88,3.88,0,0,1,41.82,54.61Z"/><path fill="#d35850" d="M43.76,71.87a22.51,22.51,0,0,1-4.38-1.4c-.1,0-3.69-5.64-3.69-5.64a14.63,14.63,0,0,0,3.54-.32l.72-.16c.49-.12,1-.25,1.38-.38l.14,0,.55-.19.17.2a10.11,10.11,0,0,1-1.87,1,2,2,0,0,0-.63,3.2C41.37,69.77,43,71.19,43.76,71.87Z"/><polygon fill="#fff" points="151.39 123.26 136.77 152.03 135.13 155.24 126.76 150.98 139.71 125.51 140.85 123.26 151.39 123.26"/><polygon fill="#fff" points="129.54 154.23 124.76 163.64 87.87 144.89 86.15 144.02 77.93 139.84 82.72 130.42 94.55 136.44 99.64 139.03 129.54 154.23"/><rect width="52.53" height=".94" x="80.08" y="141.43" fill="#688597" transform="translate(75.86 -32.78) rotate(26.95)"/><polygon fill="#fff" points="28.79 77.24 26.71 72.92 29.3 71.67 32.47 78.23 29.87 79.48 28.79 77.24 28.79 77.24"/><path fill="#006f9a" d="M29.2,74.72a4.13,4.13,0,0,1-.77.35A4.25,4.25,0,0,1,23,72.42l-3.5-10.25a3,3,0,0,1,1.86-3.8,2.83,2.83,0,0,1,.95-.16,3,3,0,0,1,2.55,1.4l5.77,9.18A4.25,4.25,0,0,1,29.2,74.72Z"/><path fill="#35efd7" d="M25.34,74.94a4.25,4.25,0,0,1-1.86-1.47,4.37,4.37,0,0,1-.54-1.08l-.4-1.12c-.54-1.49-1.05-3-1.57-4.49s-1-3-1.51-4.52a3.09,3.09,0,0,1,.14-2.37,3,3,0,0,1,1.79-1.52,3,3,0,0,0-1.75,3.83c.53,1.49,1.05,3,1.57,4.49s1,3,1.51,4.52a9.1,9.1,0,0,0,.87,2.19A4.28,4.28,0,0,0,25.34,74.94Z"/><path fill="#446682" d="M55.24,132.14a15.43,15.43,0,0,1-15.39-16.43l.5-7.65a1.57,1.57,0,1,1,3.13.21l-.5,7.64a12.27,12.27,0,0,0,20.09,10.24l.58-.48a1.57,1.57,0,0,1,2,2.42l-.58.48A15.37,15.37,0,0,1,55.24,132.14Z"/><path fill="#006f9a" d="M51.17,115.23l-.31.14A4.65,4.65,0,0,1,45,113.1L44.44,112l-3-6.22-5-10.3-.92-1.86-6.85-14a1.84,1.84,0,0,1,.84-2.46,6.11,6.11,0,0,1,2.68-.62,6.14,6.14,0,0,1,5.44,3.34l0,.09.87,1.77,5,10.29,3,6.22,6.14,12.54A3.28,3.28,0,0,1,51.17,115.23Z"/><path fill="url(#linear-gradient-3)" d="M97.45,130.85a24.63,24.63,0,0,1-20.79,16.09,9.42,9.42,0,0,1-10.28-8.47l-.66-6.81-.49-5.06-.07-.74,17.21-3.34,16.38-3.18.07.7c.06.66.1,1.31.11,2A24.39,24.39,0,0,1,97.45,130.85Z"/><path fill="#006f9a" d="M183.33,117.67a2.62,2.62,0,0,1-2.67,2.57l-78.79-1.51-3.12.61-33.59,6.52-10.62,2.06a2.21,2.21,0,0,1-.51,0,2.6,2.6,0,0,1-2.36-1.51,2.43,2.43,0,0,1-.2-.61,2.59,2.59,0,0,1,.6-2.22l0,0,0,0,.09-.09.08-.07.12-.09.06-.05a2.65,2.65,0,0,1,1-.46l11.11-2.15,33.59-6.52,2.9-.57a2.55,2.55,0,0,1,.55,0L180.76,115a2.58,2.58,0,0,1,1.65.62A2.62,2.62,0,0,1,183.33,117.67Z"/><path fill="url(#linear-gradient-4)" d="M86.09,121.8l-.46.84-.32.6a11.92,11.92,0,0,1-.88,1.41,12.36,12.36,0,0,1-8.13,5l-7.08,1.11a12.36,12.36,0,0,1-9.68-2.58l-1.22-1,24.05-4.67Z"/><path fill="#688597" d="M85.7,122.63l-.78,1.44a12.37,12.37,0,0,1-9,6.39l-7.08,1.11a12,12,0,0,1-3.11.09l-.09-.88a12.35,12.35,0,0,0,3.59,0l7.08-1.11a12.39,12.39,0,0,0,9-6.39l.32-.6Z"/><path fill="#fff" d="M35.24,93.16l-.73,1.6a11.11,11.11,0,0,0,.45,10.1L36,106.72a11.07,11.07,0,0,0,8.51,5.52Z"/><path fill="#d1dbd3" d="M164.77,176.32H53.25a9.5,9.5,0,0,1,.08-1.31,10.16,10.16,0,0,1,10.07-8.85h91.21a10.16,10.16,0,0,1,10.16,10.16Z"/><path fill="url(#linear-gradient-5)" d="M150.13,166.16h-49.9l12.94-19.64a5.43,5.43,0,0,1,5.36-2.38,5.62,5.62,0,0,1,1,.24l13.88,4.82a26.82,26.82,0,0,1,3.57,1.53l.39.2A27,27,0,0,1,150.13,166.16Z"/><path fill="#446682" d="M118.53,144.14l-14.58,22h-3.72l12.94-19.64A5.43,5.43,0,0,1,118.53,144.14Z"/><path fill="#d1dbd3" d="M125.51,151.87c2.35,1.48,2.85,4.93,1.11,7.69s-5.07,3.8-7.42,2.32-2.86-4.94-1.12-7.7S123.15,150.38,125.51,151.87Z"/><path fill="#446682" d="M124.3,153.78a3.7,3.7,0,1,1-4.59,1.43A3.42,3.42,0,0,1,124.3,153.78Z"/><path fill="#35efd7" d="M180.76,115l-16.23-.2-16.23-.24L115.84,114l-8.12-.16-4-.09-2,0a2.4,2.4,0,0,0-.46.05l-.5.09-1,.19L83.74,117.1l-15.94,3-8,1.49-4,.75-2,.37-.49.1a3.94,3.94,0,0,0-.48.18,2.67,2.67,0,0,0-.36.22,2.65,2.65,0,0,1,1-.46l47.6-9.24a2.55,2.55,0,0,1,.55,0Z"/><path fill="url(#linear-gradient-6)" d="M99.64,139c-2.67,3.64-8.74,5.26-11.77,5.86L86.15,144a24.66,24.66,0,0,0,8.4-7.58Z"/><path fill="#21a7b3" d="M50.86,115.37A4.65,4.65,0,0,1,45,113.1L28.58,79.65a1.84,1.84,0,0,1,.84-2.46,6.11,6.11,0,0,1,2.68-.62,6,6,0,0,1,3.11.86c-.62,2.32-1.83,8.87,2.66,13.82,5.54,6.12,9,8.79,9.17,12.71s.77,8.51,2.87,10.47C50.26,114.76,50.59,115.07,50.86,115.37Z" opacity=".25"/><polygon fill="#21a7b3" points="46.54 98.28 44.44 112.03 41.39 105.81 43.5 92.06 46.54 98.28" opacity=".5"/><path fill="#35efd7" d="M48.28,115.63a4.67,4.67,0,0,1-2.44-1.26,4.37,4.37,0,0,1-.85-1.11c-.22-.41-.42-.82-.63-1.24l-2.47-5L37,97.08l-4.86-10-2.41-5c-.4-.84-.8-1.67-1.19-2.52a1.84,1.84,0,0,1,.91-2.37,1.86,1.86,0,0,0-.9,1,1.82,1.82,0,0,0,0,1.34c.41.83.83,1.65,1.25,2.48l2.47,5L37.2,97l4.86,10,2.41,5,.6,1.25a4.39,4.39,0,0,0,.81,1.11A4.68,4.68,0,0,0,48.28,115.63Z"/><path fill="#21a7b3" d="M29.2,74.72a4.13,4.13,0,0,1-.77.35A4.25,4.25,0,0,1,23,72.42l-3.5-10.25a3,3,0,0,1,1.86-3.8,2.83,2.83,0,0,1,.95-.16c-.07,1.93-.19,13.27,6.05,16.11Z" opacity=".25"/><path fill="#21a7b3" d="M183.33,117.67a2.62,2.62,0,0,1-2.67,2.57l-16.19-.31L117.92,119l-16-.31-3.12.61-33.59,6.52-10.62,2.06a2.18,2.18,0,0,1-.5,0,2.6,2.6,0,0,1-2.37-1.51c2.46-1,9.88-4,12.86-3.89,3.6.15,5.28.23,8.56-.77s14.58-2.31,16.58-2.46a65.58,65.58,0,0,0,11.54-1.91c4.16-1.2,42.61-2.3,42.93-2.11s13.14,1.39,16,1.71c2.14.24,15.52-.83,22.25-1.4A2.59,2.59,0,0,1,183.33,117.67Z" opacity=".25"/><path fill="#446682" d="M151.39,123.26l-14.06,27.67-.39-.2,11.25-25.8-8.48.58,1.14-2.25Z" opacity=".5"/><path fill="#688597" d="M164.77,176.32H53.25a9.5,9.5,0,0,1,.08-1.31l98.06-3.77-8-5.08h11.18a10.16,10.16,0,0,1,10.16,10.16Z" opacity=".25"/><path fill="#fff" d="M97.84,133.44c-.3.39-.62.77-1,1.17a11.89,11.89,0,0,0-3.39-3.32,15.72,15.72,0,0,0-3.63-1.73,23.89,23.89,0,0,0-5.66-1.09,34.53,34.53,0,0,0-3.9-.08,39.89,39.89,0,0,0-5.67.6l-.58.12s.22-.65.58-1.65C78.05,126.8,91.48,124.9,97.84,133.44Z"/><path fill="#fff" d="M63.36,128.65c-.32.41-.57.72-.75.91a6.5,6.5,0,0,0-.89-1.2c-.16-.19-.33-.37-.48-.52l-.2-.21.65-.71A6.3,6.3,0,0,1,63.36,128.65Z"/><path fill="#334d62" d="M164.47,119.93v1.61a1.72,1.72,0,0,1-1.72,1.72h-2.1a1.66,1.66,0,0,0-1.51-2.26l-41.22-1.08V119Z" opacity=".25"/><rect width="11.08" height="5.3" x="53.06" y="118.88" fill="url(#linear-gradient-7)" rx="1.37" transform="translate(-25.03 15.66) rotate(-12.56)"/><rect width="11.08" height="5.3" x="92.1" y="111.96" fill="url(#linear-gradient-8)" rx="1.37" transform="translate(-22.59 23.99) rotate(-12.56)"/><path fill="#fff" d="M98.49,115.73a1.47,1.47,0,0,1-2.38-.83l-.19-.89a11.49,11.49,0,0,0-13.14-9l-13.73,2.28a11.53,11.53,0,0,0-9.34,13.9,1.46,1.46,0,0,1-1.1,1.76,1.84,1.84,0,0,1-.33,0,1.46,1.46,0,0,1-1.37-.93,1.72,1.72,0,0,1-.07-.21,14.46,14.46,0,0,1,11.73-17.45l13.72-2.28A14.42,14.42,0,0,1,98.8,113.4l.19.9A1.44,1.44,0,0,1,98.49,115.73Z"/><path fill="url(#linear-gradient-9)" d="M98.49,115.73a1.47,1.47,0,0,1-2.38-.83l-.19-.89a11.49,11.49,0,0,0-13.14-9l-13.73,2.28a11.53,11.53,0,0,0-9.34,13.9,1.46,1.46,0,0,1-1.1,1.76,1.84,1.84,0,0,1-.33,0,1.46,1.46,0,0,1-1.37-.93A14.21,14.21,0,0,1,68.72,106.7l13.5-2.25a14.19,14.19,0,0,1,16.23,11.08Z" opacity=".25"/><path fill="#006f9a" d="M90.37,102,58,108.62a1.79,1.79,0,0,1-2.12-1.39,2.33,2.33,0,0,1,1.8-2.75L89,98a2.32,2.32,0,0,1,2.74,1.81A1.79,1.79,0,0,1,90.37,102Z"/><path fill="#6f2848" d="M40.23,89.66a2.32,2.32,0,0,1-.68.11s.11-.26.3-.64C40,89.31,40.1,89.49,40.23,89.66Z"/><path fill="#ffb598" d="M50.34,95.75l-2.61,2-.39.36-.82.73c-.22-.44-.44-.84-.67-1.23s-.55-.89-.83-1.3c-1.37-2-2.9-3.6-4.58-6.33-.07-.12-.14-.24-.22-.36a1.74,1.74,0,0,0-.11-.18c-.09-.12-.18-.23-.26-.35l-.33-.47-.91-1.31c-1.38-2-2.8-4-4.29-6.32-.81-1.25-1.22-4.85,0-6.6A4.15,4.15,0,0,1,39.45,73a6.57,6.57,0,0,1,3.12,2.61,49.6,49.6,0,0,1,3.31,7.86c.26.78.48,1.52.69,2.25s.46,1.59.68,2.37A38.36,38.36,0,0,0,50.34,95.75Z"/><path fill="#ffc281" d="M46.9,85.18a1.69,1.69,0,0,1-.33.56,3.49,3.49,0,0,1-2.45,1.05,4.2,4.2,0,0,1-1.31-.13,1.75,1.75,0,0,0-1.65.6,5.1,5.1,0,0,0-.63.75,4.68,4.68,0,0,0-.27.4c-.16.26-.3.51-.41.72-.19.38-.3.64-.3.64S37,86.43,34.23,82.33c-2.17-3.25-1.54-7.18.61-9a4.2,4.2,0,0,1,1.28-.74,5.06,5.06,0,0,1,.67-.17,3.47,3.47,0,0,1,.45-.06C43.88,71.7,46.39,82.76,46.9,85.18Z"/><path fill="#f79566" d="M46.9,85.18a1.69,1.69,0,0,1-.33.56,3.49,3.49,0,0,1-2.45,1.05c2-6.14-6-12.77-8-14.18a5.06,5.06,0,0,1,.67-.17,3.47,3.47,0,0,1,.45-.06C43.88,71.7,46.39,82.76,46.9,85.18Z" opacity=".5"/><path fill="#fff" d="M41.16,87.26a5.1,5.1,0,0,0-.63.75,4.68,4.68,0,0,0-.27.4c-.16.26-.3.51-.41.72-.19.38-.3.64-.3.64S37,86.43,34.23,82.33c-2.17-3.25-1.54-7.18.61-9,.49,2.56,2.24,11.13,4.11,12.41Z" opacity=".15"/><path fill="#f7927e" d="M47.25,88.11c-1.19.58-3.15.43-5,.51-1.34.06-1.75.77-1.84,1.4l-.21-.36c-.11-.18-.25-.35-.38-.53.11-.21.25-.46.41-.72a4.68,4.68,0,0,1,.27-.4,5.1,5.1,0,0,1,.63-.75,1.75,1.75,0,0,1,1.65-.6,4.2,4.2,0,0,0,1.31.13,3.49,3.49,0,0,0,2.45-1.05C46.81,86.55,47,87.33,47.25,88.11Z"/><path fill="#ffb598" d="M74.63,101.5a6.54,6.54,0,0,1-.4.57s-22.79-.14-22.79-.14a5.37,5.37,0,0,1-4.33-2.23l-.59-.82a9.87,9.87,0,0,1,.64-.89c.7-.89,1.9-2.12,3.18-2.24,6.54-.64,13.18,2.71,24.77,3.85C75.73,99.66,75.09,100.79,74.63,101.5Z"/><path fill="#ffb598" d="M83.35,102.53a.24.24,0,0,1-.13,0,.21.21,0,0,1-.17-.08l-1.61-2,1.14,2.62a.3.3,0,0,1-.19.4h-.07a.31.31,0,0,1-.25-.13l-1.8-2.71,1.12,3a.29.29,0,0,1-.19.38l-.08,0a.27.27,0,0,1-.24-.14l-1.82-2.8,1,2.68a.29.29,0,0,1-.21.38h-.06a.26.26,0,0,1-.24-.13l-1.63-2.57-3.64.54s.21-.6.21-.6l.67-1.88L80,99.09a2.66,2.66,0,0,1,1.61.36,3.18,3.18,0,0,1,1.37,1.6l.47,1.23A.2.2,0,0,1,83.35,102.53Z"/><path fill="#f7927e" d="M79.8,104.24h-.08a.25.25,0,0,1-.22-.13l-1.63-2.57-3.64.54-22.79-.15a5.37,5.37,0,0,1-4.33-2.23l-.59-.82c-.22-.44-.44-.84-.67-1.23s-.55-.89-.83-1.3c-1.37-2-2.9-3.6-4.58-6.33-.07-.12-.14-.24-.22-.36a1.74,1.74,0,0,0-.11-.18l.48-.35s5.13,5.57,5.93,7.79A2.93,2.93,0,0,0,47.16,98c.06.05.11.11.18.16,1,.87,2.75.66,4.92.42,2.47-.27,17.93,2.21,22.18,2.91l.19,0,.12,0a4.31,4.31,0,0,0,1.56,0l1.45-.27a.65.65,0,0,1,.7.35Z" opacity=".5"/><path fill="#083a4d" d="M114.33,128.56h-7.25a.25.25,0,0,1-.15-.05l-3.63-2.61a.25.25,0,0,1,.3-.41l3.56,2.56h7.17a.26.26,0,0,1,.26.26A.26.26,0,0,1,114.33,128.56Z"/><polygon fill="#fff" points="105.49 121.75 105.49 132.65 99.8 133.09 98.93 133.15 98.93 121.75 105.49 121.75"/><rect width="2.47" height="55.43" x="100.98" y="114.75" fill="#fff"/><path fill="#006f9a" d="M120,112.93c0,2.91-8,5.26-17.83,5.26h-.74l-1.1,0h-.07l-.62,0-1.1-.06L98,118l-.58,0-.57,0-.56-.06-1.09-.12-1.57-.23-.51-.09a22.1,22.1,0,0,1-6.73-2.1c-1.28-.72-2-1.54-2-2.42,0-2.9,8-5.25,17.83-5.25,8.1,0,14.94,1.59,17.11,3.77A2.12,2.12,0,0,1,120,112.93Z"/><path fill="#083a4d" d="M120,112.93v4.84c0,2.57-6.27,4.71-14.55,5.17-1.06.06-2.16.09-3.28.09s-2.21,0-3.28-.09c-8.28-.46-14.55-2.6-14.55-5.17a1.17,1.17,0,0,1,0-.32s0-4.52,0-4.52c0,.88.72,1.7,2,2.42a22.1,22.1,0,0,0,6.73,2.1l.5.09,1.58.23,1.09.12.56.06.57,0,.58,0,.59,0,1.1.06.62,0h.07l1.1,0h.74C112.06,118.19,120,115.84,120,112.93Z"/><path fill="#fff" d="M87.94,174.29v.06h2.32a4.17,4.17,0,0,1,4.17-4.17H110a4.18,4.18,0,0,1,4.18,4.17h2.32v-.06a6.44,6.44,0,0,0-6.44-6.45H94.38A6.44,6.44,0,0,0,87.94,174.29Z"/><path fill="#083a4d" d="M91,175.72A1.93,1.93,0,1,1,89,173.78,1.93,1.93,0,0,1,91,175.72Z"/><path fill="#fff" d="M91.41,175.71H86.63a2.39,2.39,0,0,1,4.78,0Z"/><path fill="#083a4d" d="M117.22,175.72a1.94,1.94,0,1,1-1.93-1.94A1.94,1.94,0,0,1,117.22,175.72Z"/><path fill="#fff" d="M117.67,175.71H112.9a2.39,2.39,0,0,1,4.77,0Z"/><path fill="#083a4d" d="M104.14,175.72a1.93,1.93,0,1,1-1.93-1.94A1.93,1.93,0,0,1,104.14,175.72Z"/><path fill="#fff" d="M104.6,175.71H99.83a2.39,2.39,0,0,1,4.77,0Z"/><rect width="1.93" height="4.6" x="101.25" y="170.18" fill="#fff"/><polygon fill="#006f9a" points="103.45 132.81 103.45 135.28 100.98 135.59 100.98 133 103.45 132.81" opacity=".25"/><path fill="#006f9a" d="M105.49,122.94v1.41l-5,.33-.72,8.41-.87.06V122.94c1.07.06,2.16.09,3.28.09S104.43,123,105.49,122.94Z" opacity=".25"/><polygon fill="#083a4d" points="115.89 128.95 113.17 128.93 113.17 127.68 116.36 127.43 115.89 128.95"/><polygon fill="#006f9a" points="101.93 135.47 100.98 135.59 100.98 167.84 101.45 167.84 101.93 135.47" opacity=".25"/><path fill="#203d5a" d="M48.09,57.69l-1.23.49a1,1,0,0,0-.6.75l2-1Z"/><path fill="#b9c5ef" d="M72.24,74.26a4.58,4.58,0,0,1-.15,1,4.32,4.32,0,0,1-.26.68,3.89,3.89,0,0,1-.59.92,3.63,3.63,0,0,1-.48.48,3,3,0,0,1-1.62.71H69a3,3,0,0,1-2-.64,36.37,36.37,0,0,1-5.76-5.62c-1.47-1.77-7.79-8.59-7.79-8.59a4.89,4.89,0,0,1,.39-.83,4.19,4.19,0,0,1,.52-.71A6.26,6.26,0,0,1,56,60.38c.3-.16.5-.24.5-.24,8,6.92,13.85,9.44,14.63,11.16a1.4,1.4,0,0,0,.27.33A4.26,4.26,0,0,1,72.24,74.26Z"/><path fill="#feb396" d="M56,60.38a5.86,5.86,0,0,0-2.18,2c-.7-.8-1-1.19-1.52-1.78a3.9,3.9,0,0,0,1.9-1.73l.16.14Z"/><path fill="#b9c5ef" d="M96.44,64.88A9.24,9.24,0,0,1,93.18,71l-.41.34a10.46,10.46,0,0,1-4.15,2.13l-3.18.66-5.82,1.13-10,2-.17,0-1-1.86-1.51-2.7.34-.18,3.63-2,15.28-7.67,1.1-.55,1-.5a7.72,7.72,0,0,1,5-1,3.65,3.65,0,0,1,1.92.87A3.75,3.75,0,0,1,96.44,64.88Z"/><path fill="#ddeefe" d="M102.82,73.68a60,60,0,0,0,0,6.87c-.31-.13-1.4-.49-2.91-.9a53.69,53.69,0,0,0-5.45-1.16c-.58-.09-1.17-.17-1.75-.23-.77-.08-1.54-.14-2.29-.15a15,15,0,0,0-3.63.28,4.66,4.66,0,0,0-3.64,2.53c-3.75-2.9-4-5.19-2.67-7.73a10.88,10.88,0,0,1,.55-1l.15-.25c.25-.39.53-.8.83-1.21l.27-.38,1.27-1.72A37.14,37.14,0,0,0,87.12,63l.24-.49.06-.14.21-.45L92,59.81l2.93.84.56.1a3.58,3.58,0,0,1,1.61.73,16.18,16.18,0,0,1,4.67,5.44A12.21,12.21,0,0,1,102.82,73.68Z"/><path fill="#63212d" d="M80.72,48.21A6.52,6.52,0,0,0,81.2,57c1,1.07,1.62,3.32,0,4.43.83-.32,1.71-1,1.35-3.18-.42-2.53-4.16-5.09.35-8.42A14,14,0,0,0,80.72,48.21Z"/><path fill="#63212d" d="M88.62,41.9A5.6,5.6,0,0,0,94.68,47a4.69,4.69,0,0,0,.75-.12,4.78,4.78,0,0,0,.76-.23l.08,0a5.6,5.6,0,1,0-5.79-9.4l-.14.13-.06.06-.12.12-.13.14-.13.15-.07.08a.64.64,0,0,1-.1.13l-.09.13a5.48,5.48,0,0,0-.93,2.14A5.31,5.31,0,0,0,88.62,41.9Z"/><polygon fill="#ebfffe" points="87.31 60.14 87.63 61.94 87.7 62.4 88.04 62.2 88.82 61.74 89.66 60.48 88.8 59.5 87.31 60.14"/><path fill="#feb396" d="M86.61,68.86a5.43,5.43,0,0,1,.18-.52A47.75,47.75,0,0,1,92,59.81l2.93.84c-.1-.43-.2-.89-.28-1.35-.36-1.82-.63-3.82-.81-5.47-.13-1.14-.23-2.12-.28-2.77s-.07-.86-.07-.86l-5.22,2.56s.29,2.25.43,4.78v.09c0,.62.05,1.25.06,1.87s0,1.09,0,1.6l-.88.65-.25.19s-.8,5.38-1,6.9Z"/><polygon fill="#ebfffe" points="96.29 60.83 95.64 61.51 93.89 63.34 92.13 59.99 92.04 59.81 93.34 59.25 94.58 58.72 94.7 58.67 96.29 60.83"/><polygon fill="#b9c5ef" points="87.62 61.9 87.19 62.26 86.42 62.89 86.53 62.56 87.31 60.14 87.62 61.9"/><path fill="#feb396" d="M96.19,46.57a13.89,13.89,0,0,1,0,1.43,10.73,10.73,0,0,1-.08,1.15,7.66,7.66,0,0,1-1,3l-.19.32c-.09.13-.17.26-.27.39a9.52,9.52,0,0,1-.79,1,14.92,14.92,0,0,1-3.07,2.55l-.64.4c-.45.26-.89.5-1.3.7l-.14.07-.58.28a10.14,10.14,0,0,1-2,.72c-.56.05-3.17-2.22-4.09-6.07a1,1,0,0,0,0-.14c0-.06,0-.14,0-.26S82,52,82,52a.43.43,0,0,0,0-.11,12,12,0,0,1-.15-3.08c0-.06,0-.12,0-.18s0-.1,0-.16a3.08,3.08,0,0,0,0-.33v-.71c0-2.44-.22-7.35,3.7-8.93a6.76,6.76,0,0,1,2-.45C91.58,37.69,95.69,40.81,96.19,46.57Z"/><path fill="#773634" d="M96.15,49.15c-.38.07-.82.15-1.33.22s-.86.13-1.34.18a8.39,8.39,0,0,1-1.14,0l-.15,0a6.77,6.77,0,0,1-5.37-3.67,7.44,7.44,0,0,1-.51-1.17c-.09-.25-.15-.48-.2-.66s0-.16,0-.22a.94.94,0,0,0,0-.09s0-.06,0-.08c0-.21-.07-.35-.09-.49q-.11-.6-.18-1.17a.13.13,0,0,1,0-.06c0-.15,0-.29,0-.43s0-.12,0-.19,0-.39,0-.58,0-.2,0-.29,0-.2,0-.29c0-.43,0-.84,0-1.22v-.39a6.76,6.76,0,0,1,2-.45,6.16,6.16,0,0,1,1,0,6.23,6.23,0,0,1,1.13.14c3.26.69,6.13,3.65,6.54,8.41,0,.17,0,.33,0,.49A13,13,0,0,1,96.15,49.15Z"/><path fill="#feb396" d="M96.36,50.52a4.11,4.11,0,0,1-.43.92,4,4,0,0,1-.64.75,2.8,2.8,0,0,1-.35.25,2.07,2.07,0,0,1-.9.29,1.59,1.59,0,0,1-.61-.06,2.28,2.28,0,0,1-1.35-2.33c0-.06,0-.1,0-.15v-.12c0-.12,0-.25.06-.37a1.55,1.55,0,0,1,0-.21c0-.09,0-.17.07-.26a3.25,3.25,0,0,1,.31-.71,1.62,1.62,0,0,1,.1-.18,2.32,2.32,0,0,1,2.52-1.27C96.32,47.43,96.84,49,96.36,50.52Z"/><path fill="#f28a81" d="M92.52,49.72a1.69,1.69,0,0,0,.75,2.22c.74.23,1.58-.39,1.9-1.39a1.71,1.71,0,0,0-.76-2.23C93.68,48.09,92.83,48.72,92.52,49.72Z"/><path fill="#773634" d="M86.31,44.65A2.17,2.17,0,0,1,86,45l-.06.06-.14.1a.83.83,0,0,1-.15.11,3.05,3.05,0,0,1-.7.35l-.15,0-.85.33-.08,0a9,9,0,0,0-.82.4,4,4,0,0,0-1.21,1,2.57,2.57,0,0,0-.26.41,2.84,2.84,0,0,0-.3,1.44,7.28,7.28,0,0,0,.66,2.58A.5.5,0,0,1,82,52l0,.08,0,.26a5.23,5.23,0,0,1-1.92-4.51v-.09a29.49,29.49,0,0,1,.43-3.5,7.29,7.29,0,0,1,4.6-5.58l.4-.16v.37c0,.4,0,.81,0,1.24,0,.09,0,.19,0,.29s0,.19,0,.29,0,.39,0,.58,0,.13,0,.19,0,.28,0,.42a.15.15,0,0,0,0,.07q.07.57.18,1.17c0,.14,0,.28.08.42s0,.12,0,.15a.94.94,0,0,1,0,.09c0,.06,0,.14,0,.22S86.22,44.4,86.31,44.65Z"/><path fill="#63212d" d="M98,61.06c-2.64-2.66-2.07-9.61-2.07-9.61a3.32,3.32,0,0,1-.64.74C95,57.41,97.18,60.62,98,61.06Z"/><path fill="#63212d" d="M85.64,45.28s.11.22.32.57a2.25,2.25,0,0,0,.12.21c.89,1.44,3.09,4.33,6.07,3.64a1.55,1.55,0,0,1,0-.21l-.27,0a3.86,3.86,0,0,1-.51-.09l-.52-.14-.17,0-.09,0-.2-.07L90.21,49l-.42-.19-.17-.09a7,7,0,0,1-.76-.48l-.15-.12L88.53,48a7.19,7.19,0,0,1-1.71-2.14,8.5,8.5,0,0,1-.51-1.17A2.67,2.67,0,0,1,86,45l-.07.06A3.06,3.06,0,0,1,85.64,45.28Z"/><path fill="#f28a81" d="M81.84,47.42a3.81,3.81,0,0,1,1.2-1,9.42,9.42,0,0,1,.9-.44l.85-.33.15,0a3.05,3.05,0,0,0,.7-.35s.11.23.31.57l.13.21c.89,1.44,3.09,4.33,6.07,3.64,0,.12,0,.25-.06.37s0,.18,0,.26c-.8.08-4.19.23-5.75-2.76a1.5,1.5,0,0,0-1.93-.68,7.21,7.21,0,0,1-1.45.52,1.32,1.32,0,0,0-1.11.72Z"/><path fill="#b9c5ef" d="M86.61,68.86a17.25,17.25,0,0,1,6.47-7.07l-1-2C90.74,61.27,87.11,67.07,86.61,68.86Z"/><polygon fill="#ebfffe" points="87.63 61.94 86.61 68.86 87.12 63.02 87.19 62.23 87.38 60.12 87.63 61.94"/><path fill="#63212d" d="M81.27,49.27a1.24,1.24,0,0,1,.52-.47l0-.34c0-.24,0-.6,0-1A2.71,2.71,0,0,0,81.27,49.27Z"/><path fill="#1d345e" d="M88.22,104.76l-.8.47q-.69.4-1.38.84c-9.27,5.85-18.83,15.14-24.73,21.55a1.54,1.54,0,0,1-.17.19l-.36.4c-.61.66-1.27,1.42-1.88,2.14a9.72,9.72,0,0,0-2.33,5.9L55,173.06c2,2.55,5.58.55,5.58.55,2.74-19.13,9.07-23.51,5.35-35.66,6.44-6,22.41-11,29.62-19.43C98.54,115,88.22,104.76,88.22,104.76Z"/><path fill="#b9c5ef" d="M87,69.44l-.09,0c-.17,0-.38.2-.53.52s-.16.7,0,.78a.12.12,0,0,0,.1,0c.17,0,.37-.21.51-.51S87.2,69.52,87,69.44Zm-.11.73c-.15.33-.36.47-.44.44s-.1-.29,0-.62.36-.47.44-.43S87.06,69.85,86.91,70.17Z"/><path fill="#ebfffe" d="M96.19,46.57v.08l.08,0a9,9,0,0,0-5.79-9.4l-.14.13-.06.06-.12.12-.13.14-.13.15-.07.08a.64.64,0,0,1-.1.13l-.09.13C92.9,38.85,95.77,41.81,96.19,46.57Z"/><path fill="#f28a81" d="M88.74,57.63a23,23,0,0,0,4.52-1.78c0,1.79.06,2.81.08,3.4l1.24-.53c-.3-1.66-.54-3.41-.7-4.89a17.48,17.48,0,0,1-5,3.65l-.13.06-.58.27Z"/><path fill="#ddeefe" d="M94.94,52.44c-.09.13-.17.26-.27.39a9.52,9.52,0,0,1-.79,1,14.92,14.92,0,0,1-3.07,2.55l-.63.39c-.46.27-.89.51-1.31.71l-.14.07-.58.28a10.14,10.14,0,0,1-2,.72c-.53.05-3-2-4-5.63,0-.14-.08-.29-.11-.44.33-.27,1-.5,2.2,0,3,1.19,7.92-3,7.92-3a1.55,1.55,0,0,0,0,.21c0,.12,0,.25-.06.37v.12l-1.07,1a1.92,1.92,0,0,0-.32,2.49,2,2,0,0,0,.17.23,1.43,1.43,0,0,0,2.11.06c.42-.43.8-.87,1.06-1.19A2.07,2.07,0,0,0,94.94,52.44Z"/><path fill="#f28a81" d="M81.86,51.49a1.15,1.15,0,0,1,0,.14s0,0,0,.08A2.16,2.16,0,0,0,82,52a1.18,1.18,0,0,0,.42,0l.1,0h.11a1.76,1.76,0,0,0,1.37-2,2.13,2.13,0,0,0-.44-1.16.69.69,0,0,1,.42-.29,1.59,1.59,0,0,1,1,.14,2.7,2.7,0,0,0-.18,1.25,2.07,2.07,0,0,0,2,2.1H87a2.33,2.33,0,0,0-.39-4.54l-.11,0h-.1a1.75,1.75,0,0,0-1.36,1,1.81,1.81,0,0,0-1.15-.16.91.91,0,0,0-.5.34,1.4,1.4,0,0,0-1.12-.45l-.09,0a.48.48,0,0,0-.12,0,1.14,1.14,0,0,0-.32.07,1.09,1.09,0,0,0,0,.18A11.39,11.39,0,0,0,81.86,51.49Z"/><path fill="#2c1f3b" d="M80.76,50.07a2,2,0,0,0,1.1,1.68,1.38,1.38,0,0,0,.6.1A2,2,0,0,0,82.13,48a1.16,1.16,0,0,0-.44.12,1.6,1.6,0,0,0-.61.55A2.14,2.14,0,0,0,80.76,50.07Z"/><path fill="#fff" d="M80.54,50.09a2,2,0,0,0,1.11,1.68,1.22,1.22,0,0,0,.6.09,1.75,1.75,0,0,0,1.37-2,2.13,2.13,0,0,0-.34-1l-.13-.18a1.44,1.44,0,0,0-1.23-.57,1.11,1.11,0,0,0-.44.12,1.46,1.46,0,0,0-.61.55A2.14,2.14,0,0,0,80.54,50.09Z"/><path fill="#2c1f3b" d="M83.15,48.62l.13.18a.08.08,0,0,0,0,0,.75.75,0,0,1,.49-.42,2,2,0,0,1,1.28.29.1.1,0,0,0,.15,0,.11.11,0,0,0,0-.15,2.14,2.14,0,0,0-1.45-.31A1,1,0,0,0,83.15,48.62Z"/><path fill="#2c1f3b" d="M84.84,49.72a1.88,1.88,0,1,0,1.63-2.43A2.09,2.09,0,0,0,84.84,49.72Z"/><path fill="#fff" d="M84.63,49.73a1.88,1.88,0,1,0,1.63-2.42A2.08,2.08,0,0,0,84.63,49.73Z"/><path fill="#2b5178" d="M110.29,111.52c-1.41,2.39-7,7.19-12.43,11.48l-.89.71-2.68,2.08c-.53.42-1.06.82-1.56,1.2l-2.1,1.6a4.27,4.27,0,0,0-.93,1c-1,1.46-3.79,4.67-2.63,6.14a16.57,16.57,0,0,1,1.05,1.48l0,.06c.16.25.3.5.45.74l.21.37.21.36.38.71c.06.12.12.24.17.36s.12.23.17.35l.17.35c.1.22.19.44.28.65l.3.75c.09.24.17.48.25.72l.12.35c.08.24.15.49.23.73s.07.25.1.38.11.4.17.61.09.35.13.53c.12.51.24,1,.35,1.58,0,.15.06.29.08.43s.11.55.16.83c.37,2,.72,4.27,1.19,7.06,0,.31.1.62.16.94.39,2.33.87,5,1.49,8.13l.18.88c0,.21.08.42.13.63.08.41.17.82.26,1.25l.21,1c.1.44.2.9.3,1.37l.27,1.23c.07.29.14.58.2.88.11.48.22,1,.34,1.46l.21.92c0,.19.09.38.14.57.09.4.18.79.28,1.2,0,.22-.15.39-.52.51a4.29,4.29,0,0,1-.49.13l-.15,0-.15,0-.22,0-.21,0-.31,0c-.88.07-1.9.07-2.7.06h-.33l-1.08,0-.11-.29-.11-.27-15.88-40.5a16.33,16.33,0,0,1-.85-2.9,12.18,12.18,0,0,1-.19-1.21,1.5,1.5,0,0,1,0-.29,4,4,0,0,1,0-.49,4.14,4.14,0,0,1,.36-1.39,4,4,0,0,1,.92-1.3l1-1s.71-1.44,1.81-3.63c1.87-3.71,4.88-9.54,7.54-14,.55-.94,1.09-1.81,1.6-2.6.36-.55.7-1.07,1-1.52A12.1,12.1,0,0,1,90,103.07l6.15-2,.32-.11,3.84-1.26,3.09-1,3.46-1.14a15.6,15.6,0,0,1,1.73,2.36C111.11,104.57,111.46,108.61,110.29,111.52Z"/><path fill="#ddeefe" d="M62.88,180.82H44.38l-.05-.11a1.84,1.84,0,0,1-.08-.38,1.93,1.93,0,0,1,1.65-2.14c9.55-1.35,10.55-5.44,10.55-5.44l3.51.45,1.27,2.52a10.17,10.17,0,0,1,1,3.49l0,.47Z"/><path fill="#ddeefe" d="M98.94,184.28H85.63a.56.56,0,0,0,0-.08A2.34,2.34,0,0,1,86.87,181a12.92,12.92,0,0,0,5.5-4.62c.84,0,2,0,3-.05a6.32,6.32,0,0,0,1.53-.25l1.66,5.54-.24,1.61Z"/><path fill="#203d5a" d="M48.79,60.52l.17.22.18-.38,0-.12s-.13-.05-.17,0A1.54,1.54,0,0,0,48.79,60.52Z"/><path fill="#203d5a" d="M48,59.68l.26.57.34-.29a1,1,0,0,0-.06-.22Z"/><path fill="#203d5a" d="M47.46,59.17l1.93,1.68c.6-.54,1-.25,1.94-.8-.27-.85-.65-1.33-.83-1.38a3.19,3.19,0,0,0-1.21-.23,9.74,9.74,0,0,0-1.19,0A4.13,4.13,0,0,0,47.46,59.17Z"/><path fill="#203d5a" d="M43.61,61.07A.12.12,0,0,1,43.5,61a.11.11,0,0,1,.06-.15l.53-.26a.11.11,0,0,1,.15,0,.12.12,0,0,1-.05.16l-.53.26Z"/><path fill="#b9c5ef" d="M46.27,60.15l-.17.07-1.83.8a.2.2,0,0,1-.26-.1l-.13-.27A.2.2,0,0,1,44,60.4l1.73-1.11.17-.11Z"/><polygon fill="#1d345e" points="46.27 60.15 46.1 60.23 45.68 59.29 45.85 59.18 46.27 60.15"/><path fill="#b9c5ef" d="M53,56.56l-6.39,3.52L46.07,59l6.6-3.16a.1.1,0,0,1,.14.05l.25.55A.11.11,0,0,1,53,56.56Z"/><path fill="#b9c5ef" d="M46.57,60.28a.23.23,0,0,1-.2,0,.25.25,0,0,1-.11-.12l-.44-1s0,0,0,0a.24.24,0,0,1,.14-.26.2.2,0,0,1,.13,0,.25.25,0,0,1,.19.14l.43,1A.24.24,0,0,1,46.57,60.28Z"/><path fill="#2b5178" d="M54.36,59a4,4,0,0,1-2,1.6l-.25,0-.47-.45-.06-.07a1.67,1.67,0,0,1-1.78-1.07,1.73,1.73,0,0,0-1.37-.93h-.19l-.2,0a1.92,1.92,0,0,1-.82-.06,1,1,0,0,1-.67-.58.22.22,0,0,1,0-.14.33.33,0,0,1,.36-.23A3.32,3.32,0,0,0,48.43,57a6.23,6.23,0,0,1,2.09-.38h.33a4.09,4.09,0,0,1,3,1.71C54.11,58.68,54.34,59,54.36,59Z"/><path fill="#2b5178" d="M47.17,59.68a.48.48,0,0,1,.34-.63l1.17-.3a.37.37,0,0,1,.43.23.37.37,0,0,1-.18.46l-1.1.52A.49.49,0,0,1,47.17,59.68Z"/><path fill="#2b5178" d="M48.15,60.66a.44.44,0,0,1,0-.66l.84-.57a.35.35,0,0,1,.45.09.34.34,0,0,1,0,.46l-.68.75A.44.44,0,0,1,48.15,60.66Z"/><path fill="#2b5178" d="M49,61.18c-.19-.13-.26-.35-.14-.48l.49-.55a.28.28,0,0,1,.35,0,.29.29,0,0,1,.13.33l-.33.66A.34.34,0,0,1,49,61.18Z"/><path fill="#f7927e" d="M54.34,61.71a4.19,4.19,0,0,0-.52.71c-.7-.8-1-1.19-1.52-1.78a4,4,0,0,0,2.06-1.59,5.91,5.91,0,0,1-.48,1A1.22,1.22,0,0,0,54.34,61.71Z"/><path fill="#ddeefe" d="M110.29,111.52a7.64,7.64,0,0,1-1.71,2.61c-.14.13-.28.27-.41.41-.58.59-1.12,1.16-1.6,1.72-.08.08-.15.17-.22.25-.22.25-.43.51-.63.75l-.29.37-.6.79-.21.29c-.06.09-.13.18-.19.28l-.28.41-.21.32c-.19.3-.37.6-.54.89s-.18.3-.26.45l-.13.25-.09.16-.12.23-.13.27c-.17.33-.32.66-.46,1-.07.16-.14.32-.2.48s-.13.31-.19.47l-.12.31-.06.15a1.31,1.31,0,0,0,0,.15c-.08.21-.15.41-.22.61,0,0,0,.1-.05.15-.17.5-.32,1-.48,1.47,0,.14-.09.28-.13.42a.88.88,0,0,0,0,.15l-.09.28c0,.14-.09.28-.14.43s-.09.28-.14.42a22.77,22.77,0,0,1-1,2.38c0,.07-.07.13-.1.2q-.26.51-.57,1l-.17.28-.18.28-.14.21-.25.36-.21.27-.23.3-.49.57a3.58,3.58,0,0,1-.26.29c-.17-.24-.33-.47-.51-.69,0-.06-.09-.11-.13-.16a12.1,12.1,0,0,0-1.41-1.45l-.21-.18c-.37-.3-.74-.57-1.13-.83s-.58-.37-.87-.52l-.44-.24-.45-.22-.46-.21-.47-.19-.43-.17-.52-.18a23.71,23.71,0,0,0-5.65-1.09c-.43,0-.86-.06-1.27-.08l-1,0c-.57,0-1.14,0-1.68,0l-.44,0h-.29l-.67,0-.22,0-.33,0c-.53.05-1,.1-1.49.16l-.35,0-1.38.2-.14,0-.16,0-.19,0-.59.12s.22-.65.59-1.65c1-2.82,3.17-8.45,4.87-10.67a60.88,60.88,0,0,0,4.77-7.11,34.55,34.55,0,0,0,1.75-3.5C91,94.4,84.4,89.39,83.27,81.66c0-.19,0-.37-.07-.56a7.07,7.07,0,0,1,.49-.66,7.21,7.21,0,0,1,3.09-2,16.59,16.59,0,0,1,5.61-.83c.82,0,1.62,0,2.38.12a36.75,36.75,0,0,1,5.23.85l.13,0,2.69,2c0,.35.82,12.41,3,15.19a33.45,33.45,0,0,1,2.74,4.13C111.11,104.57,111.46,108.61,110.29,111.52Z"/><path fill="#b9c5ef" d="M96.73,134.6a45.84,45.84,0,0,1-8.57,2.64l0-.06c-.32-.51-.67-1-1.05-1.49-1.16-1.46,1.63-4.67,2.63-6.13a13.3,13.3,0,0,1,7,5Z"/><path fill="#ebfffe" d="M100.52,68c0,.16,0,.32,0,.48a8.72,8.72,0,0,1-.51,2.26q-.07.21-.15.39a9,9,0,0,1-1.48,2.43L98,74a10.78,10.78,0,0,1-3.73,2.82l-3,1.2-5.54,2.11L82.1,81.51l-5.25,2-.68.26-.16.06-1.35-1.65-.55-.68-1.4-1.71.3-.24,2.5-3.73.15-.22.43-.28,4.58-2.89.36-.23.15-.1,10.68-6.75a7.77,7.77,0,0,1,4.78-1.85,3.78,3.78,0,0,1,3.87,3.54C100.53,67.38,100.53,67.71,100.52,68Z"/><path fill="#feb396" d="M58.36,71.12l-.89,2-.55,1.22c-1.81-1-4.07-2.28-6.56-3.57l1.19-2.61.28.15A36.64,36.64,0,0,0,58.36,71.12Z"/><path fill="#ebfffe" d="M77.77,78.74a46.54,46.54,0,0,1-.92,4.78,3.93,3.93,0,0,1-2.92.36C71.38,83,62.54,79.3,58.08,77.1c-.81-.4-1.48-.75-1.94-1A11.39,11.39,0,0,1,56.23,74a7.09,7.09,0,0,1,.25-1.16,3.18,3.18,0,0,1,1.88-2.25c.6-.2,6.68,1.5,11.87,3,2.32.69,4.47,1.34,5.86,1.77l.5.15c.7.22,1.12.35,1.13.37C78,76.06,78,77.31,77.77,78.74Z"/><path fill="#2b5178" d="M50.51,70.85S46,69.51,46,69.51l.16-3.45,2.23-.89s3.1,2.31,3.26,3a.13.13,0,0,1,0,.06C51.86,69.28,50.71,70.62,50.51,70.85Z"/><path fill="#2b5178" d="M48,68.58l-2,.93-4.44-2c-.17-.08-.28-.15-.24-.3s.16-.11.34-.07l4.09.94L41,66.3a.22.22,0,0,1-.14-.25l0,0a.18.18,0,0,1,.23-.1l5,1.1-5.05-3.09a.21.21,0,0,1-.07-.29.22.22,0,0,1,.28-.09l5.55,2.34L42.5,62.81a.22.22,0,0,1-.06-.29.21.21,0,0,1,.29-.09l5.65,2.74Z"/><path fill="#1d345e" d="M86.12,131.62c.06-.51,0-.93-.55-1.12-3.72-1.36-10.1-.36-11.44-.12a3.85,3.85,0,0,1,.35-1.39,39.18,39.18,0,0,1,9.57-.53,23.73,23.73,0,0,1,5.65,1.1c-1,1.46-3.79,4.67-2.63,6.13.38.49.73,1,1.05,1.49l0,.06c5,8,3.15,12.39,9,37.12.09.4.18.79.28,1.2s-.85.67-2,.76c.24-5.64-3.1-24.59-5.4-27.52a25.52,25.52,0,0,1-4.54-12.87,13.85,13.85,0,0,1,.11-2.06Z" opacity=".5"/><path fill="#ddeefe" d="M87.42,105.23c0,.54-.06,1.56-.21,3.4-11.64,3-20.91,16.08-24,20-.32.42-.58.73-.76.92a6.91,6.91,0,0,0-.88-1.2c-.17-.19-.33-.37-.48-.52l-.2-.22.65-.7C67.5,120.54,77,111.75,86,106.07Q86.73,105.64,87.42,105.23Z"/><path fill="#b9c5ef" d="M61.12,127.84c-.12.12-.23.25-.34.37a1.54,1.54,0,0,1,.14-.59Z"/><path fill="#b9c5ef" d="M100,70.78a12.37,12.37,0,0,1-5.2,6.9,18.75,18.75,0,0,1-6.55,2.73c-1.92.46-3.84,1-5,1.25,0-.19,0-.37-.07-.56l2.52-1L91.25,78l1.14-.46,1.88-.74A10.78,10.78,0,0,0,98,74l.34-.41A9.22,9.22,0,0,0,100,70.78Z"/><path fill="#b9c5ef" d="M85.53,84c.1.42,0,.79-.14.83s-.39-.27-.49-.68,0-.79.14-.83S85.43,83.6,85.53,84Z"/><path fill="#b9c5ef" d="M87.43,89.66c.1.42,0,.79-.13.83s-.4-.27-.5-.68,0-.79.14-.83S87.34,89.24,87.43,89.66Z"/><path fill="#b9c5ef" d="M89,96.37c0,.43-.08.78-.26.8s-.35-.32-.38-.75.08-.79.26-.8S89,95.94,89,96.37Z"/><path fill="#b9c5ef" d="M87.84,104.6c-.14.4-.39.68-.56.62s-.19-.43,0-.84.4-.68.57-.62S88,104.19,87.84,104.6Z"/><path fill="#ebfffe" d="M77.26,76a8.9,8.9,0,0,0-.9,0s-1.58-.9-1.58-.9l.08-.1c.14-.14.41-.38.59-.23s.4.14.4.14.72-.39,1.16-.11l.14.11C77.57,75.34,77.44,75.93,77.26,76Z"/><path fill="#f28a81" d="M56.48,72.79A7.09,7.09,0,0,0,56.23,74c-1.64-.94-3.59-2-5.72-3.1.2-.23,1.35-1.57,1.14-2.63l.18.09a4.69,4.69,0,0,1-.22,2.45A29,29,0,0,0,56.48,72.79Z"/><path fill="#b9c5ef" d="M100.52,68a9.47,9.47,0,0,1-.55,2.74q-.07.21-.15.39a9,9,0,0,1-1.48,2.43L98,74a10.78,10.78,0,0,1-3.73,2.82l-3,1.2-5.54,2.11L82.1,81.51l-5.25,2a3.93,3.93,0,0,1-2.92.36C71.38,83,62.54,79.3,58.08,77.1c0,0-.19-5.42,2.61-5.44-.91.79-2.09,3.59-.95,5.44,3.57,1.2,6.5,1.33,7.56,2.52a9.15,9.15,0,0,0,6.36,2,1.7,1.7,0,0,0,.45-.15c1.48-.73,1.65-3.68,1.44-4.94.54.67.47,5.76.47,5.76s2.29-4.2,1.41-6.11a5.71,5.71,0,0,1,.34,2.52,11,11,0,0,1-.34,3.36c1.85-.8,8.35-4.39,9-6.15s-.32-2.45,2.87-2.27,5.49,1,6.72-1.35.2-6.38,2.48-6.12a2.29,2.29,0,0,0,1.67-.55,3.86,3.86,0,0,1,.36,1.39C100.53,67.38,100.53,67.71,100.52,68Z" opacity=".25"/><path fill="#ddeefe" d="M96.29,60.83l-.65.68-1.36-2.13s-1.59.44-2.15.61L92,59.81l1.3-.56,1.24-.53.12,0Z" opacity=".5"/><path fill="#fff" d="M48.62,177.69s4.83-1.9,6.16-4.29c.86.18,1.55,1.34,1.55,1.34S52.61,177.76,48.62,177.69Z"/><path fill="#fff" d="M91.28,183.76c0,.19-.06.36-.09.52H85.63a.56.56,0,0,0,0-.08,2.28,2.28,0,0,1,.25-2.45,1.18,1.18,0,0,1,.92-.45C88.54,181.28,91.74,181.55,91.28,183.76Z"/><polygon fill="#fff" points="90.9 183.96 98.36 183.22 98.94 184.28 91.25 184.28 90.9 183.96"/><path fill="#fff" d="M59.87,177.54a1.48,1.48,0,1,1-1.48-1.48A1.48,1.48,0,0,1,59.87,177.54Z"/><ellipse cx="95.72" cy="180.02" fill="#fff" rx="1.05" ry="1.49"/><path fill="#fff" d="M87.89,180.53s2.62-2.18,3.22-4.46c.64-.45,2.44.82,2.44.82s-2.09,3.22-4.06,3.82C88,180.87,87.89,180.53,87.89,180.53Z"/><path fill="#b9c5ef" d="M104.63,102.86A11.29,11.29,0,0,1,96.9,106c-.6-2.37-.65-5.9-1.59-7.75l.27,0c1.07-.09,5-.52,6.33-2a16.36,16.36,0,0,1,2.67,6.37C104.61,102.74,104.63,102.86,104.63,102.86Z" opacity=".5"/><path fill="#b9c5ef" d="M104.63,102.86A11.29,11.29,0,0,1,96.9,106c-.6-2.37-.65-5.9-1.59-7.75l.27,0s1.49,5.71,2.78,6.47c2,0,5-1.48,6.22-2.13C104.61,102.74,104.63,102.86,104.63,102.86Z"/><path fill="#b9c5ef" d="M110.29,111.52a7.64,7.64,0,0,1-1.71,2.61c-.14.13-.28.27-.41.41-.58.59-1.12,1.16-1.6,1.72-.08.08-.15.17-.22.25l-.63.75-.29.37-.6.79-.21.29c-.06.09-.13.18-.19.28l-.28.41-.21.32c-.19.3-.37.6-.54.89s-.18.3-.26.45l-.13.25-.09.16-.12.23-.13.27c-.17.33-.32.66-.46,1-.07.16-.14.32-.2.48s-.13.31-.19.47l-.12.31-.06.15a1.31,1.31,0,0,0,0,.15c-.08.21-.15.41-.22.61,0,0,0,.1-.05.15-.17.5-.32,1-.48,1.47,0,.14-.09.28-.13.42a.88.88,0,0,0,0,.15l-.09.28c0,.14-.09.28-.14.43s-.09.28-.14.42a22.77,22.77,0,0,1-1,2.38c0,.07-.07.13-.1.2q-.26.51-.57,1l-.17.28-.18.28-.14.21-.25.36-.21.27-.23.3-.49.57a3.58,3.58,0,0,1-.26.29c-.17-.24-.33-.47-.51-.69,0-.06-.09-.11-.13-.16a12.1,12.1,0,0,0-1.41-1.45l-.21-.18c-.37-.3-.74-.57-1.13-.83,1.63-.83,2.87-1.9,2-3.08A4.51,4.51,0,0,0,92.73,127a35.86,35.86,0,0,0-7.66-.45c-1.76,0-3.27.16-4,.22.8-.08,2.51-.26,4.61-.57,3.84-.57,9-1.58,12.18-3.19a4.88,4.88,0,0,0-3-3.75c-4-1.88-10.88-.83-13.17-.88,2.42-1.55,9.66-1.38,14.36-2a8.94,8.94,0,0,0,3.62-1c1.61-1.14,2.16-5.63,1.67-10.26,0-.34-.07-.67-.12-1a27.63,27.63,0,0,0-.94-4.36,20.78,20.78,0,0,0-.81-2.19,12.63,12.63,0,0,0-1.09-2c-3.68-5.32-1.86-6.89.45-11.46a13.19,13.19,0,0,0,1.1-4.4c0-.37.07-.74.09-1.12a47.7,47.7,0,0,0-.17-7.26s0-.07,0-.11.11-.26.15-.38.07-.2.1-.3a1.26,1.26,0,0,0,.05-.16l0-.1a.76.76,0,0,1,0-.16.43.43,0,0,0,0,0,.25.25,0,0,1,0-.07c0-.1,0-.19.07-.28s0-.08,0-.11,0-.12,0-.17l.09-.59,0-.27c0-.07,0-.13,0-.18s0-.21,0-.31c0-.32,0-.65,0-1a3.72,3.72,0,0,0-.83-2.13,6.55,6.55,0,0,1,2,1.8c0,.07.07.14.1.2a12.22,12.22,0,0,1,1,6.76,60,60,0,0,0,0,6.87c0,.35.82,12.41,3,15.19a33.45,33.45,0,0,1,2.74,4.13C111.11,104.57,111.46,108.61,110.29,111.52Z" opacity=".25"/><path fill="#b9c5ef" d="M94.94,52.44c-.09.13-.17.26-.27.39a9.52,9.52,0,0,1-.79,1,14.92,14.92,0,0,1-3.07,2.55l-.63.39c-.46.27-.89.51-1.31.71l-.14.07-.58.28a10.14,10.14,0,0,1-2,.72c-.53.05-3-2-4-5.63.46.69,2.31,3.22,4.81,3.9,1.09.18,3.09-2.36,3.71-3.18a2,2,0,0,0,.17.23,1.43,1.43,0,0,0,2.11.06c.42-.43.8-.87,1.06-1.19A2.07,2.07,0,0,0,94.94,52.44Z" opacity=".5"/><path fill="#b9c5ef" d="M70,70.38s.13-.37.35-.27a.54.54,0,0,1,.24.29s.16-.26.31-.28.31.39.31.39a1.36,1.36,0,0,1-.07.44,1,1,0,0,1-.47.19C70.57,71.14,70,70.38,70,70.38Z"/><path fill="#934141" d="M92.67,48.34a1.62,1.62,0,0,0-.1.18,3.25,3.25,0,0,0-.31.71c0,.09-.05.17-.07.26a6.77,6.77,0,0,1-5.37-3.67,7.44,7.44,0,0,1-.51-1.17A2.17,2.17,0,0,1,86,45l-.06.06-.14.1a.83.83,0,0,1-.15.11,3.05,3.05,0,0,1-.7.35l-.15,0-.85.33-.08,0c-.38-1.45-.85-4.51,1.89-4.11C89.33,42.45,87.84,48.72,92.67,48.34Z" opacity=".5"/><path fill="#934141" d="M88.51,38a12.68,12.68,0,0,0-3,.86c-4,1.75-4.35,4.9-4.35,4.9l.65-.11a7.25,7.25,0,0,0-1.73,4.13v-.07a29.49,29.49,0,0,1,.43-3.5,7.29,7.29,0,0,1,4.6-5.58l.4-.16a6.76,6.76,0,0,1,2-.45,6.16,6.16,0,0,1,1,0Z"/><path fill="#326787" d="M91.76,171.24c-.28,2.09-.51,3.54-.69,4.53l-15.88-40.5a16.65,16.65,0,0,1-1-4.11c0-.1,0-.2,0-.29l.11-.17a5,5,0,0,0,2.16,3.49c2.06,1.52,3.75-.05,3.75,4.21s5.16,20.85,7.75,24.41S92.41,166.4,91.76,171.24Z" opacity=".5"/><path fill="#6e79a2" d="M87.19,62.26l-.07.76a37.14,37.14,0,0,1-3.57,5.63l-1.27,1.72-.27.38c-.3.41-.58.82-.83,1.21l-.15.25-.36.23L77,74.75c-.44-.28-1.16.11-1.16.11s-.14.08-.4-.14-.45.09-.59.23l-4.63-1.39,2.06.12a10.59,10.59,0,0,0,7.82-2.8l2.09-1.94a13.26,13.26,0,0,0,3.12-4.37l.8-1.8.41-.21-.11.33Z" opacity=".25"/><path fill="#f28a81" d="M95.28,51.61c-.06,0-.07-.08,0-.11a2.92,2.92,0,0,0,.41-3.66c-.6-.69-1.86-.14-1.87-.13a.06.06,0,0,1-.08,0s0-.06,0-.08,1.36-.6,2,.17a3,3,0,0,1-.41,3.82A.05.05,0,0,1,95.28,51.61Z"/><path fill="#fff" d="M62.88,180.82H44.38a.7.7,0,0,1,0-.11,1.31,1.31,0,0,1-.09-.38l18-.65Z"/></svg>