<svg xmlns="http://www.w3.org/2000/svg" viewBox="0 0 375.02 418.44"><g style="isolation:isolate"><g id="OBJECTS"><polygon fill="#bfbfbf" points="109.11 199.19 106.11 199.19 106.11 2.35 169.41 2.35 198.35 43.88 195.89 45.59 167.84 5.35 109.11 5.35 109.11 199.19"/><path fill="#bfbfbf" d="M139.72,283q-.39,15.86-1.61,31.67-.62,7.85-1.41,15.67-.4,3.94-.87,7.89a24.56,24.56,0,0,1-1.11,5.76,6,6,0,0,1-2.9,3.65c-1.89.78-3.85-.3-4.93-1.87-1.34-1.93-1.38-4.41-1.36-6.67,0-2.62.09-5.23.16-7.84q.42-15.74,1.79-31.41t3.69-31.36c.19-1.3.39-2.6.59-3.9.1-.63-.86-.9-1-.27q-2.52,16.17-4,32.46t-2,32.63c-.08,2.75-.15,5.51-.19,8.26,0,2.39-.16,4.9.72,7.17a6.37,6.37,0,0,0,4,3.91,4.64,4.64,0,0,0,4.52-1.3c2.77-2.83,2.84-7.52,3.25-11.19.61-5.46,1.16-10.93,1.62-16.4q1.41-16.36,1.93-32.77c0-1.37.08-2.73.11-4.09C140.74,282.34,139.74,282.34,139.72,283Z" transform="translate(-98.42 -50.81)"/><path fill="#bfbfbf" d="M149.15,283q-.41,15.86-1.62,31.67-.6,7.85-1.4,15.67-.4,3.94-.87,7.89a25.08,25.08,0,0,1-1.11,5.76,6,6,0,0,1-2.9,3.65c-1.89.78-3.86-.3-4.94-1.87-1.33-1.93-1.37-4.41-1.35-6.67q0-3.93.16-7.84.42-15.74,1.79-31.41t3.69-31.36c.19-1.3.39-2.6.59-3.9.1-.63-.86-.9-1-.27q-2.52,16.17-4,32.46t-2,32.63c-.09,2.75-.15,5.51-.19,8.26,0,2.39-.16,4.9.72,7.17a6.35,6.35,0,0,0,4,3.91,4.64,4.64,0,0,0,4.52-1.3c2.77-2.83,2.84-7.52,3.25-11.19.61-5.46,1.16-10.93,1.62-16.4q1.41-16.36,1.93-32.77c0-1.37.08-2.73.11-4.09C150.17,282.34,149.17,282.34,149.15,283Z" transform="translate(-98.42 -50.81)"/><path fill="#bfbfbf" d="M158.58,283q-.41,15.86-1.62,31.67-.6,7.85-1.41,15.67c-.27,2.63-.55,5.26-.86,7.89a25.08,25.08,0,0,1-1.11,5.76,5.93,5.93,0,0,1-2.91,3.65c-1.88.78-3.85-.3-4.93-1.87-1.33-1.93-1.37-4.41-1.35-6.67q0-3.93.15-7.84.44-15.74,1.8-31.41T150,268.47c.19-1.3.39-2.6.59-3.9.1-.63-.86-.9-1-.27q-2.52,16.17-4,32.46t-2,32.63c-.09,2.75-.15,5.51-.19,8.26,0,2.39-.16,4.9.72,7.17a6.35,6.35,0,0,0,4,3.91,4.65,4.65,0,0,0,4.52-1.3c2.77-2.83,2.83-7.52,3.25-11.19q.92-8.19,1.62-16.4,1.41-16.36,1.93-32.77c0-1.37.08-2.73.11-4.09C159.6,282.34,158.6,282.34,158.58,283Z" transform="translate(-98.42 -50.81)"/><path fill="#bfbfbf" d="M168,283q-.4,15.86-1.62,31.67-.6,7.85-1.41,15.67c-.27,2.63-.55,5.26-.86,7.89A24.57,24.57,0,0,1,163,344a5.88,5.88,0,0,1-2.9,3.65c-1.88.78-3.85-.3-4.93-1.87-1.33-1.93-1.37-4.41-1.35-6.67,0-2.62.08-5.23.15-7.84q.43-15.74,1.8-31.41t3.69-31.36c.19-1.3.39-2.6.59-3.9.1-.63-.86-.9-1-.27q-2.52,16.17-4.05,32.46t-2,32.63c-.09,2.75-.15,5.51-.19,8.26,0,2.39-.16,4.9.72,7.17a6.35,6.35,0,0,0,4,3.91,4.65,4.65,0,0,0,4.52-1.3c2.77-2.83,2.83-7.52,3.25-11.19q.92-8.19,1.62-16.4,1.4-16.36,1.92-32.77c.05-1.37.09-2.73.12-4.09C169,282.34,168,282.34,168,283Z" transform="translate(-98.42 -50.81)"/><path fill="#d9d9d9" d="M98.42,241.69a9.06,9.06,0,0,0,9.31,8.78h152a9.06,9.06,0,0,0,9.31-8.78v-7.5H98.42Z" transform="translate(-98.42 -50.81)"/><path fill="#bfbfbf" d="M167.92,288.63h-46c-4.58,0-4.82-9.94-4.82-11.94V266.22h55.62v10.47C172.74,278.69,172.51,288.63,167.92,288.63Zm-45.49-4h45c.52-.87,1.3-3.66,1.3-7.94v-6.47H121.12v6.47C121.12,281,121.9,283.76,122.43,284.63Z" transform="translate(-98.42 -50.81)"/><rect width="38.96" height="12.97" x="27.27" y="229.33" fill="#bfbfbf" rx="6.17"/><rect width="160.96" height="4.33" x="9.66" y="199.66" fill="#bfbfbf"/><path fill="#d9d9d9" d="M108.08,254.8v9.05a8.78,8.78,0,0,0,8.78,8.78H260.25a8.78,8.78,0,0,0,8.78-8.78V254.8Z" transform="translate(-98.42 -50.81)"/><path fill="#e09680" d="M318.52,213.12c-19-5.78-34.3-10.86-48.1-9.52A32.73,32.73,0,0,0,265,218a1.94,1.94,0,0,0,1.27,2.06c14.64,5.12,35.21,7.91,51.42,5.28A15.82,15.82,0,0,0,318.52,213.12Z" transform="translate(-98.42 -50.81)"/><path fill="#eee" d="M317.66,225.32a56,56,0,0,0,7.52-1.71l1.76-8c-2.89-.84-5.69-1.69-8.42-2.52A15.82,15.82,0,0,1,317.66,225.32Z" transform="translate(-98.42 -50.81)"/><path fill="#eee" d="M350.51,215.17a4.92,4.92,0,0,1,1.48,1.19,1.77,1.77,0,0,1,.26,1.8,1.87,1.87,0,0,1-2,.81,7.41,7.41,0,0,1-2.1-.93,15.45,15.45,0,0,0-7.56-1.86,29,29,0,0,1-4.06,0c-4.64-.63-4.55-6.06.42-5.6A33.36,33.36,0,0,1,350.51,215.17Z" transform="translate(-98.42 -50.81)"/><path fill="#eee" d="M350.08,219.78a5,5,0,0,1,1.49,1.19,1.79,1.79,0,0,1,.25,1.8,1.84,1.84,0,0,1-2,.8,6.89,6.89,0,0,1-2.1-.92,15.49,15.49,0,0,0-7.57-1.86,27.51,27.51,0,0,1-4.06,0c-4.64-.62-4.54-6,.42-5.59A33.31,33.31,0,0,1,350.08,219.78Z" transform="translate(-98.42 -50.81)"/><path fill="#eee" d="M346.84,222.91a4.74,4.74,0,0,1,1.48,1.19,1.77,1.77,0,0,1,.25,1.79,1.85,1.85,0,0,1-2,.81,6.92,6.92,0,0,1-2.1-.93,15.49,15.49,0,0,0-7.57-1.86,27.51,27.51,0,0,1-4.06,0c-4.64-.62-4.54-6.06.42-5.59A33.26,33.26,0,0,1,346.84,222.91Z" transform="translate(-98.42 -50.81)"/><path fill="#eee" d="M342.41,225.26a3.92,3.92,0,0,1,1.2,1,1.44,1.44,0,0,1,.21,1.47,1.51,1.51,0,0,1-1.62.66,5.87,5.87,0,0,1-1.72-.76,12.66,12.66,0,0,0-6.18-1.52,21.52,21.52,0,0,1-3.31,0c-3.79-.5-3.71-4.94.34-4.56A27.27,27.27,0,0,1,342.41,225.26Z" transform="translate(-98.42 -50.81)"/><path fill="#eee" d="M336.34,210.6a23.26,23.26,0,0,0-7.38,1.49,11.21,11.21,0,0,0-6.58,5.49c-1.23,2.66-.81,6.18,1.45,8a7.65,7.65,0,0,0,4.91,1.54,11.86,11.86,0,0,0,11.47-14.9Z" transform="translate(-98.42 -50.81)"/><path fill="#d7ccc8" d="M343,214.12c-1.34,2.73-4.45,2.38-7,1.9a.49.49,0,0,0-.6.33,6.94,6.94,0,0,1-4.17,4,8.4,8.4,0,0,1-5.29-.2c-.21-.07-.33.23-.15.35a6.74,6.74,0,0,0,6,.63,7.64,7.64,0,0,0,4.4-4.09c2.71.46,6.66.69,7.66-2.54C344,214,343.27,213.64,343,214.12Z" transform="translate(-98.42 -50.81)"/><path fill="#e09680" d="M267.71,174.05c2.89,6.72,11.49,33.23,11.53,37.39s-11,10.14-14,8c-2.13-1.49-3.54-4.13-4.86-6.67-4-7.79-7.28-16.23-11.32-24Z" transform="translate(-98.42 -50.81)"/><path fill="#26a69a" d="M269.89,177c1.73-1.61-8.15-21.22-12.12-27.33-2.17-3.34-8.16-16.13-13.08-14a2.57,2.57,0,0,0-.85.6A291.18,291.18,0,0,1,266,180.76C266.64,180.19,269.25,177.57,269.89,177Z" transform="translate(-98.42 -50.81)"/><path fill="#00897b" d="M243.84,136.24c-3.15,3.3.64,15.53.54,19.3a110.38,110.38,0,0,0,1.11,18.7c.22,1.49,4,17.73,4.1,17.69A84,84,0,0,0,266,180.76,291.18,291.18,0,0,0,243.84,136.24Z" transform="translate(-98.42 -50.81)"/><path fill="#00897b" d="M235.19,258.84c-35.62,3.92-35.1,24.3-35.1,24.3l14.39,84.95,7.55,74h24C253.23,344.82,235.19,258.84,235.19,258.84Z" transform="translate(-98.42 -50.81)"/><path fill="#26a69a" d="M209.67,282s15.84-10.15,17.7-19l-59.48,2.11s-13.68,114.72-13.43,177.06H179Z" transform="translate(-98.42 -50.81)"/><path fill="#ffab91" d="M159.59,442.11c0,2.32,0,4.57,0,6.73h13.45l.75-6.73Z" transform="translate(-98.42 -50.81)"/><path fill="#ffab91" d="M226.16,442.11c0,2.32,0,4.57.05,6.73h13.44l.75-6.73Z" transform="translate(-98.42 -50.81)"/><path fill="#00897b" d="M221.92,271.86c3.14-3.16,5.9-6.76,6.61-10.18l-59.85-9.41s-.75,13-1,15.72A164.8,164.8,0,0,0,221.92,271.86Z" transform="translate(-98.42 -50.81)"/><path fill="#015369" d="M173.85,447.84l-15.74-.44a36.7,36.7,0,0,0-9,16.45h28.41A66.62,66.62,0,0,0,173.85,447.84Z" transform="translate(-98.42 -50.81)"/><path fill="#eee" d="M149.07,463.85c-.15.58-.3,1.17-.41,1.77a1.49,1.49,0,0,0,1.46,1.8h26a1.5,1.5,0,0,0,1.5-1.6c0-.66-.12-1.32-.19-2Z" transform="translate(-98.42 -50.81)"/><path fill="#015369" d="M225.31,447.84l15.74-.44c4.38,4.57,30.79,10.31,32.32,16.45h-51.7A67.11,67.11,0,0,1,225.31,447.84Z" transform="translate(-98.42 -50.81)"/><path fill="#eee" d="M273.37,463.85c.14.58.29,1.17.41,1.77a1.5,1.5,0,0,1-1.47,1.8H223a1.5,1.5,0,0,1-1.5-1.6c0-.66.12-1.32.18-2Z" transform="translate(-98.42 -50.81)"/><path fill="#00897b" d="M172.06,374.32c-1.95-3.36-4-6.62-5.61-10.16a95.38,95.38,0,0,1-4-11,.37.37,0,0,0-.71.2,50.39,50.39,0,0,0,3.71,11.26,46.49,46.49,0,0,0,5.9,10.26C171.69,375.25,172.31,374.74,172.06,374.32Z" transform="translate(-98.42 -50.81)"/><path fill="#00897b" d="M166.79,373.24c-.48-.79-1-1.57-1.48-2.34a.13.13,0,0,0-.23.13c.4.82.8,1.63,1.21,2.44a16.58,16.58,0,0,0,1.33,2.37.28.28,0,0,0,.35.12.26.26,0,0,0,.16-.33A16.44,16.44,0,0,0,166.79,373.24Z" transform="translate(-98.42 -50.81)"/><path fill="#26a69a" d="M255.16,148.34a12.86,12.86,0,0,0-6-12.36c-8.89-5.64-19.37-8.79-29.89-9.9a118.06,118.06,0,0,0-29,.91,12.81,12.81,0,0,0-11,12.54,560.74,560.74,0,0,1-12.7,112.81c23.19,12.47,47.24,19.26,71.84,14.38C245.28,228.79,250.64,186.76,255.16,148.34Z" transform="translate(-98.42 -50.81)"/><path fill="#00897b" d="M224.77,265c-3.82-.27-7.62-.41-11.42-1a83.73,83.73,0,0,1-11-2.33,84.8,84.8,0,0,1-20.84-9.1,108.14,108.14,0,0,1-10.52-7.4.26.26,0,0,0-.33.4,72.37,72.37,0,0,0,19.2,12.66,83.77,83.77,0,0,0,22,6.72,58.08,58.08,0,0,0,12.82.87C225.22,265.86,225.27,265.08,224.77,265Z" transform="translate(-98.42 -50.81)"/><path fill="#00897b" d="M230.88,135c-1.39,3-5.88,3-8.65,2.61a16.48,16.48,0,0,1-8.61-4.17A15.37,15.37,0,0,1,210.3,129c-.28-.58-1.15-.07-.86.5,3.13,6.33,10.7,10.39,17.72,9a6.07,6.07,0,0,0,4.58-3C232,134.9,231.15,134.39,230.88,135Z" transform="translate(-98.42 -50.81)"/><path fill="#26a69a" d="M200.28,142.17a31.25,31.25,0,0,0-4.49-8.37c-2-2.44-5-4.29-8.2-4.16-3.71.15-6.9,3-8.45,6.36a16.05,16.05,0,0,0-.62,1.63c1.09,14.76,5.73,29.38,12.28,42.93,6.08-5.16,13.1-8.7,20.23-12.24Q205.66,155.24,200.28,142.17Z" transform="translate(-98.42 -50.81)"/><path fill="#42b2a7" d="M187.62,183.5c.63,1.69,1.27,3.33,1.89,4.89C197.29,183,204.81,177.61,213,173q-1-2.34-1.93-4.68C202.62,172.5,194.36,176.66,187.62,183.5Z" transform="translate(-98.42 -50.81)"/><path fill="#208c82" d="M177.51,146.9c.21,7.94,5.25,23.76,10.11,36.6,1-1,2.09-2,3.18-2.94-6.55-13.55-11.19-28.17-12.28-42.93A27.74,27.74,0,0,0,177.51,146.9Z" transform="translate(-98.42 -50.81)"/><path fill="#ffab91" d="M218.81,187.23l-4.38-10.64c-6.17,5.16-12.08,10.59-18.26,15.95,2.21,4.67,4.65,9.18,7.1,13.79s5.46,6.68,10.56,6.69c4.86,0,37.63-16,53.21-31.12-2.45-3.65-4.65-7.43-5.53-11.53C245.22,175.44,234.39,177.43,218.81,187.23Z" transform="translate(-98.42 -50.81)"/><path fill="#eee" d="M266.51,168.76c-1.73.58-3.39,1.1-5,1.61.88,4.1,3.08,7.88,5.53,11.53a46.41,46.41,0,0,0,4.23-4.65C269.74,174.52,268.05,171.49,266.51,168.76Z" transform="translate(-98.42 -50.81)"/><path fill="#ff8a65" d="M213,173c-8.15,4.61-12,7.38-19.75,12.81.91,2.3,1.91,4.53,3,6.73,6.18-5.36,12.09-10.79,18.26-15.95Z" transform="translate(-98.42 -50.81)"/><path fill="#00897b" d="M213.67,172.41q-4.69-11.24-8.29-22.88c-.19-.61-1.16-.35-1,.27q3.6,11.63,8.3,22.87C213,173.26,213.92,173,213.67,172.41Z" transform="translate(-98.42 -50.81)"/><path fill="#015369" d="M305.18,177.49,276.65,163a1.63,1.63,0,0,1-.72-2.2h0a1.64,1.64,0,0,1,2.21-.72l28.53,14.54a1.64,1.64,0,0,1,.72,2.21h0A1.65,1.65,0,0,1,305.18,177.49Z" transform="translate(-98.42 -50.81)"/><path fill="#eee" d="M293.1,166.63a4.78,4.78,0,0,1,1.52,1.14,1.76,1.76,0,0,1,.32,1.79,1.87,1.87,0,0,1-2,.87,7.25,7.25,0,0,1-2.13-.85,15.4,15.4,0,0,0-7.63-1.6,29,29,0,0,1-4.06.18c-4.65-.46-4.75-5.9.23-5.61A33.4,33.4,0,0,1,293.1,166.63Z" transform="translate(-98.42 -50.81)"/><path fill="#eee" d="M292.84,171.25a4.9,4.9,0,0,1,1.52,1.14,1.81,1.81,0,0,1,.32,1.79,1.89,1.89,0,0,1-2,.87,7.36,7.36,0,0,1-2.13-.85,15.48,15.48,0,0,0-7.63-1.6,28.9,28.9,0,0,1-4.05.18c-4.66-.46-4.76-5.9.22-5.61A33.44,33.44,0,0,1,292.84,171.25Z" transform="translate(-98.42 -50.81)"/><path fill="#eee" d="M289.7,174.49a4.72,4.72,0,0,1,1.52,1.13,1.81,1.81,0,0,1,.32,1.79,1.86,1.86,0,0,1-2,.87,6.84,6.84,0,0,1-2.13-.85,15.48,15.48,0,0,0-7.63-1.6,27.46,27.46,0,0,1-4.05.18c-4.66-.46-4.76-5.89.23-5.6A33.14,33.14,0,0,1,289.7,174.49Z" transform="translate(-98.42 -50.81)"/><path fill="#eee" d="M285.35,177a3.82,3.82,0,0,1,1.24.93,1.43,1.43,0,0,1,.26,1.46,1.52,1.52,0,0,1-1.6.72,5.94,5.94,0,0,1-1.74-.7,12.68,12.68,0,0,0-6.23-1.31,21.58,21.58,0,0,1-3.31.15c-3.8-.37-3.88-4.81.19-4.57A27.24,27.24,0,0,1,285.35,177Z" transform="translate(-98.42 -50.81)"/><path fill="#eee" d="M278.78,162.55a23.31,23.31,0,0,0-7.32,1.74,11.24,11.24,0,0,0-6.39,5.72c-1.14,2.7-.59,6.21,1.73,8a7.73,7.73,0,0,0,5,1.37,11.85,11.85,0,0,0,10.94-15.29Z" transform="translate(-98.42 -50.81)"/><path fill="#ffab91" d="M216.72,102.25a121.09,121.09,0,0,1-4.64,23.84,4.45,4.45,0,0,0,1.1,4.43,18.13,18.13,0,0,0,12.19,5.2,4.38,4.38,0,0,0,4.4-4A144.44,144.44,0,0,1,232,116.24C228.54,110,223.06,105.55,216.72,102.25Z" transform="translate(-98.42 -50.81)"/><path fill="#ff8a65" d="M232,116.24c-3.42-6.28-8.9-10.69-15.24-14q-.3,3.18-.76,6.35c2.9,7.3,7.77,15,14.19,19.45C230.59,124.14,231.17,120.3,232,116.24Z" transform="translate(-98.42 -50.81)"/><path fill="#873c26" d="M215.52,100l-1-10.86a12.46,12.46,0,0,1,.34-5.64c.67-1.77,3.46-6.08,5.34-5.78,6.21-6.45,14.87-6.24,23.46-3.69,3,.88,5.86,2.43,7.52,5,1.92,3,1.86,6.84,1.24,10.35-.74,4.17-2.36,8.45-5.74,11-3.22,2.43-7.49,2.91-11.53,2.91A60.79,60.79,0,0,1,215.52,100Z" transform="translate(-98.42 -50.81)"/><path fill="#6c301e" d="M216.28,100.7c-.3-3.34-.61-6.68-.91-10a11.66,11.66,0,0,1,.31-5.2c.63-1.64,3.2-5.61,4.93-5.34,5.73-6,13.73-5.76,21.65-3.4a12.15,12.15,0,0,1,6.94,4.63c1.77,2.76,1.72,6.31,1.14,9.54-.68,3.85-2.17,7.8-5.29,10.16s-6.92,2.68-10.64,2.68A55.74,55.74,0,0,1,216.28,100.7Z" transform="translate(-98.42 -50.81)"/><path fill="#ffab91" d="M247.14,94.07c-.41,11.38-8.54,31.19-14.54,29.48a23.06,23.06,0,0,1-15.44-19,2.43,2.43,0,0,1-2,.29,4.72,4.72,0,0,1-2.4-2.42c-.75-1.68-1.37-4.2,0-5.74,1.65-1.85,4.6-1.78,5.4.86.7-4.73,3.24-8.74,5.63-12.89a31.14,31.14,0,0,1,22.71,3.45A24.71,24.71,0,0,1,247.14,94.07Z" transform="translate(-98.42 -50.81)"/><path fill="#6c301e" d="M235.11,92.73c-1.4-2.58-6.59-1.85-8.66-.7-.38.21-.83.48-.87,1a.58.58,0,0,0,.31.6c.53.25,1.14-.12,1.64-.29a8.51,8.51,0,0,1,2.06-.38,8,8,0,0,1,2.58.29,9.3,9.3,0,0,0,2.38.76C235.21,94,235.36,93.18,235.11,92.73Z" transform="translate(-98.42 -50.81)"/><path fill="#3b1411" d="M231.81,96.27a.83.83,0,0,0-.16-.39.81.81,0,0,0-.32-.29.83.83,0,0,0-.4-.16h-.3a1.13,1.13,0,0,0-.53.19l-.21.2a1,1,0,0,0-.24.52l0,.12a.82.82,0,0,0,0,.44.85.85,0,0,0,.17.39,1.29,1.29,0,0,0,.71.45h.3a1.11,1.11,0,0,0,.53-.2l.21-.19a1,1,0,0,0,.24-.53l0-.11A.73.73,0,0,0,231.81,96.27Z" transform="translate(-98.42 -50.81)"/><path fill="#3b1411" d="M243.67,99a.85.85,0,0,0-.17-.39,1.14,1.14,0,0,0-.72-.45h-.3a1.13,1.13,0,0,0-.53.19l-.2.2a1.15,1.15,0,0,0-.25.52l0,.12a.93.93,0,0,0,0,.44.85.85,0,0,0,.17.39.83.83,0,0,0,.31.28.79.79,0,0,0,.41.17h.3a1.15,1.15,0,0,0,.53-.2l.21-.19a1.22,1.22,0,0,0,.24-.53l0-.11A.93.93,0,0,0,243.67,99Z" transform="translate(-98.42 -50.81)"/><path fill="#ff8a65" d="M240.25,105.78a20.74,20.74,0,0,0-.15-5.45c-.15-.92-.73-2.22-.23-3a26.66,26.66,0,0,1,1.9-2.21c.26-.33-.16-.85-.51-.56a15.33,15.33,0,0,0-1.74,1.86,2.18,2.18,0,0,0-.66,1.59c0,.82.37,1.63.5,2.44a18.88,18.88,0,0,1,.23,2.6,16.82,16.82,0,0,1-.55,5c-.57,2-3.67.34-5,.27-.35,0-.65.42-.31.68a5.2,5.2,0,0,0,2.45.74,6.11,6.11,0,0,0,2.41,0C240.07,109.26,240.12,107,240.25,105.78Z" transform="translate(-98.42 -50.81)"/><path fill="#6c301e" d="M246.36,96.27a3.35,3.35,0,0,0-2-1.85,5.14,5.14,0,0,0-2.58-.49.81.81,0,0,0-.74.79c0,.68.53.8,1.06.9a5.38,5.38,0,0,1,2,.73c.41.26,2.53,1.82,2.32.27A3.59,3.59,0,0,0,246.36,96.27Z" transform="translate(-98.42 -50.81)"/><path fill="#3b1411" d="M234.81,114.42a8.23,8.23,0,0,0-2.21-.42,9.94,9.94,0,0,1-2.15-.67,10.11,10.11,0,0,1-1.92-1.09c-.3-.23-.59-.48-.89-.72s-.56-.57-.94-.61a.36.36,0,0,0-.41.38c0,.4.34.75.59,1a5.91,5.91,0,0,0,.9.83,10.31,10.31,0,0,0,2.2,1.35,10.52,10.52,0,0,0,2.41.74,3.64,3.64,0,0,0,2.48-.13A.4.4,0,0,0,234.81,114.42Z" transform="translate(-98.42 -50.81)"/><path fill="#ff8a65" d="M232.65,116.52a4.05,4.05,0,0,0-1.06-.18,7.08,7.08,0,0,1-.93-.22,7.45,7.45,0,0,1-.93-.36,3.21,3.21,0,0,0-1-.39.44.44,0,0,0-.42.67,2,2,0,0,0,.91.73,7.65,7.65,0,0,0,1,.44,10.88,10.88,0,0,0,1.12.3,2.57,2.57,0,0,0,1.26,0A.57.57,0,0,0,232.65,116.52Z" transform="translate(-98.42 -50.81)"/><path fill="#ff8a65" d="M216.59,101.6a.72.72,0,0,1-.83-.62.67.67,0,0,1,.29-.5.63.63,0,0,1,.52-.16.45.45,0,0,0,.52-.48,2.73,2.73,0,0,0-2.23-2.68,1.73,1.73,0,0,0-1.56.72,1.23,1.23,0,0,0-.22.81c0,.16.15.61.41.44s.14-.28.21-.43a1.9,1.9,0,0,1,.3-.44.93.93,0,0,1,.94-.22,1.78,1.78,0,0,1,1.18,1.44A1.47,1.47,0,0,0,215,101a1.54,1.54,0,0,0,1.66,1.35C217.16,102.29,217.08,101.52,216.59,101.6Z" transform="translate(-98.42 -50.81)"/><path fill="#e0e0e0" d="M240.35,103.16l-.09,0c-.12,5.74-1.29,12.15-6,15.92a15.14,15.14,0,0,1-8.67,2.22,28.94,28.94,0,0,0,5.49,2.27,8.08,8.08,0,0,0,4.6.41c2.48-.65,4.06-3,5.23-5.31a52,52,0,0,0,4.24-11.1C243.86,105.91,242.37,103.7,240.35,103.16Z" transform="translate(-98.42 -50.81)"/><path fill="#eee" d="M222.57,104a80.31,80.31,0,0,0-4.22-7.52c-.34-.54-.87-.19-.53.35a80.22,80.22,0,0,1,4.11,8.12,17.16,17.16,0,0,0-1.14,7.9,48.36,48.36,0,0,1-4.25-7.26c-.28-.58-1.14-.07-.87.51a49.39,49.39,0,0,0,5.43,8.83,16.62,16.62,0,0,0,.49,1.84,8.42,8.42,0,0,0,4,4.5,15.14,15.14,0,0,0,8.67-2.22c4.7-3.77,5.87-10.18,6-15.92A27.28,27.28,0,0,0,222.57,104Z" transform="translate(-98.42 -50.81)"/><path fill="#212121" d="M231.79,102.31a5,5,0,1,1,5-5A5,5,0,0,1,231.79,102.31Zm0-9a4,4,0,1,0,4,4A4,4,0,0,0,231.79,93.29Z" transform="translate(-98.42 -50.81)"/><path fill="#212121" d="M244.77,105.47a5,5,0,1,1,5-5A5,5,0,0,1,244.77,105.47Zm0-9a4,4,0,1,0,4,4A4,4,0,0,0,244.77,96.45Z" transform="translate(-98.42 -50.81)"/><path fill="#212121" d="M240.6,98a3.92,3.92,0,0,0-4.22-1.22l-.32-.95a4.94,4.94,0,0,1,5.32,1.55Z" transform="translate(-98.42 -50.81)"/><polygon fill="#212121" points="129.33 45.07 119.39 44.92 117.62 43.92 129.34 44.07 129.33 45.07"/><path fill="#546e7a" d="M229.67,337.85H145.34a15,15,0,0,1-15-15V308.7a1.5,1.5,0,0,1,3,0v14.12a12,12,0,0,0,12,12h84.33a1.5,1.5,0,0,1,0,3Z" transform="translate(-98.42 -50.81)"/><path fill="#211714" d="M145.68,321.55l-21.79-24.5c-1.28-1.45-3.33.75-2,2.18l21.79,24.5C144.92,325.18,147,323,145.68,321.55Z" transform="translate(-98.42 -50.81)"/><path fill="#ffab91" d="M149.33,308.2c-1.52,1.32-3,2.6-4.42,3.82l-6.27-7.16,4.05-4.25Z" transform="translate(-98.42 -50.81)"/><path fill="#015369" d="M154.11,307.19l-6.46-8.14c-4.68.18-19.51-10.1-24-7.65l22.1,26A64.72,64.72,0,0,0,154.11,307.19Z" transform="translate(-98.42 -50.81)"/><path fill="#eee" d="M123.7,291.4c-.42.23-.85.46-1.26.72a1.16,1.16,0,0,0-.49,1.68L143,318.62a1.13,1.13,0,0,0,1.62-.09c.39-.37.76-.75,1.14-1.12Z" transform="translate(-98.42 -50.81)"/><path fill="#353535" d="M271.16,239.38a14.72,14.72,0,0,0-18.47-6.6l-4.56,1.85c-15.84,6.42-34.28,4.52-51.51,6a12.2,12.2,0,0,0-8.7,4.83c-12.7,16.93-26.78,34.67-39.23,51.46,3,3.16,5.85,6.7,8.82,9.86,15.41-8.19,28.37-21.94,36.22-37.66a8.16,8.16,0,0,1,8.1-4.51c17.85,1.72,66.35,3.08,70-1.87,3-4.06,3.54-14,1.61-18.71A50.41,50.41,0,0,0,271.16,239.38Z" transform="translate(-98.42 -50.81)"/><path fill="#353535" d="M194.27,263.06c-2-1-5-2-7-3,22,5,44-2,66-3-2.73-7.28-5.47-14.55-9-21.07-14.95,4.77-31.83,3.28-47.7,4.68a12.2,12.2,0,0,0-8.7,4.83c-12.7,16.93-26.78,34.67-39.23,51.46,1.6,1.69,3.16,3.49,4.72,5.29C170.9,295.55,183.21,278.06,194.27,263.06Z" transform="translate(-98.42 -50.81)"/><path fill="#262626" d="M273.44,244.07a50.41,50.41,0,0,0-2.28-4.69,14.72,14.72,0,0,0-18.47-6.6l-4.56,1.85c-1.25.51-2.52,1-3.81,1.36,3.48,6.52,6.22,13.79,9,21.07-22,1-44,8-66,3,2,1,5,2,7,3-11.06,15-23.37,32.49-40.86,39.19,1.36,1.55,2.72,3.1,4.1,4.57,15.41-8.19,28.37-21.94,36.22-37.66a8.16,8.16,0,0,1,8.1-4.51c17.85,1.72,66.35,3.08,70-1.87C274.82,258.72,275.37,248.73,273.44,244.07Z" transform="translate(-98.42 -50.81)"/><polygon fill="#ffab91" points="49.23 248.24 50.91 246.83 58.04 254.87 55.69 256.38 49.23 248.24"/><path fill="#284b63" d="M318.66,201.25c-10-2.7-17.7,1.46-25.7,7.59-4.34,3.33-10.18,8.26-14.29,11.83-5.23,4.53-27.74,9.2-29.56,11.79s.07,4.6,1.12,7.42c2.29,6.16,3.94,11.77,6.92,17.79,1.78,3.58,2.9,4.64,5.39,7.54,3.26.34,15.79,1.27,18.78,0,15.34-6.29,23.95-17.92,35.75-29,5-4.72,14.41-16.94,16.07-23.41S325.54,203.11,318.66,201.25Z" transform="translate(-98.42 -50.81)"/><path fill="#284b63" d="M254.27,241.06c1,8,7,19,9,19,28.7-.78,54.39-24.43,69.61-50.87-1.84-4.12-8.77-6.46-14.22-7.94-10-2.7-17.7,1.46-25.7,7.59-4.34,3.33-10.18,8.26-14.29,11.83-5.23,4.53-27.74,9.2-29.56,11.79s.07,4.6,1.12,7.42,2,5.61,3,8.34A16.79,16.79,0,0,1,254.27,241.06Z" transform="translate(-98.42 -50.81)"/><path fill="#1d3647" d="M263.27,260.06c-2,0-8-11-9-19a16.79,16.79,0,0,0-1.06,7.16,91.82,91.82,0,0,0,3.94,9.45c1.78,3.58,2.9,4.64,5.39,7.54,3.26.34,15.79,1.27,18.78,0,15.34-6.29,23.95-17.92,35.75-29,5-4.72,14.41-16.94,16.07-23.41a5.42,5.42,0,0,0-.26-3.65C317.66,235.63,292,259.28,263.27,260.06Z" transform="translate(-98.42 -50.81)"/><path fill="#382c28" d="M329.25,171A9,9,0,0,1,332,165.2a4,4,0,0,1,2.63-1.26,5.65,5.65,0,0,1,1.64-3.12,3.88,3.88,0,0,1,2.89-1.3,2.31,2.31,0,0,1,2.2,2,7,7,0,0,1,5.09-3.57,4.46,4.46,0,0,1,3,.51c1.54,1,2,3,2.33,4.75a5,5,0,0,1,6.08.53,4.81,4.81,0,0,1,.45,6,3,3,0,0,1,2.81.71,4.33,4.33,0,0,1,.79,2.8,6,6,0,0,1-2.55,4.61,4.2,4.2,0,0,1,1.32,4.61,7,7,0,0,1-3.7,3.27,1.72,1.72,0,0,1-1,.25c-.34,0-.67-.34-.61-.67a4.91,4.91,0,0,1-1.73,4.25,10.68,10.68,0,0,1-4.36,2.28,23,23,0,0,1-10,.72Z" transform="translate(-98.42 -50.81)"/><path fill="#211714" d="M329.36,172.25a8.53,8.53,0,0,1,2.61-5.52,3.8,3.8,0,0,1,2.5-1.2,5.41,5.41,0,0,1,1.55-2.95,3.72,3.72,0,0,1,2.73-1.23,2.18,2.18,0,0,1,2.09,1.9,6.6,6.6,0,0,1,4.82-3.37,4.2,4.2,0,0,1,2.83.48c1.46.91,1.9,2.8,2.21,4.5a4.7,4.7,0,0,1,5.76.49,4.57,4.57,0,0,1,.43,5.67,2.78,2.78,0,0,1,2.65.67,4,4,0,0,1,.75,2.65,5.66,5.66,0,0,1-2.41,4.36,4,4,0,0,1,1.25,4.37,6.74,6.74,0,0,1-3.51,3.1,1.75,1.75,0,0,1-.91.24.62.62,0,0,1-.57-.65,4.69,4.69,0,0,1-1.64,4,10.19,10.19,0,0,1-4.13,2.16,21.84,21.84,0,0,1-9.44.68Z" transform="translate(-98.42 -50.81)"/><path fill="#ffab91" d="M340.82,195.52c-4.8-2-9.82-3-14.91-2a104.67,104.67,0,0,1-7.6,8.44,2.65,2.65,0,0,0-.21.26c4.28,1.67,8.46,4.85,13.24,5.43C334,203.93,337.56,198.79,340.82,195.52Z" transform="translate(-98.42 -50.81)"/><path fill="#ff8a65" d="M325.91,193.55c5.09-1,10.11,0,14.91,2-1.09,1.1-2.16,2.23-3.19,3.39-5.42,1.79-12,2.67-17.46,1.16C322.14,198,324,195.89,325.91,193.55Z" transform="translate(-98.42 -50.81)"/><path fill="#ffab91" d="M330.13,169.42c-7.35,6.63-17.43,18.31-8.51,26.1,5.57,4.86,12.13,3.92,18.23-.26-.1.07.23,1,.91,1.47a4,4,0,0,0,2.95.25c1.53-.44,3.56-1.43,3.82-3.2.3-2.14-1.39-4.06-3.59-3.13,2.76-3.1,4-7,5.44-10.93a27,27,0,0,0-15-13.21A21.47,21.47,0,0,0,330.13,169.42Z" transform="translate(-98.42 -50.81)"/><path fill="#211714" d="M338.82,175.83c2.43-.77,5.24,2.82,5.85,4.78a1.19,1.19,0,0,1,0,1.13.48.48,0,0,1-.55.18c-.48-.16-.64-.75-.86-1.16a6.91,6.91,0,0,0-2.85-2.85,8.23,8.23,0,0,1-1.95-1C338,176.56,338.39,176,338.82,175.83Z" transform="translate(-98.42 -50.81)"/><path fill="#211714" d="M330.19,170.11a2.91,2.91,0,0,1,2.33.3,4.51,4.51,0,0,1,1.75,1.46.71.71,0,0,1-.13.93c-.44.4-.83.09-1.19-.21a4.43,4.43,0,0,0-1.58-.93c-.4-.13-2.62-.7-1.46-1.41Z" transform="translate(-98.42 -50.81)"/><path fill="#ff8a65" d="M323.26,191.6a3.42,3.42,0,0,1,.71.61,6.66,6.66,0,0,0,.67.49,7.07,7.07,0,0,0,.76.43,2.73,2.73,0,0,1,.82.45.37.37,0,0,1-.21.65,1.69,1.69,0,0,1-1-.2,5.75,5.75,0,0,1-.86-.43,9.34,9.34,0,0,1-.82-.58,2.2,2.2,0,0,1-.74-.81A.5.5,0,0,1,323.26,191.6Z" transform="translate(-98.42 -50.81)"/><path fill="#ff8a65" d="M342.16,194a.6.6,0,0,0,.86.21.55.55,0,0,0,.18-.46.56.56,0,0,0-.18-.44.4.4,0,0,1,0-.62,2.38,2.38,0,0,1,3,0,1.53,1.53,0,0,1,.39,1.44,1.14,1.14,0,0,1-.42.59c-.12.08-.49.24-.52,0s.11-.26.17-.39a1.37,1.37,0,0,0,.12-.44.79.79,0,0,0-.38-.75,1.55,1.55,0,0,0-1.62,0,1.26,1.26,0,0,1-.39,1.59,1.33,1.33,0,0,1-1.82-.35C341.38,194,341.94,193.61,342.16,194Z" transform="translate(-98.42 -50.81)"/><path fill="#ff8a65" d="M331.2,176.78a7.06,7.06,0,0,0-5.8,2.53,4.28,4.28,0,0,0,.2,5.49c.39.4.94-.27.56-.67a3.42,3.42,0,0,1,.09-4.5,6.39,6.39,0,0,1,5-2C331.83,177.64,331.75,176.77,331.2,176.78Z" transform="translate(-98.42 -50.81)"/><path fill="#610d25" d="M330.55,192.37a1.93,1.93,0,0,0,.13-.47,3.85,3.85,0,0,0-.38-2.1,2.56,2.56,0,0,0-.11-.24,7.37,7.37,0,0,0-1.2-1.77,7.88,7.88,0,0,0-1.67-1.37,7.76,7.76,0,0,0-2-.85,2.2,2.2,0,0,0-1-.13,5.43,5.43,0,0,0-1,.35,3,3,0,0,0-1.11,4.45C325.58,187.89,328.44,189.86,330.55,192.37Z" transform="translate(-98.42 -50.81)"/><path fill="#8c1335" d="M322.29,190.24l.12.16a5.82,5.82,0,0,0,2,1.35l2.73,1.32a3.12,3.12,0,0,0,2.24.45,1.87,1.87,0,0,0,1.13-1.15C328.44,189.86,325.58,187.89,322.29,190.24Z" transform="translate(-98.42 -50.81)"/><path fill="#3b1411" d="M339.32,181.93h-.06l-.15,0-.25-.06a1.61,1.61,0,0,1-.29-.09l-.12,0s-.1,0,0,0a3.75,3.75,0,0,1-.49-.25l-.26-.17-.1-.07h0l-.06,0a4,4,0,0,1-.71-.74,3.31,3.31,0,0,1-.29-.47,2.56,2.56,0,0,1-.11-.24l0-.08a.88.88,0,0,0-.05-.15.5.5,0,0,0-.61-.34.49.49,0,0,0-.35.61,4.76,4.76,0,0,0,4,3.19.5.5,0,0,0,.5-.5A.51.51,0,0,0,339.32,181.93Z" transform="translate(-98.42 -50.81)"/><path fill="#3b1411" d="M330.37,176.26a.5.5,0,0,0-.62-.35l-.18.05h-.1l-.2,0H329l-.18,0-.2-.06-.13,0-.3-.16-.12-.09a1.35,1.35,0,0,0-.11-.09l-.13-.13-.07-.09h0a3.79,3.79,0,0,1-.2-.34.49.49,0,0,0-.68-.18.51.51,0,0,0-.18.68,2.87,2.87,0,0,0,3.34,1.44A.51.51,0,0,0,330.37,176.26Z" transform="translate(-98.42 -50.81)"/><path fill="#ffab91" d="M256.13,234.55c12.06-2.51,21.82-4.8,30.28-3.2A20,20,0,0,1,289,241.52c-9.4,2.54-22.79,3.24-33,.63a34.16,34.16,0,0,1-4.55-1.48l-.65-5Q253.54,235.1,256.13,234.55Z" transform="translate(-98.42 -50.81)"/><path fill="#ffab91" d="M236.23,234a2.85,2.85,0,0,0-1,.65,1.08,1.08,0,0,0-.26,1.1,1.15,1.15,0,0,0,1.19.61,4.5,4.5,0,0,0,1.35-.46,9.65,9.65,0,0,1,4.78-.73,16.42,16.42,0,0,0,2.51.25c2.9-.12,3.15-3.49.05-3.48A20.73,20.73,0,0,0,236.23,234Z" transform="translate(-98.42 -50.81)"/><path fill="#ffab91" d="M236.23,236.91a3.11,3.11,0,0,0-1,.65,1.13,1.13,0,0,0-.26,1.1,1.16,1.16,0,0,0,1.19.61,4.39,4.39,0,0,0,1.35-.45,9.58,9.58,0,0,1,4.79-.73,19.07,19.07,0,0,0,2.5.25c2.91-.13,3.16-3.49.06-3.49A20.74,20.74,0,0,0,236.23,236.91Z" transform="translate(-98.42 -50.81)"/><path fill="#ffab91" d="M238.07,239a2.71,2.71,0,0,0-1,.65,1.1,1.1,0,0,0-.26,1.1,1.16,1.16,0,0,0,1.19.6,4.47,4.47,0,0,0,1.35-.45,9.54,9.54,0,0,1,4.78-.73,16.42,16.42,0,0,0,2.51.25c2.9-.12,3.15-3.49.05-3.48A20.73,20.73,0,0,0,238.07,239Z" transform="translate(-98.42 -50.81)"/><path fill="#ffab91" d="M240.68,240.73a2.43,2.43,0,0,0-.8.53.92.92,0,0,0-.22.9,1,1,0,0,0,1,.5,4.08,4.08,0,0,0,1.1-.37,7.79,7.79,0,0,1,3.9-.6,14.37,14.37,0,0,0,2.05.2c2.37-.1,2.57-2.85,0-2.84A16.91,16.91,0,0,0,240.68,240.73Z" transform="translate(-98.42 -50.81)"/><path fill="#ffab91" d="M245.25,232a14.57,14.57,0,0,1,4.48,1.33,6.91,6.91,0,0,1,3.76,3.77,4.28,4.28,0,0,1-1.35,4.9,4.75,4.75,0,0,1-3.12.67,7.37,7.37,0,0,1-6.26-9.85Z" transform="translate(-98.42 -50.81)"/><path fill="#ffab91" d="M298.68,215.6c-3.42,3-15.33,15.55-16.46,17.88s3.45,8.62,5.71,8.24c1.59-.26,2.9-1.68,4.5-2.44,4.94-2.31,10.13-6.48,14.48-9.76Z" transform="translate(-98.42 -50.81)"/><path fill="#284b63" d="M304.27,228.06c7.91-2.64,13.59-8.06,18.22-14.64a10,10,0,0,0-1.8-7.18l-.06-.08a7.53,7.53,0,0,0-3.24-2.58,7.29,7.29,0,0,0-4-.35,12,12,0,0,0-1.31.33c-1.63,1.15-3.1,2.37-3.9,2.91-3.74,2.55-6.81,5.78-10.52,8.38a9,9,0,0,0-2.81,3.1c-.53,1.37-.14,1.58.47,2.91.22.49.45,1,.69,1.45a24.41,24.41,0,0,0,2.06,3.3,6.11,6.11,0,0,1-.78-2.55C299.27,226.06,301.27,229.06,304.27,228.06Z" transform="translate(-98.42 -50.81)"/><path fill="#1d3647" d="M304.27,228.06c-3,1-5-2-7-5a6.11,6.11,0,0,0,.78,2.55c2.43,3.37,5.85,7,7.11,7.27,0,0,8.63-7.33,14.52-13.52a10.62,10.62,0,0,0,2.81-5.94C317.86,220,312.18,225.42,304.27,228.06Z" transform="translate(-98.42 -50.81)"/><path fill="#1d3647" d="M304.67,207.86a73.69,73.69,0,0,0-10.37,10.3c-.41.49.3,1.2.71.7a74.16,74.16,0,0,1,10.37-10.29C305.88,208.16,305.17,207.46,304.67,207.86Z" transform="translate(-98.42 -50.81)"/><path fill="#a3a3a3" d="M462.17,453.13c-5-2.61-10.44-2.5-15.71-1-6.32,1.78-12,5.23-18.2,7.42s-13.05,3.24-18.95-.14c-4.75-2.72-8.05-7.39-12-11.16a24.1,24.1,0,0,0-14.36-7c-12.23-1.31-23.31,5.31-33.13,12s-19.91,13.88-32.07,14a23.81,23.81,0,0,1-14.27-4.13c-4.69-3.4-7.19-8.82-8.1-14.55-1-6.15-.37-12.44.12-18.61l1.8-22.63,3.57-44.88q1.79-22.53,3.58-45.07c.92-11.65,2.77-24.54-1.9-35.63a26.44,26.44,0,0,0-4.15-6.78c-.41-.48-1.09.23-.69.71,7.66,9.05,7.26,22.11,6.43,33.36-1.09,14.73-2.34,29.45-3.51,44.17q-1.79,22.44-3.56,44.88-.9,11.22-1.78,22.44c-.54,6.71-1.32,13.46-1.38,20.2,0,5.72.58,11.71,3.37,16.77a20.35,20.35,0,0,0,11.16,9.3,30,30,0,0,0,14.73,1,46.35,46.35,0,0,0,15.65-6.13c10.75-6.29,20.33-15.09,32.54-18.3,5.63-1.47,11.73-1.78,17.25.32s9.09,6.42,13,10.55,8.07,7.55,13.71,8.27c6.27.8,12.5-1.43,18.17-4,6-2.69,12.15-6,18.83-6.41a16.84,16.84,0,0,1,13.88,5.49c1.59,1.87,6.16,8.71,6.25,11.22a.49.49,0,0,0,1,0C473.25,463.79,466.33,455.31,462.17,453.13Z" transform="translate(-98.42 -50.81)"/><rect width="13.84" height="57.33" x="147.65" y="338.59" fill="#bfbfbf"/><path fill="#a3a3a3" d="M259.9,367.22a.59.59,0,0,0-.59-.6H246.66a.6.6,0,0,0-.6.6V389.4H259.9Z" transform="translate(-98.42 -50.81)"/><path fill="#a3a3a3" d="M265,348.23a6.59,6.59,0,0,0-6.6-6.6H247.62a6.6,6.6,0,0,0-6.61,6.6v6.84H265Z" transform="translate(-98.42 -50.81)"/><path fill="#bfbfbf" d="M241,355.07v21.15a6.6,6.6,0,0,0,6.61,6.6h10.73a6.59,6.59,0,0,0,6.6-6.6V355.07Z" transform="translate(-98.42 -50.81)"/><path fill="#d9d9d9" d="M288.9,463.33,260.41,447a2.2,2.2,0,0,0-1.09-.29H246.65a2.2,2.2,0,0,0-1.09.29l-28.49,16.32-.09.06h72Z" transform="translate(-98.42 -50.81)"/><path fill="#bfbfbf" d="M289,463.39H217a2.19,2.19,0,0,0,1.18,4h69.65A2.18,2.18,0,0,0,289,463.39Z" transform="translate(-98.42 -50.81)"/><path fill="#d9d9d9" d="M204.39,284.85l18.79,52.09a17.58,17.58,0,0,0,16.54,11.62h26.37a17.59,17.59,0,0,0,16.79-12.36l18.6-59.84Z" transform="translate(-98.42 -50.81)"/><path fill="#d9d9d9" d="M207.19,292.62l16,44.32a17.58,17.58,0,0,0,16.54,11.62h26.37a17.59,17.59,0,0,0,16.79-12.36l13.55-43.58Z" transform="translate(-98.42 -50.81)"/><path fill="#bfbfbf" d="M214.43,283.61l14.9,44.51A14,14,0,0,0,242.45,338h20.92a14.1,14.1,0,0,0,13.31-10.56l14.76-51.12Z" transform="translate(-98.42 -50.81)"/><polygon fill="#a3a3a3" points="203.07 225.55 105.97 234.04 108.77 241.81 198.01 241.81 203.07 225.55" opacity=".57" style="mix-blend-mode:multiply"/><path fill="#211714" d="M374.42,196.24l-9.25,14.12a11,11,0,0,1-15.23,3.18h0a11,11,0,0,1-3.18-15.23L356,184.18A11,11,0,0,1,371.24,181h0A11,11,0,0,1,374.42,196.24Z" transform="translate(-98.42 -50.81)"/><path fill="#211714" d="M286.71,287.36H205.78a11,11,0,0,1-11-11h0a11,11,0,0,1,11-11h80.93a11,11,0,0,1,11,11h0A11,11,0,0,1,286.71,287.36Z" transform="translate(-98.42 -50.81)"/><path fill="#211714" d="M357.42,221.07l-54.13,60.17a11,11,0,0,1-15.54.83h0a11,11,0,0,1-.83-15.54l54.14-60.18a11,11,0,0,1,15.54-.82h0A11,11,0,0,1,357.42,221.07Z" transform="translate(-98.42 -50.81)"/><path fill="#d9d9d9" d="M285.46,259.11V272.6a9.26,9.26,0,0,1-9.25,9.25H246.8a9.26,9.26,0,0,1-9.24-9.25V259.11h-3V272.6a12.26,12.26,0,0,0,12.24,12.25h29.41a12.27,12.27,0,0,0,12.25-12.25V259.11Z" transform="translate(-98.42 -50.81)"/><path fill="#bfbfbf" d="M237.56,258.11a9.25,9.25,0,0,1,9.24-9.24h29.41a9.25,9.25,0,0,1,9.25,9.24v1h3v-1a12.26,12.26,0,0,0-12.25-12.24H246.8a12.25,12.25,0,0,0-12.24,12.24v1h3Z" transform="translate(-98.42 -50.81)"/><path fill="#211714" d="M292.52,251.25h-60a5.19,5.19,0,0,1-5.19-5.2h0a5.19,5.19,0,0,1,5.19-5.19h60a5.19,5.19,0,0,1,5.2,5.19h0A5.2,5.2,0,0,1,292.52,251.25Z" transform="translate(-98.42 -50.81)"/><path fill="#d9d9d9" d="M301.09,98.59a4.23,4.23,0,1,1-4.23-4.23A4.24,4.24,0,0,1,301.09,98.59Z" transform="translate(-98.42 -50.81)"/><path fill="#bfbfbf" d="M300.49,99a3.41,3.41,0,1,1-3.41-3.41A3.41,3.41,0,0,1,300.49,99Z" transform="translate(-98.42 -50.81)"/><path fill="#d9d9d9" d="M321.17,103.72l-.1-.45-43.25,9.89.1.46a4,4,0,0,0,.68,1.46l42.64-10.16A3.77,3.77,0,0,0,321.17,103.72Z" transform="translate(-98.42 -50.81)"/><path fill="#ffe082" d="M278.6,115.08a3.91,3.91,0,0,0,4,1.48l35.61-8.14a3.91,3.91,0,0,0,3-3.5Z" transform="translate(-98.42 -50.81)"/><path fill="#bfbfbf" d="M316.71,103.6c-1.16-5-5.38-8.38-9.44-7.45l-20.12,4.6c-4.06.93-6.41,5.77-5.26,10.81l.15.64,34.81-8Z" transform="translate(-98.42 -50.81)"/><path fill="#d9d9d9" d="M313,104.58c-.91-4-4.24-6.6-7.43-5.87l-15.85,3.62c-3.19.74-5.05,4.55-4.14,8.52l.11.5,27.43-6.27Z" transform="translate(-98.42 -50.81)"/><circle cx="168.4" cy="4.23" r="4.23" fill="#d9d9d9"/><circle cx="168.62" cy="4.6" r="3.41" fill="#bfbfbf"/><path fill="#d9d9d9" d="M210.26,55A4.23,4.23,0,1,1,206,50.81,4.22,4.22,0,0,1,210.26,55Z" transform="translate(-98.42 -50.81)"/><circle cx="107.84" cy="4.6" r="3.41" fill="#bfbfbf"/></g></g></svg>