<svg xmlns="http://www.w3.org/2000/svg" viewBox="0 0 403.26 388.17"><g id="OBJECTS"><circle cx="230.72" cy="186.38" r="157.76" fill="#a9caeb"/><path fill="#132e17" d="M72.19,321.44s-4,1.11-13.15-6.11c-4.71-3.72-14.4,3.48-17.17,9.71s-8.31,5.82-12,4.71-6.51-.83-9.83,5.95-9,13.57-15,10.52-3.18-9.55-4.15-15-2.49-9.34,3.88-13,9.52-5,9.47-9.24,2.09-9.37,10.46-10.11c11.08-1,32.31-18.57,50.4,21.88Z"/><path fill="#225229" d="M60.93,312.72c-5.46-.41-4.91-4.52-10.33-5.88-6.6-1.65-11.21,3.51-13.58,8.49s-6.49,7.18-11.64,7.08-6.7,4.53-7.42,8.65-.83,11.13-5.16,14.14c2.87-2.1,5.38-5.8,7.2-9.5,3.32-6.78,6.09-7.06,9.83-5.95s9.27,1.52,12-4.71S54.33,311.61,59,315.33c9.15,7.22,13.15,6.11,13.15,6.11l2.91-.69C73.09,317.14,66.39,313.13,60.93,312.72Z"/><path fill="#225229" d="M7.12,341.28h0a.38.38,0,0,1-.31-.43C9.48,323.71,17.31,313.43,30,310.32c15.47-3.8,34.55,3.45,40.88,8.58a.37.37,0,0,1,0,.52.37.37,0,0,1-.52.05C65.34,315.34,46.51,307,30.21,311c-12.41,3-20,13.12-22.72,29.94A.38.38,0,0,1,7.12,341.28Z"/><path fill="#225229" d="M18.92,230.83c9.65-7,21.06-3.39,25,1.95s7.09,9.28,13.78,11.93,12.4,6.86,13.58,14.3,1.37,13.15,8.26,18.46,7.24,18.9-3,35c0,0-9.6-6.3-19.55-5.9s-15.85-4.92-17-12S38,282,29.74,279.05s-7.87-15.84-5.9-21.8S5.34,240.67,18.92,230.83Z"/><path fill="#132e17" d="M77.37,320a.36.36,0,0,1-.37-.34c-2.83-41.48-38.4-78.64-53.28-83.9A.37.37,0,1,1,24,235C41.24,241.12,75,280.1,77.73,319.56a.36.36,0,0,1-.34.39Z"/><path fill="#225229" d="M101,310.57S89.19,292.32,94.4,283.1s11.54-8.23,13.48-18.8,5.27-14.73,12-16.05,21.12-23.36,35.62-17.71-3.26,17.52-1,29.77-12.12,15-13.35,17.16c-4.3,7.51,6.23,14.67-3,22.21S103.85,307,101,310.57Z"/><path fill="#132e17" d="M154.61,230.24c-12.21,11-39.91,40.9-54,79.69l.4.64a1.75,1.75,0,0,1,.24-.23c14.14-39.1,42.17-69.13,54.16-79.84C155.15,230.4,154.88,230.32,154.61,230.24Z"/><path fill="#132e17" d="M101,310.57c2.83-3.62,28-3.36,37.2-10.89,2.68-2.2,3.68-4.36,3.86-6.51-7.84-5.85-19.77-9.86-26.26.56-7.13-.57-14.74,3.51-19.87,7A68.26,68.26,0,0,0,101,310.57Z"/><path fill="#30753b" d="M58.82,185.56c14.9-6.21,23.8,12,25.27,19.63s14.1,14.45,13.8,30.17c11,12.28,7.55,29.56,7,36.33,12.84,4.41.32,36.48-4.1,46.09H72.19S49,288.37,58.82,273.89c-9.08-11.53-7.29-32.39-1.81-36.31-4.08-7.85,1.31-19.82,1.31-26.11S50,189.24,58.82,185.56Z"/><path fill="#132e17" d="M87.05,317.78C92,229.46,62.71,187.35,60.9,184.85l-.73.21a.24.24,0,0,0,.06.11c.08.11,8,10.74,15.15,32.61,6.46,19.84,13.53,53.18,10.93,100Z"/><path fill="#132e17" d="M93.07,312.5l-4.68,4.64h29.12l4.78-5.83Z"/><polygon fill="#1e3f61" points="110.67 385.63 62.41 385.63 53.19 315.4 119.88 315.4 110.67 385.63"/><path fill="#142940" d="M109.26,315.4c1.39,2.27,4.12,5.52,9.45,8.93l1.17-8.93Z"/><line x1="57.01" x2="116.06" y1="325.44" y2="325.44" fill="none" stroke="#142940" stroke-linecap="round" stroke-linejoin="round" stroke-width=".94"/><path fill="#142940" d="M113.13,340.21l-11,22.11a21.7,21.7,0,0,1-13.65,11.34c-6.23,1.71-14.25,5.14-18.8,12h41l5.82-44.4A1.78,1.78,0,0,0,113.13,340.21Z"/><path fill="#225229" d="M93.07,312.5s13.7-12.8,26-11.81c10-16.05,32.9,2.13,33.89,8.51,16.39,5.41,14.75,31.62,14.75,31.62s-23.91-7.49-28.5-15.38c-12,.14-22.93-8.82-24.57-12.94C108.74,314.28,93.07,312.5,93.07,312.5Z"/><path fill="#4693e3" d="M373.64,153.75v-1a3.27,3.27,0,0,0-3.28-3.27H365a7.19,7.19,0,0,1-5-2.22,7,7,0,0,0-9.91,0,7.17,7.17,0,0,1-5,2.22h-5.37a3.27,3.27,0,0,0-3.27,3.27v1H309.59V274h90.83V153.75Z"/><circle cx="304.47" cy="87.69" r="55.14" fill="#4693e3"/><path fill="#fff" d="M327.75,55.63C318.62,48.17,311.21,58,304.47,58s-14.15-9.81-23.29-2.35c-7.46,6.11-5.71,23.44-1.75,34.64s5.85,23.21,7.76,28.92,8.2,3.08,8.65,0c1.21-8.28,4.53-14.79,8.63-14.79s7.41,6.51,8.63,14.79c.45,3.08,6.75,5.71,8.65,0s3.81-17.72,7.76-28.92S335.22,61.74,327.75,55.63Z"/><path fill="#ffc259" d="M346.72,75.2C340.3,77.05,338.8,78.54,337,85c-1.85-6.42-3.34-7.91-9.76-9.76,6.42-1.84,7.91-3.34,9.76-9.76C338.8,71.86,340.3,73.36,346.72,75.2Z"/><path fill="#ffc259" d="M283.16,88.71c-4.69,1.35-5.79,2.45-7.14,7.15-1.35-4.7-2.44-5.8-7.14-7.15,4.7-1.35,5.79-2.44,7.14-7.14C277.37,86.27,278.47,87.36,283.16,88.71Z"/><path fill="#ffc259" d="M333.55,108.28c-2.09.6-2.58,1.09-3.18,3.17-.6-2.08-1.09-2.57-3.17-3.17,2.08-.6,2.57-1.09,3.17-3.18C331,107.19,331.46,107.68,333.55,108.28Z"/><rect width="90.83" height="120.21" x="312.42" y="156.89" fill="#ebcd86"/><rect width="81.24" height="110.35" x="317.22" y="161.82" fill="#fff"/><path fill="#1e3f61" d="M367.83,152.6a7.17,7.17,0,0,1-5-2.22,7,7,0,0,0-9.92,0,7.17,7.17,0,0,1-5,2.22h-5.36a3.28,3.28,0,0,0-3.28,3.27v5.53a3.06,3.06,0,0,0,3.06,3h31.14a3.06,3.06,0,0,0,3.06-3v-5.53a3.28,3.28,0,0,0-3.28-3.27Z"/><line x1="326.35" x2="369.1" y1="181.69" y2="181.69" fill="none" stroke="#c9d8e6" stroke-linecap="round" stroke-linejoin="round" stroke-width="1.66"/><line x1="326.35" x2="369.1" y1="196.79" y2="196.79" fill="none" stroke="#c9d8e6" stroke-linecap="round" stroke-linejoin="round" stroke-width="1.66"/><line x1="326.35" x2="369.1" y1="211.88" y2="211.88" fill="none" stroke="#c9d8e6" stroke-linecap="round" stroke-linejoin="round" stroke-width="1.66"/><line x1="326.35" x2="369.1" y1="226.97" y2="226.97" fill="none" stroke="#c9d8e6" stroke-linecap="round" stroke-linejoin="round" stroke-width="1.66"/><line x1="326.35" x2="369.1" y1="242.06" y2="242.06" fill="none" stroke="#c9d8e6" stroke-linecap="round" stroke-linejoin="round" stroke-width="1.66"/><line x1="326.35" x2="369.1" y1="257.15" y2="257.15" fill="none" stroke="#c9d8e6" stroke-linecap="round" stroke-linejoin="round" stroke-width="1.66"/><polyline fill="none" stroke="#5e8a81" stroke-linecap="round" stroke-linejoin="round" stroke-width="1.66" points="377.95 180 382.42 184.65 389.33 176.49"/><polyline fill="none" stroke="#5e8a81" stroke-linecap="round" stroke-linejoin="round" stroke-width="1.66" points="377.95 195.17 382.42 199.81 389.33 191.65"/><polyline fill="none" stroke="#5e8a81" stroke-linecap="round" stroke-linejoin="round" stroke-width="1.66" points="377.95 210.33 382.42 214.98 389.33 206.82"/><polyline fill="none" stroke="#5e8a81" stroke-linecap="round" stroke-linejoin="round" stroke-width="1.66" points="377.95 225.5 382.42 230.15 389.33 221.99"/><polyline fill="none" stroke="#5e8a81" stroke-linecap="round" stroke-linejoin="round" stroke-width="1.66" points="377.95 240.67 382.42 245.31 389.33 237.15"/><polyline fill="none" stroke="#5e8a81" stroke-linecap="round" stroke-linejoin="round" stroke-width="1.66" points="377.95 255.83 382.42 260.48 389.33 252.32"/><rect width="90.39" height="12.48" x="189.8" y="251.02" fill="#1e3f61" rx="6.24"/><rect width="8.57" height="98.38" x="252.95" y="261.22" fill="#1e3f61"/><rect width="15.55" height="12.64" x="249.47" y="349.61" fill="#142940"/><polygon fill="#142940" points="260.16 385.63 254.32 385.63 251.23 349.61 263.25 349.61 260.16 385.63"/><polygon fill="#142940" points="261.52 282.81 252.95 308.93 252.95 261.22 261.52 261.22 261.52 282.81"/><polygon fill="#142940" points="306.04 379.83 265.01 362.25 265.01 349.61 306.04 374.67 306.04 379.83"/><circle cx="306.39" cy="380.06" r="5.57" fill="#142940"/><path fill="#1e3f61" d="M307.56,378.09l2.34-3.94a6.75,6.75,0,0,0-3.51-1,6.88,6.88,0,0,0-6.88,6.88h4.59a2.3,2.3,0,1,0,3.46-2Z"/><polygon fill="#142940" points="208.44 379.83 249.47 362.25 249.47 349.61 208.44 374.67 208.44 379.83"/><circle cx="208.09" cy="380.06" r="5.57" fill="#142940"/><path fill="#1e3f61" d="M206.92,378.09l-2.34-3.94a6.73,6.73,0,0,1,3.51-1,6.88,6.88,0,0,1,6.88,6.88h-4.59a2.3,2.3,0,1,1-3.46-2Z"/><path fill="#1e3f61" d="M274,244H237.2a9.35,9.35,0,0,1-9.46-11.06l12.39-86.31a13.21,13.21,0,0,1,12.64-11.06h36.8A9.35,9.35,0,0,1,299,146.6l-12.39,86.31A13.21,13.21,0,0,1,274,244Z"/><polygon fill="#1e3f61" points="275.37 257.87 230.38 257.87 236.77 211.47 281.76 211.47 275.37 257.87"/><path fill="#4693e3" d="M229.66,8l0-.24c0-.11,0-.22,0-.33v0c0-.07,0-.13,0-.19s0-.22,0-.33a1.25,1.25,0,0,0-.07-.26,2,2,0,0,0-.08-.26,1.92,1.92,0,0,0-.12-.25c0-.08-.08-.16-.13-.24l-.16-.21a1.81,1.81,0,0,0-.18-.21,1.12,1.12,0,0,0-.2-.18l-.21-.18a2.69,2.69,0,0,0-.29-.16l-.16-.1h0l-.31-.1-.24-.08-.19,0a2.33,2.33,0,0,0-.37,0H128.24a17.76,17.76,0,0,0-15.63,9.3l-5.15,9.49a2.82,2.82,0,0,0,1.14,3.82,2.71,2.71,0,0,0,1.34.35,2.82,2.82,0,0,0,2.48-1.48l5.15-9.49a12.11,12.11,0,0,1,10.67-6.35h94.28L176.29,112.07a2.82,2.82,0,1,0,5.14,2.33l48-105.81a0,0,0,0,0,0,0,2.44,2.44,0,0,0,.11-.32C229.61,8.16,229.64,8.09,229.66,8Z"/><path fill="#204a75" d="M180.6,102.58l-4.31,9.49a2.82,2.82,0,1,0,5.14,2.33l4.32-9.5A10.92,10.92,0,0,0,180.6,102.58Z"/><path fill="#4693e3" d="M178.86,219.84A2.83,2.83,0,0,1,176,217V114.78a2.83,2.83,0,0,1,5.65,0V217A2.83,2.83,0,0,1,178.86,219.84Z"/><path fill="#204a75" d="M178.86,112a2.83,2.83,0,0,0-2.82,2.82v9a10.69,10.69,0,0,0,5.65,0v-9A2.83,2.83,0,0,0,178.86,112Z"/><path fill="#204a75" d="M111.41,16.11l-4,7.28a2.82,2.82,0,0,0,1.14,3.82,2.71,2.71,0,0,0,1.34.35,2.82,2.82,0,0,0,2.48-1.48L117.34,17A29.68,29.68,0,0,0,111.41,16.11Z"/><path fill="#204a75" d="M229.67,6.9a1.25,1.25,0,0,0-.07-.26,2,2,0,0,0-.08-.26,1.92,1.92,0,0,0-.12-.25c0-.08-.08-.16-.13-.24l-.16-.21a1.81,1.81,0,0,0-.18-.21,1.12,1.12,0,0,0-.2-.18l-.21-.18a2.69,2.69,0,0,0-.29-.16l-.16-.1h0l-.31-.1-.24-.08-.19,0a2.33,2.33,0,0,0-.37,0h-11a11.22,11.22,0,0,0,0,5.64h6.62l-2.74,6a11.19,11.19,0,0,0,5.14,2.33l4.55-10a0,0,0,0,0,0,0,2.44,2.44,0,0,0,.11-.32c0-.08,0-.15.07-.22l0-.24c0-.11,0-.22,0-.33v0c0-.07,0-.13,0-.19S229.69,7,229.67,6.9Z"/><circle cx="226.9" cy="7.42" r="7.42" fill="#4693e3"/><circle cx="226.9" cy="7.42" r="3.54" fill="#fff"/><circle cx="178.86" cy="113.27" r="7.42" fill="#4693e3"/><circle cx="178.86" cy="113.27" r="3.54" fill="#fff"/><path fill="#4693e3" d="M137.67,63H82.22a7.74,7.74,0,0,1-7.7-6.91L72.43,36.81a1.88,1.88,0,1,1,3.74-.41l2.09,19.29a4,4,0,0,0,4,3.56h55.45a4,4,0,0,0,4-3.56l2.1-19.29a1.88,1.88,0,1,1,3.74.41l-2.1,19.29A7.72,7.72,0,0,1,137.67,63Z"/><path fill="#204a75" d="M136,59.25H83.91A29.27,29.27,0,0,0,86.27,63h47.34A30.49,30.49,0,0,0,136,59.25Z"/><circle cx="109.94" cy="45.51" r="26.73" fill="#4693e3"/><circle cx="109.94" cy="45.51" r="21.57" fill="#fff"/><circle cx="109.94" cy="45.51" r="19.63" fill="#ffc259"/><circle cx="235.3" cy="67.28" r="8.15" fill="#2d423e"/><path fill="#0a0f0e" d="M228.49,65.5a9.08,9.08,0,0,0-1.17.08,8.68,8.68,0,0,0-.18,1.7,8.16,8.16,0,0,0,11.25,7.54A9.92,9.92,0,0,0,228.49,65.5Z"/><path fill="#2d423e" d="M233.23,69.52a11.9,11.9,0,0,0-11.83-1.61A12.77,12.77,0,1,0,225,87.31l7.07,6.22,3.6-4.83S239.6,74.36,233.23,69.52Z"/><polygon fill="#5e8a81" points="221.77 110.52 242.32 107.02 244.73 212.71 218.64 212.71 221.77 110.52"/><polygon fill="#2d423e" points="221.77 110.52 229.24 212.71 218.64 212.71 221.77 110.52"/><path fill="#6d757d" d="M145.9,157.75c-2.92-2.66,1.72-18.66,1.72-18.66L161.87,152S151.52,162.86,145.9,157.75Z"/><path fill="#ff9c9c" d="M157,136.3l-16.34-10-2.85-8.55a4.39,4.39,0,0,0-2.06-2.46l-4.83-2.67a3.55,3.55,0,0,0-4.45.85l-2.89,3.49a1.08,1.08,0,0,0,.31,1.63l1.18.64-1.54,2.58a3.18,3.18,0,0,0,.87,4.2l2.92,1.75.88-.77s3.09,3.41,6.6,2.94l18,25.85S159.52,141.9,157,136.3Z"/><path fill="#ff9c9c" d="M138.31,119.26l-.51-1.55a4.39,4.39,0,0,0-2.06-2.46l-4.83-2.67a3.55,3.55,0,0,0-4.45.85l-2.89,3.49a1.08,1.08,0,0,0,.31,1.63l1.18.64-1.54,2.58a3.18,3.18,0,0,0,.87,4.2l2.92,1.75.88-.77a8.94,8.94,0,0,0,2.54,2.11,3.66,3.66,0,0,0,5.1-2l.49-1.37Z"/><path fill="#f66" d="M132,122.47l-.41.48-3.86-5.19,0,0,1.1-.81a.38.38,0,0,0,.08-.52.37.37,0,0,0-.52-.08l-3.46,2.57a.53.53,0,0,0-.1.12l.32.18-.2.33,4.83,5.63-.86,1-4.83-5a.47.47,0,0,0-.09-.06l-.38.64,4.82,5-.16.2h0a6.78,6.78,0,0,0,.5.55l3.82-4.56a.38.38,0,0,0,0-.52A.37.37,0,0,0,132,122.47Zm-1.78,2.11-4.57-5.33,1.47-1.09a.08.08,0,0,0,0,0l4,5.34Z"/><path fill="#204a75" d="M126.12,112.64a.3.3,0,0,1-.24-.12l-4.24-5.46-2.35-.07a.32.32,0,0,1-.3-.32.3.3,0,0,1,.32-.29l2.49.08a.32.32,0,0,1,.24.11l4.32,5.58a.31.31,0,0,1-.06.43A.3.3,0,0,1,126.12,112.64Z"/><ellipse cx="119.3" cy="106.68" fill="#fff" rx="1.86" ry="3" transform="translate(-34.29 61.71) rotate(-25.48)"/><rect width="1.95" height="18.14" x="129.05" y="108.29" fill="#547aa1" transform="translate(-44.64 104.29) rotate(-37.79)"/><path fill="#f66" d="M157,136.3l-1.24-.76c-.81,3.19-3.08,10.29-7.78,13.25l4.85,7S159.52,141.9,157,136.3Z"/><path fill="#ff9c9c" d="M135.74,115.25l-.84-.47h0l-8.23.87a1.15,1.15,0,0,0-1,1.15h0A1.15,1.15,0,0,0,126.7,118l5.2.41s-1.06,4.54,2.52,7.37a4.8,4.8,0,0,0,3.73.93l2.5-.4-2.85-8.55A4.39,4.39,0,0,0,135.74,115.25Z"/><polygon fill="#ff9c9c" points="233.79 85.69 239.65 105.87 242.32 107.02 229.86 126.72 221.77 110.52 224.71 109.15 222.01 99.26 233.79 85.69"/><path fill="#fff" d="M221.77,110.52,224.26,213l-29.53-.25,11.84-43.5s-4.7-7.14-6.39-13.34L185,174.27a12.46,12.46,0,0,1-17.65,1.6L145.9,157.75s5,1.65,11.09-21.45l17.65,10.51,18-20.69A38,38,0,0,1,208,115.57Z"/><path fill="#c9d8e6" d="M200.18,155.87c-2.6-6.79,1.36-19.64,1.36-19.64l-17.34,39Z"/><line x1="174.64" x2="183.2" y1="146.81" y2="152.01" fill="none" stroke="#6d757d" stroke-linecap="round" stroke-linejoin="round" stroke-width=".74"/><path fill="#fff" d="M242.32,107l-3.75,105.69H278l-11.84-56,9.35-35.18h0a26.88,26.88,0,0,0-13.15-8.68Z"/><path fill="#c9d8e6" d="M242.32,107l-1.83,51.71,11.29-20.44a7,7,0,0,0-.9-8.07l-3.11-3.5,2.64-4.62a6.39,6.39,0,0,0-.93-7.58Z"/><polygon fill="#c9d8e6" points="239.56 184.76 261.3 212.71 277.96 212.71 270.24 176.21 243.92 177.13 239.56 184.76"/><rect width="28.01" height="35.74" x="228.21" y="148.27" fill="#ebcd86" transform="translate(98.79 -90.18) rotate(26.33)"/><path fill="#6e2222" d="M253.3,150.31c.26-.92-.52-2.12-1.88-2.79s-2.78-.56-3.35.2l-1.7-.84-1.26,2.53,8.64,4.27,1.25-2.53Z"/><polygon fill="#a68c4c" points="225.75 167.83 238.57 184.27 246.84 188.36 255 171.87 230.06 159.12 225.75 167.83"/><path fill="#ff9c9c" d="M257.49,169.32l-14.79-5-5.57-10.1a1.22,1.22,0,0,0-1.51-.55h0a1.21,1.21,0,0,0-.68,1.6l2.5,6-5.35-2.74a2.77,2.77,0,0,0-3.8,1.32L226,165a2.77,2.77,0,0,0,.9,3.39l3.19,2.31a5.47,5.47,0,0,0,2.92,1l4.74.25a7.27,7.27,0,0,1,4.07,1.52L255.18,184Z"/><path fill="#f66" d="M232.15,167.6l-5.85-3.29L226,165h0l5.79,3.26a.31.31,0,0,0,.18,0,.39.39,0,0,0,.33-.19A.37.37,0,0,0,232.15,167.6Z"/><path fill="#f66" d="M233.45,165.92a.37.37,0,0,0,.32-.19.36.36,0,0,0-.14-.5l-6.18-3.48-.3.68,6.12,3.44A.41.41,0,0,0,233.45,165.92Z"/><path fill="#f66" d="M228.31,159.87l6.44,3.63a.41.41,0,0,0,.18.05.39.39,0,0,0,.33-.19.37.37,0,0,0-.14-.5l-6.4-3.61A2.9,2.9,0,0,0,228.31,159.87Z"/><polygon fill="#f66" points="254.94 168.47 248.42 178.67 255.18 183.96 257.49 169.32 254.94 168.47"/><path fill="#c9d8e6" d="M221.77,110.52l-6.53,5.76a6.4,6.4,0,0,0-1.76,7l1.77,4.76-2.41,2.85a7,7,0,0,0-.83,7.87L223,159.12Z"/><path fill="#fff" d="M270.32,123a2.89,2.89,0,0,1,5.54-.75L298,175.6A20.41,20.41,0,0,1,296.75,195h0a15.87,15.87,0,0,1-18.92,6.5l-28.5-10.4,8.16-21.79,12.07,3.7-3.44-16.26Z"/><path fill="#c9d8e6" d="M266.12,156.76l1.26-4.75,10.43,18a3.08,3.08,0,0,1-3.57,4.48L269.56,173Z"/><line x1="257.49" x2="287.72" y1="169.32" y2="178.67" fill="none" stroke="#6d757d" stroke-linecap="round" stroke-linejoin="round" stroke-width=".74"/><path fill="#f66" d="M233.32,91.16s1.5,13.16-9.64,14.22l-1.11-4.06Z"/><line x1="273.44" x2="266.12" y1="129.21" y2="156.76" fill="none" stroke="#6d757d" stroke-linecap="round" stroke-linejoin="round" stroke-width=".74"/><path fill="#ff9c9c" d="M222.38,77.93a13.2,13.2,0,0,0,11.41,7.76s.59,15.64-10.28,16.92C211.61,104,213,90.22,213,90.22L211.89,88a7.82,7.82,0,0,1,1.18-8.74c.76-.84,1.66-1.75,2.71-2.71A4.22,4.22,0,0,1,222.38,77.93Z"/><ellipse cx="234.85" cy="86.63" fill="#ff9c9c" rx="4.47" ry="3.04" transform="translate(88.95 290.03) rotate(-74.6)"/><path fill="none" stroke="#f66" stroke-miterlimit="10" stroke-width=".47" d="M233.27,88.22a3.14,3.14,0,0,1-.08-2c.37-1.35,1.42-2.24,2.34-2a1.42,1.42,0,0,1,.88.82"/><polyline fill="none" stroke="#f66" stroke-linecap="round" stroke-linejoin="round" stroke-width=".94" points="216.72 85.69 217.53 88.54 217.53 91.16 219.89 90.97"/><path fill="none" stroke="#f66" stroke-linecap="round" stroke-linejoin="round" stroke-width=".94" d="M218.31,93.83a7.52,7.52,0,0,0,6.07-3.18"/><ellipse cx="221.85" cy="85.69" fill="#0a0f0e" rx=".9" ry="1.2" transform="translate(-15.76 75.63) rotate(-18.69)"/><ellipse cx="214.34" cy="88.23" fill="#0a0f0e" rx=".9" ry="1.2" transform="translate(-16.97 73.35) rotate(-18.69)"/><path fill="none" stroke="#2d423e" stroke-miterlimit="10" stroke-width=".94" d="M212.29,85.69a4.44,4.44,0,0,1,3.23-1.23"/><path fill="none" stroke="#2d423e" stroke-miterlimit="10" stroke-width=".94" d="M219.35,83a4.43,4.43,0,0,1,3.22-1.23"/><circle cx="234.42" cy="90.84" r="1.73" fill="#fff"/><line x1="235.06" x2="233.96" y1="86.54" y2="84.76" fill="none" stroke="#f66" stroke-miterlimit="10" stroke-width=".47"/><path fill="none" stroke="#000" stroke-linecap="round" stroke-linejoin="round" stroke-width=".74" d="M278,212.71l3.05,9.48a26.85,26.85,0,0,1-25.57,35.06H173.25l25.43-52.73Z"/><polygon fill="#ff9c9c" points="103.65 128.06 115.33 141.44 94.47 151.25 84.79 134.06 87.39 127.54 103.65 128.06"/><path fill="#f66" d="M89.61,131.19s7.38,5.92,18.59,2.08l-4.55-5.21Z"/><path fill="#ff9c9c" d="M102.51,105.09s2.38.4,4.93,1a1.09,1.09,0,0,1,.75,1.51L106.67,111c5.22,7.45,6.35,25.12-19.61,19.72l-3.91-30,16.74-8.13Z"/><path fill="#8c2c2c" d="M92.81,98.9s1.57,5.23-3.75,10.74c0,0,3.09,11.32-2,15.39,0,0,1.72,6.16-2.24,9L65.5,118a6.32,6.32,0,0,1,2.17-10.93l.2-.06s-1.45-14.22,14-16.64c0,0,7.54-9.49,17.22-1.74,12.1-3.05,15.08,14,3.39,16.44A15.22,15.22,0,0,0,92.81,98.9Z"/><ellipse cx="86.55" cy="120.98" fill="#ff9c9c" rx="4.47" ry="5.65" transform="translate(-58.29 87.1) rotate(-41.26)"/><path fill="none" stroke="#f66" stroke-linecap="round" stroke-linejoin="round" stroke-width=".94" d="M83.68,120.35c-.11-2.31,3.95-3.13,6.15,1.87"/><ellipse cx="98.57" cy="107.9" fill="#142940" rx="1.24" ry="2.34" transform="translate(-35.38 49.46) rotate(-24.02)"/><path fill="none" stroke="#6e2222" stroke-miterlimit="10" stroke-width=".94" d="M94,106.1a4.48,4.48,0,0,1,4.55-2.88"/><path fill="#fff" d="M98.14,114.66l7.47-1.39s2.61,8.52,0,9.27S98.14,114.66,98.14,114.66Z"/><path fill="#ff9c9c" d="M348.31,312.31l4.11,8.51,11.3,4.62L379.9,327a2.52,2.52,0,0,1,2.26,2.21h0a5.71,5.71,0,0,1-2.72,5.62h0a19.39,19.39,0,0,1-7.81,2.65l-10.82,1.23L347,342.13l-3.5-5.3-.5-8.61-6.12-7.84Z"/><path fill="#1e3f61" d="M343,328.22l.5,8.61,3.5,5.3,13.81-3.4,10.82-1.23a19.39,19.39,0,0,0,7.81-2.65,5.74,5.74,0,0,0,2.72-5.69A2.54,2.54,0,0,0,379.9,327l-16.18-1.58-11.3-4.62a18.39,18.39,0,0,0-1.87,4.24,3.68,3.68,0,0,1-3.7,2.63A9.54,9.54,0,0,0,343,328.22Z"/><line x1="345.56" x2="382.17" y1="338.48" y2="330.58" fill="none" stroke="#142940" stroke-linecap="round" stroke-linejoin="round" stroke-width=".74"/><path fill="#785c0f" d="M181.72,192.58l95.9,14.26A24.68,24.68,0,0,1,295,218.39l48.14,79a5.49,5.49,0,0,1,3.78,5.09,8.34,8.34,0,0,1,3.31,5.46l2.15,3.7L335,325.44,271.85,244H156.91Z"/><polygon fill="#4d3b0a" points="156.91 243.97 177.78 243.97 184.31 194.76 160.69 236.13 156.91 243.97"/><path fill="#4d3b0a" d="M335,325.44l17.44-13.83-2.15-3.7a8.34,8.34,0,0,0-3.31-5.46,5.49,5.49,0,0,0-3.78-5.09h0a22.6,22.6,0,0,0-7.82-7.7l-51.66-30.4Z"/><line x1="283.35" x2="275.62" y1="222.6" y2="237.2" fill="none" stroke="#2e2306" stroke-linecap="round" stroke-linejoin="round" stroke-width=".74"/><line x1="274.58" x2="271.85" y1="222.6" y2="236.57" fill="none" stroke="#2e2306" stroke-linecap="round" stroke-linejoin="round" stroke-width=".74"/><line x1="349.17" x2="332.21" y1="308.93" y2="321.87" fill="none" stroke="#2e2306" stroke-linecap="round" stroke-linejoin="round" stroke-width=".74"/><path fill="none" stroke="#2e2306" stroke-linecap="round" stroke-linejoin="round" stroke-width=".74" d="M173.25,217.89l99.91,11.31a8.06,8.06,0,0,1,5.55,3.18l62,83"/><path fill="#fff" d="M101.84,139.34s10.89-2.77,19.51,1.1c12.22,5.5,37.93,39.23,37.93,39.23l17.89,8.89,4.46-.56a3.4,3.4,0,0,1,3.55,4.68l-21,50H135.05l-46.9-85.22Z"/><path fill="#c9d8e6" d="M148.92,185.53l-29.07-26.8L98.4,176.06l36.65,66.59h29.16l17.11-40.78a5,5,0,0,0-3.23-6.76L153.3,188A10.94,10.94,0,0,1,148.92,185.53Z"/><line x1="157.36" x2="134.44" y1="182.19" y2="200.03" fill="none" stroke="#6d757d" stroke-linecap="round" stroke-linejoin="round" stroke-width=".74"/><line x1="155.73" x2="148.76" y1="188.66" y2="206.82" fill="none" stroke="#6d757d" stroke-linecap="round" stroke-linejoin="round" stroke-width=".74"/><path fill="#1e3f61" d="M161,257.25l-28-11.92L104.5,197.07A56.39,56.39,0,0,0,161,290.12Z"/><path fill="#142940" d="M125,272v16.54A56.39,56.39,0,0,0,161,290.12V257.25l-28-11.92L104.5,197.07a57.08,57.08,0,0,0-8.18,11l18.25,33a41.1,41.1,0,0,0,36,21.23h-15.9A9.67,9.67,0,0,0,125,272Z"/><path fill="#1e3f61" d="M81.14,151.25l-5-19.92a20.52,20.52,0,1,0,14.55,38.06Z"/><path fill="#4693e3" d="M339.85,351.23a8.47,8.47,0,0,1-6.74-3.33l-71.68-94a8.47,8.47,0,0,1,13.46-10.27l71.69,94a8.47,8.47,0,0,1-6.73,13.6Z"/><path fill="#204a75" d="M274.89,243.65a8.47,8.47,0,0,0-13.46,10.27l5.52,7.24c.41,0,.82.06,1.24.06a12.22,12.22,0,0,0,12.1-10.49Z"/><path fill="#4693e3" d="M268.16,257.25H154.71a41.84,41.84,0,0,1-36.62-21.6L73.73,155.37a8.47,8.47,0,1,1,14.82-8.19l44.36,80.29a24.91,24.91,0,0,0,21.8,12.85H268.16a8.47,8.47,0,1,1,0,16.93Z"/><path fill="#204a75" d="M88.55,147.18a8.47,8.47,0,1,0-14.82,8.19L78,163.05a12.16,12.16,0,0,0,14.83-8.16Z"/><circle cx="268.19" cy="248.99" r="3.66" fill="#fff"/><circle cx="240.08" cy="248.99" r="5.02" fill="#142940"/><path fill="#4693e3" d="M143.45,220.33h85.29a2,2,0,0,1,2,2v0a4.59,4.59,0,0,1-4.59,4.59H136.84a0,0,0,0,1,0,0v0a6.62,6.62,0,0,1,6.62-6.62Z"/><path fill="#4693e3" d="M140.29,257.25h108a6.74,6.74,0,0,1,6.53,8.4L227.8,372H131.13V266.42A9.17,9.17,0,0,1,140.29,257.25Z"/><path fill="#204a75" d="M140.29,259.74h108a6.74,6.74,0,0,1,6.61,5.47,6.73,6.73,0,0,0-6.61-8h-108a9.17,9.17,0,0,0-9.16,9.17v2.49A9.17,9.17,0,0,1,140.29,259.74Z"/><circle cx="138.64" cy="266.18" r="2.35" fill="none" stroke="#fff" stroke-linecap="round" stroke-linejoin="round" stroke-width=".74"/><circle cx="246.97" cy="266.18" r="2.35" fill="none" stroke="#fff" stroke-linecap="round" stroke-linejoin="round" stroke-width=".74"/><path fill="#204a75" d="M220.52,351.23H153.17a57.7,57.7,0,0,0-22,4.39V372H227.8l5.08-20A96,96,0,0,0,220.52,351.23Z"/><path fill="#4693e3" d="M81.14,159.74a8.46,8.46,0,0,1-8.1-6l-20-66.13A8.47,8.47,0,0,1,69.3,82.7l20,66.13a8.47,8.47,0,0,1-5.66,10.55A8.7,8.7,0,0,1,81.14,159.74Z"/><circle cx="81.14" cy="151.25" r="3.66" fill="#fff"/><path fill="#4693e3" d="M280.15,385.63H110.39a4.06,4.06,0,0,1-3.27-6.46h0a57.82,57.82,0,0,1,46.56-23.54H221a94.85,94.85,0,0,1,61.77,22.87h0A4.06,4.06,0,0,1,280.15,385.63Z"/><path fill="#142940" d="M240.08,251.34a2.35,2.35,0,0,1-1.87-.92L227.13,235.9a10.89,10.89,0,0,0-8.6-4.25h-105a2.35,2.35,0,1,1,0-4.7h105a15.62,15.62,0,0,1,12.34,6.1L242,247.56a2.36,2.36,0,0,1-.44,3.3A2.39,2.39,0,0,1,240.08,251.34Z"/><path fill="#ff9c9c" d="M137.41,223h81.83c3.47,2.86,11.53,3.29,11.53,3.29l1.6,5a.81.81,0,0,0,.81.55h0a.81.81,0,0,0,.75-.86l-.37-5,2.79,6a1.35,1.35,0,0,0,1.23.8h6a1,1,0,0,0,.93-1.38l-3.7-9.24a4.35,4.35,0,0,0-2.63-2.51l-17.47-6.05-78-21.63-17.45-31.16L97.4,175.25l21.8,37.26A21.12,21.12,0,0,0,137.41,223Z"/><path fill="#f66" d="M239.76,232.78l-3.56-9.66a.46.46,0,0,0-.6-.28.47.47,0,0,0-.28.6l3.44,9.34Z"/><path fill="#f66" d="M238.77,223.12a.47.47,0,1,0-.88.32l3.44,9.34h1Z"/><path fill="#1b0740" d="M101.84,192.58s6.16,2.11,14-3.47l-5.73-7.52S102.41,186.45,101.84,192.58Z"/><path fill="#f66" d="M135.05,178.21,132,172.72l-28.39,13.11,5.53,9.45C114,187.79,127.93,187.38,135.05,178.21Z"/><line x1="143.29" x2="147.91" y1="192.97" y2="201.59" fill="none" stroke="#f66" stroke-linecap="round" stroke-linejoin="round" stroke-width=".94"/><path fill="#fff" d="M101.84,192.58c5.45-9,21.45-6.61,32.6-15.46l-14.59-28.74a17,17,0,0,0-22.55-7.57h0a16.47,16.47,0,0,0-7.62,21.95c1.82,3.79,3.8,7.81,5.68,11.4A65.31,65.31,0,0,1,101.84,192.58Z"/><line x1="119.85" x2="131.98" y1="148.38" y2="172.72" fill="none" stroke="#6d757d" stroke-linecap="round" stroke-linejoin="round" stroke-width=".74"/><circle cx="26.89" cy="124.64" r="26.76" fill="#c9d8e6"/><polygon fill="#c9d8e6" points="45.87 114.25 72.96 114.83 48.12 127.7 45.87 114.25"/><path fill="#ba3b3b" d="M35.64,112.72c-5.68-1.2-8.75,3.64-8.75,3.64s-3.07-4.84-8.74-3.64c-7.68,1.63-7.09,11.87-2.5,16,7.8,7.09,11.24,9.87,11.24,9.87s3.45-2.78,11.24-9.87C42.73,124.59,43.32,114.35,35.64,112.72Z"/><rect width="366.3" height="2.54" x="19.2" y="385.63" fill="#142940"/></g></svg>